<svg xmlns="http://www.w3.org/2000/svg" xmlns:xlink="http://www.w3.org/1999/xlink" width="194" zoomAndPan="magnify" viewBox="0 0 145.5 119.249998" height="159" preserveAspectRatio="xMidYMid meet" version="1.0"><defs><g/><clipPath id="1fc7117b9a"><path d="M 0.207031 7.628906 L 144.386719 7.628906 L 144.386719 109.589844 L 0.207031 109.589844 Z M 0.207031 7.628906 " clip-rule="nonzero"/></clipPath><clipPath id="2a6d5822df"><path d="M 12.875 7.628906 L 131.667969 7.628906 C 138.667969 7.628906 144.339844 13.300781 144.339844 20.296875 L 144.339844 96.917969 C 144.339844 103.914062 138.667969 109.589844 131.667969 109.589844 L 12.875 109.589844 C 5.878906 109.589844 0.207031 103.914062 0.207031 96.917969 L 0.207031 20.296875 C 0.207031 13.300781 5.878906 7.628906 12.875 7.628906 Z M 12.875 7.628906 " clip-rule="nonzero"/></clipPath><clipPath id="0dfc37bc9b"><path d="M 0.207031 7.628906 L 144.050781 7.628906 L 144.050781 109.734375 L 0.207031 109.734375 Z M 0.207031 7.628906 " clip-rule="nonzero"/></clipPath><clipPath id="2b0721220c"><path d="M 12.875 7.628906 L 131.660156 7.628906 C 138.660156 7.628906 144.332031 13.300781 144.332031 20.296875 L 144.332031 96.914062 C 144.332031 103.910156 138.660156 109.582031 131.660156 109.582031 L 12.875 109.582031 C 5.878906 109.582031 0.207031 103.910156 0.207031 96.914062 L 0.207031 20.296875 C 0.207031 13.300781 5.878906 7.628906 12.875 7.628906 Z M 12.875 7.628906 " clip-rule="nonzero"/></clipPath></defs><g clip-path="url(#1fc7117b9a)"><g clip-path="url(#2a6d5822df)"><path fill="#f8f4f1" d="M 0.207031 7.628906 L 144.386719 7.628906 L 144.386719 109.589844 L 0.207031 109.589844 Z M 0.207031 7.628906 " fill-opacity="1" fill-rule="nonzero"/></g></g><g clip-path="url(#0dfc37bc9b)"><g clip-path="url(#2b0721220c)"><path stroke-linecap="butt" transform="matrix(0.745313, 0, 0, 0.745313, 0.206251, 7.628787)" fill="none" stroke-linejoin="miter" d="M 16.997902 0.000160356 L 176.374211 0.000160356 C 185.766245 0.000160356 193.376308 7.610223 193.376308 16.997016 L 193.376308 119.795758 C 193.376308 129.18255 185.766245 136.792613 176.374211 136.792613 L 16.997902 136.792613 C 7.611109 136.792613 0.00104626 129.18255 0.00104626 119.795758 L 0.00104626 16.997016 C 0.00104626 7.610223 7.611109 0.000160356 16.997902 0.000160356 Z M 16.997902 0.000160356 " stroke="#000000" stroke-width="2" stroke-opacity="1" stroke-miterlimit="4"/></g></g><g fill="#000000" fill-opacity="1"><g transform="translate(10.920547, 25.49129)"><g><path d="M 3.328125 0 L 1.09375 0 L 1.09375 -10.703125 L 3.328125 -10.703125 Z M 3.328125 0 "/></g></g><g transform="translate(15.338561, 25.49129)"><g><path d="M 8.1875 0 L 6.09375 0 L 6.09375 -4.921875 C 6.09375 -5.390625 5.988281 -5.75 5.78125 -6 C 5.570312 -6.257812 5.226562 -6.390625 4.75 -6.390625 C 4.25 -6.390625 3.847656 -6.222656 3.546875 -5.890625 C 3.253906 -5.566406 3.109375 -5.117188 3.109375 -4.546875 L 3.109375 0 L 1.015625 0 L 1.015625 -7.9375 L 3.015625 -7.9375 L 3.015625 -6.765625 L 3.046875 -6.765625 C 3.546875 -7.679688 4.335938 -8.140625 5.421875 -8.140625 C 6.222656 -8.140625 6.882812 -7.90625 7.40625 -7.4375 C 7.925781 -6.976562 8.1875 -6.328125 8.1875 -5.484375 Z M 8.1875 0 "/></g></g><g transform="translate(24.436614, 25.49129)"><g><path d="M 3.34375 -7.9375 L 4.640625 -7.9375 L 4.640625 -6.4375 L 3.34375 -6.4375 L 3.34375 -2 C 3.34375 -1.789062 3.398438 -1.648438 3.515625 -1.578125 C 3.628906 -1.515625 3.804688 -1.484375 4.046875 -1.484375 C 4.285156 -1.484375 4.484375 -1.492188 4.640625 -1.515625 L 4.640625 0.03125 C 4.335938 0.0820312 3.960938 0.109375 3.515625 0.109375 C 2.691406 0.109375 2.109375 -0.015625 1.765625 -0.265625 C 1.429688 -0.515625 1.265625 -0.96875 1.265625 -1.625 L 1.265625 -6.4375 L 0.1875 -6.4375 L 0.1875 -7.9375 L 1.265625 -7.9375 L 1.265625 -10.078125 L 3.34375 -10.078125 Z M 3.34375 -7.9375 "/></g></g><g transform="translate(29.444182, 25.49129)"><g><path d="M 5.96875 -4.75 C 5.914062 -5.257812 5.742188 -5.664062 5.453125 -5.96875 C 5.171875 -6.269531 4.804688 -6.421875 4.359375 -6.421875 C 3.367188 -6.421875 2.800781 -5.863281 2.65625 -4.75 Z M 8.015625 -2.328125 C 7.773438 -1.503906 7.34375 -0.875 6.71875 -0.4375 C 6.09375 0 5.363281 0.21875 4.53125 0.21875 C 3.226562 0.21875 2.234375 -0.140625 1.546875 -0.859375 C 0.859375 -1.585938 0.515625 -2.585938 0.515625 -3.859375 C 0.515625 -5.140625 0.835938 -6.171875 1.484375 -6.953125 C 2.128906 -7.742188 3.09375 -8.140625 4.375 -8.140625 C 5.53125 -8.140625 6.441406 -7.769531 7.109375 -7.03125 C 7.773438 -6.300781 8.109375 -5.210938 8.109375 -3.765625 L 8.109375 -3.40625 L 2.59375 -3.40625 C 2.644531 -2.757812 2.832031 -2.273438 3.15625 -1.953125 C 3.488281 -1.628906 3.941406 -1.46875 4.515625 -1.46875 C 4.847656 -1.46875 5.140625 -1.546875 5.390625 -1.703125 C 5.640625 -1.859375 5.800781 -2.066406 5.875 -2.328125 Z M 8.015625 -2.328125 "/></g></g><g transform="translate(37.989074, 25.49129)"><g><path d="M 2.6875 -3.921875 C 2.6875 -3.253906 2.832031 -2.71875 3.125 -2.3125 C 3.414062 -1.914062 3.820312 -1.71875 4.34375 -1.71875 C 4.914062 -1.71875 5.351562 -1.910156 5.65625 -2.296875 C 5.96875 -2.691406 6.125 -3.265625 6.125 -4.015625 C 6.125 -4.703125 5.957031 -5.257812 5.625 -5.6875 C 5.300781 -6.113281 4.867188 -6.328125 4.328125 -6.328125 C 3.847656 -6.328125 3.453125 -6.125 3.140625 -5.71875 C 2.835938 -5.320312 2.6875 -4.722656 2.6875 -3.921875 Z M 8.203125 -7.9375 L 8.203125 -0.203125 C 8.203125 0.992188 7.867188 1.863281 7.203125 2.40625 C 6.546875 2.957031 5.539062 3.234375 4.1875 3.234375 C 3.207031 3.234375 2.394531 3.019531 1.75 2.59375 C 1.101562 2.175781 0.757812 1.597656 0.71875 0.859375 L 2.984375 0.859375 C 3.046875 1.390625 3.539062 1.65625 4.46875 1.65625 C 5.5625 1.65625 6.109375 1.082031 6.109375 -0.0625 L 6.109375 -1.125 L 6.078125 -1.15625 C 5.671875 -0.351562 4.960938 0.046875 3.953125 0.046875 C 2.921875 0.046875 2.09375 -0.3125 1.46875 -1.03125 C 0.851562 -1.75 0.546875 -2.753906 0.546875 -4.046875 C 0.546875 -5.328125 0.851562 -6.328125 1.46875 -7.046875 C 2.09375 -7.773438 2.882812 -8.140625 3.84375 -8.140625 C 4.9375 -8.140625 5.710938 -7.675781 6.171875 -6.75 L 6.1875 -6.75 L 6.1875 -7.9375 Z M 8.203125 -7.9375 "/></g></g><g transform="translate(47.16719, 25.49129)"><g><path d="M 1.015625 -7.9375 L 3.015625 -7.9375 L 3.015625 -6.5625 L 3.046875 -6.5625 C 3.285156 -7.082031 3.578125 -7.472656 3.921875 -7.734375 C 4.273438 -8.003906 4.707031 -8.140625 5.21875 -8.140625 C 5.363281 -8.140625 5.5 -8.128906 5.625 -8.109375 L 5.625 -5.984375 C 5.53125 -6.003906 5.332031 -6.015625 5.03125 -6.015625 C 4.375 -6.015625 3.890625 -5.859375 3.578125 -5.546875 C 3.265625 -5.234375 3.109375 -4.757812 3.109375 -4.125 L 3.109375 0 L 1.015625 0 Z M 1.015625 -7.9375 "/></g></g><g transform="translate(53.048171, 25.49129)"><g><path d="M 5.5625 -3.84375 C 5.3125 -3.664062 4.8125 -3.519531 4.0625 -3.40625 C 3.445312 -3.320312 3.039062 -3.179688 2.84375 -2.984375 C 2.65625 -2.796875 2.5625 -2.546875 2.5625 -2.234375 C 2.5625 -1.921875 2.660156 -1.679688 2.859375 -1.515625 C 3.066406 -1.359375 3.3125 -1.28125 3.59375 -1.28125 C 4.125 -1.28125 4.582031 -1.425781 4.96875 -1.71875 C 5.363281 -2.019531 5.5625 -2.394531 5.5625 -2.84375 Z M 7.609375 -1.546875 C 7.609375 -1.179688 7.640625 -0.894531 7.703125 -0.6875 C 7.773438 -0.488281 7.894531 -0.363281 8.0625 -0.3125 L 8.0625 0 L 5.828125 0 C 5.734375 -0.269531 5.664062 -0.582031 5.625 -0.9375 C 4.945312 -0.164062 4.066406 0.21875 2.984375 0.21875 C 2.222656 0.21875 1.613281 0.0078125 1.15625 -0.40625 C 0.695312 -0.832031 0.46875 -1.398438 0.46875 -2.109375 C 0.46875 -2.785156 0.664062 -3.34375 1.0625 -3.78125 C 1.46875 -4.226562 2.070312 -4.507812 2.875 -4.625 L 4.8125 -4.90625 C 5.082031 -4.945312 5.273438 -5.019531 5.390625 -5.125 C 5.503906 -5.238281 5.5625 -5.378906 5.5625 -5.546875 C 5.5625 -5.847656 5.445312 -6.078125 5.21875 -6.234375 C 5 -6.398438 4.660156 -6.484375 4.203125 -6.484375 C 3.722656 -6.484375 3.375 -6.394531 3.15625 -6.21875 C 2.9375 -6.039062 2.800781 -5.753906 2.75 -5.359375 L 0.734375 -5.359375 C 0.828125 -6.328125 1.148438 -7.03125 1.703125 -7.46875 C 2.265625 -7.914062 3.15625 -8.140625 4.375 -8.140625 C 5.351562 -8.140625 6.132812 -7.941406 6.71875 -7.546875 C 7.3125 -7.148438 7.609375 -6.582031 7.609375 -5.84375 Z M 7.609375 -1.546875 "/></g></g><g transform="translate(61.563949, 25.49129)"><g><path d="M 8.1875 0 L 6.09375 0 L 6.09375 -4.921875 C 6.09375 -5.390625 5.988281 -5.75 5.78125 -6 C 5.570312 -6.257812 5.226562 -6.390625 4.75 -6.390625 C 4.25 -6.390625 3.847656 -6.222656 3.546875 -5.890625 C 3.253906 -5.566406 3.109375 -5.117188 3.109375 -4.546875 L 3.109375 0 L 1.015625 0 L 1.015625 -7.9375 L 3.015625 -7.9375 L 3.015625 -6.765625 L 3.046875 -6.765625 C 3.546875 -7.679688 4.335938 -8.140625 5.421875 -8.140625 C 6.222656 -8.140625 6.882812 -7.90625 7.40625 -7.4375 C 7.925781 -6.976562 8.1875 -6.328125 8.1875 -5.484375 Z M 8.1875 0 "/></g></g><g transform="translate(70.662002, 25.49129)"><g><path d="M 3.34375 -7.9375 L 4.640625 -7.9375 L 4.640625 -6.4375 L 3.34375 -6.4375 L 3.34375 -2 C 3.34375 -1.789062 3.398438 -1.648438 3.515625 -1.578125 C 3.628906 -1.515625 3.804688 -1.484375 4.046875 -1.484375 C 4.285156 -1.484375 4.484375 -1.492188 4.640625 -1.515625 L 4.640625 0.03125 C 4.335938 0.0820312 3.960938 0.109375 3.515625 0.109375 C 2.691406 0.109375 2.109375 -0.015625 1.765625 -0.265625 C 1.429688 -0.515625 1.265625 -0.96875 1.265625 -1.625 L 1.265625 -6.4375 L 0.1875 -6.4375 L 0.1875 -7.9375 L 1.265625 -7.9375 L 1.265625 -10.078125 L 3.34375 -10.078125 Z M 3.34375 -7.9375 "/></g></g><g transform="translate(75.66957, 25.49129)"><g><path d="M 5.96875 -4.75 C 5.914062 -5.257812 5.742188 -5.664062 5.453125 -5.96875 C 5.171875 -6.269531 4.804688 -6.421875 4.359375 -6.421875 C 3.367188 -6.421875 2.800781 -5.863281 2.65625 -4.75 Z M 8.015625 -2.328125 C 7.773438 -1.503906 7.34375 -0.875 6.71875 -0.4375 C 6.09375 0 5.363281 0.21875 4.53125 0.21875 C 3.226562 0.21875 2.234375 -0.140625 1.546875 -0.859375 C 0.859375 -1.585938 0.515625 -2.585938 0.515625 -3.859375 C 0.515625 -5.140625 0.835938 -6.171875 1.484375 -6.953125 C 2.128906 -7.742188 3.09375 -8.140625 4.375 -8.140625 C 5.53125 -8.140625 6.441406 -7.769531 7.109375 -7.03125 C 7.773438 -6.300781 8.109375 -5.210938 8.109375 -3.765625 L 8.109375 -3.40625 L 2.59375 -3.40625 C 2.644531 -2.757812 2.832031 -2.273438 3.15625 -1.953125 C 3.488281 -1.628906 3.941406 -1.46875 4.515625 -1.46875 C 4.847656 -1.46875 5.140625 -1.546875 5.390625 -1.703125 C 5.640625 -1.859375 5.800781 -2.066406 5.875 -2.328125 Z M 8.015625 -2.328125 "/></g></g><g transform="translate(84.214462, 25.49129)"><g><path d="M 5.453125 -5.5 C 5.410156 -5.84375 5.28125 -6.109375 5.0625 -6.296875 C 4.851562 -6.492188 4.515625 -6.59375 4.046875 -6.59375 C 3.617188 -6.59375 3.300781 -6.519531 3.09375 -6.375 C 2.894531 -6.238281 2.796875 -6.0625 2.796875 -5.84375 C 2.796875 -5.632812 2.878906 -5.472656 3.046875 -5.359375 C 3.222656 -5.242188 3.890625 -5.050781 5.046875 -4.78125 C 6.222656 -4.5 6.96875 -4.175781 7.28125 -3.8125 C 7.601562 -3.445312 7.765625 -2.992188 7.765625 -2.453125 C 7.765625 -1.566406 7.457031 -0.890625 6.84375 -0.421875 C 6.226562 0.0351562 5.304688 0.265625 4.078125 0.265625 C 2.992188 0.265625 2.144531 0.046875 1.53125 -0.390625 C 0.914062 -0.835938 0.5625 -1.539062 0.46875 -2.5 L 2.609375 -2.5 C 2.609375 -2.09375 2.738281 -1.785156 3 -1.578125 C 3.269531 -1.378906 3.675781 -1.28125 4.21875 -1.28125 C 4.664062 -1.28125 5.007812 -1.347656 5.25 -1.484375 C 5.5 -1.628906 5.625 -1.8125 5.625 -2.03125 C 5.625 -2.269531 5.535156 -2.453125 5.359375 -2.578125 C 5.179688 -2.703125 4.582031 -2.875 3.5625 -3.09375 C 2.414062 -3.34375 1.65625 -3.660156 1.28125 -4.046875 C 0.914062 -4.441406 0.734375 -4.910156 0.734375 -5.453125 C 0.734375 -6.242188 1.015625 -6.890625 1.578125 -7.390625 C 2.140625 -7.890625 2.972656 -8.140625 4.078125 -8.140625 C 5.148438 -8.140625 5.972656 -7.914062 6.546875 -7.46875 C 7.117188 -7.019531 7.4375 -6.363281 7.5 -5.5 Z M 5.453125 -5.5 "/></g></g></g><g fill="#000000" fill-opacity="1"><g transform="translate(10.920547, 45.806338)"><g><path d="M 6.984375 -9.015625 L 8.171875 -9.015625 L 8.171875 0 L 6.8125 0 L 2.203125 -7.28125 L 2.1875 -7.28125 L 2.1875 0 L 1.015625 0 L 1.015625 -9.015625 L 2.453125 -9.015625 L 6.96875 -1.734375 L 6.984375 -1.734375 Z M 6.984375 -9.015625 "/></g></g><g transform="translate(20.104524, 45.806338)"><g><path d="M 0.828125 -7.765625 L 0.828125 -9.015625 L 1.9375 -9.015625 L 1.9375 -7.765625 Z M 1.9375 0 L 0.828125 0 L 0.828125 -6.5625 L 1.9375 -6.5625 Z M 1.9375 0 "/></g></g><g transform="translate(22.871374, 45.806338)"><g><path d="M 4.96875 -4.359375 C 4.8125 -5.296875 4.296875 -5.765625 3.421875 -5.765625 C 2.867188 -5.765625 2.425781 -5.546875 2.09375 -5.109375 C 1.769531 -4.671875 1.609375 -4.066406 1.609375 -3.296875 C 1.609375 -2.453125 1.757812 -1.816406 2.0625 -1.390625 C 2.375 -0.972656 2.820312 -0.765625 3.40625 -0.765625 C 3.800781 -0.765625 4.140625 -0.90625 4.421875 -1.1875 C 4.710938 -1.476562 4.894531 -1.859375 4.96875 -2.328125 L 6.046875 -2.328125 C 5.929688 -1.515625 5.640625 -0.890625 5.171875 -0.453125 C 4.710938 -0.0234375 4.113281 0.1875 3.375 0.1875 C 2.507812 0.1875 1.800781 -0.101562 1.25 -0.6875 C 0.695312 -1.28125 0.421875 -2.085938 0.421875 -3.109375 C 0.421875 -4.210938 0.695312 -5.097656 1.25 -5.765625 C 1.800781 -6.429688 2.578125 -6.765625 3.578125 -6.765625 C 4.304688 -6.765625 4.882812 -6.546875 5.3125 -6.109375 C 5.75 -5.671875 5.992188 -5.085938 6.046875 -4.359375 Z M 4.96875 -4.359375 "/></g></g><g transform="translate(29.313041, 45.806338)"><g><path d="M 1.59375 -3.296875 C 1.59375 -2.566406 1.757812 -1.960938 2.09375 -1.484375 C 2.425781 -1.015625 2.894531 -0.78125 3.5 -0.78125 C 4.132812 -0.78125 4.613281 -1.023438 4.9375 -1.515625 C 5.257812 -2.015625 5.421875 -2.609375 5.421875 -3.296875 C 5.421875 -3.992188 5.257812 -4.582031 4.9375 -5.0625 C 4.613281 -5.550781 4.132812 -5.796875 3.5 -5.796875 C 2.914062 -5.796875 2.453125 -5.566406 2.109375 -5.109375 C 1.765625 -4.648438 1.59375 -4.046875 1.59375 -3.296875 Z M 0.46875 -3.296875 C 0.46875 -4.273438 0.738281 -5.097656 1.28125 -5.765625 C 1.820312 -6.429688 2.5625 -6.765625 3.5 -6.765625 C 4.457031 -6.765625 5.207031 -6.425781 5.75 -5.75 C 6.289062 -5.070312 6.5625 -4.253906 6.5625 -3.296875 C 6.5625 -2.328125 6.289062 -1.503906 5.75 -0.828125 C 5.21875 -0.148438 4.46875 0.1875 3.5 0.1875 C 2.570312 0.1875 1.832031 -0.140625 1.28125 -0.796875 C 0.738281 -1.453125 0.46875 -2.285156 0.46875 -3.296875 Z M 0.46875 -3.296875 "/></g></g><g transform="translate(36.337527, 45.806338)"><g><path d="M 1.9375 0 L 0.828125 0 L 0.828125 -9.015625 L 1.9375 -9.015625 Z M 1.9375 0 "/></g></g><g transform="translate(39.104376, 45.806338)"><g><path d="M 4.828125 -3.359375 C 4.742188 -3.265625 4.582031 -3.191406 4.34375 -3.140625 C 4.101562 -3.085938 3.65625 -3.019531 3 -2.9375 C 2.519531 -2.882812 2.164062 -2.765625 1.9375 -2.578125 C 1.707031 -2.398438 1.59375 -2.164062 1.59375 -1.875 C 1.59375 -1.507812 1.6875 -1.226562 1.875 -1.03125 C 2.070312 -0.832031 2.378906 -0.734375 2.796875 -0.734375 C 3.328125 -0.734375 3.796875 -0.878906 4.203125 -1.171875 C 4.617188 -1.472656 4.828125 -1.84375 4.828125 -2.28125 Z M 0.78125 -4.5625 C 0.800781 -5.3125 1.039062 -5.863281 1.5 -6.21875 C 1.957031 -6.582031 2.617188 -6.765625 3.484375 -6.765625 C 4.179688 -6.765625 4.765625 -6.601562 5.234375 -6.28125 C 5.703125 -5.96875 5.9375 -5.515625 5.9375 -4.921875 L 5.9375 -1.140625 C 5.9375 -0.878906 6.054688 -0.75 6.296875 -0.75 C 6.390625 -0.75 6.507812 -0.765625 6.65625 -0.796875 L 6.65625 0 C 6.457031 0.0820312 6.25 0.125 6.03125 0.125 C 5.65625 0.125 5.375 0.046875 5.1875 -0.109375 C 5 -0.273438 4.90625 -0.53125 4.90625 -0.875 C 4.269531 -0.164062 3.476562 0.1875 2.53125 0.1875 C 1.90625 0.1875 1.40625 0.015625 1.03125 -0.328125 C 0.65625 -0.679688 0.46875 -1.144531 0.46875 -1.71875 C 0.46875 -2.289062 0.628906 -2.753906 0.953125 -3.109375 C 1.285156 -3.460938 1.765625 -3.675781 2.390625 -3.75 L 4.34375 -4 C 4.6875 -4.050781 4.859375 -4.304688 4.859375 -4.765625 C 4.859375 -5.109375 4.726562 -5.375 4.46875 -5.5625 C 4.21875 -5.75 3.832031 -5.84375 3.3125 -5.84375 C 2.851562 -5.84375 2.5 -5.738281 2.25 -5.53125 C 2.007812 -5.320312 1.863281 -5 1.8125 -4.5625 Z M 3.75 -7.453125 L 2.921875 -7.453125 L 3.8125 -9.21875 L 5.125 -9.21875 Z M 3.75 -7.453125 "/></g></g><g transform="translate(46.006163, 45.806338)"><g><path d="M 4.53125 -4.703125 C 4.519531 -5.085938 4.378906 -5.363281 4.109375 -5.53125 C 3.847656 -5.707031 3.46875 -5.796875 2.96875 -5.796875 C 2.613281 -5.796875 2.304688 -5.71875 2.046875 -5.5625 C 1.796875 -5.40625 1.671875 -5.175781 1.671875 -4.875 C 1.671875 -4.632812 1.742188 -4.457031 1.890625 -4.34375 C 2.046875 -4.238281 2.375 -4.125 2.875 -4 L 3.96875 -3.71875 C 4.632812 -3.550781 5.109375 -3.335938 5.390625 -3.078125 C 5.671875 -2.816406 5.8125 -2.453125 5.8125 -1.984375 C 5.8125 -1.335938 5.570312 -0.8125 5.09375 -0.40625 C 4.625 -0.0078125 4 0.1875 3.21875 0.1875 C 2.289062 0.1875 1.59375 0 1.125 -0.375 C 0.65625 -0.757812 0.414062 -1.335938 0.40625 -2.109375 L 1.46875 -2.109375 C 1.488281 -1.648438 1.640625 -1.3125 1.921875 -1.09375 C 2.203125 -0.875 2.628906 -0.765625 3.203125 -0.765625 C 3.660156 -0.765625 4.023438 -0.851562 4.296875 -1.03125 C 4.578125 -1.21875 4.71875 -1.476562 4.71875 -1.8125 C 4.71875 -2.039062 4.628906 -2.222656 4.453125 -2.359375 C 4.273438 -2.503906 3.925781 -2.632812 3.40625 -2.75 L 2.125 -3.0625 C 1.601562 -3.195312 1.21875 -3.394531 0.96875 -3.65625 C 0.71875 -3.914062 0.59375 -4.25 0.59375 -4.65625 C 0.59375 -5.300781 0.820312 -5.8125 1.28125 -6.1875 C 1.75 -6.570312 2.359375 -6.765625 3.109375 -6.765625 C 3.898438 -6.765625 4.503906 -6.566406 4.921875 -6.171875 C 5.347656 -5.785156 5.570312 -5.296875 5.59375 -4.703125 Z M 4.53125 -4.703125 "/></g></g><g transform="translate(52.288323, 45.806338)"><g/></g><g transform="translate(55.355784, 45.806338)"><g><path d="M 2.21875 -1.078125 L 6.8125 -1.078125 L 6.8125 0 L 1.015625 0 L 1.015625 -9.015625 L 2.21875 -9.015625 Z M 2.21875 -1.078125 "/></g></g><g transform="translate(62.343459, 45.806338)"><g><path d="M 1.59375 -3.296875 C 1.59375 -2.566406 1.757812 -1.960938 2.09375 -1.484375 C 2.425781 -1.015625 2.894531 -0.78125 3.5 -0.78125 C 4.132812 -0.78125 4.613281 -1.023438 4.9375 -1.515625 C 5.257812 -2.015625 5.421875 -2.609375 5.421875 -3.296875 C 5.421875 -3.992188 5.257812 -4.582031 4.9375 -5.0625 C 4.613281 -5.550781 4.132812 -5.796875 3.5 -5.796875 C 2.914062 -5.796875 2.453125 -5.566406 2.109375 -5.109375 C 1.765625 -4.648438 1.59375 -4.046875 1.59375 -3.296875 Z M 0.46875 -3.296875 C 0.46875 -4.273438 0.738281 -5.097656 1.28125 -5.765625 C 1.820312 -6.429688 2.5625 -6.765625 3.5 -6.765625 C 4.457031 -6.765625 5.207031 -6.425781 5.75 -5.75 C 6.289062 -5.070312 6.5625 -4.253906 6.5625 -3.296875 C 6.5625 -2.328125 6.289062 -1.503906 5.75 -0.828125 C 5.21875 -0.148438 4.46875 0.1875 3.5 0.1875 C 2.570312 0.1875 1.832031 -0.140625 1.28125 -0.796875 C 0.738281 -1.453125 0.46875 -2.285156 0.46875 -3.296875 Z M 0.46875 -3.296875 "/></g></g><g transform="translate(69.367945, 45.806338)"><g><path d="M 5.453125 -3.3125 C 5.453125 -4.1875 5.296875 -4.8125 4.984375 -5.1875 C 4.671875 -5.570312 4.226562 -5.765625 3.65625 -5.765625 C 3.070312 -5.753906 2.628906 -5.523438 2.328125 -5.078125 C 2.035156 -4.628906 1.890625 -3.984375 1.890625 -3.140625 C 1.890625 -2.273438 2.066406 -1.660156 2.421875 -1.296875 C 2.785156 -0.941406 3.207031 -0.765625 3.6875 -0.765625 C 4.226562 -0.765625 4.65625 -0.988281 4.96875 -1.4375 C 5.289062 -1.882812 5.453125 -2.507812 5.453125 -3.3125 Z M 0.828125 0 L 0.828125 -9.015625 L 1.9375 -9.015625 L 1.9375 -5.734375 L 1.953125 -5.734375 C 2.421875 -6.421875 3.054688 -6.765625 3.859375 -6.765625 C 4.671875 -6.765625 5.328125 -6.457031 5.828125 -5.84375 C 6.335938 -5.238281 6.59375 -4.453125 6.59375 -3.484375 C 6.59375 -2.378906 6.335938 -1.488281 5.828125 -0.8125 C 5.328125 -0.144531 4.617188 0.1875 3.703125 0.1875 C 2.898438 0.1875 2.296875 -0.144531 1.890625 -0.8125 L 1.875 -0.8125 L 1.875 0 Z M 0.828125 0 "/></g></g><g transform="translate(76.466049, 45.806338)"><g><path d="M 1.59375 -3.296875 C 1.59375 -2.566406 1.757812 -1.960938 2.09375 -1.484375 C 2.425781 -1.015625 2.894531 -0.78125 3.5 -0.78125 C 4.132812 -0.78125 4.613281 -1.023438 4.9375 -1.515625 C 5.257812 -2.015625 5.421875 -2.609375 5.421875 -3.296875 C 5.421875 -3.992188 5.257812 -4.582031 4.9375 -5.0625 C 4.613281 -5.550781 4.132812 -5.796875 3.5 -5.796875 C 2.914062 -5.796875 2.453125 -5.566406 2.109375 -5.109375 C 1.765625 -4.648438 1.59375 -4.046875 1.59375 -3.296875 Z M 0.46875 -3.296875 C 0.46875 -4.273438 0.738281 -5.097656 1.28125 -5.765625 C 1.820312 -6.429688 2.5625 -6.765625 3.5 -6.765625 C 4.457031 -6.765625 5.207031 -6.425781 5.75 -5.75 C 6.289062 -5.070312 6.5625 -4.253906 6.5625 -3.296875 C 6.5625 -2.328125 6.289062 -1.503906 5.75 -0.828125 C 5.21875 -0.148438 4.46875 0.1875 3.5 0.1875 C 2.570312 0.1875 1.832031 -0.140625 1.28125 -0.796875 C 0.738281 -1.453125 0.46875 -2.285156 0.46875 -3.296875 Z M 0.46875 -3.296875 "/></g></g><g transform="translate(83.490534, 45.806338)"><g><path d="M 4.53125 -4.703125 C 4.519531 -5.085938 4.378906 -5.363281 4.109375 -5.53125 C 3.847656 -5.707031 3.46875 -5.796875 2.96875 -5.796875 C 2.613281 -5.796875 2.304688 -5.71875 2.046875 -5.5625 C 1.796875 -5.40625 1.671875 -5.175781 1.671875 -4.875 C 1.671875 -4.632812 1.742188 -4.457031 1.890625 -4.34375 C 2.046875 -4.238281 2.375 -4.125 2.875 -4 L 3.96875 -3.71875 C 4.632812 -3.550781 5.109375 -3.335938 5.390625 -3.078125 C 5.671875 -2.816406 5.8125 -2.453125 5.8125 -1.984375 C 5.8125 -1.335938 5.570312 -0.8125 5.09375 -0.40625 C 4.625 -0.0078125 4 0.1875 3.21875 0.1875 C 2.289062 0.1875 1.59375 0 1.125 -0.375 C 0.65625 -0.757812 0.414062 -1.335938 0.40625 -2.109375 L 1.46875 -2.109375 C 1.488281 -1.648438 1.640625 -1.3125 1.921875 -1.09375 C 2.203125 -0.875 2.628906 -0.765625 3.203125 -0.765625 C 3.660156 -0.765625 4.023438 -0.851562 4.296875 -1.03125 C 4.578125 -1.21875 4.71875 -1.476562 4.71875 -1.8125 C 4.71875 -2.039062 4.628906 -2.222656 4.453125 -2.359375 C 4.273438 -2.503906 3.925781 -2.632812 3.40625 -2.75 L 2.125 -3.0625 C 1.601562 -3.195312 1.21875 -3.394531 0.96875 -3.65625 C 0.71875 -3.914062 0.59375 -4.25 0.59375 -4.65625 C 0.59375 -5.300781 0.820312 -5.8125 1.28125 -6.1875 C 1.75 -6.570312 2.359375 -6.765625 3.109375 -6.765625 C 3.898438 -6.765625 4.503906 -6.566406 4.921875 -6.171875 C 5.347656 -5.785156 5.570312 -5.296875 5.59375 -4.703125 Z M 4.53125 -4.703125 "/></g></g></g><g fill="#000000" fill-opacity="1"><g transform="translate(10.920547, 60.883521)"><g><path d="M 6.703125 -9.015625 L 8.0625 -9.015625 L 4.765625 0 L 3.484375 0 L 0.1875 -9.015625 L 1.546875 -9.015625 L 4.125 -1.328125 L 4.140625 -1.328125 Z M 6.703125 -9.015625 "/></g></g><g transform="translate(19.159746, 60.883521)"><g><path d="M 0.828125 -7.765625 L 0.828125 -9.015625 L 1.9375 -9.015625 L 1.9375 -7.765625 Z M 1.9375 0 L 0.828125 0 L 0.828125 -6.5625 L 1.9375 -6.5625 Z M 1.9375 0 "/></g></g><g transform="translate(21.926596, 60.883521)"><g><path d="M 4.96875 -4.359375 C 4.8125 -5.296875 4.296875 -5.765625 3.421875 -5.765625 C 2.867188 -5.765625 2.425781 -5.546875 2.09375 -5.109375 C 1.769531 -4.671875 1.609375 -4.066406 1.609375 -3.296875 C 1.609375 -2.453125 1.757812 -1.816406 2.0625 -1.390625 C 2.375 -0.972656 2.820312 -0.765625 3.40625 -0.765625 C 3.800781 -0.765625 4.140625 -0.90625 4.421875 -1.1875 C 4.710938 -1.476562 4.894531 -1.859375 4.96875 -2.328125 L 6.046875 -2.328125 C 5.929688 -1.515625 5.640625 -0.890625 5.171875 -0.453125 C 4.710938 -0.0234375 4.113281 0.1875 3.375 0.1875 C 2.507812 0.1875 1.800781 -0.101562 1.25 -0.6875 C 0.695312 -1.28125 0.421875 -2.085938 0.421875 -3.109375 C 0.421875 -4.210938 0.695312 -5.097656 1.25 -5.765625 C 1.800781 -6.429688 2.578125 -6.765625 3.578125 -6.765625 C 4.304688 -6.765625 4.882812 -6.546875 5.3125 -6.109375 C 5.75 -5.671875 5.992188 -5.085938 6.046875 -4.359375 Z M 4.96875 -4.359375 "/></g></g><g transform="translate(28.368264, 60.883521)"><g><path d="M 5.34375 -3.8125 C 5.28125 -4.519531 5.085938 -5.019531 4.765625 -5.3125 C 4.453125 -5.613281 4.03125 -5.765625 3.5 -5.765625 C 2.96875 -5.765625 2.535156 -5.578125 2.203125 -5.203125 C 1.878906 -4.828125 1.707031 -4.363281 1.6875 -3.8125 Z M 6.390625 -2.0625 C 6.265625 -1.382812 5.929688 -0.820312 5.390625 -0.375 C 4.910156 0 4.28125 0.191406 3.5 0.203125 C 2.582031 0.191406 1.851562 -0.109375 1.3125 -0.703125 C 0.769531 -1.296875 0.5 -2.097656 0.5 -3.109375 C 0.5 -4.253906 0.773438 -5.148438 1.328125 -5.796875 C 1.890625 -6.441406 2.664062 -6.765625 3.65625 -6.765625 C 4.539062 -6.765625 5.234375 -6.429688 5.734375 -5.765625 C 6.234375 -5.097656 6.484375 -4.148438 6.484375 -2.921875 L 1.6875 -2.921875 C 1.6875 -2.234375 1.84375 -1.703125 2.15625 -1.328125 C 2.476562 -0.953125 2.957031 -0.765625 3.59375 -0.765625 C 4.039062 -0.765625 4.425781 -0.898438 4.75 -1.171875 C 5.070312 -1.441406 5.25 -1.738281 5.28125 -2.0625 Z M 6.390625 -2.0625 "/></g></g><g transform="translate(35.3314, 60.883521)"><g><path d="M 6.1875 0 L 5.078125 0 L 5.078125 -4.046875 C 5.078125 -4.660156 4.96875 -5.097656 4.75 -5.359375 C 4.53125 -5.628906 4.171875 -5.765625 3.671875 -5.765625 C 3.171875 -5.765625 2.753906 -5.578125 2.421875 -5.203125 C 2.097656 -4.828125 1.9375 -4.285156 1.9375 -3.578125 L 1.9375 0 L 0.828125 0 L 0.828125 -6.5625 L 1.875 -6.5625 L 1.875 -5.640625 L 1.890625 -5.640625 C 2.410156 -6.390625 3.078125 -6.765625 3.890625 -6.765625 C 4.628906 -6.765625 5.195312 -6.566406 5.59375 -6.171875 C 5.988281 -5.773438 6.1875 -5.207031 6.1875 -4.46875 Z M 6.1875 0 "/></g></g><g transform="translate(42.263861, 60.883521)"><g><path d="M 2.15625 -5.65625 L 2.15625 -1.375 C 2.15625 -1.207031 2.203125 -1.078125 2.296875 -0.984375 C 2.390625 -0.898438 2.554688 -0.859375 2.796875 -0.859375 L 3.21875 -0.859375 L 3.21875 0 C 2.8125 0.0507812 2.535156 0.078125 2.390625 0.078125 C 1.921875 0.078125 1.582031 -0.03125 1.375 -0.25 C 1.164062 -0.46875 1.0625 -0.820312 1.0625 -1.3125 L 1.0625 -5.65625 L 0.171875 -5.65625 L 0.171875 -6.5625 L 1.0625 -6.5625 L 1.0625 -8.40625 L 2.15625 -8.40625 L 2.15625 -6.5625 L 3.21875 -6.5625 L 3.21875 -5.65625 Z M 2.15625 -5.65625 "/></g></g><g transform="translate(45.742362, 60.883521)"><g><path d="M 5.34375 -3.8125 C 5.28125 -4.519531 5.085938 -5.019531 4.765625 -5.3125 C 4.453125 -5.613281 4.03125 -5.765625 3.5 -5.765625 C 2.96875 -5.765625 2.535156 -5.578125 2.203125 -5.203125 C 1.878906 -4.828125 1.707031 -4.363281 1.6875 -3.8125 Z M 6.390625 -2.0625 C 6.265625 -1.382812 5.929688 -0.820312 5.390625 -0.375 C 4.910156 0 4.28125 0.191406 3.5 0.203125 C 2.582031 0.191406 1.851562 -0.109375 1.3125 -0.703125 C 0.769531 -1.296875 0.5 -2.097656 0.5 -3.109375 C 0.5 -4.253906 0.773438 -5.148438 1.328125 -5.796875 C 1.890625 -6.441406 2.664062 -6.765625 3.65625 -6.765625 C 4.539062 -6.765625 5.234375 -6.429688 5.734375 -5.765625 C 6.234375 -5.097656 6.484375 -4.148438 6.484375 -2.921875 L 1.6875 -2.921875 C 1.6875 -2.234375 1.84375 -1.703125 2.15625 -1.328125 C 2.476562 -0.953125 2.957031 -0.765625 3.59375 -0.765625 C 4.039062 -0.765625 4.425781 -0.898438 4.75 -1.171875 C 5.070312 -1.441406 5.25 -1.738281 5.28125 -2.0625 Z M 6.390625 -2.0625 "/></g></g><g transform="translate(52.705498, 60.883521)"><g/></g><g transform="translate(55.772958, 60.883521)"><g><path d="M 5.53125 -3.703125 L 4.203125 -7.671875 L 4.171875 -7.671875 L 2.71875 -3.703125 Z M 2.34375 -2.625 L 1.40625 0 L 0.15625 0 L 3.546875 -9.015625 L 4.921875 -9.015625 L 8.1875 0 L 6.859375 0 L 5.96875 -2.625 Z M 2.34375 -2.625 "/></g></g><g transform="translate(64.153261, 60.883521)"><g><path d="M 1.9375 0 L 0.828125 0 L 0.828125 -6.5625 L 1.875 -6.5625 L 1.875 -5.484375 L 1.890625 -5.484375 C 2.367188 -6.335938 2.984375 -6.765625 3.734375 -6.765625 C 3.859375 -6.765625 3.957031 -6.75 4.03125 -6.71875 L 4.03125 -5.578125 L 3.625 -5.578125 C 3.125 -5.578125 2.71875 -5.40625 2.40625 -5.0625 C 2.09375 -4.726562 1.9375 -4.316406 1.9375 -3.828125 Z M 1.9375 0 "/></g></g><g transform="translate(68.245254, 60.883521)"><g><path d="M 4.828125 -3.359375 C 4.742188 -3.265625 4.582031 -3.191406 4.34375 -3.140625 C 4.101562 -3.085938 3.65625 -3.019531 3 -2.9375 C 2.519531 -2.882812 2.164062 -2.765625 1.9375 -2.578125 C 1.707031 -2.398438 1.59375 -2.164062 1.59375 -1.875 C 1.59375 -1.507812 1.6875 -1.226562 1.875 -1.03125 C 2.070312 -0.832031 2.378906 -0.734375 2.796875 -0.734375 C 3.328125 -0.734375 3.796875 -0.878906 4.203125 -1.171875 C 4.617188 -1.472656 4.828125 -1.84375 4.828125 -2.28125 Z M 0.78125 -4.5625 C 0.800781 -5.3125 1.039062 -5.863281 1.5 -6.21875 C 1.957031 -6.582031 2.617188 -6.765625 3.484375 -6.765625 C 4.179688 -6.765625 4.765625 -6.601562 5.234375 -6.28125 C 5.703125 -5.96875 5.9375 -5.515625 5.9375 -4.921875 L 5.9375 -1.140625 C 5.9375 -0.878906 6.054688 -0.75 6.296875 -0.75 C 6.390625 -0.75 6.507812 -0.765625 6.65625 -0.796875 L 6.65625 0 C 6.457031 0.0820312 6.25 0.125 6.03125 0.125 C 5.65625 0.125 5.375 0.046875 5.1875 -0.109375 C 5 -0.273438 4.90625 -0.53125 4.90625 -0.875 C 4.269531 -0.164062 3.476562 0.1875 2.53125 0.1875 C 1.90625 0.1875 1.40625 0.015625 1.03125 -0.328125 C 0.65625 -0.679688 0.46875 -1.144531 0.46875 -1.71875 C 0.46875 -2.289062 0.628906 -2.753906 0.953125 -3.109375 C 1.285156 -3.460938 1.765625 -3.675781 2.390625 -3.75 L 4.34375 -4 C 4.6875 -4.050781 4.859375 -4.304688 4.859375 -4.765625 C 4.859375 -5.109375 4.726562 -5.375 4.46875 -5.5625 C 4.21875 -5.75 3.832031 -5.84375 3.3125 -5.84375 C 2.851562 -5.84375 2.5 -5.738281 2.25 -5.53125 C 2.007812 -5.320312 1.863281 -5 1.8125 -4.5625 Z M 0.78125 -4.5625 "/></g></g><g transform="translate(75.147041, 60.883521)"><g><path d="M 4.90625 -6.5625 L 6.109375 -6.5625 L 3.75 -0.125 C 3.707031 -0.0078125 3.664062 0.0976562 3.625 0.203125 C 3.269531 1.148438 2.960938 1.800781 2.703125 2.15625 C 2.453125 2.507812 2.035156 2.6875 1.453125 2.6875 C 1.148438 2.6875 0.90625 2.65625 0.71875 2.59375 L 0.71875 1.578125 C 0.925781 1.648438 1.15625 1.6875 1.40625 1.6875 C 1.675781 1.6875 1.875 1.601562 2 1.4375 C 2.125 1.269531 2.304688 0.851562 2.546875 0.1875 L 0.109375 -6.5625 L 1.359375 -6.5625 L 3.109375 -1.21875 L 3.140625 -1.21875 Z M 4.90625 -6.5625 "/></g></g><g transform="translate(81.380121, 60.883521)"><g><path d="M 4.828125 -3.359375 C 4.742188 -3.265625 4.582031 -3.191406 4.34375 -3.140625 C 4.101562 -3.085938 3.65625 -3.019531 3 -2.9375 C 2.519531 -2.882812 2.164062 -2.765625 1.9375 -2.578125 C 1.707031 -2.398438 1.59375 -2.164062 1.59375 -1.875 C 1.59375 -1.507812 1.6875 -1.226562 1.875 -1.03125 C 2.070312 -0.832031 2.378906 -0.734375 2.796875 -0.734375 C 3.328125 -0.734375 3.796875 -0.878906 4.203125 -1.171875 C 4.617188 -1.472656 4.828125 -1.84375 4.828125 -2.28125 Z M 0.78125 -4.5625 C 0.800781 -5.3125 1.039062 -5.863281 1.5 -6.21875 C 1.957031 -6.582031 2.617188 -6.765625 3.484375 -6.765625 C 4.179688 -6.765625 4.765625 -6.601562 5.234375 -6.28125 C 5.703125 -5.96875 5.9375 -5.515625 5.9375 -4.921875 L 5.9375 -1.140625 C 5.9375 -0.878906 6.054688 -0.75 6.296875 -0.75 C 6.390625 -0.75 6.507812 -0.765625 6.65625 -0.796875 L 6.65625 0 C 6.457031 0.0820312 6.25 0.125 6.03125 0.125 C 5.65625 0.125 5.375 0.046875 5.1875 -0.109375 C 5 -0.273438 4.90625 -0.53125 4.90625 -0.875 C 4.269531 -0.164062 3.476562 0.1875 2.53125 0.1875 C 1.90625 0.1875 1.40625 0.015625 1.03125 -0.328125 C 0.65625 -0.679688 0.46875 -1.144531 0.46875 -1.71875 C 0.46875 -2.289062 0.628906 -2.753906 0.953125 -3.109375 C 1.285156 -3.460938 1.765625 -3.675781 2.390625 -3.75 L 4.34375 -4 C 4.6875 -4.050781 4.859375 -4.304688 4.859375 -4.765625 C 4.859375 -5.109375 4.726562 -5.375 4.46875 -5.5625 C 4.21875 -5.75 3.832031 -5.84375 3.3125 -5.84375 C 2.851562 -5.84375 2.5 -5.738281 2.25 -5.53125 C 2.007812 -5.320312 1.863281 -5 1.8125 -4.5625 Z M 0.78125 -4.5625 "/></g></g></g><g fill="#000000" fill-opacity="1"><g transform="translate(10.920547, 75.960704)"><g><path d="M 2.234375 -1.046875 L 4.59375 -1.046875 C 5.414062 -1.046875 6.054688 -1.359375 6.515625 -1.984375 C 6.984375 -2.609375 7.21875 -3.46875 7.21875 -4.5625 C 7.21875 -5.632812 6.984375 -6.46875 6.515625 -7.0625 C 6.046875 -7.664062 5.375 -7.96875 4.5 -7.96875 L 2.234375 -7.96875 Z M 1.015625 -9.015625 L 4.671875 -9.015625 C 5.859375 -9.015625 6.785156 -8.609375 7.453125 -7.796875 C 8.117188 -6.984375 8.453125 -5.929688 8.453125 -4.640625 C 8.453125 -3.242188 8.117188 -2.117188 7.453125 -1.265625 C 6.785156 -0.421875 5.84375 0 4.625 0 L 1.015625 0 Z M 1.015625 -9.015625 "/></g></g><g transform="translate(19.969556, 75.960704)"><g><path d="M 0.828125 -7.765625 L 0.828125 -9.015625 L 1.9375 -9.015625 L 1.9375 -7.765625 Z M 1.9375 0 L 0.828125 0 L 0.828125 -6.5625 L 1.9375 -6.5625 Z M 1.9375 0 "/></g></g><g transform="translate(22.736406, 75.960704)"><g><path d="M 5.34375 -3.8125 C 5.28125 -4.519531 5.085938 -5.019531 4.765625 -5.3125 C 4.453125 -5.613281 4.03125 -5.765625 3.5 -5.765625 C 2.96875 -5.765625 2.535156 -5.578125 2.203125 -5.203125 C 1.878906 -4.828125 1.707031 -4.363281 1.6875 -3.8125 Z M 6.390625 -2.0625 C 6.265625 -1.382812 5.929688 -0.820312 5.390625 -0.375 C 4.910156 0 4.28125 0.191406 3.5 0.203125 C 2.582031 0.191406 1.851562 -0.109375 1.3125 -0.703125 C 0.769531 -1.296875 0.5 -2.097656 0.5 -3.109375 C 0.5 -4.253906 0.773438 -5.148438 1.328125 -5.796875 C 1.890625 -6.441406 2.664062 -6.765625 3.65625 -6.765625 C 4.539062 -6.765625 5.234375 -6.429688 5.734375 -5.765625 C 6.234375 -5.097656 6.484375 -4.148438 6.484375 -2.921875 L 1.6875 -2.921875 C 1.6875 -2.234375 1.84375 -1.703125 2.15625 -1.328125 C 2.476562 -0.953125 2.957031 -0.765625 3.59375 -0.765625 C 4.039062 -0.765625 4.425781 -0.898438 4.75 -1.171875 C 5.070312 -1.441406 5.25 -1.738281 5.28125 -2.0625 Z M 6.390625 -2.0625 "/></g></g><g transform="translate(29.699542, 75.960704)"><g><path d="M 1.625 -3.3125 C 1.625 -2.5 1.785156 -1.867188 2.109375 -1.421875 C 2.429688 -0.984375 2.863281 -0.765625 3.40625 -0.765625 C 3.9375 -0.765625 4.367188 -0.957031 4.703125 -1.34375 C 5.035156 -1.726562 5.203125 -2.269531 5.203125 -2.96875 C 5.203125 -3.894531 5.054688 -4.59375 4.765625 -5.0625 C 4.472656 -5.53125 4.023438 -5.765625 3.421875 -5.765625 C 2.828125 -5.765625 2.378906 -5.5625 2.078125 -5.15625 C 1.773438 -4.757812 1.625 -4.144531 1.625 -3.3125 Z M 6.25 -0.375 C 6.25 0.675781 5.992188 1.460938 5.484375 1.984375 C 4.984375 2.503906 4.222656 2.765625 3.203125 2.765625 C 2.460938 2.765625 1.875 2.59375 1.4375 2.25 C 1.007812 1.914062 0.757812 1.429688 0.6875 0.796875 L 1.796875 0.796875 C 1.859375 1.117188 2.003906 1.375 2.234375 1.5625 C 2.472656 1.75 2.820312 1.84375 3.28125 1.84375 C 3.894531 1.84375 4.359375 1.675781 4.671875 1.34375 C 4.992188 1.019531 5.15625 0.484375 5.15625 -0.265625 L 5.15625 -0.734375 L 5.125 -0.734375 C 4.71875 -0.117188 4.132812 0.1875 3.375 0.1875 C 2.4375 0.1875 1.71875 -0.15625 1.21875 -0.84375 C 0.726562 -1.539062 0.484375 -2.421875 0.484375 -3.484375 C 0.484375 -4.453125 0.734375 -5.238281 1.234375 -5.84375 C 1.734375 -6.457031 2.394531 -6.765625 3.21875 -6.765625 C 4.050781 -6.765625 4.707031 -6.390625 5.1875 -5.640625 L 5.21875 -5.640625 L 5.21875 -6.5625 L 6.25 -6.5625 Z M 6.25 -0.375 "/></g></g><g transform="translate(36.724027, 75.960704)"><g><path d="M 1.59375 -3.296875 C 1.59375 -2.566406 1.757812 -1.960938 2.09375 -1.484375 C 2.425781 -1.015625 2.894531 -0.78125 3.5 -0.78125 C 4.132812 -0.78125 4.613281 -1.023438 4.9375 -1.515625 C 5.257812 -2.015625 5.421875 -2.609375 5.421875 -3.296875 C 5.421875 -3.992188 5.257812 -4.582031 4.9375 -5.0625 C 4.613281 -5.550781 4.132812 -5.796875 3.5 -5.796875 C 2.914062 -5.796875 2.453125 -5.566406 2.109375 -5.109375 C 1.765625 -4.648438 1.59375 -4.046875 1.59375 -3.296875 Z M 0.46875 -3.296875 C 0.46875 -4.273438 0.738281 -5.097656 1.28125 -5.765625 C 1.820312 -6.429688 2.5625 -6.765625 3.5 -6.765625 C 4.457031 -6.765625 5.207031 -6.425781 5.75 -5.75 C 6.289062 -5.070312 6.5625 -4.253906 6.5625 -3.296875 C 6.5625 -2.328125 6.289062 -1.503906 5.75 -0.828125 C 5.21875 -0.148438 4.46875 0.1875 3.5 0.1875 C 2.570312 0.1875 1.832031 -0.140625 1.28125 -0.796875 C 0.738281 -1.453125 0.46875 -2.285156 0.46875 -3.296875 Z M 0.46875 -3.296875 "/></g></g><g transform="translate(43.748512, 75.960704)"><g/></g><g transform="translate(46.815973, 75.960704)"><g><path d="M 5.53125 -3.703125 L 4.203125 -7.671875 L 4.171875 -7.671875 L 2.71875 -3.703125 Z M 2.34375 -2.625 L 1.40625 0 L 0.15625 0 L 3.546875 -9.015625 L 4.921875 -9.015625 L 8.1875 0 L 6.859375 0 L 5.96875 -2.625 Z M 2.34375 -2.625 "/></g></g><g transform="translate(55.196276, 75.960704)"><g><path d="M 1.9375 0 L 0.828125 0 L 0.828125 -6.5625 L 1.875 -6.5625 L 1.875 -5.484375 L 1.890625 -5.484375 C 2.367188 -6.335938 2.984375 -6.765625 3.734375 -6.765625 C 3.859375 -6.765625 3.957031 -6.75 4.03125 -6.71875 L 4.03125 -5.578125 L 3.625 -5.578125 C 3.125 -5.578125 2.71875 -5.40625 2.40625 -5.0625 C 2.09375 -4.726562 1.9375 -4.316406 1.9375 -3.828125 Z M 1.9375 0 "/></g></g><g transform="translate(59.288268, 75.960704)"><g><path d="M 1.9375 0 L 0.828125 0 L 0.828125 -6.5625 L 1.875 -6.5625 L 1.875 -5.484375 L 1.890625 -5.484375 C 2.367188 -6.335938 2.984375 -6.765625 3.734375 -6.765625 C 3.859375 -6.765625 3.957031 -6.75 4.03125 -6.71875 L 4.03125 -5.578125 L 3.625 -5.578125 C 3.125 -5.578125 2.71875 -5.40625 2.40625 -5.0625 C 2.09375 -4.726562 1.9375 -4.316406 1.9375 -3.828125 Z M 1.9375 0 "/></g></g><g transform="translate(63.380261, 75.960704)"><g><path d="M 5.34375 -3.8125 C 5.28125 -4.519531 5.085938 -5.019531 4.765625 -5.3125 C 4.453125 -5.613281 4.03125 -5.765625 3.5 -5.765625 C 2.96875 -5.765625 2.535156 -5.578125 2.203125 -5.203125 C 1.878906 -4.828125 1.707031 -4.363281 1.6875 -3.8125 Z M 6.390625 -2.0625 C 6.265625 -1.382812 5.929688 -0.820312 5.390625 -0.375 C 4.910156 0 4.28125 0.191406 3.5 0.203125 C 2.582031 0.191406 1.851562 -0.109375 1.3125 -0.703125 C 0.769531 -1.296875 0.5 -2.097656 0.5 -3.109375 C 0.5 -4.253906 0.773438 -5.148438 1.328125 -5.796875 C 1.890625 -6.441406 2.664062 -6.765625 3.65625 -6.765625 C 4.539062 -6.765625 5.234375 -6.429688 5.734375 -5.765625 C 6.234375 -5.097656 6.484375 -4.148438 6.484375 -2.921875 L 1.6875 -2.921875 C 1.6875 -2.234375 1.84375 -1.703125 2.15625 -1.328125 C 2.476562 -0.953125 2.957031 -0.765625 3.59375 -0.765625 C 4.039062 -0.765625 4.425781 -0.898438 4.75 -1.171875 C 5.070312 -1.441406 5.25 -1.738281 5.28125 -2.0625 Z M 6.390625 -2.0625 "/></g></g><g transform="translate(70.343397, 75.960704)"><g><path d="M 1.640625 -3.3125 C 1.640625 -2.488281 1.800781 -1.859375 2.125 -1.421875 C 2.445312 -0.984375 2.878906 -0.765625 3.421875 -0.765625 C 3.929688 -0.765625 4.359375 -0.953125 4.703125 -1.328125 C 5.046875 -1.703125 5.21875 -2.25 5.21875 -2.96875 C 5.21875 -3.894531 5.070312 -4.59375 4.78125 -5.0625 C 4.488281 -5.53125 4.039062 -5.765625 3.4375 -5.765625 C 2.875 -5.765625 2.429688 -5.578125 2.109375 -5.203125 C 1.796875 -4.835938 1.640625 -4.207031 1.640625 -3.3125 Z M 6.328125 0 L 5.28125 0 L 5.28125 -0.90625 L 5.265625 -0.90625 C 4.847656 -0.175781 4.21875 0.1875 3.375 0.1875 C 2.457031 0.1875 1.75 -0.15625 1.25 -0.84375 C 0.75 -1.539062 0.5 -2.421875 0.5 -3.484375 C 0.5 -4.453125 0.742188 -5.238281 1.234375 -5.84375 C 1.734375 -6.457031 2.398438 -6.765625 3.234375 -6.765625 C 4.054688 -6.765625 4.710938 -6.390625 5.203125 -5.640625 L 5.21875 -5.71875 L 5.21875 -9.015625 L 6.328125 -9.015625 Z M 6.328125 0 "/></g></g><g transform="translate(77.502851, 75.960704)"><g><path d="M 1.59375 -3.296875 C 1.59375 -2.566406 1.757812 -1.960938 2.09375 -1.484375 C 2.425781 -1.015625 2.894531 -0.78125 3.5 -0.78125 C 4.132812 -0.78125 4.613281 -1.023438 4.9375 -1.515625 C 5.257812 -2.015625 5.421875 -2.609375 5.421875 -3.296875 C 5.421875 -3.992188 5.257812 -4.582031 4.9375 -5.0625 C 4.613281 -5.550781 4.132812 -5.796875 3.5 -5.796875 C 2.914062 -5.796875 2.453125 -5.566406 2.109375 -5.109375 C 1.765625 -4.648438 1.59375 -4.046875 1.59375 -3.296875 Z M 0.46875 -3.296875 C 0.46875 -4.273438 0.738281 -5.097656 1.28125 -5.765625 C 1.820312 -6.429688 2.5625 -6.765625 3.5 -6.765625 C 4.457031 -6.765625 5.207031 -6.425781 5.75 -5.75 C 6.289062 -5.070312 6.5625 -4.253906 6.5625 -3.296875 C 6.5625 -2.328125 6.289062 -1.503906 5.75 -0.828125 C 5.21875 -0.148438 4.46875 0.1875 3.5 0.1875 C 2.570312 0.1875 1.832031 -0.140625 1.28125 -0.796875 C 0.738281 -1.453125 0.46875 -2.285156 0.46875 -3.296875 Z M 0.46875 -3.296875 "/></g></g><g transform="translate(84.527336, 75.960704)"><g><path d="M 6.1875 0 L 5.078125 0 L 5.078125 -4.046875 C 5.078125 -4.660156 4.96875 -5.097656 4.75 -5.359375 C 4.53125 -5.628906 4.171875 -5.765625 3.671875 -5.765625 C 3.171875 -5.765625 2.753906 -5.578125 2.421875 -5.203125 C 2.097656 -4.828125 1.9375 -4.285156 1.9375 -3.578125 L 1.9375 0 L 0.828125 0 L 0.828125 -6.5625 L 1.875 -6.5625 L 1.875 -5.640625 L 1.890625 -5.640625 C 2.410156 -6.390625 3.078125 -6.765625 3.890625 -6.765625 C 4.628906 -6.765625 5.195312 -6.566406 5.59375 -6.171875 C 5.988281 -5.773438 6.1875 -5.207031 6.1875 -4.46875 Z M 6.1875 0 "/></g></g><g transform="translate(91.459797, 75.960704)"><g><path d="M 1.640625 -3.3125 C 1.640625 -2.488281 1.800781 -1.859375 2.125 -1.421875 C 2.445312 -0.984375 2.878906 -0.765625 3.421875 -0.765625 C 3.929688 -0.765625 4.359375 -0.953125 4.703125 -1.328125 C 5.046875 -1.703125 5.21875 -2.25 5.21875 -2.96875 C 5.21875 -3.894531 5.070312 -4.59375 4.78125 -5.0625 C 4.488281 -5.53125 4.039062 -5.765625 3.4375 -5.765625 C 2.875 -5.765625 2.429688 -5.578125 2.109375 -5.203125 C 1.796875 -4.835938 1.640625 -4.207031 1.640625 -3.3125 Z M 6.328125 0 L 5.28125 0 L 5.28125 -0.90625 L 5.265625 -0.90625 C 4.847656 -0.175781 4.21875 0.1875 3.375 0.1875 C 2.457031 0.1875 1.75 -0.15625 1.25 -0.84375 C 0.75 -1.539062 0.5 -2.421875 0.5 -3.484375 C 0.5 -4.453125 0.742188 -5.238281 1.234375 -5.84375 C 1.734375 -6.457031 2.398438 -6.765625 3.234375 -6.765625 C 4.054688 -6.765625 4.710938 -6.390625 5.203125 -5.640625 L 5.21875 -5.71875 L 5.21875 -9.015625 L 6.328125 -9.015625 Z M 6.328125 0 "/></g></g><g transform="translate(98.619251, 75.960704)"><g><path d="M 1.59375 -3.296875 C 1.59375 -2.566406 1.757812 -1.960938 2.09375 -1.484375 C 2.425781 -1.015625 2.894531 -0.78125 3.5 -0.78125 C 4.132812 -0.78125 4.613281 -1.023438 4.9375 -1.515625 C 5.257812 -2.015625 5.421875 -2.609375 5.421875 -3.296875 C 5.421875 -3.992188 5.257812 -4.582031 4.9375 -5.0625 C 4.613281 -5.550781 4.132812 -5.796875 3.5 -5.796875 C 2.914062 -5.796875 2.453125 -5.566406 2.109375 -5.109375 C 1.765625 -4.648438 1.59375 -4.046875 1.59375 -3.296875 Z M 0.46875 -3.296875 C 0.46875 -4.273438 0.738281 -5.097656 1.28125 -5.765625 C 1.820312 -6.429688 2.5625 -6.765625 3.5 -6.765625 C 4.457031 -6.765625 5.207031 -6.425781 5.75 -5.75 C 6.289062 -5.070312 6.5625 -4.253906 6.5625 -3.296875 C 6.5625 -2.328125 6.289062 -1.503906 5.75 -0.828125 C 5.21875 -0.148438 4.46875 0.1875 3.5 0.1875 C 2.570312 0.1875 1.832031 -0.140625 1.28125 -0.796875 C 0.738281 -1.453125 0.46875 -2.285156 0.46875 -3.296875 Z M 0.46875 -3.296875 "/></g></g></g><g fill="#000000" fill-opacity="1"><g transform="translate(10.920547, 91.037888)"><g><path d="M 1.015625 -9.015625 L 4.96875 -9.015625 C 5.75 -9.015625 6.367188 -8.800781 6.828125 -8.375 C 7.296875 -7.957031 7.53125 -7.414062 7.53125 -6.75 C 7.53125 -6.34375 7.425781 -5.972656 7.21875 -5.640625 C 7.019531 -5.304688 6.71875 -5.046875 6.3125 -4.859375 C 6.875 -4.648438 7.285156 -4.367188 7.546875 -4.015625 C 7.816406 -3.660156 7.953125 -3.207031 7.953125 -2.65625 C 7.953125 -1.882812 7.671875 -1.25 7.109375 -0.75 C 6.546875 -0.25 5.804688 0 4.890625 0 L 1.015625 0 Z M 2.21875 -1.046875 L 4.828125 -1.046875 C 5.460938 -1.046875 5.9375 -1.191406 6.25 -1.484375 C 6.570312 -1.785156 6.734375 -2.1875 6.734375 -2.6875 C 6.734375 -3.195312 6.554688 -3.578125 6.203125 -3.828125 C 5.847656 -4.078125 5.320312 -4.203125 4.625 -4.203125 L 2.21875 -4.203125 Z M 2.21875 -5.203125 L 4.4375 -5.203125 C 5.082031 -5.203125 5.554688 -5.316406 5.859375 -5.546875 C 6.160156 -5.785156 6.3125 -6.15625 6.3125 -6.65625 C 6.3125 -7.082031 6.164062 -7.40625 5.875 -7.625 C 5.59375 -7.851562 5.117188 -7.96875 4.453125 -7.96875 L 2.21875 -7.96875 Z M 2.21875 -5.203125 "/></g></g><g transform="translate(19.362199, 91.037888)"><g><path d="M 1.9375 0 L 0.828125 0 L 0.828125 -6.5625 L 1.875 -6.5625 L 1.875 -5.484375 L 1.890625 -5.484375 C 2.367188 -6.335938 2.984375 -6.765625 3.734375 -6.765625 C 3.859375 -6.765625 3.957031 -6.75 4.03125 -6.71875 L 4.03125 -5.578125 L 3.625 -5.578125 C 3.125 -5.578125 2.71875 -5.40625 2.40625 -5.0625 C 2.09375 -4.726562 1.9375 -4.316406 1.9375 -3.828125 Z M 1.9375 0 "/></g></g><g transform="translate(23.454191, 91.037888)"><g><path d="M 4.828125 -3.359375 C 4.742188 -3.265625 4.582031 -3.191406 4.34375 -3.140625 C 4.101562 -3.085938 3.65625 -3.019531 3 -2.9375 C 2.519531 -2.882812 2.164062 -2.765625 1.9375 -2.578125 C 1.707031 -2.398438 1.59375 -2.164062 1.59375 -1.875 C 1.59375 -1.507812 1.6875 -1.226562 1.875 -1.03125 C 2.070312 -0.832031 2.378906 -0.734375 2.796875 -0.734375 C 3.328125 -0.734375 3.796875 -0.878906 4.203125 -1.171875 C 4.617188 -1.472656 4.828125 -1.84375 4.828125 -2.28125 Z M 0.78125 -4.5625 C 0.800781 -5.3125 1.039062 -5.863281 1.5 -6.21875 C 1.957031 -6.582031 2.617188 -6.765625 3.484375 -6.765625 C 4.179688 -6.765625 4.765625 -6.601562 5.234375 -6.28125 C 5.703125 -5.96875 5.9375 -5.515625 5.9375 -4.921875 L 5.9375 -1.140625 C 5.9375 -0.878906 6.054688 -0.75 6.296875 -0.75 C 6.390625 -0.75 6.507812 -0.765625 6.65625 -0.796875 L 6.65625 0 C 6.457031 0.0820312 6.25 0.125 6.03125 0.125 C 5.65625 0.125 5.375 0.046875 5.1875 -0.109375 C 5 -0.273438 4.90625 -0.53125 4.90625 -0.875 C 4.269531 -0.164062 3.476562 0.1875 2.53125 0.1875 C 1.90625 0.1875 1.40625 0.015625 1.03125 -0.328125 C 0.65625 -0.679688 0.46875 -1.144531 0.46875 -1.71875 C 0.46875 -2.289062 0.628906 -2.753906 0.953125 -3.109375 C 1.285156 -3.460938 1.765625 -3.675781 2.390625 -3.75 L 4.34375 -4 C 4.6875 -4.050781 4.859375 -4.304688 4.859375 -4.765625 C 4.859375 -5.109375 4.726562 -5.375 4.46875 -5.5625 C 4.21875 -5.75 3.832031 -5.84375 3.3125 -5.84375 C 2.851562 -5.84375 2.5 -5.738281 2.25 -5.53125 C 2.007812 -5.320312 1.863281 -5 1.8125 -4.5625 Z M 0.78125 -4.5625 "/></g></g><g transform="translate(30.355978, 91.037888)"><g><path d="M 4.90625 -6.5625 L 6.109375 -6.5625 L 3.75 -0.125 C 3.707031 -0.0078125 3.664062 0.0976562 3.625 0.203125 C 3.269531 1.148438 2.960938 1.800781 2.703125 2.15625 C 2.453125 2.507812 2.035156 2.6875 1.453125 2.6875 C 1.148438 2.6875 0.90625 2.65625 0.71875 2.59375 L 0.71875 1.578125 C 0.925781 1.648438 1.15625 1.6875 1.40625 1.6875 C 1.675781 1.6875 1.875 1.601562 2 1.4375 C 2.125 1.269531 2.304688 0.851562 2.546875 0.1875 L 0.109375 -6.5625 L 1.359375 -6.5625 L 3.109375 -1.21875 L 3.140625 -1.21875 Z M 4.90625 -6.5625 "/></g></g><g transform="translate(36.589059, 91.037888)"><g><path d="M 4.828125 -3.359375 C 4.742188 -3.265625 4.582031 -3.191406 4.34375 -3.140625 C 4.101562 -3.085938 3.65625 -3.019531 3 -2.9375 C 2.519531 -2.882812 2.164062 -2.765625 1.9375 -2.578125 C 1.707031 -2.398438 1.59375 -2.164062 1.59375 -1.875 C 1.59375 -1.507812 1.6875 -1.226562 1.875 -1.03125 C 2.070312 -0.832031 2.378906 -0.734375 2.796875 -0.734375 C 3.328125 -0.734375 3.796875 -0.878906 4.203125 -1.171875 C 4.617188 -1.472656 4.828125 -1.84375 4.828125 -2.28125 Z M 0.78125 -4.5625 C 0.800781 -5.3125 1.039062 -5.863281 1.5 -6.21875 C 1.957031 -6.582031 2.617188 -6.765625 3.484375 -6.765625 C 4.179688 -6.765625 4.765625 -6.601562 5.234375 -6.28125 C 5.703125 -5.96875 5.9375 -5.515625 5.9375 -4.921875 L 5.9375 -1.140625 C 5.9375 -0.878906 6.054688 -0.75 6.296875 -0.75 C 6.390625 -0.75 6.507812 -0.765625 6.65625 -0.796875 L 6.65625 0 C 6.457031 0.0820312 6.25 0.125 6.03125 0.125 C 5.65625 0.125 5.375 0.046875 5.1875 -0.109375 C 5 -0.273438 4.90625 -0.53125 4.90625 -0.875 C 4.269531 -0.164062 3.476562 0.1875 2.53125 0.1875 C 1.90625 0.1875 1.40625 0.015625 1.03125 -0.328125 C 0.65625 -0.679688 0.46875 -1.144531 0.46875 -1.71875 C 0.46875 -2.289062 0.628906 -2.753906 0.953125 -3.109375 C 1.285156 -3.460938 1.765625 -3.675781 2.390625 -3.75 L 4.34375 -4 C 4.6875 -4.050781 4.859375 -4.304688 4.859375 -4.765625 C 4.859375 -5.109375 4.726562 -5.375 4.46875 -5.5625 C 4.21875 -5.75 3.832031 -5.84375 3.3125 -5.84375 C 2.851562 -5.84375 2.5 -5.738281 2.25 -5.53125 C 2.007812 -5.320312 1.863281 -5 1.8125 -4.5625 Z M 0.78125 -4.5625 "/></g></g><g transform="translate(43.490845, 91.037888)"><g><path d="M 6.1875 0 L 5.078125 0 L 5.078125 -4.046875 C 5.078125 -4.660156 4.96875 -5.097656 4.75 -5.359375 C 4.53125 -5.628906 4.171875 -5.765625 3.671875 -5.765625 C 3.171875 -5.765625 2.753906 -5.578125 2.421875 -5.203125 C 2.097656 -4.828125 1.9375 -4.285156 1.9375 -3.578125 L 1.9375 0 L 0.828125 0 L 0.828125 -6.5625 L 1.875 -6.5625 L 1.875 -5.640625 L 1.890625 -5.640625 C 2.410156 -6.390625 3.078125 -6.765625 3.890625 -6.765625 C 4.628906 -6.765625 5.195312 -6.566406 5.59375 -6.171875 C 5.988281 -5.773438 6.1875 -5.207031 6.1875 -4.46875 Z M 6.1875 0 "/></g></g><g transform="translate(50.423307, 91.037888)"><g/></g><g transform="translate(53.490768, 91.037888)"><g><path d="M 2.234375 -4.859375 L 4.65625 -4.859375 C 5.269531 -4.859375 5.726562 -4.988281 6.03125 -5.25 C 6.34375 -5.519531 6.5 -5.925781 6.5 -6.46875 C 6.5 -6.957031 6.347656 -7.328125 6.046875 -7.578125 C 5.753906 -7.835938 5.3125 -7.96875 4.71875 -7.96875 L 2.234375 -7.96875 Z M 2.234375 0 L 1.015625 0 L 1.015625 -9.015625 L 5.078125 -9.015625 C 5.878906 -9.015625 6.523438 -8.78125 7.015625 -8.3125 C 7.503906 -7.84375 7.75 -7.234375 7.75 -6.484375 C 7.75 -5.703125 7.507812 -5.0625 7.03125 -4.5625 C 6.5625 -4.0625 5.910156 -3.8125 5.078125 -3.8125 L 2.234375 -3.8125 Z M 2.234375 0 "/></g></g><g transform="translate(61.613404, 91.037888)"><g><path d="M 0.828125 -7.765625 L 0.828125 -9.015625 L 1.9375 -9.015625 L 1.9375 -7.765625 Z M 1.9375 0 L 0.828125 0 L 0.828125 -6.5625 L 1.9375 -6.5625 Z M 1.9375 0 "/></g></g><g transform="translate(64.380254, 91.037888)"><g><path d="M 1.765625 -0.921875 L 5.8125 -0.921875 L 5.8125 0 L 0.296875 0 L 0.296875 -0.859375 L 4.28125 -5.65625 L 0.625 -5.65625 L 0.625 -6.5625 L 5.6875 -6.5625 L 5.6875 -5.671875 Z M 1.765625 -0.921875 "/></g></g><g transform="translate(70.564255, 91.037888)"><g><path d="M 4.828125 -3.359375 C 4.742188 -3.265625 4.582031 -3.191406 4.34375 -3.140625 C 4.101562 -3.085938 3.65625 -3.019531 3 -2.9375 C 2.519531 -2.882812 2.164062 -2.765625 1.9375 -2.578125 C 1.707031 -2.398438 1.59375 -2.164062 1.59375 -1.875 C 1.59375 -1.507812 1.6875 -1.226562 1.875 -1.03125 C 2.070312 -0.832031 2.378906 -0.734375 2.796875 -0.734375 C 3.328125 -0.734375 3.796875 -0.878906 4.203125 -1.171875 C 4.617188 -1.472656 4.828125 -1.84375 4.828125 -2.28125 Z M 0.78125 -4.5625 C 0.800781 -5.3125 1.039062 -5.863281 1.5 -6.21875 C 1.957031 -6.582031 2.617188 -6.765625 3.484375 -6.765625 C 4.179688 -6.765625 4.765625 -6.601562 5.234375 -6.28125 C 5.703125 -5.96875 5.9375 -5.515625 5.9375 -4.921875 L 5.9375 -1.140625 C 5.9375 -0.878906 6.054688 -0.75 6.296875 -0.75 C 6.390625 -0.75 6.507812 -0.765625 6.65625 -0.796875 L 6.65625 0 C 6.457031 0.0820312 6.25 0.125 6.03125 0.125 C 5.65625 0.125 5.375 0.046875 5.1875 -0.109375 C 5 -0.273438 4.90625 -0.53125 4.90625 -0.875 C 4.269531 -0.164062 3.476562 0.1875 2.53125 0.1875 C 1.90625 0.1875 1.40625 0.015625 1.03125 -0.328125 C 0.65625 -0.679688 0.46875 -1.144531 0.46875 -1.71875 C 0.46875 -2.289062 0.628906 -2.753906 0.953125 -3.109375 C 1.285156 -3.460938 1.765625 -3.675781 2.390625 -3.75 L 4.34375 -4 C 4.6875 -4.050781 4.859375 -4.304688 4.859375 -4.765625 C 4.859375 -5.109375 4.726562 -5.375 4.46875 -5.5625 C 4.21875 -5.75 3.832031 -5.84375 3.3125 -5.84375 C 2.851562 -5.84375 2.5 -5.738281 2.25 -5.53125 C 2.007812 -5.320312 1.863281 -5 1.8125 -4.5625 Z M 0.78125 -4.5625 "/></g></g><g transform="translate(77.466041, 91.037888)"><g><path d="M 1.9375 0 L 0.828125 0 L 0.828125 -6.5625 L 1.875 -6.5625 L 1.875 -5.484375 L 1.890625 -5.484375 C 2.367188 -6.335938 2.984375 -6.765625 3.734375 -6.765625 C 3.859375 -6.765625 3.957031 -6.75 4.03125 -6.71875 L 4.03125 -5.578125 L 3.625 -5.578125 C 3.125 -5.578125 2.71875 -5.40625 2.40625 -5.0625 C 2.09375 -4.726562 1.9375 -4.316406 1.9375 -3.828125 Z M 1.9375 0 "/></g></g><g transform="translate(81.558034, 91.037888)"><g><path d="M 1.9375 0 L 0.828125 0 L 0.828125 -6.5625 L 1.875 -6.5625 L 1.875 -5.484375 L 1.890625 -5.484375 C 2.367188 -6.335938 2.984375 -6.765625 3.734375 -6.765625 C 3.859375 -6.765625 3.957031 -6.75 4.03125 -6.71875 L 4.03125 -5.578125 L 3.625 -5.578125 C 3.125 -5.578125 2.71875 -5.40625 2.40625 -5.0625 C 2.09375 -4.726562 1.9375 -4.316406 1.9375 -3.828125 Z M 1.9375 0 "/></g></g><g transform="translate(85.650027, 91.037888)"><g><path d="M 1.59375 -3.296875 C 1.59375 -2.566406 1.757812 -1.960938 2.09375 -1.484375 C 2.425781 -1.015625 2.894531 -0.78125 3.5 -0.78125 C 4.132812 -0.78125 4.613281 -1.023438 4.9375 -1.515625 C 5.257812 -2.015625 5.421875 -2.609375 5.421875 -3.296875 C 5.421875 -3.992188 5.257812 -4.582031 4.9375 -5.0625 C 4.613281 -5.550781 4.132812 -5.796875 3.5 -5.796875 C 2.914062 -5.796875 2.453125 -5.566406 2.109375 -5.109375 C 1.765625 -4.648438 1.59375 -4.046875 1.59375 -3.296875 Z M 0.46875 -3.296875 C 0.46875 -4.273438 0.738281 -5.097656 1.28125 -5.765625 C 1.820312 -6.429688 2.5625 -6.765625 3.5 -6.765625 C 4.457031 -6.765625 5.207031 -6.425781 5.75 -5.75 C 6.289062 -5.070312 6.5625 -4.253906 6.5625 -3.296875 C 6.5625 -2.328125 6.289062 -1.503906 5.75 -0.828125 C 5.21875 -0.148438 4.46875 0.1875 3.5 0.1875 C 2.570312 0.1875 1.832031 -0.140625 1.28125 -0.796875 C 0.738281 -1.453125 0.46875 -2.285156 0.46875 -3.296875 Z M 0.46875 -3.296875 "/></g></g></g><g fill="#000000" fill-opacity="1"><g transform="translate(10.920547, 106.115071)"><g><path d="M 2.234375 0 L 1.015625 0 L 1.015625 -9.015625 L 2.234375 -9.015625 Z M 2.234375 0 "/></g></g><g transform="translate(14.159785, 106.115071)"><g><path d="M 1.625 -3.3125 C 1.625 -2.5 1.785156 -1.867188 2.109375 -1.421875 C 2.429688 -0.984375 2.863281 -0.765625 3.40625 -0.765625 C 3.9375 -0.765625 4.367188 -0.957031 4.703125 -1.34375 C 5.035156 -1.726562 5.203125 -2.269531 5.203125 -2.96875 C 5.203125 -3.894531 5.054688 -4.59375 4.765625 -5.0625 C 4.472656 -5.53125 4.023438 -5.765625 3.421875 -5.765625 C 2.828125 -5.765625 2.378906 -5.5625 2.078125 -5.15625 C 1.773438 -4.757812 1.625 -4.144531 1.625 -3.3125 Z M 6.25 -0.375 C 6.25 0.675781 5.992188 1.460938 5.484375 1.984375 C 4.984375 2.503906 4.222656 2.765625 3.203125 2.765625 C 2.460938 2.765625 1.875 2.59375 1.4375 2.25 C 1.007812 1.914062 0.757812 1.429688 0.6875 0.796875 L 1.796875 0.796875 C 1.859375 1.117188 2.003906 1.375 2.234375 1.5625 C 2.472656 1.75 2.820312 1.84375 3.28125 1.84375 C 3.894531 1.84375 4.359375 1.675781 4.671875 1.34375 C 4.992188 1.019531 5.15625 0.484375 5.15625 -0.265625 L 5.15625 -0.734375 L 5.125 -0.734375 C 4.71875 -0.117188 4.132812 0.1875 3.375 0.1875 C 2.4375 0.1875 1.71875 -0.15625 1.21875 -0.84375 C 0.726562 -1.539062 0.484375 -2.421875 0.484375 -3.484375 C 0.484375 -4.453125 0.734375 -5.238281 1.234375 -5.84375 C 1.734375 -6.457031 2.394531 -6.765625 3.21875 -6.765625 C 4.050781 -6.765625 4.707031 -6.390625 5.1875 -5.640625 L 5.21875 -5.640625 L 5.21875 -6.5625 L 6.25 -6.5625 Z M 6.25 -0.375 "/></g></g><g transform="translate(21.18427, 106.115071)"><g><path d="M 6.1875 0 L 5.078125 0 L 5.078125 -4.046875 C 5.078125 -4.660156 4.96875 -5.097656 4.75 -5.359375 C 4.53125 -5.628906 4.171875 -5.765625 3.671875 -5.765625 C 3.171875 -5.765625 2.753906 -5.578125 2.421875 -5.203125 C 2.097656 -4.828125 1.9375 -4.285156 1.9375 -3.578125 L 1.9375 0 L 0.828125 0 L 0.828125 -6.5625 L 1.875 -6.5625 L 1.875 -5.640625 L 1.890625 -5.640625 C 2.410156 -6.390625 3.078125 -6.765625 3.890625 -6.765625 C 4.628906 -6.765625 5.195312 -6.566406 5.59375 -6.171875 C 5.988281 -5.773438 6.1875 -5.207031 6.1875 -4.46875 Z M 6.1875 0 "/></g></g><g transform="translate(28.116732, 106.115071)"><g><path d="M 4.828125 -3.359375 C 4.742188 -3.265625 4.582031 -3.191406 4.34375 -3.140625 C 4.101562 -3.085938 3.65625 -3.019531 3 -2.9375 C 2.519531 -2.882812 2.164062 -2.765625 1.9375 -2.578125 C 1.707031 -2.398438 1.59375 -2.164062 1.59375 -1.875 C 1.59375 -1.507812 1.6875 -1.226562 1.875 -1.03125 C 2.070312 -0.832031 2.378906 -0.734375 2.796875 -0.734375 C 3.328125 -0.734375 3.796875 -0.878906 4.203125 -1.171875 C 4.617188 -1.472656 4.828125 -1.84375 4.828125 -2.28125 Z M 0.78125 -4.5625 C 0.800781 -5.3125 1.039062 -5.863281 1.5 -6.21875 C 1.957031 -6.582031 2.617188 -6.765625 3.484375 -6.765625 C 4.179688 -6.765625 4.765625 -6.601562 5.234375 -6.28125 C 5.703125 -5.96875 5.9375 -5.515625 5.9375 -4.921875 L 5.9375 -1.140625 C 5.9375 -0.878906 6.054688 -0.75 6.296875 -0.75 C 6.390625 -0.75 6.507812 -0.765625 6.65625 -0.796875 L 6.65625 0 C 6.457031 0.0820312 6.25 0.125 6.03125 0.125 C 5.65625 0.125 5.375 0.046875 5.1875 -0.109375 C 5 -0.273438 4.90625 -0.53125 4.90625 -0.875 C 4.269531 -0.164062 3.476562 0.1875 2.53125 0.1875 C 1.90625 0.1875 1.40625 0.015625 1.03125 -0.328125 C 0.65625 -0.679688 0.46875 -1.144531 0.46875 -1.71875 C 0.46875 -2.289062 0.628906 -2.753906 0.953125 -3.109375 C 1.285156 -3.460938 1.765625 -3.675781 2.390625 -3.75 L 4.34375 -4 C 4.6875 -4.050781 4.859375 -4.304688 4.859375 -4.765625 C 4.859375 -5.109375 4.726562 -5.375 4.46875 -5.5625 C 4.21875 -5.75 3.832031 -5.84375 3.3125 -5.84375 C 2.851562 -5.84375 2.5 -5.738281 2.25 -5.53125 C 2.007812 -5.320312 1.863281 -5 1.8125 -4.5625 Z M 0.78125 -4.5625 "/></g></g><g transform="translate(35.018519, 106.115071)"><g><path d="M 4.96875 -4.359375 C 4.8125 -5.296875 4.296875 -5.765625 3.421875 -5.765625 C 2.867188 -5.765625 2.425781 -5.546875 2.09375 -5.109375 C 1.769531 -4.671875 1.609375 -4.066406 1.609375 -3.296875 C 1.609375 -2.453125 1.757812 -1.816406 2.0625 -1.390625 C 2.375 -0.972656 2.820312 -0.765625 3.40625 -0.765625 C 3.800781 -0.765625 4.140625 -0.90625 4.421875 -1.1875 C 4.710938 -1.476562 4.894531 -1.859375 4.96875 -2.328125 L 6.046875 -2.328125 C 5.929688 -1.515625 5.640625 -0.890625 5.171875 -0.453125 C 4.710938 -0.0234375 4.113281 0.1875 3.375 0.1875 C 2.507812 0.1875 1.800781 -0.101562 1.25 -0.6875 C 0.695312 -1.28125 0.421875 -2.085938 0.421875 -3.109375 C 0.421875 -4.210938 0.695312 -5.097656 1.25 -5.765625 C 1.800781 -6.429688 2.578125 -6.765625 3.578125 -6.765625 C 4.304688 -6.765625 4.882812 -6.546875 5.3125 -6.109375 C 5.75 -5.671875 5.992188 -5.085938 6.046875 -4.359375 Z M 4.96875 -4.359375 "/></g></g><g transform="translate(41.460186, 106.115071)"><g><path d="M 0.828125 -7.765625 L 0.828125 -9.015625 L 1.9375 -9.015625 L 1.9375 -7.765625 Z M 1.9375 0 L 0.828125 0 L 0.828125 -6.5625 L 1.9375 -6.5625 Z M 1.9375 0 "/></g></g><g transform="translate(44.227036, 106.115071)"><g><path d="M 1.59375 -3.296875 C 1.59375 -2.566406 1.757812 -1.960938 2.09375 -1.484375 C 2.425781 -1.015625 2.894531 -0.78125 3.5 -0.78125 C 4.132812 -0.78125 4.613281 -1.023438 4.9375 -1.515625 C 5.257812 -2.015625 5.421875 -2.609375 5.421875 -3.296875 C 5.421875 -3.992188 5.257812 -4.582031 4.9375 -5.0625 C 4.613281 -5.550781 4.132812 -5.796875 3.5 -5.796875 C 2.914062 -5.796875 2.453125 -5.566406 2.109375 -5.109375 C 1.765625 -4.648438 1.59375 -4.046875 1.59375 -3.296875 Z M 0.46875 -3.296875 C 0.46875 -4.273438 0.738281 -5.097656 1.28125 -5.765625 C 1.820312 -6.429688 2.5625 -6.765625 3.5 -6.765625 C 4.457031 -6.765625 5.207031 -6.425781 5.75 -5.75 C 6.289062 -5.070312 6.5625 -4.253906 6.5625 -3.296875 C 6.5625 -2.328125 6.289062 -1.503906 5.75 -0.828125 C 5.21875 -0.148438 4.46875 0.1875 3.5 0.1875 C 2.570312 0.1875 1.832031 -0.140625 1.28125 -0.796875 C 0.738281 -1.453125 0.46875 -2.285156 0.46875 -3.296875 Z M 0.46875 -3.296875 "/></g></g><g transform="translate(51.251521, 106.115071)"><g/></g><g transform="translate(54.318982, 106.115071)"><g><path d="M 8.15625 0 L 6.9375 0 L 6.9375 -4.203125 L 2.21875 -4.203125 L 2.21875 0 L 1.015625 0 L 1.015625 -9.015625 L 2.21875 -9.015625 L 2.21875 -5.28125 L 6.9375 -5.28125 L 6.9375 -9.015625 L 8.15625 -9.015625 Z M 8.15625 0 "/></g></g><g transform="translate(63.49069, 106.115071)"><g><path d="M 5.34375 -3.8125 C 5.28125 -4.519531 5.085938 -5.019531 4.765625 -5.3125 C 4.453125 -5.613281 4.03125 -5.765625 3.5 -5.765625 C 2.96875 -5.765625 2.535156 -5.578125 2.203125 -5.203125 C 1.878906 -4.828125 1.707031 -4.363281 1.6875 -3.8125 Z M 6.390625 -2.0625 C 6.265625 -1.382812 5.929688 -0.820312 5.390625 -0.375 C 4.910156 0 4.28125 0.191406 3.5 0.203125 C 2.582031 0.191406 1.851562 -0.109375 1.3125 -0.703125 C 0.769531 -1.296875 0.5 -2.097656 0.5 -3.109375 C 0.5 -4.253906 0.773438 -5.148438 1.328125 -5.796875 C 1.890625 -6.441406 2.664062 -6.765625 3.65625 -6.765625 C 4.539062 -6.765625 5.234375 -6.429688 5.734375 -5.765625 C 6.234375 -5.097656 6.484375 -4.148438 6.484375 -2.921875 L 1.6875 -2.921875 C 1.6875 -2.234375 1.84375 -1.703125 2.15625 -1.328125 C 2.476562 -0.953125 2.957031 -0.765625 3.59375 -0.765625 C 4.039062 -0.765625 4.425781 -0.898438 4.75 -1.171875 C 5.070312 -1.441406 5.25 -1.738281 5.28125 -2.0625 Z M 6.390625 -2.0625 "/></g></g><g transform="translate(70.453826, 106.115071)"><g><path d="M 1.9375 0 L 0.828125 0 L 0.828125 -9.015625 L 1.9375 -9.015625 Z M 1.9375 0 "/></g></g><g transform="translate(73.220675, 106.115071)"><g><path d="M 1.59375 -3.296875 C 1.59375 -2.566406 1.757812 -1.960938 2.09375 -1.484375 C 2.425781 -1.015625 2.894531 -0.78125 3.5 -0.78125 C 4.132812 -0.78125 4.613281 -1.023438 4.9375 -1.515625 C 5.257812 -2.015625 5.421875 -2.609375 5.421875 -3.296875 C 5.421875 -3.992188 5.257812 -4.582031 4.9375 -5.0625 C 4.613281 -5.550781 4.132812 -5.796875 3.5 -5.796875 C 2.914062 -5.796875 2.453125 -5.566406 2.109375 -5.109375 C 1.765625 -4.648438 1.59375 -4.046875 1.59375 -3.296875 Z M 0.46875 -3.296875 C 0.46875 -4.273438 0.738281 -5.097656 1.28125 -5.765625 C 1.820312 -6.429688 2.5625 -6.765625 3.5 -6.765625 C 4.457031 -6.765625 5.207031 -6.425781 5.75 -5.75 C 6.289062 -5.070312 6.5625 -4.253906 6.5625 -3.296875 C 6.5625 -2.328125 6.289062 -1.503906 5.75 -0.828125 C 5.21875 -0.148438 4.46875 0.1875 3.5 0.1875 C 2.570312 0.1875 1.832031 -0.140625 1.28125 -0.796875 C 0.738281 -1.453125 0.46875 -2.285156 0.46875 -3.296875 Z M 0.46875 -3.296875 "/></g></g></g></svg>