<svg xmlns="http://www.w3.org/2000/svg" xmlns:xlink="http://www.w3.org/1999/xlink" width="182" zoomAndPan="magnify" viewBox="0 0 136.5 45.749998" height="61" preserveAspectRatio="xMidYMid meet" version="1.0"><defs><g/><clipPath id="1fbe70a67d"><path d="M 0.121094 0.683594 L 135.878906 0.683594 L 135.878906 44.539062 L 0.121094 44.539062 Z M 0.121094 0.683594 " clip-rule="nonzero"/></clipPath><clipPath id="56740e1dc8"><path d="M 22.050781 0.683594 L 113.902344 0.683594 C 119.71875 0.683594 125.296875 2.992188 129.410156 7.105469 C 133.519531 11.21875 135.832031 16.796875 135.832031 22.609375 C 135.832031 28.425781 133.519531 34.003906 129.410156 38.117188 C 125.296875 42.230469 119.71875 44.539062 113.902344 44.539062 L 22.050781 44.539062 C 16.234375 44.539062 10.65625 42.230469 6.542969 38.117188 C 2.433594 34.003906 0.121094 28.425781 0.121094 22.609375 C 0.121094 16.796875 2.433594 11.21875 6.542969 7.105469 C 10.65625 2.992188 16.234375 0.683594 22.050781 0.683594 Z M 22.050781 0.683594 " clip-rule="nonzero"/></clipPath><clipPath id="d2df7a5a56"><path d="M 0.121094 0.683594 L 135.878906 0.683594 L 135.878906 44.691406 L 0.121094 44.691406 Z M 0.121094 0.683594 " clip-rule="nonzero"/></clipPath><clipPath id="371fa3a1f7"><path d="M 22.054688 0.683594 L 113.886719 0.683594 C 119.703125 0.683594 125.277344 2.992188 129.390625 7.105469 C 133.5 11.214844 135.8125 16.792969 135.8125 22.605469 C 135.8125 28.421875 133.5 33.996094 129.390625 38.109375 C 125.277344 42.21875 119.703125 44.53125 113.886719 44.53125 L 22.054688 44.53125 C 16.242188 44.53125 10.664062 42.21875 6.554688 38.109375 C 2.441406 33.996094 0.132812 28.421875 0.132812 22.605469 C 0.132812 16.792969 2.441406 11.214844 6.554688 7.105469 C 10.664062 2.992188 16.242188 0.683594 22.054688 0.683594 Z M 22.054688 0.683594 " clip-rule="nonzero"/></clipPath></defs><g clip-path="url(#1fbe70a67d)"><g clip-path="url(#56740e1dc8)"><path fill="#ffa52d" d="M 0.121094 0.683594 L 135.800781 0.683594 L 135.800781 44.539062 L 0.121094 44.539062 Z M 0.121094 0.683594 " fill-opacity="1" fill-rule="nonzero"/></g></g><g clip-path="url(#d2df7a5a56)"><g clip-path="url(#371fa3a1f7)"><path stroke-linecap="butt" transform="matrix(0.745924, 0, 0, 0.745924, 0.132993, 0.683124)" fill="none" stroke-linejoin="miter" d="M 29.388648 0.000630184 L 152.500443 0.000630184 C 160.29803 0.000630184 167.770935 3.095576 173.28528 8.60992 C 178.794387 14.119027 181.894569 21.59717 181.894569 29.389519 C 181.894569 37.187106 178.794387 44.660011 173.28528 50.174356 C 167.770935 55.683463 160.29803 58.783645 152.500443 58.783645 L 29.388648 58.783645 C 21.596298 58.783645 14.118156 55.683463 8.609048 50.174356 C 3.094704 44.660011 -0.000241413 37.187106 -0.000241413 29.389519 C -0.000241413 21.59717 3.094704 14.119027 8.609048 8.60992 C 14.118156 3.095576 21.596298 0.000630184 29.388648 0.000630184 Z M 29.388648 0.000630184 " stroke="#0f0d10" stroke-width="4" stroke-opacity="1" stroke-miterlimit="4"/></g></g><g fill="#231f20" fill-opacity="1"><g transform="translate(28.608074, 18.884512)"><g><path d="M 4.34375 0.125 C 3.5625 0.125 2.882812 -0.0234375 2.3125 -0.328125 C 1.738281 -0.640625 1.304688 -1.046875 1.015625 -1.546875 C 0.722656 -2.046875 0.578125 -2.5625 0.578125 -3.09375 L 0.578125 -3.21875 L 2.96875 -3.21875 L 2.96875 -3.109375 C 2.96875 -2.773438 3.085938 -2.46875 3.328125 -2.1875 C 3.566406 -1.914062 3.921875 -1.78125 4.390625 -1.78125 C 4.785156 -1.78125 5.101562 -1.878906 5.34375 -2.078125 C 5.59375 -2.285156 5.71875 -2.554688 5.71875 -2.890625 C 5.71875 -3.191406 5.609375 -3.429688 5.390625 -3.609375 C 5.179688 -3.796875 4.921875 -3.921875 4.609375 -3.984375 L 3.484375 -4.203125 C 2.835938 -4.347656 2.226562 -4.625 1.65625 -5.03125 C 1.09375 -5.445312 0.8125 -6.117188 0.8125 -7.046875 C 0.8125 -7.660156 0.957031 -8.1875 1.25 -8.625 C 1.539062 -9.0625 1.945312 -9.394531 2.46875 -9.625 C 2.988281 -9.851562 3.582031 -9.96875 4.25 -9.96875 C 5 -9.96875 5.648438 -9.820312 6.203125 -9.53125 C 6.753906 -9.25 7.164062 -8.875 7.4375 -8.40625 C 7.71875 -7.945312 7.859375 -7.46875 7.859375 -6.96875 L 7.859375 -6.90625 L 5.46875 -6.90625 L 5.46875 -6.9375 C 5.46875 -7.238281 5.363281 -7.515625 5.15625 -7.765625 C 4.945312 -8.023438 4.613281 -8.15625 4.15625 -8.15625 C 3.800781 -8.15625 3.519531 -8.054688 3.3125 -7.859375 C 3.101562 -7.671875 3 -7.414062 3 -7.09375 C 3 -6.789062 3.113281 -6.550781 3.34375 -6.375 C 3.582031 -6.195312 3.863281 -6.070312 4.1875 -6 L 5.328125 -5.75 C 6.054688 -5.59375 6.679688 -5.296875 7.203125 -4.859375 C 7.722656 -4.421875 7.984375 -3.785156 7.984375 -2.953125 C 7.984375 -2.335938 7.828125 -1.796875 7.515625 -1.328125 C 7.203125 -0.859375 6.765625 -0.5 6.203125 -0.25 C 5.648438 0 5.03125 0.125 4.34375 0.125 Z M 4.34375 0.125 "/></g></g></g><g fill="#231f20" fill-opacity="1"><g transform="translate(37.055534, 18.884512)"><g><path d="M 0.828125 -9.78125 L 3.015625 -9.78125 L 3.015625 0 L 0.828125 0 Z M 0.828125 -9.78125 "/></g></g></g><g fill="#231f20" fill-opacity="1"><g transform="translate(40.909251, 18.884512)"><g><path d="M 4.34375 0.125 C 3.5625 0.125 2.882812 -0.0234375 2.3125 -0.328125 C 1.738281 -0.640625 1.304688 -1.046875 1.015625 -1.546875 C 0.722656 -2.046875 0.578125 -2.5625 0.578125 -3.09375 L 0.578125 -3.21875 L 2.96875 -3.21875 L 2.96875 -3.109375 C 2.96875 -2.773438 3.085938 -2.46875 3.328125 -2.1875 C 3.566406 -1.914062 3.921875 -1.78125 4.390625 -1.78125 C 4.785156 -1.78125 5.101562 -1.878906 5.34375 -2.078125 C 5.59375 -2.285156 5.71875 -2.554688 5.71875 -2.890625 C 5.71875 -3.191406 5.609375 -3.429688 5.390625 -3.609375 C 5.179688 -3.796875 4.921875 -3.921875 4.609375 -3.984375 L 3.484375 -4.203125 C 2.835938 -4.347656 2.226562 -4.625 1.65625 -5.03125 C 1.09375 -5.445312 0.8125 -6.117188 0.8125 -7.046875 C 0.8125 -7.660156 0.957031 -8.1875 1.25 -8.625 C 1.539062 -9.0625 1.945312 -9.394531 2.46875 -9.625 C 2.988281 -9.851562 3.582031 -9.96875 4.25 -9.96875 C 5 -9.96875 5.648438 -9.820312 6.203125 -9.53125 C 6.753906 -9.25 7.164062 -8.875 7.4375 -8.40625 C 7.71875 -7.945312 7.859375 -7.46875 7.859375 -6.96875 L 7.859375 -6.90625 L 5.46875 -6.90625 L 5.46875 -6.9375 C 5.46875 -7.238281 5.363281 -7.515625 5.15625 -7.765625 C 4.945312 -8.023438 4.613281 -8.15625 4.15625 -8.15625 C 3.800781 -8.15625 3.519531 -8.054688 3.3125 -7.859375 C 3.101562 -7.671875 3 -7.414062 3 -7.09375 C 3 -6.789062 3.113281 -6.550781 3.34375 -6.375 C 3.582031 -6.195312 3.863281 -6.070312 4.1875 -6 L 5.328125 -5.75 C 6.054688 -5.59375 6.679688 -5.296875 7.203125 -4.859375 C 7.722656 -4.421875 7.984375 -3.785156 7.984375 -2.953125 C 7.984375 -2.335938 7.828125 -1.796875 7.515625 -1.328125 C 7.203125 -0.859375 6.765625 -0.5 6.203125 -0.25 C 5.648438 0 5.03125 0.125 4.34375 0.125 Z M 4.34375 0.125 "/></g></g></g><g fill="#231f20" fill-opacity="1"><g transform="translate(49.356712, 18.884512)"><g><path d="M 7.796875 -7.875 L 5.21875 -7.875 L 5.21875 0 L 3.0625 0 L 3.0625 -7.875 L 0.484375 -7.875 L 0.484375 -9.78125 L 7.796875 -9.78125 Z M 7.796875 -7.875 "/></g></g></g><g fill="#231f20" fill-opacity="1"><g transform="translate(57.650585, 18.884512)"><g><path d="M 2.921875 -7.875 L 2.921875 -5.796875 L 6.640625 -5.796875 L 6.640625 -4.109375 L 2.921875 -4.109375 L 2.921875 -1.90625 L 7.328125 -1.90625 L 7.328125 0 L 0.71875 0 L 0.71875 -9.78125 L 7.328125 -9.78125 L 7.328125 -7.875 Z M 2.921875 -7.875 "/></g></g></g><g fill="#231f20" fill-opacity="1"><g transform="translate(65.553502, 18.884512)"><g><path d="M 0.71875 -9.78125 L 3.96875 -9.78125 L 5.875 -4.234375 L 5.921875 -4.234375 L 7.84375 -9.78125 L 11.078125 -9.78125 L 11.078125 0 L 8.9375 0 L 8.9375 -6.703125 L 8.890625 -6.703125 L 6.59375 0 L 5.203125 0 L 2.921875 -6.703125 L 2.859375 -6.703125 L 2.859375 0 L 0.71875 0 Z M 0.71875 -9.78125 "/></g></g></g><g fill="#231f20" fill-opacity="1"><g transform="translate(77.35202, 18.884512)"><g><path d="M 6.28125 -2.265625 L 3.15625 -2.265625 L 2.453125 0 L 0.25 0 L 3.734375 -9.78125 L 5.75 -9.78125 L 9.203125 0 L 7 0 Z M 5.75 -3.921875 L 4.75 -7.078125 L 4.671875 -7.078125 L 3.6875 -3.921875 Z M 5.75 -3.921875 "/></g></g></g><g fill="#231f20" fill-opacity="1"><g transform="translate(86.748947, 18.884512)"><g/></g></g><g fill="#231f20" fill-opacity="1"><g transform="translate(89.960383, 18.884512)"><g><path d="M 0.71875 -9.796875 L 4.578125 -9.796875 C 5.441406 -9.796875 6.203125 -9.597656 6.859375 -9.203125 C 7.523438 -8.816406 8.039062 -8.257812 8.40625 -7.53125 C 8.78125 -6.800781 8.96875 -5.929688 8.96875 -4.921875 C 8.96875 -3.878906 8.78125 -2.988281 8.40625 -2.25 C 8.03125 -1.519531 7.507812 -0.960938 6.84375 -0.578125 C 6.1875 -0.203125 5.421875 -0.015625 4.546875 -0.015625 L 0.71875 -0.015625 Z M 4.15625 -1.96875 C 4.914062 -1.96875 5.519531 -2.1875 5.96875 -2.625 C 6.414062 -3.0625 6.640625 -3.828125 6.640625 -4.921875 C 6.640625 -6.003906 6.414062 -6.765625 5.96875 -7.203125 C 5.53125 -7.640625 4.925781 -7.859375 4.15625 -7.859375 L 2.828125 -7.859375 L 2.828125 -1.96875 Z M 4.15625 -1.96875 "/></g></g></g><g fill="#231f20" fill-opacity="1"><g transform="translate(99.413161, 18.884512)"><g><path d="M 2.921875 -7.875 L 2.921875 -5.796875 L 6.640625 -5.796875 L 6.640625 -4.109375 L 2.921875 -4.109375 L 2.921875 -1.90625 L 7.328125 -1.90625 L 7.328125 0 L 0.71875 0 L 0.71875 -9.78125 L 7.328125 -9.78125 L 7.328125 -7.875 Z M 2.921875 -7.875 "/></g></g></g><g fill="#231f20" fill-opacity="1"><g transform="translate(24.750248, 38.278534)"><g><path d="M 2.921875 -7.875 L 2.921875 -5.796875 L 6.640625 -5.796875 L 6.640625 -4.109375 L 2.921875 -4.109375 L 2.921875 -1.90625 L 7.328125 -1.90625 L 7.328125 0 L 0.71875 0 L 0.71875 -9.78125 L 7.328125 -9.78125 L 7.328125 -7.875 Z M 2.921875 -7.875 "/></g></g></g><g fill="#231f20" fill-opacity="1"><g transform="translate(32.653165, 38.278534)"><g><path d="M 3.484375 -4.890625 L 0.328125 -9.78125 L 2.703125 -9.78125 L 4.734375 -6.421875 L 4.8125 -6.421875 L 6.875 -9.78125 L 9.234375 -9.78125 L 6.0625 -4.890625 L 9.25 0 L 6.875 0 L 4.8125 -3.359375 L 4.734375 -3.359375 L 2.703125 0 L 0.328125 0 Z M 3.484375 -4.890625 "/></g></g></g><g fill="#231f20" fill-opacity="1"><g transform="translate(42.161794, 38.278534)"><g><path d="M 4.4375 -9.78125 C 5.207031 -9.78125 5.859375 -9.617188 6.390625 -9.296875 C 6.929688 -8.984375 7.332031 -8.566406 7.59375 -8.046875 C 7.851562 -7.523438 7.984375 -6.960938 7.984375 -6.359375 C 7.984375 -5.765625 7.851562 -5.210938 7.59375 -4.703125 C 7.34375 -4.191406 6.945312 -3.78125 6.40625 -3.46875 C 5.875 -3.164062 5.21875 -3.015625 4.4375 -3.015625 L 2.859375 -3.015625 L 2.859375 0 L 0.71875 0 L 0.71875 -9.78125 Z M 4.09375 -4.8125 C 4.59375 -4.8125 5.015625 -4.925781 5.359375 -5.15625 C 5.703125 -5.394531 5.875 -5.796875 5.875 -6.359375 C 5.875 -6.910156 5.703125 -7.296875 5.359375 -7.515625 C 5.023438 -7.742188 4.601562 -7.859375 4.09375 -7.859375 L 2.859375 -7.859375 L 2.859375 -4.8125 Z M 4.09375 -4.8125 "/></g></g></g><g fill="#231f20" fill-opacity="1"><g transform="translate(50.343966, 38.278534)"><g><path d="M 2.921875 -7.875 L 2.921875 -5.796875 L 6.640625 -5.796875 L 6.640625 -4.109375 L 2.921875 -4.109375 L 2.921875 -1.90625 L 7.328125 -1.90625 L 7.328125 0 L 0.71875 0 L 0.71875 -9.78125 L 7.328125 -9.78125 L 7.328125 -7.875 Z M 2.921875 -7.875 "/></g></g></g><g fill="#231f20" fill-opacity="1"><g transform="translate(58.246883, 38.278534)"><g><path d="M 4.015625 -3.421875 L 2.890625 -3.421875 L 2.890625 0 L 0.71875 0 L 0.71875 -9.78125 L 4.4375 -9.78125 C 5.207031 -9.78125 5.859375 -9.628906 6.390625 -9.328125 C 6.929688 -9.035156 7.332031 -8.644531 7.59375 -8.15625 C 7.851562 -7.664062 7.984375 -7.132812 7.984375 -6.5625 C 7.984375 -5.925781 7.828125 -5.351562 7.515625 -4.84375 C 7.203125 -4.34375 6.738281 -3.96875 6.125 -3.71875 L 8.21875 0 L 5.9375 0 Z M 2.890625 -5.203125 L 4.09375 -5.203125 C 4.59375 -5.203125 5.015625 -5.304688 5.359375 -5.515625 C 5.703125 -5.722656 5.875 -6.070312 5.875 -6.5625 C 5.875 -7.039062 5.703125 -7.378906 5.359375 -7.578125 C 5.023438 -7.773438 4.601562 -7.875 4.09375 -7.875 L 2.890625 -7.875 Z M 2.890625 -5.203125 "/></g></g></g><g fill="#231f20" fill-opacity="1"><g transform="translate(66.736229, 38.278534)"><g><path d="M 0.828125 -9.78125 L 3.015625 -9.78125 L 3.015625 0 L 0.828125 0 Z M 0.828125 -9.78125 "/></g></g></g><g fill="#231f20" fill-opacity="1"><g transform="translate(70.589945, 38.278534)"><g><path d="M 2.921875 -7.875 L 2.921875 -5.796875 L 6.640625 -5.796875 L 6.640625 -4.109375 L 2.921875 -4.109375 L 2.921875 -1.90625 L 7.328125 -1.90625 L 7.328125 0 L 0.71875 0 L 0.71875 -9.78125 L 7.328125 -9.78125 L 7.328125 -7.875 Z M 2.921875 -7.875 "/></g></g></g><g fill="#231f20" fill-opacity="1"><g transform="translate(78.492862, 38.278534)"><g><path d="M 0.71875 -9.78125 L 3.25 -9.78125 L 6.828125 -3.34375 L 6.875 -3.34375 L 6.875 -9.78125 L 9.03125 -9.78125 L 9.03125 0.015625 L 6.46875 0.015625 L 2.921875 -6.1875 L 2.875 -6.1875 L 2.875 0.015625 L 0.71875 0.015625 Z M 0.71875 -9.78125 "/></g></g></g><g fill="#231f20" fill-opacity="1"><g transform="translate(88.23886, 38.278534)"><g><path d="M 5.015625 0.125 C 4.078125 0.125 3.269531 -0.101562 2.59375 -0.5625 C 1.914062 -1.019531 1.398438 -1.632812 1.046875 -2.40625 C 0.703125 -3.1875 0.53125 -4.03125 0.53125 -4.9375 C 0.53125 -5.832031 0.703125 -6.664062 1.046875 -7.4375 C 1.398438 -8.207031 1.914062 -8.820312 2.59375 -9.28125 C 3.269531 -9.738281 4.078125 -9.96875 5.015625 -9.96875 C 6.160156 -9.96875 7.09375 -9.632812 7.8125 -8.96875 C 8.539062 -8.300781 9.015625 -7.4375 9.234375 -6.375 L 7.125 -6.375 C 7.007812 -6.851562 6.769531 -7.253906 6.40625 -7.578125 C 6.039062 -7.910156 5.585938 -8.078125 5.046875 -8.078125 C 4.296875 -8.078125 3.734375 -7.785156 3.359375 -7.203125 C 2.984375 -6.617188 2.796875 -5.863281 2.796875 -4.9375 C 2.796875 -3.976562 2.984375 -3.210938 3.359375 -2.640625 C 3.734375 -2.066406 4.296875 -1.78125 5.046875 -1.78125 C 5.578125 -1.78125 6.019531 -1.9375 6.375 -2.25 C 6.738281 -2.5625 6.976562 -2.9375 7.09375 -3.375 L 9.171875 -3.375 C 8.972656 -2.351562 8.507812 -1.515625 7.78125 -0.859375 C 7.0625 -0.203125 6.140625 0.125 5.015625 0.125 Z M 5.015625 0.125 "/></g></g></g><g fill="#231f20" fill-opacity="1"><g transform="translate(97.942962, 38.278534)"><g><path d="M 0.828125 -9.78125 L 3.015625 -9.78125 L 3.015625 0 L 0.828125 0 Z M 0.828125 -9.78125 "/></g></g></g><g fill="#231f20" fill-opacity="1"><g transform="translate(101.796678, 38.278534)"><g><path d="M 6.28125 -2.265625 L 3.15625 -2.265625 L 2.453125 0 L 0.25 0 L 3.734375 -9.78125 L 5.75 -9.78125 L 9.203125 0 L 7 0 Z M 5.75 -3.921875 L 4.75 -7.078125 L 4.671875 -7.078125 L 3.6875 -3.921875 Z M 5.75 -3.921875 "/></g></g></g></svg>