<svg xmlns="http://www.w3.org/2000/svg" xmlns:xlink="http://www.w3.org/1999/xlink" width="148" zoomAndPan="magnify" viewBox="0 0 110.88 32.249999" height="43" preserveAspectRatio="xMidYMid meet" version="1.0"><defs><g/><clipPath id="e64ab0d8a9"><path d="M 2.667969 0 L 107.703125 0 L 107.703125 31.015625 L 2.667969 31.015625 Z M 2.667969 0 " clip-rule="nonzero"/></clipPath><clipPath id="edc99c2784"><path d="M 18.175781 0 L 92.148438 0 C 100.714844 0 107.65625 6.941406 107.65625 15.507812 C 107.65625 24.070312 100.714844 31.015625 92.148438 31.015625 L 18.175781 31.015625 C 9.609375 31.015625 2.667969 24.070312 2.667969 15.507812 C 2.667969 6.941406 9.609375 0 18.175781 0 Z M 18.175781 0 " clip-rule="nonzero"/></clipPath><clipPath id="14ebad8fe8"><path d="M 2.667969 0 L 107.480469 0 L 107.480469 30.785156 L 2.667969 30.785156 Z M 2.667969 0 " clip-rule="nonzero"/></clipPath><clipPath id="513521a57c"><path d="M 18.171875 0 L 92.144531 0 C 100.710938 0 107.652344 6.941406 107.652344 15.507812 C 107.652344 24.070312 100.710938 31.011719 92.144531 31.011719 L 18.171875 31.011719 C 9.609375 31.011719 2.667969 24.070312 2.667969 15.507812 C 2.667969 6.941406 9.609375 0 18.171875 0 Z M 18.171875 0 " clip-rule="nonzero"/></clipPath></defs><g clip-path="url(#e64ab0d8a9)"><g clip-path="url(#edc99c2784)"><path fill="#0fa54d" d="M 2.667969 0 L 107.703125 0 L 107.703125 31.015625 L 2.667969 31.015625 Z M 2.667969 0 " fill-opacity="1" fill-rule="nonzero"/></g></g><g clip-path="url(#14ebad8fe8)"><g clip-path="url(#513521a57c)"><path stroke-linecap="butt" transform="matrix(0.732954, 0, 0, 0.732954, 2.667696, 0.000479001)" fill="none" stroke-linejoin="miter" d="M 21.15299 -0.000653521 L 122.076931 -0.000653521 C 133.764432 -0.000653521 143.234879 9.469793 143.234879 21.157294 C 143.234879 32.839465 133.764432 42.309912 122.076931 42.309912 L 21.15299 42.309912 C 9.470819 42.309912 0.000372199 32.839465 0.000372199 21.157294 C 0.000372199 9.469793 9.470819 -0.000653521 21.15299 -0.000653521 Z M 21.15299 -0.000653521 " stroke="#0f0d10" stroke-width="4" stroke-opacity="1" stroke-miterlimit="4"/></g></g><g fill="#231f20" fill-opacity="1"><g transform="translate(15.227634, 19.907436)"><g><path d="M 0.6875 -8.234375 L 2.546875 -8.234375 L 2.546875 0 L 0.6875 0 Z M 0.6875 -8.234375 "/></g></g></g><g fill="#231f20" fill-opacity="1"><g transform="translate(18.473823, 19.907436)"><g><path d="M 4.046875 0.109375 C 3.273438 0.109375 2.617188 -0.0859375 2.078125 -0.484375 C 1.546875 -0.890625 1.144531 -1.414062 0.875 -2.0625 C 0.613281 -2.707031 0.484375 -3.394531 0.484375 -4.125 C 0.484375 -4.875 0.617188 -5.570312 0.890625 -6.21875 C 1.171875 -6.875 1.59375 -7.398438 2.15625 -7.796875 C 2.726562 -8.203125 3.421875 -8.40625 4.234375 -8.40625 C 5.171875 -8.40625 5.9375 -8.140625 6.53125 -7.609375 C 7.132812 -7.085938 7.554688 -6.410156 7.796875 -5.578125 L 5.875 -5.578125 C 5.769531 -5.941406 5.578125 -6.234375 5.296875 -6.453125 C 5.023438 -6.671875 4.675781 -6.78125 4.25 -6.78125 C 3.625 -6.78125 3.144531 -6.535156 2.8125 -6.046875 C 2.488281 -5.554688 2.328125 -4.898438 2.328125 -4.078125 C 2.328125 -3.210938 2.503906 -2.539062 2.859375 -2.0625 C 3.210938 -1.59375 3.707031 -1.359375 4.34375 -1.359375 C 4.894531 -1.359375 5.3125 -1.523438 5.59375 -1.859375 C 5.882812 -2.191406 6.03125 -2.585938 6.03125 -3.046875 L 6.03125 -3.203125 L 4.5 -3.203125 L 4.5 -4.5 L 7.84375 -4.5 L 7.84375 0 L 6.484375 0 L 6.484375 -1.171875 L 6.390625 -1.171875 C 5.921875 -0.316406 5.140625 0.109375 4.046875 0.109375 Z M 4.046875 0.109375 "/></g></g></g><g fill="#231f20" fill-opacity="1"><g transform="translate(26.906848, 19.907436)"><g><path d="M 0.609375 -8.234375 L 2.734375 -8.234375 L 5.75 -2.8125 L 5.78125 -2.8125 L 5.78125 -8.234375 L 7.59375 -8.234375 L 7.59375 0.015625 L 5.453125 0.015625 L 2.453125 -5.21875 L 2.421875 -5.21875 L 2.421875 0.015625 L 0.609375 0.015625 Z M 0.609375 -8.234375 "/></g></g></g><g fill="#231f20" fill-opacity="1"><g transform="translate(35.116406, 19.907436)"><g><path d="M 5.296875 -1.90625 L 2.65625 -1.90625 L 2.078125 0 L 0.21875 0 L 3.140625 -8.234375 L 4.84375 -8.234375 L 7.75 0 L 5.890625 0 Z M 4.84375 -3.3125 L 4 -5.96875 L 3.9375 -5.96875 L 3.109375 -3.3125 Z M 4.84375 -3.3125 "/></g></g></g><g fill="#231f20" fill-opacity="1"><g transform="translate(43.031925, 19.907436)"><g><path d="M 4.21875 0.109375 C 3.425781 0.109375 2.742188 -0.0820312 2.171875 -0.46875 C 1.609375 -0.863281 1.179688 -1.382812 0.890625 -2.03125 C 0.597656 -2.6875 0.453125 -3.394531 0.453125 -4.15625 C 0.453125 -4.914062 0.597656 -5.617188 0.890625 -6.265625 C 1.179688 -6.910156 1.609375 -7.425781 2.171875 -7.8125 C 2.742188 -8.207031 3.425781 -8.40625 4.21875 -8.40625 C 5.1875 -8.40625 5.972656 -8.117188 6.578125 -7.546875 C 7.191406 -6.984375 7.59375 -6.253906 7.78125 -5.359375 L 6 -5.359375 C 5.90625 -5.773438 5.703125 -6.117188 5.390625 -6.390625 C 5.085938 -6.660156 4.707031 -6.796875 4.25 -6.796875 C 3.625 -6.796875 3.148438 -6.550781 2.828125 -6.0625 C 2.515625 -5.570312 2.359375 -4.9375 2.359375 -4.15625 C 2.359375 -3.351562 2.515625 -2.707031 2.828125 -2.21875 C 3.148438 -1.738281 3.625 -1.5 4.25 -1.5 C 4.695312 -1.5 5.070312 -1.628906 5.375 -1.890625 C 5.675781 -2.160156 5.878906 -2.476562 5.984375 -2.84375 L 7.734375 -2.84375 C 7.554688 -1.976562 7.160156 -1.269531 6.546875 -0.71875 C 5.941406 -0.164062 5.164062 0.109375 4.21875 0.109375 Z M 4.21875 0.109375 "/></g></g></g><g fill="#231f20" fill-opacity="1"><g transform="translate(51.206198, 19.907436)"><g><path d="M 0.6875 -8.234375 L 2.546875 -8.234375 L 2.546875 0 L 0.6875 0 Z M 0.6875 -8.234375 "/></g></g></g><g fill="#231f20" fill-opacity="1"><g transform="translate(54.452387, 19.907436)"><g><path d="M 4.25 0.109375 C 3.425781 0.109375 2.726562 -0.078125 2.15625 -0.453125 C 1.582031 -0.835938 1.148438 -1.347656 0.859375 -1.984375 C 0.578125 -2.628906 0.4375 -3.34375 0.4375 -4.125 C 0.4375 -4.894531 0.582031 -5.601562 0.875 -6.25 C 1.164062 -6.90625 1.597656 -7.425781 2.171875 -7.8125 C 2.742188 -8.207031 3.4375 -8.40625 4.25 -8.40625 C 5.050781 -8.40625 5.734375 -8.210938 6.296875 -7.828125 C 6.867188 -7.441406 7.296875 -6.921875 7.578125 -6.265625 C 7.867188 -5.609375 8.015625 -4.890625 8.015625 -4.109375 C 8.015625 -3.316406 7.867188 -2.601562 7.578125 -1.96875 C 7.296875 -1.332031 6.867188 -0.828125 6.296875 -0.453125 C 5.734375 -0.078125 5.050781 0.109375 4.25 0.109375 Z M 4.234375 -1.53125 C 4.816406 -1.53125 5.265625 -1.773438 5.578125 -2.265625 C 5.898438 -2.765625 6.0625 -3.382812 6.0625 -4.125 C 6.0625 -4.863281 5.90625 -5.488281 5.59375 -6 C 5.28125 -6.507812 4.828125 -6.765625 4.234375 -6.765625 C 3.835938 -6.765625 3.5 -6.640625 3.21875 -6.390625 C 2.9375 -6.148438 2.726562 -5.828125 2.59375 -5.421875 C 2.457031 -5.023438 2.390625 -4.59375 2.390625 -4.125 C 2.390625 -3.394531 2.546875 -2.78125 2.859375 -2.28125 C 3.179688 -1.78125 3.640625 -1.53125 4.234375 -1.53125 Z M 4.234375 -1.53125 "/></g></g></g><g fill="#231f20" fill-opacity="1"><g transform="translate(62.944229, 19.907436)"><g/></g></g><g fill="#231f20" fill-opacity="1"><g transform="translate(65.649381, 19.907436)"><g><path d="M 7.390625 -8.234375 L 7.390625 0 L 5.546875 0 L 5.546875 -3.40625 L 2.453125 -3.40625 L 2.453125 0 L 0.609375 0 L 0.609375 -8.234375 L 2.453125 -8.234375 L 2.453125 -4.84375 L 5.546875 -4.84375 L 5.546875 -8.234375 Z M 7.390625 -8.234375 "/></g></g></g><g fill="#231f20" fill-opacity="1"><g transform="translate(73.647236, 19.907436)"><g><path d="M 2.453125 -6.640625 L 2.453125 -4.875 L 5.59375 -4.875 L 5.59375 -3.453125 L 2.453125 -3.453125 L 2.453125 -1.59375 L 6.171875 -1.59375 L 6.171875 0 L 0.609375 0 L 0.609375 -8.234375 L 6.171875 -8.234375 L 6.171875 -6.640625 Z M 2.453125 -6.640625 "/></g></g></g><g fill="#231f20" fill-opacity="1"><g transform="translate(80.304276, 19.907436)"><g><path d="M 5.921875 -1.59375 L 5.921875 0 L 0.609375 0 L 0.609375 -8.234375 L 2.453125 -8.234375 L 2.453125 -1.59375 Z M 5.921875 -1.59375 "/></g></g></g><g fill="#231f20" fill-opacity="1"><g transform="translate(86.596707, 19.907436)"><g><path d="M 4.25 0.109375 C 3.425781 0.109375 2.726562 -0.078125 2.15625 -0.453125 C 1.582031 -0.835938 1.148438 -1.347656 0.859375 -1.984375 C 0.578125 -2.628906 0.4375 -3.34375 0.4375 -4.125 C 0.4375 -4.894531 0.582031 -5.601562 0.875 -6.25 C 1.164062 -6.90625 1.597656 -7.425781 2.171875 -7.8125 C 2.742188 -8.207031 3.4375 -8.40625 4.25 -8.40625 C 5.050781 -8.40625 5.734375 -8.210938 6.296875 -7.828125 C 6.867188 -7.441406 7.296875 -6.921875 7.578125 -6.265625 C 7.867188 -5.609375 8.015625 -4.890625 8.015625 -4.109375 C 8.015625 -3.316406 7.867188 -2.601562 7.578125 -1.96875 C 7.296875 -1.332031 6.867188 -0.828125 6.296875 -0.453125 C 5.734375 -0.078125 5.050781 0.109375 4.25 0.109375 Z M 4.234375 -1.53125 C 4.816406 -1.53125 5.265625 -1.773438 5.578125 -2.265625 C 5.898438 -2.765625 6.0625 -3.382812 6.0625 -4.125 C 6.0625 -4.863281 5.90625 -5.488281 5.59375 -6 C 5.28125 -6.507812 4.828125 -6.765625 4.234375 -6.765625 C 3.835938 -6.765625 3.5 -6.640625 3.21875 -6.390625 C 2.9375 -6.148438 2.726562 -5.828125 2.59375 -5.421875 C 2.457031 -5.023438 2.390625 -4.59375 2.390625 -4.125 C 2.390625 -3.394531 2.546875 -2.78125 2.859375 -2.28125 C 3.179688 -1.78125 3.640625 -1.53125 4.234375 -1.53125 Z M 4.234375 -1.53125 "/></g></g></g></svg>