<svg xmlns="http://www.w3.org/2000/svg" xmlns:xlink="http://www.w3.org/1999/xlink" width="198" zoomAndPan="magnify" viewBox="0 0 148.5 114.749996" height="153" preserveAspectRatio="xMidYMid meet" version="1.0"><defs><g/><clipPath id="943e26b0a1"><path d="M 0.710938 3.125 L 147.710938 3.125 L 147.710938 102.417969 L 0.710938 102.417969 Z M 0.710938 3.125 " clip-rule="nonzero"/></clipPath><clipPath id="ed331cccc0"><path d="M 12.671875 3.125 L 135.453125 3.125 C 138.625 3.125 141.667969 4.386719 143.910156 6.628906 C 146.152344 8.871094 147.414062 11.914062 147.414062 15.085938 L 147.414062 90.457031 C 147.414062 93.628906 146.152344 96.671875 143.910156 98.914062 C 141.667969 101.15625 138.625 102.417969 135.453125 102.417969 L 12.671875 102.417969 C 9.5 102.417969 6.457031 101.15625 4.214844 98.914062 C 1.972656 96.671875 0.710938 93.628906 0.710938 90.457031 L 0.710938 15.085938 C 0.710938 11.914062 1.972656 8.871094 4.214844 6.628906 C 6.457031 4.386719 9.5 3.125 12.671875 3.125 Z M 12.671875 3.125 " clip-rule="nonzero"/></clipPath><clipPath id="6c15bb3137"><path d="M 0.710938 3.125 L 147.21875 3.125 L 147.21875 102.539062 L 0.710938 102.539062 Z M 0.710938 3.125 " clip-rule="nonzero"/></clipPath><clipPath id="2528c280e4"><path d="M 12.671875 3.125 L 135.445312 3.125 C 138.617188 3.125 141.660156 4.386719 143.902344 6.628906 C 146.144531 8.871094 147.40625 11.914062 147.40625 15.085938 L 147.40625 90.453125 C 147.40625 93.625 146.144531 96.667969 143.902344 98.910156 C 141.660156 101.152344 138.617188 102.414062 135.445312 102.414062 L 12.671875 102.414062 C 9.5 102.414062 6.457031 101.152344 4.214844 98.910156 C 1.972656 96.667969 0.710938 93.625 0.710938 90.453125 L 0.710938 15.085938 C 0.710938 11.914062 1.972656 8.871094 4.214844 6.628906 C 6.457031 4.386719 9.5 3.125 12.671875 3.125 Z M 12.671875 3.125 " clip-rule="nonzero"/></clipPath></defs><g clip-path="url(#943e26b0a1)"><g clip-path="url(#ed331cccc0)"><path fill="#f8f4f1" d="M 0.710938 3.125 L 147.324219 3.125 L 147.324219 102.417969 L 0.710938 102.417969 Z M 0.710938 3.125 " fill-opacity="1" fill-rule="nonzero"/></g></g><g clip-path="url(#6c15bb3137)"><g clip-path="url(#2528c280e4)"><path stroke-linecap="butt" transform="matrix(0.747483, 0, 0, 0.747483, 0.712396, 3.125658)" fill="none" stroke-linejoin="miter" d="M 15.999663 -0.000880573 L 180.248758 -0.000880573 C 184.492164 -0.000880573 188.563117 1.687075 191.562767 4.686725 C 194.562416 7.686374 196.250372 11.757327 196.250372 16.000733 L 196.250372 116.82867 C 196.250372 121.072076 194.562416 125.143029 191.562767 128.142678 C 188.563117 131.142328 184.492164 132.830284 180.248758 132.830284 L 15.999663 132.830284 C 11.756257 132.830284 7.685304 131.142328 4.685654 128.142678 C 1.686005 125.143029 -0.00195095 121.072076 -0.00195095 116.82867 L -0.00195095 16.000733 C -0.00195095 11.757327 1.686005 7.686374 4.685654 4.686725 C 7.685304 1.687075 11.756257 -0.000880573 15.999663 -0.000880573 Z M 15.999663 -0.000880573 " stroke="#000000" stroke-width="2" stroke-opacity="1" stroke-miterlimit="4"/></g></g><g fill="#000000" fill-opacity="1"><g transform="translate(10.615867, 25.633482)"><g><path d="M 3.890625 -4.0625 L 6.625 -4.0625 L 5.296875 -8.3125 L 5.265625 -8.3125 Z M 2.546875 0 L 0.1875 0 L 4.015625 -10.734375 L 6.59375 -10.734375 L 10.375 0 L 7.9375 0 L 7.25 -2.21875 L 3.296875 -2.21875 Z M 2.546875 0 "/></g></g><g transform="translate(21.178447, 25.633482)"><g><path d="M 5.46875 -5.515625 C 5.425781 -5.859375 5.296875 -6.125 5.078125 -6.3125 C 4.867188 -6.507812 4.53125 -6.609375 4.0625 -6.609375 C 3.632812 -6.609375 3.316406 -6.535156 3.109375 -6.390625 C 2.898438 -6.253906 2.796875 -6.078125 2.796875 -5.859375 C 2.796875 -5.648438 2.882812 -5.488281 3.0625 -5.375 C 3.238281 -5.257812 3.90625 -5.066406 5.0625 -4.796875 C 6.238281 -4.515625 6.988281 -4.191406 7.3125 -3.828125 C 7.632812 -3.460938 7.796875 -3.003906 7.796875 -2.453125 C 7.796875 -1.566406 7.484375 -0.890625 6.859375 -0.421875 C 6.242188 0.0351562 5.320312 0.265625 4.09375 0.265625 C 3 0.265625 2.144531 0.0390625 1.53125 -0.40625 C 0.914062 -0.851562 0.5625 -1.554688 0.46875 -2.515625 L 2.625 -2.515625 C 2.625 -2.097656 2.753906 -1.785156 3.015625 -1.578125 C 3.285156 -1.378906 3.691406 -1.28125 4.234375 -1.28125 C 4.679688 -1.28125 5.023438 -1.347656 5.265625 -1.484375 C 5.515625 -1.628906 5.640625 -1.816406 5.640625 -2.046875 C 5.640625 -2.273438 5.550781 -2.453125 5.375 -2.578125 C 5.195312 -2.710938 4.597656 -2.890625 3.578125 -3.109375 C 2.429688 -3.347656 1.671875 -3.664062 1.296875 -4.0625 C 0.921875 -4.457031 0.734375 -4.925781 0.734375 -5.46875 C 0.734375 -6.257812 1.015625 -6.90625 1.578125 -7.40625 C 2.148438 -7.90625 2.988281 -8.15625 4.09375 -8.15625 C 5.164062 -8.15625 5.988281 -7.929688 6.5625 -7.484375 C 7.144531 -7.035156 7.46875 -6.378906 7.53125 -5.515625 Z M 5.46875 -5.515625 "/></g></g><g transform="translate(29.485438, 25.633482)"><g><path d="M 3.125 -8.90625 L 1.015625 -8.90625 L 1.015625 -10.84375 L 3.125 -10.84375 Z M 3.125 -7.953125 L 3.125 0 L 1.015625 0 L 1.015625 -7.953125 Z M 3.125 -7.953125 "/></g></g><g transform="translate(33.624334, 25.633482)"><g><path d="M 2.703125 -3.9375 C 2.703125 -3.269531 2.847656 -2.734375 3.140625 -2.328125 C 3.429688 -1.921875 3.835938 -1.71875 4.359375 -1.71875 C 4.929688 -1.71875 5.367188 -1.914062 5.671875 -2.3125 C 5.984375 -2.707031 6.140625 -3.273438 6.140625 -4.015625 C 6.140625 -4.710938 5.972656 -5.273438 5.640625 -5.703125 C 5.316406 -6.140625 4.882812 -6.359375 4.34375 -6.359375 C 3.863281 -6.359375 3.46875 -6.15625 3.15625 -5.75 C 2.851562 -5.34375 2.703125 -4.738281 2.703125 -3.9375 Z M 8.21875 -7.953125 L 8.21875 -0.203125 C 8.21875 1.003906 7.882812 1.878906 7.21875 2.421875 C 6.5625 2.960938 5.554688 3.234375 4.203125 3.234375 C 3.222656 3.234375 2.40625 3.019531 1.75 2.59375 C 1.101562 2.175781 0.757812 1.597656 0.71875 0.859375 L 3 0.859375 C 3.050781 1.390625 3.539062 1.65625 4.46875 1.65625 C 5.570312 1.65625 6.125 1.082031 6.125 -0.0625 L 6.125 -1.125 L 6.09375 -1.15625 C 5.6875 -0.351562 4.976562 0.046875 3.96875 0.046875 C 2.9375 0.046875 2.109375 -0.3125 1.484375 -1.03125 C 0.859375 -1.75 0.546875 -2.757812 0.546875 -4.0625 C 0.546875 -5.34375 0.851562 -6.34375 1.46875 -7.0625 C 2.09375 -7.789062 2.890625 -8.15625 3.859375 -8.15625 C 4.953125 -8.15625 5.726562 -7.695312 6.1875 -6.78125 L 6.21875 -6.78125 L 6.21875 -7.953125 Z M 8.21875 -7.953125 "/></g></g><g transform="translate(42.829181, 25.633482)"><g><path d="M 8.21875 0 L 6.125 0 L 6.125 -4.9375 C 6.125 -5.40625 6.015625 -5.765625 5.796875 -6.015625 C 5.585938 -6.273438 5.242188 -6.40625 4.765625 -6.40625 C 4.265625 -6.40625 3.863281 -6.238281 3.5625 -5.90625 C 3.269531 -5.582031 3.125 -5.132812 3.125 -4.5625 L 3.125 0 L 1.015625 0 L 1.015625 -7.953125 L 3.03125 -7.953125 L 3.03125 -6.796875 L 3.0625 -6.796875 C 3.5625 -7.703125 4.351562 -8.15625 5.4375 -8.15625 C 6.25 -8.15625 6.914062 -7.921875 7.4375 -7.453125 C 7.957031 -6.992188 8.21875 -6.34375 8.21875 -5.5 Z M 8.21875 0 "/></g></g><g transform="translate(51.953732, 25.633482)"><g><path d="M 5.578125 -3.859375 C 5.328125 -3.671875 4.828125 -3.523438 4.078125 -3.421875 C 3.453125 -3.335938 3.039062 -3.195312 2.84375 -3 C 2.65625 -2.8125 2.5625 -2.554688 2.5625 -2.234375 C 2.5625 -1.921875 2.664062 -1.679688 2.875 -1.515625 C 3.082031 -1.359375 3.328125 -1.28125 3.609375 -1.28125 C 4.140625 -1.28125 4.597656 -1.429688 4.984375 -1.734375 C 5.378906 -2.035156 5.578125 -2.410156 5.578125 -2.859375 Z M 7.625 -1.5625 C 7.625 -1.1875 7.65625 -0.894531 7.71875 -0.6875 C 7.789062 -0.488281 7.914062 -0.363281 8.09375 -0.3125 L 8.09375 0 L 5.84375 0 C 5.75 -0.269531 5.679688 -0.582031 5.640625 -0.9375 C 4.960938 -0.164062 4.078125 0.21875 2.984375 0.21875 C 2.234375 0.21875 1.625 0.0078125 1.15625 -0.40625 C 0.695312 -0.832031 0.46875 -1.398438 0.46875 -2.109375 C 0.46875 -2.785156 0.664062 -3.347656 1.0625 -3.796875 C 1.46875 -4.242188 2.070312 -4.523438 2.875 -4.640625 L 4.828125 -4.921875 C 5.097656 -4.960938 5.289062 -5.035156 5.40625 -5.140625 C 5.519531 -5.253906 5.578125 -5.394531 5.578125 -5.5625 C 5.578125 -5.875 5.460938 -6.109375 5.234375 -6.265625 C 5.015625 -6.421875 4.675781 -6.5 4.21875 -6.5 C 3.738281 -6.5 3.382812 -6.410156 3.15625 -6.234375 C 2.9375 -6.054688 2.800781 -5.769531 2.75 -5.375 L 0.734375 -5.375 C 0.835938 -6.34375 1.164062 -7.046875 1.71875 -7.484375 C 2.28125 -7.929688 3.171875 -8.15625 4.390625 -8.15625 C 5.367188 -8.15625 6.148438 -7.957031 6.734375 -7.5625 C 7.328125 -7.175781 7.625 -6.609375 7.625 -5.859375 Z M 7.625 -1.5625 "/></g></g><g transform="translate(60.494311, 25.633482)"><g><path d="M 3.359375 -7.953125 L 4.65625 -7.953125 L 4.65625 -6.46875 L 3.359375 -6.46875 L 3.359375 -2 C 3.359375 -1.789062 3.414062 -1.65625 3.53125 -1.59375 C 3.644531 -1.53125 3.820312 -1.5 4.0625 -1.5 C 4.300781 -1.5 4.5 -1.507812 4.65625 -1.53125 L 4.65625 0.03125 C 4.351562 0.0820312 3.976562 0.109375 3.53125 0.109375 C 2.695312 0.109375 2.109375 -0.015625 1.765625 -0.265625 C 1.429688 -0.523438 1.265625 -0.976562 1.265625 -1.625 L 1.265625 -6.46875 L 0.1875 -6.46875 L 0.1875 -7.953125 L 1.265625 -7.953125 L 1.265625 -10.109375 L 3.359375 -10.109375 Z M 3.359375 -7.953125 "/></g></g><g transform="translate(65.516464, 25.633482)"><g><path d="M 8.140625 0 L 6.140625 0 L 6.140625 -1.125 L 6.125 -1.125 C 5.59375 -0.226562 4.78125 0.21875 3.6875 0.21875 C 2.851562 0.21875 2.191406 -0.03125 1.703125 -0.53125 C 1.222656 -1.03125 0.984375 -1.757812 0.984375 -2.71875 L 0.984375 -7.953125 L 3.078125 -7.953125 L 3.078125 -3.015625 C 3.078125 -2.515625 3.191406 -2.144531 3.421875 -1.90625 C 3.660156 -1.675781 4 -1.5625 4.4375 -1.5625 C 4.90625 -1.5625 5.289062 -1.71875 5.59375 -2.03125 C 5.894531 -2.34375 6.046875 -2.785156 6.046875 -3.359375 L 6.046875 -7.953125 L 8.140625 -7.953125 Z M 8.140625 0 "/></g></g><g transform="translate(74.684812, 25.633482)"><g><path d="M 1.015625 -7.953125 L 3.03125 -7.953125 L 3.03125 -6.578125 L 3.0625 -6.578125 C 3.300781 -7.097656 3.59375 -7.488281 3.9375 -7.75 C 4.289062 -8.019531 4.726562 -8.15625 5.25 -8.15625 C 5.382812 -8.15625 5.515625 -8.148438 5.640625 -8.140625 L 5.640625 -6.015625 C 5.546875 -6.023438 5.347656 -6.03125 5.046875 -6.03125 C 4.390625 -6.03125 3.90625 -5.875 3.59375 -5.5625 C 3.28125 -5.25 3.125 -4.773438 3.125 -4.140625 L 3.125 0 L 1.015625 0 Z M 1.015625 -7.953125 "/></g></g><g transform="translate(80.582922, 25.633482)"><g><path d="M 5.578125 -3.859375 C 5.328125 -3.671875 4.828125 -3.523438 4.078125 -3.421875 C 3.453125 -3.335938 3.039062 -3.195312 2.84375 -3 C 2.65625 -2.8125 2.5625 -2.554688 2.5625 -2.234375 C 2.5625 -1.921875 2.664062 -1.679688 2.875 -1.515625 C 3.082031 -1.359375 3.328125 -1.28125 3.609375 -1.28125 C 4.140625 -1.28125 4.597656 -1.429688 4.984375 -1.734375 C 5.378906 -2.035156 5.578125 -2.410156 5.578125 -2.859375 Z M 7.625 -1.5625 C 7.625 -1.1875 7.65625 -0.894531 7.71875 -0.6875 C 7.789062 -0.488281 7.914062 -0.363281 8.09375 -0.3125 L 8.09375 0 L 5.84375 0 C 5.75 -0.269531 5.679688 -0.582031 5.640625 -0.9375 C 4.960938 -0.164062 4.078125 0.21875 2.984375 0.21875 C 2.234375 0.21875 1.625 0.0078125 1.15625 -0.40625 C 0.695312 -0.832031 0.46875 -1.398438 0.46875 -2.109375 C 0.46875 -2.785156 0.664062 -3.347656 1.0625 -3.796875 C 1.46875 -4.242188 2.070312 -4.523438 2.875 -4.640625 L 4.828125 -4.921875 C 5.097656 -4.960938 5.289062 -5.035156 5.40625 -5.140625 C 5.519531 -5.253906 5.578125 -5.394531 5.578125 -5.5625 C 5.578125 -5.875 5.460938 -6.109375 5.234375 -6.265625 C 5.015625 -6.421875 4.675781 -6.5 4.21875 -6.5 C 3.738281 -6.5 3.382812 -6.410156 3.15625 -6.234375 C 2.9375 -6.054688 2.800781 -5.769531 2.75 -5.375 L 0.734375 -5.375 C 0.835938 -6.34375 1.164062 -7.046875 1.71875 -7.484375 C 2.28125 -7.929688 3.171875 -8.15625 4.390625 -8.15625 C 5.367188 -8.15625 6.148438 -7.957031 6.734375 -7.5625 C 7.328125 -7.175781 7.625 -6.609375 7.625 -5.859375 Z M 7.625 -1.5625 "/></g></g></g><g fill="#000000" fill-opacity="1"><g transform="translate(10.615867, 47.53221)"><g><path d="M 2.34375 -5.078125 L 4.875 -5.078125 C 5.519531 -5.078125 6 -5.21875 6.3125 -5.5 C 6.632812 -5.78125 6.796875 -6.207031 6.796875 -6.78125 C 6.796875 -7.289062 6.640625 -7.675781 6.328125 -7.9375 C 6.023438 -8.207031 5.5625 -8.34375 4.9375 -8.34375 L 2.34375 -8.34375 Z M 2.34375 0 L 1.0625 0 L 1.0625 -9.4375 L 5.3125 -9.4375 C 6.15625 -9.4375 6.832031 -9.191406 7.34375 -8.703125 C 7.863281 -8.210938 8.125 -7.578125 8.125 -6.796875 C 8.125 -5.972656 7.875 -5.296875 7.375 -4.765625 C 6.875 -4.242188 6.1875 -3.984375 5.3125 -3.984375 L 2.34375 -3.984375 Z M 2.34375 0 "/></g></g><g transform="translate(19.119945, 47.53221)"><g><path d="M 2.03125 0 L 0.875 0 L 0.875 -6.875 L 1.953125 -6.875 L 1.953125 -5.734375 L 1.984375 -5.734375 C 2.484375 -6.628906 3.128906 -7.078125 3.921875 -7.078125 C 4.046875 -7.078125 4.144531 -7.066406 4.21875 -7.046875 L 4.21875 -5.84375 L 3.796875 -5.84375 C 3.273438 -5.84375 2.847656 -5.664062 2.515625 -5.3125 C 2.191406 -4.957031 2.03125 -4.519531 2.03125 -4 Z M 2.03125 0 "/></g></g><g transform="translate(23.404099, 47.53221)"><g><path d="M 1.671875 -3.453125 C 1.671875 -2.679688 1.84375 -2.046875 2.1875 -1.546875 C 2.53125 -1.054688 3.023438 -0.8125 3.671875 -0.8125 C 4.328125 -0.8125 4.828125 -1.070312 5.171875 -1.59375 C 5.515625 -2.113281 5.6875 -2.734375 5.6875 -3.453125 C 5.6875 -4.179688 5.515625 -4.796875 5.171875 -5.296875 C 4.828125 -5.804688 4.328125 -6.0625 3.671875 -6.0625 C 3.054688 -6.0625 2.566406 -5.820312 2.203125 -5.34375 C 1.847656 -4.863281 1.671875 -4.234375 1.671875 -3.453125 Z M 0.484375 -3.453125 C 0.484375 -4.472656 0.769531 -5.332031 1.34375 -6.03125 C 1.914062 -6.726562 2.691406 -7.078125 3.671875 -7.078125 C 4.671875 -7.078125 5.453125 -6.722656 6.015625 -6.015625 C 6.585938 -5.304688 6.875 -4.453125 6.875 -3.453125 C 6.875 -2.441406 6.59375 -1.578125 6.03125 -0.859375 C 5.46875 -0.148438 4.679688 0.203125 3.671875 0.203125 C 2.691406 0.203125 1.914062 -0.140625 1.34375 -0.828125 C 0.769531 -1.523438 0.484375 -2.398438 0.484375 -3.453125 Z M 0.484375 -3.453125 "/></g></g><g transform="translate(30.758456, 47.53221)"><g><path d="M 5.125 -6.875 L 6.390625 -6.875 L 3.9375 -0.125 C 3.894531 -0.0078125 3.847656 0.101562 3.796875 0.21875 C 3.429688 1.207031 3.113281 1.882812 2.84375 2.25 C 2.570312 2.625 2.132812 2.8125 1.53125 2.8125 C 1.207031 2.8125 0.945312 2.773438 0.75 2.703125 L 0.75 1.65625 C 0.96875 1.726562 1.207031 1.765625 1.46875 1.765625 C 1.75 1.765625 1.953125 1.675781 2.078125 1.5 C 2.210938 1.320312 2.410156 0.890625 2.671875 0.203125 L 0.109375 -6.875 L 1.421875 -6.875 L 3.265625 -1.28125 L 3.296875 -1.28125 Z M 5.125 -6.875 "/></g></g><g transform="translate(37.284244, 47.53221)"><g><path d="M 5.59375 -3.984375 C 5.53125 -4.734375 5.332031 -5.257812 5 -5.5625 C 4.664062 -5.875 4.222656 -6.03125 3.671875 -6.03125 C 3.109375 -6.03125 2.65625 -5.832031 2.3125 -5.4375 C 1.96875 -5.050781 1.785156 -4.566406 1.765625 -3.984375 Z M 6.6875 -2.15625 C 6.5625 -1.445312 6.210938 -0.859375 5.640625 -0.390625 C 5.140625 0.00390625 4.484375 0.207031 3.671875 0.21875 C 2.703125 0.207031 1.9375 -0.109375 1.375 -0.734375 C 0.8125 -1.359375 0.53125 -2.195312 0.53125 -3.25 C 0.53125 -4.457031 0.820312 -5.394531 1.40625 -6.0625 C 1.988281 -6.738281 2.796875 -7.078125 3.828125 -7.078125 C 4.753906 -7.078125 5.476562 -6.726562 6 -6.03125 C 6.53125 -5.34375 6.796875 -4.351562 6.796875 -3.0625 L 1.765625 -3.0625 C 1.765625 -2.34375 1.929688 -1.785156 2.265625 -1.390625 C 2.597656 -0.992188 3.097656 -0.796875 3.765625 -0.796875 C 4.234375 -0.796875 4.632812 -0.9375 4.96875 -1.21875 C 5.3125 -1.507812 5.5 -1.820312 5.53125 -2.15625 Z M 6.6875 -2.15625 "/></g></g><g transform="translate(44.574371, 47.53221)"><g><path d="M 5.203125 -4.5625 C 5.035156 -5.539062 4.492188 -6.03125 3.578125 -6.03125 C 3.003906 -6.03125 2.546875 -5.800781 2.203125 -5.34375 C 1.859375 -4.894531 1.6875 -4.265625 1.6875 -3.453125 C 1.6875 -2.566406 1.84375 -1.898438 2.15625 -1.453125 C 2.476562 -1.015625 2.945312 -0.796875 3.5625 -0.796875 C 3.976562 -0.796875 4.332031 -0.945312 4.625 -1.25 C 4.925781 -1.550781 5.117188 -1.945312 5.203125 -2.4375 L 6.328125 -2.4375 C 6.210938 -1.582031 5.910156 -0.925781 5.421875 -0.46875 C 4.941406 -0.0195312 4.316406 0.203125 3.546875 0.203125 C 2.640625 0.203125 1.894531 -0.101562 1.3125 -0.71875 C 0.738281 -1.34375 0.453125 -2.1875 0.453125 -3.25 C 0.453125 -4.414062 0.738281 -5.34375 1.3125 -6.03125 C 1.894531 -6.726562 2.707031 -7.078125 3.75 -7.078125 C 4.507812 -7.078125 5.113281 -6.847656 5.5625 -6.390625 C 6.019531 -5.929688 6.273438 -5.320312 6.328125 -4.5625 Z M 5.203125 -4.5625 "/></g></g><g transform="translate(51.318541, 47.53221)"><g><path d="M 2.265625 -5.921875 L 2.265625 -1.453125 C 2.265625 -1.273438 2.3125 -1.140625 2.40625 -1.046875 C 2.5 -0.953125 2.671875 -0.90625 2.921875 -0.90625 L 3.359375 -0.90625 L 3.359375 0 C 2.941406 0.0625 2.65625 0.09375 2.5 0.09375 C 2.007812 0.09375 1.65625 -0.0195312 1.4375 -0.25 C 1.21875 -0.488281 1.109375 -0.863281 1.109375 -1.375 L 1.109375 -5.921875 L 0.171875 -5.921875 L 0.171875 -6.875 L 1.109375 -6.875 L 1.109375 -8.796875 L 2.265625 -8.796875 L 2.265625 -6.875 L 3.359375 -6.875 L 3.359375 -5.921875 Z M 2.265625 -5.921875 "/></g></g><g transform="translate(54.960393, 47.53221)"><g><path d="M 1.671875 -3.453125 C 1.671875 -2.679688 1.84375 -2.046875 2.1875 -1.546875 C 2.53125 -1.054688 3.023438 -0.8125 3.671875 -0.8125 C 4.328125 -0.8125 4.828125 -1.070312 5.171875 -1.59375 C 5.515625 -2.113281 5.6875 -2.734375 5.6875 -3.453125 C 5.6875 -4.179688 5.515625 -4.796875 5.171875 -5.296875 C 4.828125 -5.804688 4.328125 -6.0625 3.671875 -6.0625 C 3.054688 -6.0625 2.566406 -5.820312 2.203125 -5.34375 C 1.847656 -4.863281 1.671875 -4.234375 1.671875 -3.453125 Z M 0.484375 -3.453125 C 0.484375 -4.472656 0.769531 -5.332031 1.34375 -6.03125 C 1.914062 -6.726562 2.691406 -7.078125 3.671875 -7.078125 C 4.671875 -7.078125 5.453125 -6.722656 6.015625 -6.015625 C 6.585938 -5.304688 6.875 -4.453125 6.875 -3.453125 C 6.875 -2.441406 6.59375 -1.578125 6.03125 -0.859375 C 5.46875 -0.148438 4.679688 0.203125 3.671875 0.203125 C 2.691406 0.203125 1.914062 -0.140625 1.34375 -0.828125 C 0.769531 -1.523438 0.484375 -2.398438 0.484375 -3.453125 Z M 0.484375 -3.453125 "/></g></g><g transform="translate(62.31475, 47.53221)"><g/></g><g transform="translate(65.52626, 47.53221)"><g><path d="M 1.71875 -3.46875 C 1.71875 -2.613281 1.882812 -1.953125 2.21875 -1.484375 C 2.5625 -1.023438 3.015625 -0.796875 3.578125 -0.796875 C 4.109375 -0.796875 4.550781 -0.992188 4.90625 -1.390625 C 5.269531 -1.785156 5.453125 -2.359375 5.453125 -3.109375 C 5.453125 -4.078125 5.300781 -4.804688 5 -5.296875 C 4.695312 -5.785156 4.234375 -6.03125 3.609375 -6.03125 C 3.003906 -6.03125 2.535156 -5.835938 2.203125 -5.453125 C 1.878906 -5.066406 1.71875 -4.40625 1.71875 -3.46875 Z M 6.625 0 L 5.53125 0 L 5.53125 -0.9375 L 5.515625 -0.9375 C 5.078125 -0.175781 4.414062 0.203125 3.53125 0.203125 C 2.570312 0.203125 1.832031 -0.160156 1.3125 -0.890625 C 0.789062 -1.617188 0.53125 -2.535156 0.53125 -3.640625 C 0.53125 -4.660156 0.785156 -5.488281 1.296875 -6.125 C 1.816406 -6.757812 2.515625 -7.078125 3.390625 -7.078125 C 4.253906 -7.078125 4.941406 -6.6875 5.453125 -5.90625 L 5.46875 -5.984375 L 5.46875 -9.4375 L 6.625 -9.4375 Z M 6.625 0 "/></g></g><g transform="translate(73.021923, 47.53221)"><g><path d="M 5.59375 -3.984375 C 5.53125 -4.734375 5.332031 -5.257812 5 -5.5625 C 4.664062 -5.875 4.222656 -6.03125 3.671875 -6.03125 C 3.109375 -6.03125 2.65625 -5.832031 2.3125 -5.4375 C 1.96875 -5.050781 1.785156 -4.566406 1.765625 -3.984375 Z M 6.6875 -2.15625 C 6.5625 -1.445312 6.210938 -0.859375 5.640625 -0.390625 C 5.140625 0.00390625 4.484375 0.207031 3.671875 0.21875 C 2.703125 0.207031 1.9375 -0.109375 1.375 -0.734375 C 0.8125 -1.359375 0.53125 -2.195312 0.53125 -3.25 C 0.53125 -4.457031 0.820312 -5.394531 1.40625 -6.0625 C 1.988281 -6.738281 2.796875 -7.078125 3.828125 -7.078125 C 4.753906 -7.078125 5.476562 -6.726562 6 -6.03125 C 6.53125 -5.34375 6.796875 -4.351562 6.796875 -3.0625 L 1.765625 -3.0625 C 1.765625 -2.34375 1.929688 -1.785156 2.265625 -1.390625 C 2.597656 -0.992188 3.097656 -0.796875 3.765625 -0.796875 C 4.234375 -0.796875 4.632812 -0.9375 4.96875 -1.21875 C 5.3125 -1.507812 5.5 -1.820312 5.53125 -2.15625 Z M 6.6875 -2.15625 "/></g></g></g><g fill="#000000" fill-opacity="1"><g transform="translate(10.615867, 63.317422)"><g><path d="M 2.34375 -5.078125 L 4.875 -5.078125 C 5.519531 -5.078125 6 -5.21875 6.3125 -5.5 C 6.632812 -5.78125 6.796875 -6.207031 6.796875 -6.78125 C 6.796875 -7.289062 6.640625 -7.675781 6.328125 -7.9375 C 6.023438 -8.207031 5.5625 -8.34375 4.9375 -8.34375 L 2.34375 -8.34375 Z M 2.34375 0 L 1.0625 0 L 1.0625 -9.4375 L 5.3125 -9.4375 C 6.15625 -9.4375 6.832031 -9.191406 7.34375 -8.703125 C 7.863281 -8.210938 8.125 -7.578125 8.125 -6.796875 C 8.125 -5.972656 7.875 -5.296875 7.375 -4.765625 C 6.875 -4.242188 6.1875 -3.984375 5.3125 -3.984375 L 2.34375 -3.984375 Z M 2.34375 0 "/></g></g><g transform="translate(19.119945, 63.317422)"><g><path d="M 2.03125 0 L 0.875 0 L 0.875 -6.875 L 1.953125 -6.875 L 1.953125 -5.734375 L 1.984375 -5.734375 C 2.484375 -6.628906 3.128906 -7.078125 3.921875 -7.078125 C 4.046875 -7.078125 4.144531 -7.066406 4.21875 -7.046875 L 4.21875 -5.84375 L 3.796875 -5.84375 C 3.273438 -5.84375 2.847656 -5.664062 2.515625 -5.3125 C 2.191406 -4.957031 2.03125 -4.519531 2.03125 -4 Z M 2.03125 0 "/></g></g><g transform="translate(23.404099, 63.317422)"><g><path d="M 1.671875 -3.453125 C 1.671875 -2.679688 1.84375 -2.046875 2.1875 -1.546875 C 2.53125 -1.054688 3.023438 -0.8125 3.671875 -0.8125 C 4.328125 -0.8125 4.828125 -1.070312 5.171875 -1.59375 C 5.515625 -2.113281 5.6875 -2.734375 5.6875 -3.453125 C 5.6875 -4.179688 5.515625 -4.796875 5.171875 -5.296875 C 4.828125 -5.804688 4.328125 -6.0625 3.671875 -6.0625 C 3.054688 -6.0625 2.566406 -5.820312 2.203125 -5.34375 C 1.847656 -4.863281 1.671875 -4.234375 1.671875 -3.453125 Z M 0.484375 -3.453125 C 0.484375 -4.472656 0.769531 -5.332031 1.34375 -6.03125 C 1.914062 -6.726562 2.691406 -7.078125 3.671875 -7.078125 C 4.671875 -7.078125 5.453125 -6.722656 6.015625 -6.015625 C 6.585938 -5.304688 6.875 -4.453125 6.875 -3.453125 C 6.875 -2.441406 6.59375 -1.578125 6.03125 -0.859375 C 5.46875 -0.148438 4.679688 0.203125 3.671875 0.203125 C 2.691406 0.203125 1.914062 -0.140625 1.34375 -0.828125 C 0.769531 -1.523438 0.484375 -2.398438 0.484375 -3.453125 Z M 0.484375 -3.453125 "/></g></g><g transform="translate(30.758456, 63.317422)"><g><path d="M 1.703125 -3.46875 C 1.703125 -2.625 1.867188 -1.96875 2.203125 -1.5 C 2.535156 -1.03125 2.988281 -0.796875 3.5625 -0.796875 C 4.113281 -0.796875 4.566406 -1 4.921875 -1.40625 C 5.273438 -1.8125 5.453125 -2.378906 5.453125 -3.109375 C 5.453125 -4.078125 5.296875 -4.804688 4.984375 -5.296875 C 4.679688 -5.785156 4.21875 -6.03125 3.59375 -6.03125 C 2.957031 -6.03125 2.484375 -5.820312 2.171875 -5.40625 C 1.859375 -4.988281 1.703125 -4.34375 1.703125 -3.46875 Z M 6.546875 -0.390625 C 6.546875 0.710938 6.28125 1.535156 5.75 2.078125 C 5.21875 2.617188 4.421875 2.890625 3.359375 2.890625 C 2.585938 2.890625 1.972656 2.710938 1.515625 2.359375 C 1.054688 2.003906 0.789062 1.5 0.71875 0.84375 L 1.875 0.84375 C 1.9375 1.175781 2.09375 1.441406 2.34375 1.640625 C 2.59375 1.835938 2.957031 1.9375 3.4375 1.9375 C 4.082031 1.9375 4.566406 1.757812 4.890625 1.40625 C 5.222656 1.0625 5.390625 0.5 5.390625 -0.28125 L 5.390625 -0.765625 L 5.375 -0.765625 C 4.9375 -0.117188 4.328125 0.203125 3.546875 0.203125 C 2.554688 0.203125 1.800781 -0.15625 1.28125 -0.875 C 0.769531 -1.601562 0.515625 -2.523438 0.515625 -3.640625 C 0.515625 -4.660156 0.773438 -5.488281 1.296875 -6.125 C 1.816406 -6.757812 2.507812 -7.078125 3.375 -7.078125 C 4.25 -7.078125 4.9375 -6.6875 5.4375 -5.90625 L 5.453125 -5.90625 L 5.453125 -6.875 L 6.546875 -6.875 Z M 6.546875 -0.390625 "/></g></g><g transform="translate(38.112813, 63.317422)"><g><path d="M 2.03125 0 L 0.875 0 L 0.875 -6.875 L 1.953125 -6.875 L 1.953125 -5.734375 L 1.984375 -5.734375 C 2.484375 -6.628906 3.128906 -7.078125 3.921875 -7.078125 C 4.046875 -7.078125 4.144531 -7.066406 4.21875 -7.046875 L 4.21875 -5.84375 L 3.796875 -5.84375 C 3.273438 -5.84375 2.847656 -5.664062 2.515625 -5.3125 C 2.191406 -4.957031 2.03125 -4.519531 2.03125 -4 Z M 2.03125 0 "/></g></g><g transform="translate(42.396967, 63.317422)"><g><path d="M 5.046875 -3.515625 C 4.960938 -3.421875 4.796875 -3.347656 4.546875 -3.296875 C 4.296875 -3.242188 3.828125 -3.171875 3.140625 -3.078125 C 2.640625 -3.015625 2.269531 -2.890625 2.03125 -2.703125 C 1.789062 -2.515625 1.671875 -2.265625 1.671875 -1.953125 C 1.671875 -1.578125 1.769531 -1.285156 1.96875 -1.078125 C 2.175781 -0.867188 2.5 -0.765625 2.9375 -0.765625 C 3.488281 -0.765625 3.976562 -0.921875 4.40625 -1.234375 C 4.832031 -1.546875 5.046875 -1.929688 5.046875 -2.390625 Z M 0.8125 -4.78125 C 0.84375 -5.5625 1.09375 -6.140625 1.5625 -6.515625 C 2.039062 -6.890625 2.738281 -7.078125 3.65625 -7.078125 C 4.382812 -7.078125 4.992188 -6.910156 5.484375 -6.578125 C 5.972656 -6.253906 6.21875 -5.78125 6.21875 -5.15625 L 6.21875 -1.1875 C 6.21875 -0.925781 6.34375 -0.796875 6.59375 -0.796875 C 6.6875 -0.796875 6.8125 -0.8125 6.96875 -0.84375 L 6.96875 0 C 6.757812 0.0820312 6.539062 0.125 6.3125 0.125 C 5.914062 0.125 5.617188 0.0390625 5.421875 -0.125 C 5.234375 -0.289062 5.132812 -0.554688 5.125 -0.921875 C 4.46875 -0.171875 3.640625 0.203125 2.640625 0.203125 C 1.992188 0.203125 1.472656 0.0195312 1.078125 -0.34375 C 0.679688 -0.71875 0.484375 -1.203125 0.484375 -1.796875 C 0.484375 -2.398438 0.65625 -2.882812 1 -3.25 C 1.34375 -3.625 1.84375 -3.851562 2.5 -3.9375 L 4.546875 -4.1875 C 4.910156 -4.238281 5.09375 -4.507812 5.09375 -5 C 5.09375 -5.351562 4.957031 -5.625 4.6875 -5.8125 C 4.425781 -6.007812 4.019531 -6.109375 3.46875 -6.109375 C 2.988281 -6.109375 2.617188 -6 2.359375 -5.78125 C 2.097656 -5.570312 1.941406 -5.238281 1.890625 -4.78125 Z M 0.8125 -4.78125 "/></g></g><g transform="translate(49.622864, 63.317422)"><g><path d="M 0.875 -6.875 L 1.953125 -6.875 L 1.953125 -5.90625 L 1.984375 -5.90625 C 2.503906 -6.6875 3.195312 -7.078125 4.0625 -7.078125 C 4.925781 -7.078125 5.535156 -6.707031 5.890625 -5.96875 C 6.222656 -6.363281 6.539062 -6.644531 6.84375 -6.8125 C 7.15625 -6.988281 7.539062 -7.078125 8 -7.078125 C 8.59375 -7.078125 9.09375 -6.878906 9.5 -6.484375 C 9.914062 -6.097656 10.125 -5.523438 10.125 -4.765625 L 10.125 0 L 8.96875 0 L 8.96875 -4.453125 C 8.96875 -4.984375 8.867188 -5.378906 8.671875 -5.640625 C 8.472656 -5.898438 8.148438 -6.03125 7.703125 -6.03125 C 7.242188 -6.03125 6.859375 -5.847656 6.546875 -5.484375 C 6.234375 -5.117188 6.078125 -4.6875 6.078125 -4.1875 L 6.078125 0 L 4.921875 0 L 4.921875 -4.765625 C 4.921875 -5.160156 4.828125 -5.46875 4.640625 -5.6875 C 4.460938 -5.914062 4.195312 -6.03125 3.84375 -6.03125 C 3.289062 -6.03125 2.847656 -5.828125 2.515625 -5.421875 C 2.191406 -5.015625 2.03125 -4.457031 2.03125 -3.75 L 2.03125 0 L 0.875 0 Z M 0.875 -6.875 "/></g></g><g transform="translate(60.541997, 63.317422)"><g><path d="M 5.046875 -3.515625 C 4.960938 -3.421875 4.796875 -3.347656 4.546875 -3.296875 C 4.296875 -3.242188 3.828125 -3.171875 3.140625 -3.078125 C 2.640625 -3.015625 2.269531 -2.890625 2.03125 -2.703125 C 1.789062 -2.515625 1.671875 -2.265625 1.671875 -1.953125 C 1.671875 -1.578125 1.769531 -1.285156 1.96875 -1.078125 C 2.175781 -0.867188 2.5 -0.765625 2.9375 -0.765625 C 3.488281 -0.765625 3.976562 -0.921875 4.40625 -1.234375 C 4.832031 -1.546875 5.046875 -1.929688 5.046875 -2.390625 Z M 0.8125 -4.78125 C 0.84375 -5.5625 1.09375 -6.140625 1.5625 -6.515625 C 2.039062 -6.890625 2.738281 -7.078125 3.65625 -7.078125 C 4.382812 -7.078125 4.992188 -6.910156 5.484375 -6.578125 C 5.972656 -6.253906 6.21875 -5.78125 6.21875 -5.15625 L 6.21875 -1.1875 C 6.21875 -0.925781 6.34375 -0.796875 6.59375 -0.796875 C 6.6875 -0.796875 6.8125 -0.8125 6.96875 -0.84375 L 6.96875 0 C 6.757812 0.0820312 6.539062 0.125 6.3125 0.125 C 5.914062 0.125 5.617188 0.0390625 5.421875 -0.125 C 5.234375 -0.289062 5.132812 -0.554688 5.125 -0.921875 C 4.46875 -0.171875 3.640625 0.203125 2.640625 0.203125 C 1.992188 0.203125 1.472656 0.0195312 1.078125 -0.34375 C 0.679688 -0.71875 0.484375 -1.203125 0.484375 -1.796875 C 0.484375 -2.398438 0.65625 -2.882812 1 -3.25 C 1.34375 -3.625 1.84375 -3.851562 2.5 -3.9375 L 4.546875 -4.1875 C 4.910156 -4.238281 5.09375 -4.507812 5.09375 -5 C 5.09375 -5.351562 4.957031 -5.625 4.6875 -5.8125 C 4.425781 -6.007812 4.019531 -6.109375 3.46875 -6.109375 C 2.988281 -6.109375 2.617188 -6 2.359375 -5.78125 C 2.097656 -5.570312 1.941406 -5.238281 1.890625 -4.78125 Z M 0.8125 -4.78125 "/></g></g><g transform="translate(67.767893, 63.317422)"><g><path d="M 5.203125 -4.5625 C 5.035156 -5.539062 4.492188 -6.03125 3.578125 -6.03125 C 3.003906 -6.03125 2.546875 -5.800781 2.203125 -5.34375 C 1.859375 -4.894531 1.6875 -4.265625 1.6875 -3.453125 C 1.6875 -2.566406 1.84375 -1.898438 2.15625 -1.453125 C 2.476562 -1.015625 2.945312 -0.796875 3.5625 -0.796875 C 3.976562 -0.796875 4.332031 -0.945312 4.625 -1.25 C 4.925781 -1.550781 5.117188 -1.945312 5.203125 -2.4375 L 6.328125 -2.4375 C 6.210938 -1.582031 5.910156 -0.925781 5.421875 -0.46875 C 4.941406 -0.0195312 4.316406 0.203125 3.546875 0.203125 C 2.640625 0.203125 1.894531 -0.101562 1.3125 -0.71875 C 0.738281 -1.34375 0.453125 -2.1875 0.453125 -3.25 C 0.453125 -4.414062 0.738281 -5.34375 1.3125 -6.03125 C 1.894531 -6.726562 2.707031 -7.078125 3.75 -7.078125 C 4.507812 -7.078125 5.113281 -6.847656 5.5625 -6.390625 C 6.019531 -5.929688 6.273438 -5.320312 6.328125 -4.5625 Z M 5.203125 -4.5625 "/></g></g><g transform="translate(74.512064, 63.317422)"><g><path d="M 0.875 -8.125 L 0.875 -9.4375 L 2.03125 -9.4375 L 2.03125 -8.125 Z M 2.03125 0 L 0.875 0 L 0.875 -6.875 L 2.03125 -6.875 Z M 2.03125 0 "/></g></g><g transform="translate(77.408845, 63.317422)"><g><path d="M 1.671875 -3.453125 C 1.671875 -2.679688 1.84375 -2.046875 2.1875 -1.546875 C 2.53125 -1.054688 3.023438 -0.8125 3.671875 -0.8125 C 4.328125 -0.8125 4.828125 -1.070312 5.171875 -1.59375 C 5.515625 -2.113281 5.6875 -2.734375 5.6875 -3.453125 C 5.6875 -4.179688 5.515625 -4.796875 5.171875 -5.296875 C 4.828125 -5.804688 4.328125 -6.0625 3.671875 -6.0625 C 3.054688 -6.0625 2.566406 -5.820312 2.203125 -5.34375 C 1.847656 -4.863281 1.671875 -4.234375 1.671875 -3.453125 Z M 0.484375 -3.453125 C 0.484375 -4.472656 0.769531 -5.332031 1.34375 -6.03125 C 1.914062 -6.726562 2.691406 -7.078125 3.671875 -7.078125 C 4.671875 -7.078125 5.453125 -6.722656 6.015625 -6.015625 C 6.585938 -5.304688 6.875 -4.453125 6.875 -3.453125 C 6.875 -2.441406 6.59375 -1.578125 6.03125 -0.859375 C 5.46875 -0.148438 4.679688 0.203125 3.671875 0.203125 C 2.691406 0.203125 1.914062 -0.140625 1.34375 -0.828125 C 0.769531 -1.523438 0.484375 -2.398438 0.484375 -3.453125 Z M 3.984375 -7.796875 L 3.125 -7.796875 L 4.046875 -9.65625 L 5.4375 -9.65625 Z M 3.984375 -7.796875 "/></g></g><g transform="translate(84.763203, 63.317422)"><g><path d="M 6.46875 0 L 5.3125 0 L 5.3125 -4.234375 C 5.3125 -4.878906 5.195312 -5.335938 4.96875 -5.609375 C 4.738281 -5.890625 4.363281 -6.03125 3.84375 -6.03125 C 3.320312 -6.03125 2.890625 -5.832031 2.546875 -5.4375 C 2.203125 -5.050781 2.03125 -4.488281 2.03125 -3.75 L 2.03125 0 L 0.875 0 L 0.875 -6.875 L 1.953125 -6.875 L 1.953125 -5.90625 L 1.984375 -5.90625 C 2.523438 -6.6875 3.21875 -7.078125 4.0625 -7.078125 C 4.84375 -7.078125 5.4375 -6.867188 5.84375 -6.453125 C 6.257812 -6.046875 6.46875 -5.457031 6.46875 -4.6875 Z M 6.46875 0 "/></g></g></g><g fill="#000000" fill-opacity="1"><g transform="translate(10.615867, 79.102634)"><g><path d="M 5.78125 -3.875 L 4.390625 -8.03125 L 4.375 -8.03125 L 2.859375 -3.875 Z M 2.453125 -2.75 L 1.46875 0 L 0.15625 0 L 3.71875 -9.4375 L 5.15625 -9.4375 L 8.578125 0 L 7.1875 0 L 6.25 -2.75 Z M 2.453125 -2.75 "/></g></g><g transform="translate(19.389712, 79.102634)"><g><path d="M 5.1875 -6.875 L 6.453125 -6.875 L 3.828125 0 L 2.59375 0 L 0.078125 -6.875 L 1.421875 -6.875 L 3.21875 -1.28125 L 3.234375 -1.28125 Z M 5.1875 -6.875 "/></g></g><g transform="translate(25.915499, 79.102634)"><g><path d="M 5.046875 -3.515625 C 4.960938 -3.421875 4.796875 -3.347656 4.546875 -3.296875 C 4.296875 -3.242188 3.828125 -3.171875 3.140625 -3.078125 C 2.640625 -3.015625 2.269531 -2.890625 2.03125 -2.703125 C 1.789062 -2.515625 1.671875 -2.265625 1.671875 -1.953125 C 1.671875 -1.578125 1.769531 -1.285156 1.96875 -1.078125 C 2.175781 -0.867188 2.5 -0.765625 2.9375 -0.765625 C 3.488281 -0.765625 3.976562 -0.921875 4.40625 -1.234375 C 4.832031 -1.546875 5.046875 -1.929688 5.046875 -2.390625 Z M 0.8125 -4.78125 C 0.84375 -5.5625 1.09375 -6.140625 1.5625 -6.515625 C 2.039062 -6.890625 2.738281 -7.078125 3.65625 -7.078125 C 4.382812 -7.078125 4.992188 -6.910156 5.484375 -6.578125 C 5.972656 -6.253906 6.21875 -5.78125 6.21875 -5.15625 L 6.21875 -1.1875 C 6.21875 -0.925781 6.34375 -0.796875 6.59375 -0.796875 C 6.6875 -0.796875 6.8125 -0.8125 6.96875 -0.84375 L 6.96875 0 C 6.757812 0.0820312 6.539062 0.125 6.3125 0.125 C 5.914062 0.125 5.617188 0.0390625 5.421875 -0.125 C 5.234375 -0.289062 5.132812 -0.554688 5.125 -0.921875 C 4.46875 -0.171875 3.640625 0.203125 2.640625 0.203125 C 1.992188 0.203125 1.472656 0.0195312 1.078125 -0.34375 C 0.679688 -0.71875 0.484375 -1.203125 0.484375 -1.796875 C 0.484375 -2.398438 0.65625 -2.882812 1 -3.25 C 1.34375 -3.625 1.84375 -3.851562 2.5 -3.9375 L 4.546875 -4.1875 C 4.910156 -4.238281 5.09375 -4.507812 5.09375 -5 C 5.09375 -5.351562 4.957031 -5.625 4.6875 -5.8125 C 4.425781 -6.007812 4.019531 -6.109375 3.46875 -6.109375 C 2.988281 -6.109375 2.617188 -6 2.359375 -5.78125 C 2.097656 -5.570312 1.941406 -5.238281 1.890625 -4.78125 Z M 0.8125 -4.78125 "/></g></g><g transform="translate(33.141396, 79.102634)"><g><path d="M 6.46875 0 L 5.3125 0 L 5.3125 -4.234375 C 5.3125 -4.878906 5.195312 -5.335938 4.96875 -5.609375 C 4.738281 -5.890625 4.363281 -6.03125 3.84375 -6.03125 C 3.320312 -6.03125 2.890625 -5.832031 2.546875 -5.4375 C 2.203125 -5.050781 2.03125 -4.488281 2.03125 -3.75 L 2.03125 0 L 0.875 0 L 0.875 -6.875 L 1.953125 -6.875 L 1.953125 -5.90625 L 1.984375 -5.90625 C 2.523438 -6.6875 3.21875 -7.078125 4.0625 -7.078125 C 4.84375 -7.078125 5.4375 -6.867188 5.84375 -6.453125 C 6.257812 -6.046875 6.46875 -5.457031 6.46875 -4.6875 Z M 6.46875 0 "/></g></g><g transform="translate(40.399408, 79.102634)"><g><path d="M 1.859375 -0.96875 L 6.09375 -0.96875 L 6.09375 0 L 0.3125 0 L 0.3125 -0.90625 L 4.484375 -5.921875 L 0.65625 -5.921875 L 0.65625 -6.875 L 5.96875 -6.875 L 5.96875 -5.9375 Z M 1.859375 -0.96875 "/></g></g><g transform="translate(46.873811, 79.102634)"><g><path d="M 5.046875 -3.515625 C 4.960938 -3.421875 4.796875 -3.347656 4.546875 -3.296875 C 4.296875 -3.242188 3.828125 -3.171875 3.140625 -3.078125 C 2.640625 -3.015625 2.269531 -2.890625 2.03125 -2.703125 C 1.789062 -2.515625 1.671875 -2.265625 1.671875 -1.953125 C 1.671875 -1.578125 1.769531 -1.285156 1.96875 -1.078125 C 2.175781 -0.867188 2.5 -0.765625 2.9375 -0.765625 C 3.488281 -0.765625 3.976562 -0.921875 4.40625 -1.234375 C 4.832031 -1.546875 5.046875 -1.929688 5.046875 -2.390625 Z M 0.8125 -4.78125 C 0.84375 -5.5625 1.09375 -6.140625 1.5625 -6.515625 C 2.039062 -6.890625 2.738281 -7.078125 3.65625 -7.078125 C 4.382812 -7.078125 4.992188 -6.910156 5.484375 -6.578125 C 5.972656 -6.253906 6.21875 -5.78125 6.21875 -5.15625 L 6.21875 -1.1875 C 6.21875 -0.925781 6.34375 -0.796875 6.59375 -0.796875 C 6.6875 -0.796875 6.8125 -0.8125 6.96875 -0.84375 L 6.96875 0 C 6.757812 0.0820312 6.539062 0.125 6.3125 0.125 C 5.914062 0.125 5.617188 0.0390625 5.421875 -0.125 C 5.234375 -0.289062 5.132812 -0.554688 5.125 -0.921875 C 4.46875 -0.171875 3.640625 0.203125 2.640625 0.203125 C 1.992188 0.203125 1.472656 0.0195312 1.078125 -0.34375 C 0.679688 -0.71875 0.484375 -1.203125 0.484375 -1.796875 C 0.484375 -2.398438 0.65625 -2.882812 1 -3.25 C 1.34375 -3.625 1.84375 -3.851562 2.5 -3.9375 L 4.546875 -4.1875 C 4.910156 -4.238281 5.09375 -4.507812 5.09375 -5 C 5.09375 -5.351562 4.957031 -5.625 4.6875 -5.8125 C 4.425781 -6.007812 4.019531 -6.109375 3.46875 -6.109375 C 2.988281 -6.109375 2.617188 -6 2.359375 -5.78125 C 2.097656 -5.570312 1.941406 -5.238281 1.890625 -4.78125 Z M 0.8125 -4.78125 "/></g></g><g transform="translate(54.099708, 79.102634)"><g><path d="M 1.71875 -3.46875 C 1.71875 -2.613281 1.882812 -1.953125 2.21875 -1.484375 C 2.5625 -1.023438 3.015625 -0.796875 3.578125 -0.796875 C 4.109375 -0.796875 4.550781 -0.992188 4.90625 -1.390625 C 5.269531 -1.785156 5.453125 -2.359375 5.453125 -3.109375 C 5.453125 -4.078125 5.300781 -4.804688 5 -5.296875 C 4.695312 -5.785156 4.234375 -6.03125 3.609375 -6.03125 C 3.003906 -6.03125 2.535156 -5.835938 2.203125 -5.453125 C 1.878906 -5.066406 1.71875 -4.40625 1.71875 -3.46875 Z M 6.625 0 L 5.53125 0 L 5.53125 -0.9375 L 5.515625 -0.9375 C 5.078125 -0.175781 4.414062 0.203125 3.53125 0.203125 C 2.570312 0.203125 1.832031 -0.160156 1.3125 -0.890625 C 0.789062 -1.617188 0.53125 -2.535156 0.53125 -3.640625 C 0.53125 -4.660156 0.785156 -5.488281 1.296875 -6.125 C 1.816406 -6.757812 2.515625 -7.078125 3.390625 -7.078125 C 4.253906 -7.078125 4.941406 -6.6875 5.453125 -5.90625 L 5.46875 -5.984375 L 5.46875 -9.4375 L 6.625 -9.4375 Z M 6.625 0 "/></g></g><g transform="translate(61.595372, 79.102634)"><g><path d="M 5.046875 -3.515625 C 4.960938 -3.421875 4.796875 -3.347656 4.546875 -3.296875 C 4.296875 -3.242188 3.828125 -3.171875 3.140625 -3.078125 C 2.640625 -3.015625 2.269531 -2.890625 2.03125 -2.703125 C 1.789062 -2.515625 1.671875 -2.265625 1.671875 -1.953125 C 1.671875 -1.578125 1.769531 -1.285156 1.96875 -1.078125 C 2.175781 -0.867188 2.5 -0.765625 2.9375 -0.765625 C 3.488281 -0.765625 3.976562 -0.921875 4.40625 -1.234375 C 4.832031 -1.546875 5.046875 -1.929688 5.046875 -2.390625 Z M 0.8125 -4.78125 C 0.84375 -5.5625 1.09375 -6.140625 1.5625 -6.515625 C 2.039062 -6.890625 2.738281 -7.078125 3.65625 -7.078125 C 4.382812 -7.078125 4.992188 -6.910156 5.484375 -6.578125 C 5.972656 -6.253906 6.21875 -5.78125 6.21875 -5.15625 L 6.21875 -1.1875 C 6.21875 -0.925781 6.34375 -0.796875 6.59375 -0.796875 C 6.6875 -0.796875 6.8125 -0.8125 6.96875 -0.84375 L 6.96875 0 C 6.757812 0.0820312 6.539062 0.125 6.3125 0.125 C 5.914062 0.125 5.617188 0.0390625 5.421875 -0.125 C 5.234375 -0.289062 5.132812 -0.554688 5.125 -0.921875 C 4.46875 -0.171875 3.640625 0.203125 2.640625 0.203125 C 1.992188 0.203125 1.472656 0.0195312 1.078125 -0.34375 C 0.679688 -0.71875 0.484375 -1.203125 0.484375 -1.796875 C 0.484375 -2.398438 0.65625 -2.882812 1 -3.25 C 1.34375 -3.625 1.84375 -3.851562 2.5 -3.9375 L 4.546875 -4.1875 C 4.910156 -4.238281 5.09375 -4.507812 5.09375 -5 C 5.09375 -5.351562 4.957031 -5.625 4.6875 -5.8125 C 4.425781 -6.007812 4.019531 -6.109375 3.46875 -6.109375 C 2.988281 -6.109375 2.617188 -6 2.359375 -5.78125 C 2.097656 -5.570312 1.941406 -5.238281 1.890625 -4.78125 Z M 0.8125 -4.78125 "/></g></g></g><g fill="#000000" fill-opacity="1"><g transform="translate(10.615867, 99.792042)"><g><path d="M 3.34375 -5.984375 C 3.570312 -5.960938 3.800781 -5.953125 4.03125 -5.953125 C 4.65625 -5.953125 5.144531 -6.09375 5.5 -6.375 C 5.851562 -6.664062 6.03125 -7.097656 6.03125 -7.671875 C 6.03125 -8.140625 5.863281 -8.53125 5.53125 -8.84375 C 5.195312 -9.164062 4.71875 -9.328125 4.09375 -9.328125 C 3.394531 -9.328125 2.882812 -9.125 2.5625 -8.71875 C 2.238281 -8.3125 2.066406 -7.765625 2.046875 -7.078125 L 0.765625 -7.078125 C 0.765625 -8.171875 1.050781 -9.015625 1.625 -9.609375 C 2.195312 -10.210938 3.039062 -10.515625 4.15625 -10.515625 C 5.144531 -10.515625 5.929688 -10.257812 6.515625 -9.75 C 7.109375 -9.238281 7.40625 -8.570312 7.40625 -7.75 C 7.40625 -6.675781 6.953125 -5.953125 6.046875 -5.578125 L 6.046875 -5.546875 C 7.222656 -5.148438 7.8125 -4.332031 7.8125 -3.09375 C 7.8125 -2.101562 7.476562 -1.289062 6.8125 -0.65625 C 6.15625 -0.03125 5.222656 0.28125 4.015625 0.28125 C 3.035156 0.28125 2.222656 0.0234375 1.578125 -0.484375 C 0.941406 -1.003906 0.585938 -1.914062 0.515625 -3.21875 L 1.875 -3.21875 C 1.882812 -2.40625 2.078125 -1.8125 2.453125 -1.4375 C 2.835938 -1.070312 3.390625 -0.890625 4.109375 -0.890625 C 4.796875 -0.890625 5.347656 -1.082031 5.765625 -1.46875 C 6.191406 -1.851562 6.40625 -2.335938 6.40625 -2.921875 C 6.40625 -3.566406 6.203125 -4.050781 5.796875 -4.375 C 5.398438 -4.695312 4.785156 -4.859375 3.953125 -4.859375 C 3.753906 -4.859375 3.550781 -4.851562 3.34375 -4.84375 Z M 3.34375 -5.984375 "/></g></g><g transform="translate(18.930158, 99.792042)"><g><path d="M 2.171875 -6.828125 C 2.566406 -6.828125 2.921875 -6.925781 3.234375 -7.125 C 3.546875 -7.332031 3.703125 -7.601562 3.703125 -7.9375 L 3.703125 -8.515625 C 3.628906 -8.453125 3.488281 -8.398438 3.28125 -8.359375 C 3.082031 -8.316406 2.765625 -8.269531 2.328125 -8.21875 C 1.910156 -8.164062 1.632812 -8.082031 1.5 -7.96875 C 1.363281 -7.863281 1.296875 -7.722656 1.296875 -7.546875 C 1.296875 -7.066406 1.585938 -6.828125 2.171875 -6.828125 Z M 4.953125 -5.265625 L 4.953125 -4.546875 L 0.53125 -4.546875 L 0.53125 -5.265625 Z M 5.171875 -6.140625 C 5.003906 -6.078125 4.84375 -6.046875 4.6875 -6.046875 C 4.101562 -6.046875 3.804688 -6.300781 3.796875 -6.8125 C 3.304688 -6.300781 2.691406 -6.046875 1.953125 -6.046875 C 1.472656 -6.046875 1.085938 -6.171875 0.796875 -6.421875 C 0.503906 -6.679688 0.359375 -7.015625 0.359375 -7.421875 C 0.359375 -7.847656 0.5 -8.191406 0.78125 -8.453125 C 1.070312 -8.710938 1.488281 -8.875 2.03125 -8.9375 L 3.34375 -9.09375 C 3.46875 -9.101562 3.554688 -9.148438 3.609375 -9.234375 C 3.671875 -9.328125 3.703125 -9.46875 3.703125 -9.65625 C 3.703125 -9.820312 3.613281 -9.960938 3.4375 -10.078125 C 3.257812 -10.191406 2.96875 -10.25 2.5625 -10.25 C 2.207031 -10.25 1.929688 -10.179688 1.734375 -10.046875 C 1.546875 -9.910156 1.441406 -9.710938 1.421875 -9.453125 L 0.609375 -9.453125 C 0.628906 -9.992188 0.820312 -10.390625 1.1875 -10.640625 C 1.550781 -10.890625 2.0625 -11.015625 2.71875 -11.015625 C 3.257812 -11.015625 3.710938 -10.898438 4.078125 -10.671875 C 4.441406 -10.441406 4.625 -10.117188 4.625 -9.703125 L 4.625 -7.015625 C 4.625 -6.847656 4.710938 -6.765625 4.890625 -6.765625 C 4.972656 -6.765625 5.066406 -6.773438 5.171875 -6.796875 Z M 5.171875 -6.140625 "/></g></g><g transform="translate(24.463285, 99.792042)"><g/></g><g transform="translate(28.113106, 99.792042)"><g><path d="M 7.53125 -7.59375 C 7.5 -8.269531 7.242188 -8.800781 6.765625 -9.1875 C 6.285156 -9.582031 5.65625 -9.78125 4.875 -9.78125 C 4.082031 -9.78125 3.472656 -9.617188 3.046875 -9.296875 C 2.628906 -8.972656 2.421875 -8.503906 2.421875 -7.890625 C 2.421875 -7.566406 2.515625 -7.285156 2.703125 -7.046875 C 2.890625 -6.816406 3.21875 -6.644531 3.6875 -6.53125 L 6.765625 -5.828125 C 7.585938 -5.648438 8.195312 -5.304688 8.59375 -4.796875 C 9 -4.296875 9.203125 -3.6875 9.203125 -2.96875 C 9.203125 -1.90625 8.8125 -1.097656 8.03125 -0.546875 C 7.25 0.00390625 6.238281 0.28125 5 0.28125 C 4.050781 0.28125 3.300781 0.160156 2.75 -0.078125 C 2.195312 -0.328125 1.707031 -0.710938 1.28125 -1.234375 C 0.863281 -1.765625 0.65625 -2.507812 0.65625 -3.46875 L 2.015625 -3.46875 C 2.015625 -2.664062 2.28125 -2.046875 2.8125 -1.609375 C 3.34375 -1.171875 4.066406 -0.953125 4.984375 -0.953125 C 5.867188 -0.953125 6.554688 -1.109375 7.046875 -1.421875 C 7.546875 -1.734375 7.796875 -2.179688 7.796875 -2.765625 C 7.796875 -3.296875 7.644531 -3.691406 7.34375 -3.953125 C 7.050781 -4.210938 6.476562 -4.441406 5.625 -4.640625 L 3.3125 -5.171875 C 2.539062 -5.347656 1.960938 -5.65625 1.578125 -6.09375 C 1.203125 -6.53125 1.015625 -7.066406 1.015625 -7.703125 C 1.015625 -8.671875 1.335938 -9.460938 1.984375 -10.078125 C 2.640625 -10.703125 3.546875 -11.015625 4.703125 -11.015625 C 6.023438 -11.015625 7.039062 -10.738281 7.75 -10.1875 C 8.457031 -9.644531 8.84375 -8.78125 8.90625 -7.59375 Z M 7.53125 -7.59375 "/></g></g><g transform="translate(38.011418, 99.792042)"><g><path d="M 6.359375 -4.53125 C 6.285156 -5.375 6.054688 -5.972656 5.671875 -6.328125 C 5.296875 -6.679688 4.796875 -6.859375 4.171875 -6.859375 C 3.535156 -6.859375 3.019531 -6.632812 2.625 -6.1875 C 2.226562 -5.738281 2.019531 -5.1875 2 -4.53125 Z M 7.609375 -2.453125 C 7.460938 -1.640625 7.066406 -0.972656 6.421875 -0.453125 C 5.847656 -0.00390625 5.097656 0.222656 4.171875 0.234375 C 3.078125 0.222656 2.207031 -0.128906 1.5625 -0.828125 C 0.914062 -1.535156 0.59375 -2.488281 0.59375 -3.6875 C 0.59375 -5.0625 0.921875 -6.128906 1.578125 -6.890625 C 2.242188 -7.660156 3.171875 -8.046875 4.359375 -8.046875 C 5.410156 -8.046875 6.234375 -7.648438 6.828125 -6.859375 C 7.421875 -6.078125 7.71875 -4.953125 7.71875 -3.484375 L 2 -3.484375 C 2 -2.660156 2.1875 -2.023438 2.5625 -1.578125 C 2.945312 -1.128906 3.519531 -0.90625 4.28125 -0.90625 C 4.8125 -0.90625 5.269531 -1.066406 5.65625 -1.390625 C 6.039062 -1.722656 6.253906 -2.078125 6.296875 -2.453125 Z M 7.609375 -2.453125 "/></g></g><g transform="translate(46.29651, 99.792042)"><g><path d="M 0.984375 -7.8125 L 2.234375 -7.8125 L 2.234375 -6.71875 L 2.25 -6.71875 C 2.84375 -7.601562 3.632812 -8.046875 4.625 -8.046875 C 5.601562 -8.046875 6.296875 -7.625 6.703125 -6.78125 C 7.078125 -7.238281 7.4375 -7.5625 7.78125 -7.75 C 8.132812 -7.945312 8.570312 -8.046875 9.09375 -8.046875 C 9.769531 -8.046875 10.34375 -7.820312 10.8125 -7.375 C 11.28125 -6.9375 11.515625 -6.28125 11.515625 -5.40625 L 11.515625 0 L 10.203125 0 L 10.203125 -5.046875 C 10.203125 -5.660156 10.085938 -6.113281 9.859375 -6.40625 C 9.628906 -6.707031 9.257812 -6.859375 8.75 -6.859375 C 8.226562 -6.859375 7.789062 -6.648438 7.4375 -6.234375 C 7.082031 -5.816406 6.90625 -5.328125 6.90625 -4.765625 L 6.90625 0 L 5.59375 0 L 5.59375 -5.40625 C 5.59375 -5.863281 5.488281 -6.21875 5.28125 -6.46875 C 5.070312 -6.726562 4.765625 -6.859375 4.359375 -6.859375 C 3.734375 -6.859375 3.234375 -6.625 2.859375 -6.15625 C 2.484375 -5.695312 2.296875 -5.066406 2.296875 -4.265625 L 2.296875 0 L 0.984375 0 Z M 0.984375 -7.8125 "/></g></g><g transform="translate(58.705899, 99.792042)"><g><path d="M 6.359375 -4.53125 C 6.285156 -5.375 6.054688 -5.972656 5.671875 -6.328125 C 5.296875 -6.679688 4.796875 -6.859375 4.171875 -6.859375 C 3.535156 -6.859375 3.019531 -6.632812 2.625 -6.1875 C 2.226562 -5.738281 2.019531 -5.1875 2 -4.53125 Z M 7.609375 -2.453125 C 7.460938 -1.640625 7.066406 -0.972656 6.421875 -0.453125 C 5.847656 -0.00390625 5.097656 0.222656 4.171875 0.234375 C 3.078125 0.222656 2.207031 -0.128906 1.5625 -0.828125 C 0.914062 -1.535156 0.59375 -2.488281 0.59375 -3.6875 C 0.59375 -5.0625 0.921875 -6.128906 1.578125 -6.890625 C 2.242188 -7.660156 3.171875 -8.046875 4.359375 -8.046875 C 5.410156 -8.046875 6.234375 -7.648438 6.828125 -6.859375 C 7.421875 -6.078125 7.71875 -4.953125 7.71875 -3.484375 L 2 -3.484375 C 2 -2.660156 2.1875 -2.023438 2.5625 -1.578125 C 2.945312 -1.128906 3.519531 -0.90625 4.28125 -0.90625 C 4.8125 -0.90625 5.269531 -1.066406 5.65625 -1.390625 C 6.039062 -1.722656 6.253906 -2.078125 6.296875 -2.453125 Z M 7.609375 -2.453125 "/></g></g><g transform="translate(66.990991, 99.792042)"><g><path d="M 5.390625 -5.59375 C 5.367188 -6.0625 5.203125 -6.394531 4.890625 -6.59375 C 4.578125 -6.800781 4.128906 -6.90625 3.546875 -6.90625 C 3.117188 -6.90625 2.75 -6.8125 2.4375 -6.625 C 2.132812 -6.4375 1.984375 -6.160156 1.984375 -5.796875 C 1.984375 -5.515625 2.070312 -5.304688 2.25 -5.171875 C 2.4375 -5.046875 2.828125 -4.90625 3.421875 -4.75 L 4.71875 -4.421875 C 5.507812 -4.222656 6.070312 -3.96875 6.40625 -3.65625 C 6.75 -3.351562 6.921875 -2.921875 6.921875 -2.359375 C 6.921875 -1.597656 6.640625 -0.976562 6.078125 -0.5 C 5.515625 -0.0195312 4.765625 0.21875 3.828125 0.21875 C 2.734375 0.21875 1.90625 -0.00390625 1.34375 -0.453125 C 0.78125 -0.910156 0.492188 -1.597656 0.484375 -2.515625 L 1.75 -2.515625 C 1.769531 -1.972656 1.945312 -1.566406 2.28125 -1.296875 C 2.625 -1.035156 3.132812 -0.90625 3.8125 -0.90625 C 4.363281 -0.90625 4.800781 -1.015625 5.125 -1.234375 C 5.445312 -1.453125 5.609375 -1.757812 5.609375 -2.15625 C 5.609375 -2.425781 5.503906 -2.644531 5.296875 -2.8125 C 5.085938 -2.976562 4.671875 -3.132812 4.046875 -3.28125 L 2.53125 -3.65625 C 1.90625 -3.8125 1.445312 -4.039062 1.15625 -4.34375 C 0.863281 -4.65625 0.71875 -5.054688 0.71875 -5.546875 C 0.71875 -6.316406 0.988281 -6.925781 1.53125 -7.375 C 2.082031 -7.820312 2.800781 -8.046875 3.6875 -8.046875 C 4.632812 -8.046875 5.359375 -7.816406 5.859375 -7.359375 C 6.367188 -6.898438 6.640625 -6.3125 6.671875 -5.59375 Z M 5.390625 -5.59375 "/></g></g><g transform="translate(74.465823, 99.792042)"><g><path d="M 2.5625 -6.734375 L 2.5625 -1.640625 C 2.5625 -1.441406 2.617188 -1.289062 2.734375 -1.1875 C 2.847656 -1.082031 3.046875 -1.03125 3.328125 -1.03125 L 3.828125 -1.03125 L 3.828125 0 C 3.347656 0.0703125 3.019531 0.109375 2.84375 0.109375 C 2.289062 0.109375 1.882812 -0.0195312 1.625 -0.28125 C 1.375 -0.550781 1.25 -0.976562 1.25 -1.5625 L 1.25 -6.734375 L 0.203125 -6.734375 L 0.203125 -7.8125 L 1.25 -7.8125 L 1.25 -10 L 2.5625 -10 L 2.5625 -7.8125 L 3.828125 -7.8125 L 3.828125 -6.734375 Z M 2.5625 -6.734375 "/></g></g><g transform="translate(78.604719, 99.792042)"><g><path d="M 2.296875 0 L 0.984375 0 L 0.984375 -7.8125 L 2.234375 -7.8125 L 2.234375 -6.515625 L 2.25 -6.515625 C 2.820312 -7.535156 3.554688 -8.046875 4.453125 -8.046875 C 4.597656 -8.046875 4.710938 -8.03125 4.796875 -8 L 4.796875 -6.640625 L 4.3125 -6.640625 C 3.71875 -6.640625 3.234375 -6.4375 2.859375 -6.03125 C 2.484375 -5.632812 2.296875 -5.140625 2.296875 -4.546875 Z M 2.296875 0 "/></g></g><g transform="translate(83.47358, 99.792042)"><g><path d="M 6.359375 -4.53125 C 6.285156 -5.375 6.054688 -5.972656 5.671875 -6.328125 C 5.296875 -6.679688 4.796875 -6.859375 4.171875 -6.859375 C 3.535156 -6.859375 3.019531 -6.632812 2.625 -6.1875 C 2.226562 -5.738281 2.019531 -5.1875 2 -4.53125 Z M 7.609375 -2.453125 C 7.460938 -1.640625 7.066406 -0.972656 6.421875 -0.453125 C 5.847656 -0.00390625 5.097656 0.222656 4.171875 0.234375 C 3.078125 0.222656 2.207031 -0.128906 1.5625 -0.828125 C 0.914062 -1.535156 0.59375 -2.488281 0.59375 -3.6875 C 0.59375 -5.0625 0.921875 -6.128906 1.578125 -6.890625 C 2.242188 -7.660156 3.171875 -8.046875 4.359375 -8.046875 C 5.410156 -8.046875 6.234375 -7.648438 6.828125 -6.859375 C 7.421875 -6.078125 7.71875 -4.953125 7.71875 -3.484375 L 2 -3.484375 C 2 -2.660156 2.1875 -2.023438 2.5625 -1.578125 C 2.945312 -1.128906 3.519531 -0.90625 4.28125 -0.90625 C 4.8125 -0.90625 5.269531 -1.066406 5.65625 -1.390625 C 6.039062 -1.722656 6.253906 -2.078125 6.296875 -2.453125 Z M 7.609375 -2.453125 "/></g></g><g transform="translate(91.758672, 99.792042)"><g><path d="M 1.296875 -1.578125 L 2.859375 -1.578125 L 2.859375 -0.109375 C 2.859375 0.628906 2.703125 1.1875 2.390625 1.5625 C 2.085938 1.9375 1.722656 2.148438 1.296875 2.203125 L 1.296875 1.515625 C 1.828125 1.441406 2.09375 0.9375 2.09375 0 L 1.296875 0 Z M 1.296875 -1.578125 "/></g></g><g transform="translate(95.912167, 99.792042)"><g/></g><g transform="translate(99.561987, 99.792042)"><g><path d="M 0.65625 -6.75 C 0.65625 -7.976562 0.972656 -8.910156 1.609375 -9.546875 C 2.242188 -10.191406 3.140625 -10.515625 4.296875 -10.515625 C 5.253906 -10.515625 6.039062 -10.222656 6.65625 -9.640625 C 7.269531 -9.054688 7.578125 -8.300781 7.578125 -7.375 C 7.578125 -6.65625 7.398438 -6.046875 7.046875 -5.546875 C 6.691406 -5.054688 6.171875 -4.625 5.484375 -4.25 L 3.6875 -3.25 C 2.613281 -2.664062 2.007812 -1.992188 1.875 -1.234375 L 7.578125 -1.234375 L 7.578125 0 L 0.390625 0 C 0.429688 -0.988281 0.644531 -1.8125 1.03125 -2.46875 C 1.414062 -3.125 2.023438 -3.691406 2.859375 -4.171875 L 4.734375 -5.265625 C 5.234375 -5.546875 5.597656 -5.84375 5.828125 -6.15625 C 6.054688 -6.46875 6.171875 -6.894531 6.171875 -7.4375 C 6.171875 -7.96875 5.984375 -8.414062 5.609375 -8.78125 C 5.234375 -9.144531 4.726562 -9.328125 4.09375 -9.328125 C 3.382812 -9.328125 2.851562 -9.09375 2.5 -8.625 C 2.15625 -8.164062 1.976562 -7.539062 1.96875 -6.75 Z M 0.65625 -6.75 "/></g></g><g transform="translate(107.876278, 99.792042)"><g><path d="M 6.359375 -5.109375 C 6.359375 -6.515625 6.171875 -7.566406 5.796875 -8.265625 C 5.421875 -8.972656 4.875 -9.328125 4.15625 -9.328125 C 3.445312 -9.328125 2.898438 -8.972656 2.515625 -8.265625 C 2.140625 -7.566406 1.953125 -6.515625 1.953125 -5.109375 C 1.953125 -3.742188 2.140625 -2.695312 2.515625 -1.96875 C 2.890625 -1.25 3.4375 -0.890625 4.15625 -0.890625 C 4.875 -0.890625 5.421875 -1.238281 5.796875 -1.9375 C 6.171875 -2.644531 6.359375 -3.703125 6.359375 -5.109375 Z M 7.765625 -5.109375 C 7.765625 -3.390625 7.453125 -2.0625 6.828125 -1.125 C 6.203125 -0.1875 5.3125 0.28125 4.15625 0.28125 C 2.945312 0.28125 2.046875 -0.203125 1.453125 -1.171875 C 0.859375 -2.140625 0.5625 -3.453125 0.5625 -5.109375 C 0.5625 -6.804688 0.863281 -8.128906 1.46875 -9.078125 C 2.082031 -10.035156 2.976562 -10.515625 4.15625 -10.515625 C 5.3125 -10.515625 6.203125 -10.039062 6.828125 -9.09375 C 7.453125 -8.144531 7.765625 -6.816406 7.765625 -5.109375 Z M 7.765625 -5.109375 "/></g></g><g transform="translate(116.190568, 99.792042)"><g><path d="M 0.65625 -6.75 C 0.65625 -7.976562 0.972656 -8.910156 1.609375 -9.546875 C 2.242188 -10.191406 3.140625 -10.515625 4.296875 -10.515625 C 5.253906 -10.515625 6.039062 -10.222656 6.65625 -9.640625 C 7.269531 -9.054688 7.578125 -8.300781 7.578125 -7.375 C 7.578125 -6.65625 7.398438 -6.046875 7.046875 -5.546875 C 6.691406 -5.054688 6.171875 -4.625 5.484375 -4.25 L 3.6875 -3.25 C 2.613281 -2.664062 2.007812 -1.992188 1.875 -1.234375 L 7.578125 -1.234375 L 7.578125 0 L 0.390625 0 C 0.429688 -0.988281 0.644531 -1.8125 1.03125 -2.46875 C 1.414062 -3.125 2.023438 -3.691406 2.859375 -4.171875 L 4.734375 -5.265625 C 5.234375 -5.546875 5.597656 -5.84375 5.828125 -6.15625 C 6.054688 -6.46875 6.171875 -6.894531 6.171875 -7.4375 C 6.171875 -7.96875 5.984375 -8.414062 5.609375 -8.78125 C 5.234375 -9.144531 4.726562 -9.328125 4.09375 -9.328125 C 3.382812 -9.328125 2.851562 -9.09375 2.5 -8.625 C 2.15625 -8.164062 1.976562 -7.539062 1.96875 -6.75 Z M 0.65625 -6.75 "/></g></g><g transform="translate(124.504859, 99.792042)"><g><path d="M 1.578125 -3.6875 L 4.96875 -3.6875 L 4.96875 -8.46875 L 4.9375 -8.46875 Z M 6.28125 -2.5625 L 6.28125 0 L 4.96875 0 L 4.96875 -2.5625 L 0.375 -2.5625 L 0.375 -3.84375 L 5.1875 -10.515625 L 6.28125 -10.515625 L 6.28125 -3.6875 L 7.8125 -3.6875 L 7.8125 -2.5625 Z M 6.28125 -2.5625 "/></g></g></g></svg>