<svg xmlns="http://www.w3.org/2000/svg" xmlns:xlink="http://www.w3.org/1999/xlink" width="174" zoomAndPan="magnify" viewBox="0 0 130.5 126.750001" height="169" preserveAspectRatio="xMidYMid meet" version="1.0"><defs><g/><clipPath id="9c5ca667db"><path d="M 20 40 L 99 40 L 99 107 L 20 107 Z M 20 40 " clip-rule="nonzero"/></clipPath><clipPath id="f8a69514fc"><path d="M 58.523438 27.128906 L 116.039062 78.253906 L 73.351562 126.277344 L 15.835938 75.152344 Z M 58.523438 27.128906 " clip-rule="nonzero"/></clipPath><clipPath id="c7d7efd6a2"><path d="M 58.523438 27.128906 L 116.039062 78.253906 L 73.351562 126.277344 L 15.835938 75.152344 Z M 58.523438 27.128906 " clip-rule="nonzero"/></clipPath><clipPath id="61a522ac53"><path d="M 20 40 L 99 40 L 99 108 L 20 108 Z M 20 40 " clip-rule="nonzero"/></clipPath><clipPath id="7f0e5626a1"><path d="M 58.523438 27.128906 L 116.039062 78.253906 L 73.351562 126.277344 L 15.835938 75.152344 Z M 58.523438 27.128906 " clip-rule="nonzero"/></clipPath><clipPath id="c55a02c090"><path d="M 58.523438 27.128906 L 116.039062 78.253906 L 73.351562 126.277344 L 15.835938 75.152344 Z M 58.523438 27.128906 " clip-rule="nonzero"/></clipPath><clipPath id="f5efa77e76"><path d="M 67 76 L 82 76 L 82 90 L 67 90 Z M 67 76 " clip-rule="nonzero"/></clipPath><clipPath id="d8d7390fec"><path d="M 58.523438 27.128906 L 116.039062 78.253906 L 73.351562 126.277344 L 15.835938 75.152344 Z M 58.523438 27.128906 " clip-rule="nonzero"/></clipPath><clipPath id="6b32de4ce4"><path d="M 58.523438 27.128906 L 116.039062 78.253906 L 73.351562 126.277344 L 15.835938 75.152344 Z M 58.523438 27.128906 " clip-rule="nonzero"/></clipPath><clipPath id="836cbcf24a"><path d="M 73 98 L 82 98 L 82 107 L 73 107 Z M 73 98 " clip-rule="nonzero"/></clipPath><clipPath id="8aabe1151d"><path d="M 58.523438 27.128906 L 116.039062 78.253906 L 73.351562 126.277344 L 15.835938 75.152344 Z M 58.523438 27.128906 " clip-rule="nonzero"/></clipPath><clipPath id="3a3b4c9859"><path d="M 58.523438 27.128906 L 116.039062 78.253906 L 73.351562 126.277344 L 15.835938 75.152344 Z M 58.523438 27.128906 " clip-rule="nonzero"/></clipPath><clipPath id="8c8de39775"><path d="M 76 103 L 81 103 L 81 108 L 76 108 Z M 76 103 " clip-rule="nonzero"/></clipPath><clipPath id="19cd3f0f4e"><path d="M 58.523438 27.128906 L 116.039062 78.253906 L 73.351562 126.277344 L 15.835938 75.152344 Z M 58.523438 27.128906 " clip-rule="nonzero"/></clipPath><clipPath id="f81cbb8c73"><path d="M 58.523438 27.128906 L 116.039062 78.253906 L 73.351562 126.277344 L 15.835938 75.152344 Z M 58.523438 27.128906 " clip-rule="nonzero"/></clipPath><clipPath id="2e9b3af828"><path d="M 81 58 L 97 58 L 97 71 L 81 71 Z M 81 58 " clip-rule="nonzero"/></clipPath><clipPath id="e6597032af"><path d="M 58.523438 27.128906 L 116.039062 78.253906 L 73.351562 126.277344 L 15.835938 75.152344 Z M 58.523438 27.128906 " clip-rule="nonzero"/></clipPath><clipPath id="9ed501f0f2"><path d="M 58.523438 27.128906 L 116.039062 78.253906 L 73.351562 126.277344 L 15.835938 75.152344 Z M 58.523438 27.128906 " clip-rule="nonzero"/></clipPath><clipPath id="5de2a89ab6"><path d="M 20 69 L 29 69 L 29 85 L 20 85 Z M 20 69 " clip-rule="nonzero"/></clipPath><clipPath id="8ca2d07105"><path d="M 58.523438 27.128906 L 116.039062 78.253906 L 73.351562 126.277344 L 15.835938 75.152344 Z M 58.523438 27.128906 " clip-rule="nonzero"/></clipPath><clipPath id="b1638c7f6d"><path d="M 58.523438 27.128906 L 116.039062 78.253906 L 73.351562 126.277344 L 15.835938 75.152344 Z M 58.523438 27.128906 " clip-rule="nonzero"/></clipPath><clipPath id="5f051ec120"><path d="M 25 82 L 29 82 L 29 86 L 25 86 Z M 25 82 " clip-rule="nonzero"/></clipPath><clipPath id="a081114f25"><path d="M 58.523438 27.128906 L 116.039062 78.253906 L 73.351562 126.277344 L 15.835938 75.152344 Z M 58.523438 27.128906 " clip-rule="nonzero"/></clipPath><clipPath id="26e79d6ad2"><path d="M 58.523438 27.128906 L 116.039062 78.253906 L 73.351562 126.277344 L 15.835938 75.152344 Z M 58.523438 27.128906 " clip-rule="nonzero"/></clipPath><clipPath id="f339eff2e5"><path d="M 38 40 L 61 40 L 61 56 L 38 56 Z M 38 40 " clip-rule="nonzero"/></clipPath><clipPath id="7273f31895"><path d="M 58.523438 27.128906 L 116.039062 78.253906 L 73.351562 126.277344 L 15.835938 75.152344 Z M 58.523438 27.128906 " clip-rule="nonzero"/></clipPath><clipPath id="4bf868cb57"><path d="M 58.523438 27.128906 L 116.039062 78.253906 L 73.351562 126.277344 L 15.835938 75.152344 Z M 58.523438 27.128906 " clip-rule="nonzero"/></clipPath><clipPath id="aa15c291e0"><path d="M 88 60 L 99 60 L 99 69 L 88 69 Z M 88 60 " clip-rule="nonzero"/></clipPath><clipPath id="fe21023469"><path d="M 58.523438 27.128906 L 116.039062 78.253906 L 73.351562 126.277344 L 15.835938 75.152344 Z M 58.523438 27.128906 " clip-rule="nonzero"/></clipPath><clipPath id="a6dc89cb6e"><path d="M 58.523438 27.128906 L 116.039062 78.253906 L 73.351562 126.277344 L 15.835938 75.152344 Z M 58.523438 27.128906 " clip-rule="nonzero"/></clipPath><clipPath id="2c725a6ab3"><path d="M 85 61 L 101 61 L 101 73 L 85 73 Z M 85 61 " clip-rule="nonzero"/></clipPath><clipPath id="d98579a13b"><path d="M 58.523438 27.128906 L 116.039062 78.253906 L 73.351562 126.277344 L 15.835938 75.152344 Z M 58.523438 27.128906 " clip-rule="nonzero"/></clipPath><clipPath id="2a2a6e2b39"><path d="M 58.523438 27.128906 L 116.039062 78.253906 L 73.351562 126.277344 L 15.835938 75.152344 Z M 58.523438 27.128906 " clip-rule="nonzero"/></clipPath><clipPath id="338239bef6"><path d="M 84 60 L 101 60 L 101 74 L 84 74 Z M 84 60 " clip-rule="nonzero"/></clipPath><clipPath id="166c021cc5"><path d="M 58.523438 27.128906 L 116.039062 78.253906 L 73.351562 126.277344 L 15.835938 75.152344 Z M 58.523438 27.128906 " clip-rule="nonzero"/></clipPath><clipPath id="5b36f58021"><path d="M 58.523438 27.128906 L 116.039062 78.253906 L 73.351562 126.277344 L 15.835938 75.152344 Z M 58.523438 27.128906 " clip-rule="nonzero"/></clipPath><clipPath id="ebb2017a4d"><path d="M 51 41 L 62 41 L 62 51 L 51 51 Z M 51 41 " clip-rule="nonzero"/></clipPath><clipPath id="15092d8f58"><path d="M 58.523438 27.128906 L 116.039062 78.253906 L 73.351562 126.277344 L 15.835938 75.152344 Z M 58.523438 27.128906 " clip-rule="nonzero"/></clipPath><clipPath id="bb0eb07402"><path d="M 58.523438 27.128906 L 116.039062 78.253906 L 73.351562 126.277344 L 15.835938 75.152344 Z M 58.523438 27.128906 " clip-rule="nonzero"/></clipPath><clipPath id="7f96f9cda5"><path d="M 48 42 L 64 42 L 64 56 L 48 56 Z M 48 42 " clip-rule="nonzero"/></clipPath><clipPath id="5b086b600b"><path d="M 58.523438 27.128906 L 116.039062 78.253906 L 73.351562 126.277344 L 15.835938 75.152344 Z M 58.523438 27.128906 " clip-rule="nonzero"/></clipPath><clipPath id="4a1e81a600"><path d="M 58.523438 27.128906 L 116.039062 78.253906 L 73.351562 126.277344 L 15.835938 75.152344 Z M 58.523438 27.128906 " clip-rule="nonzero"/></clipPath><clipPath id="80b4ec7859"><path d="M 47 42 L 64 42 L 64 56 L 47 56 Z M 47 42 " clip-rule="nonzero"/></clipPath><clipPath id="b659dab9d1"><path d="M 58.523438 27.128906 L 116.039062 78.253906 L 73.351562 126.277344 L 15.835938 75.152344 Z M 58.523438 27.128906 " clip-rule="nonzero"/></clipPath><clipPath id="e5038820cd"><path d="M 58.523438 27.128906 L 116.039062 78.253906 L 73.351562 126.277344 L 15.835938 75.152344 Z M 58.523438 27.128906 " clip-rule="nonzero"/></clipPath><clipPath id="ca7135972c"><path d="M 23 49 L 101 49 L 101 109 L 23 109 Z M 23 49 " clip-rule="nonzero"/></clipPath><clipPath id="902a51bf10"><path d="M 58.523438 27.128906 L 116.039062 78.253906 L 73.351562 126.277344 L 15.835938 75.152344 Z M 58.523438 27.128906 " clip-rule="nonzero"/></clipPath><clipPath id="de9143d2d6"><path d="M 58.523438 27.128906 L 116.039062 78.253906 L 73.351562 126.277344 L 15.835938 75.152344 Z M 58.523438 27.128906 " clip-rule="nonzero"/></clipPath><clipPath id="3e4b52c839"><path d="M 23 49 L 101 49 L 101 110 L 23 110 Z M 23 49 " clip-rule="nonzero"/></clipPath><clipPath id="71076711d3"><path d="M 58.523438 27.128906 L 116.039062 78.253906 L 73.351562 126.277344 L 15.835938 75.152344 Z M 58.523438 27.128906 " clip-rule="nonzero"/></clipPath><clipPath id="a69e212651"><path d="M 58.523438 27.128906 L 116.039062 78.253906 L 73.351562 126.277344 L 15.835938 75.152344 Z M 58.523438 27.128906 " clip-rule="nonzero"/></clipPath><clipPath id="6b8b10326b"><path d="M 77 64 L 103 64 L 103 89 L 77 89 Z M 77 64 " clip-rule="nonzero"/></clipPath><clipPath id="c78e321113"><path d="M 58.523438 27.128906 L 116.039062 78.253906 L 73.351562 126.277344 L 15.835938 75.152344 Z M 58.523438 27.128906 " clip-rule="nonzero"/></clipPath><clipPath id="5bdd5dc806"><path d="M 58.523438 27.128906 L 116.039062 78.253906 L 73.351562 126.277344 L 15.835938 75.152344 Z M 58.523438 27.128906 " clip-rule="nonzero"/></clipPath><clipPath id="22fa3213a5"><path d="M 77 64 L 103 64 L 103 90 L 77 90 Z M 77 64 " clip-rule="nonzero"/></clipPath><clipPath id="b5c27a9c9f"><path d="M 58.523438 27.128906 L 116.039062 78.253906 L 73.351562 126.277344 L 15.835938 75.152344 Z M 58.523438 27.128906 " clip-rule="nonzero"/></clipPath><clipPath id="265c3d0c81"><path d="M 58.523438 27.128906 L 116.039062 78.253906 L 73.351562 126.277344 L 15.835938 75.152344 Z M 58.523438 27.128906 " clip-rule="nonzero"/></clipPath><clipPath id="77afffee5b"><path d="M 39 46 L 65 46 L 65 72 L 39 72 Z M 39 46 " clip-rule="nonzero"/></clipPath><clipPath id="bb9022bb2d"><path d="M 58.523438 27.128906 L 116.039062 78.253906 L 73.351562 126.277344 L 15.835938 75.152344 Z M 58.523438 27.128906 " clip-rule="nonzero"/></clipPath><clipPath id="25145e28c0"><path d="M 58.523438 27.128906 L 116.039062 78.253906 L 73.351562 126.277344 L 15.835938 75.152344 Z M 58.523438 27.128906 " clip-rule="nonzero"/></clipPath><clipPath id="e67758d39b"><path d="M 39 45 L 66 45 L 66 72 L 39 72 Z M 39 45 " clip-rule="nonzero"/></clipPath><clipPath id="ecf5ca3602"><path d="M 58.523438 27.128906 L 116.039062 78.253906 L 73.351562 126.277344 L 15.835938 75.152344 Z M 58.523438 27.128906 " clip-rule="nonzero"/></clipPath><clipPath id="61781124c9"><path d="M 58.523438 27.128906 L 116.039062 78.253906 L 73.351562 126.277344 L 15.835938 75.152344 Z M 58.523438 27.128906 " clip-rule="nonzero"/></clipPath><clipPath id="76bacddaa1"><path d="M 42 48 L 64 48 L 64 69 L 42 69 Z M 42 48 " clip-rule="nonzero"/></clipPath><clipPath id="34e4bf9b63"><path d="M 58.523438 27.128906 L 116.039062 78.253906 L 73.351562 126.277344 L 15.835938 75.152344 Z M 58.523438 27.128906 " clip-rule="nonzero"/></clipPath><clipPath id="93feaa89ab"><path d="M 58.523438 27.128906 L 116.039062 78.253906 L 73.351562 126.277344 L 15.835938 75.152344 Z M 58.523438 27.128906 " clip-rule="nonzero"/></clipPath><clipPath id="84c7e65584"><path d="M 80 66 L 102 66 L 102 86 L 80 86 Z M 80 66 " clip-rule="nonzero"/></clipPath><clipPath id="0bfc6a6e72"><path d="M 58.523438 27.128906 L 116.039062 78.253906 L 73.351562 126.277344 L 15.835938 75.152344 Z M 58.523438 27.128906 " clip-rule="nonzero"/></clipPath><clipPath id="985a962b1b"><path d="M 58.523438 27.128906 L 116.039062 78.253906 L 73.351562 126.277344 L 15.835938 75.152344 Z M 58.523438 27.128906 " clip-rule="nonzero"/></clipPath><clipPath id="ad8947f33e"><path d="M 82 71 L 88 71 L 88 77 L 82 77 Z M 82 71 " clip-rule="nonzero"/></clipPath><clipPath id="7231f4f01f"><path d="M 58.523438 27.128906 L 116.039062 78.253906 L 73.351562 126.277344 L 15.835938 75.152344 Z M 58.523438 27.128906 " clip-rule="nonzero"/></clipPath><clipPath id="ae93fe9f17"><path d="M 58.523438 27.128906 L 116.039062 78.253906 L 73.351562 126.277344 L 15.835938 75.152344 Z M 58.523438 27.128906 " clip-rule="nonzero"/></clipPath><clipPath id="5c0dd1a77a"><path d="M 82 70 L 89 70 L 89 77 L 82 77 Z M 82 70 " clip-rule="nonzero"/></clipPath><clipPath id="8430490bd4"><path d="M 58.523438 27.128906 L 116.039062 78.253906 L 73.351562 126.277344 L 15.835938 75.152344 Z M 58.523438 27.128906 " clip-rule="nonzero"/></clipPath><clipPath id="5372f23552"><path d="M 58.523438 27.128906 L 116.039062 78.253906 L 73.351562 126.277344 L 15.835938 75.152344 Z M 58.523438 27.128906 " clip-rule="nonzero"/></clipPath><clipPath id="52b04918c8"><path d="M 90 68 L 96 68 L 96 74 L 90 74 Z M 90 68 " clip-rule="nonzero"/></clipPath><clipPath id="696e8c5f5c"><path d="M 58.523438 27.128906 L 116.039062 78.253906 L 73.351562 126.277344 L 15.835938 75.152344 Z M 58.523438 27.128906 " clip-rule="nonzero"/></clipPath><clipPath id="d0a5ace91b"><path d="M 58.523438 27.128906 L 116.039062 78.253906 L 73.351562 126.277344 L 15.835938 75.152344 Z M 58.523438 27.128906 " clip-rule="nonzero"/></clipPath><clipPath id="7258fb3c5a"><path d="M 94 76 L 100 76 L 100 82 L 94 82 Z M 94 76 " clip-rule="nonzero"/></clipPath><clipPath id="c2ece5df91"><path d="M 58.523438 27.128906 L 116.039062 78.253906 L 73.351562 126.277344 L 15.835938 75.152344 Z M 58.523438 27.128906 " clip-rule="nonzero"/></clipPath><clipPath id="1773f3bda6"><path d="M 58.523438 27.128906 L 116.039062 78.253906 L 73.351562 126.277344 L 15.835938 75.152344 Z M 58.523438 27.128906 " clip-rule="nonzero"/></clipPath><clipPath id="a6eac13048"><path d="M 93 76 L 100 76 L 100 82 L 93 82 Z M 93 76 " clip-rule="nonzero"/></clipPath><clipPath id="7b451f3c8b"><path d="M 58.523438 27.128906 L 116.039062 78.253906 L 73.351562 126.277344 L 15.835938 75.152344 Z M 58.523438 27.128906 " clip-rule="nonzero"/></clipPath><clipPath id="4f3fc15b8c"><path d="M 58.523438 27.128906 L 116.039062 78.253906 L 73.351562 126.277344 L 15.835938 75.152344 Z M 58.523438 27.128906 " clip-rule="nonzero"/></clipPath><clipPath id="d1f959c28e"><path d="M 94 77 L 99 77 L 99 82 L 94 82 Z M 94 77 " clip-rule="nonzero"/></clipPath><clipPath id="836d81a968"><path d="M 58.523438 27.128906 L 116.039062 78.253906 L 73.351562 126.277344 L 15.835938 75.152344 Z M 58.523438 27.128906 " clip-rule="nonzero"/></clipPath><clipPath id="e9a15c936f"><path d="M 58.523438 27.128906 L 116.039062 78.253906 L 73.351562 126.277344 L 15.835938 75.152344 Z M 58.523438 27.128906 " clip-rule="nonzero"/></clipPath><clipPath id="3bb6dafd69"><path d="M 86 78 L 92 78 L 92 84 L 86 84 Z M 86 78 " clip-rule="nonzero"/></clipPath><clipPath id="1fa3d8a402"><path d="M 58.523438 27.128906 L 116.039062 78.253906 L 73.351562 126.277344 L 15.835938 75.152344 Z M 58.523438 27.128906 " clip-rule="nonzero"/></clipPath><clipPath id="eb05c8be71"><path d="M 58.523438 27.128906 L 116.039062 78.253906 L 73.351562 126.277344 L 15.835938 75.152344 Z M 58.523438 27.128906 " clip-rule="nonzero"/></clipPath><clipPath id="92a9d0c3ae"><path d="M 83 71 L 87 71 L 87 76 L 83 76 Z M 83 71 " clip-rule="nonzero"/></clipPath><clipPath id="bb23404470"><path d="M 58.523438 27.128906 L 116.039062 78.253906 L 73.351562 126.277344 L 15.835938 75.152344 Z M 58.523438 27.128906 " clip-rule="nonzero"/></clipPath><clipPath id="5262b66a90"><path d="M 58.523438 27.128906 L 116.039062 78.253906 L 73.351562 126.277344 L 15.835938 75.152344 Z M 58.523438 27.128906 " clip-rule="nonzero"/></clipPath><clipPath id="8ebfb83f7c"><path d="M 84 71 L 87 71 L 87 76 L 84 76 Z M 84 71 " clip-rule="nonzero"/></clipPath><clipPath id="f63e380138"><path d="M 58.523438 27.128906 L 116.039062 78.253906 L 73.351562 126.277344 L 15.835938 75.152344 Z M 58.523438 27.128906 " clip-rule="nonzero"/></clipPath><clipPath id="b79ad8eeeb"><path d="M 58.523438 27.128906 L 116.039062 78.253906 L 73.351562 126.277344 L 15.835938 75.152344 Z M 58.523438 27.128906 " clip-rule="nonzero"/></clipPath><clipPath id="1623afa7f4"><path d="M 45 53 L 52 53 L 52 59 L 45 59 Z M 45 53 " clip-rule="nonzero"/></clipPath><clipPath id="6bf5855b4d"><path d="M 58.523438 27.128906 L 116.039062 78.253906 L 73.351562 126.277344 L 15.835938 75.152344 Z M 58.523438 27.128906 " clip-rule="nonzero"/></clipPath><clipPath id="364439324f"><path d="M 58.523438 27.128906 L 116.039062 78.253906 L 73.351562 126.277344 L 15.835938 75.152344 Z M 58.523438 27.128906 " clip-rule="nonzero"/></clipPath><clipPath id="41b0b4b2d9"><path d="M 48 59 L 54 59 L 54 66 L 48 66 Z M 48 59 " clip-rule="nonzero"/></clipPath><clipPath id="d21bcc6036"><path d="M 58.523438 27.128906 L 116.039062 78.253906 L 73.351562 126.277344 L 15.835938 75.152344 Z M 58.523438 27.128906 " clip-rule="nonzero"/></clipPath><clipPath id="2f5c149e61"><path d="M 58.523438 27.128906 L 116.039062 78.253906 L 73.351562 126.277344 L 15.835938 75.152344 Z M 58.523438 27.128906 " clip-rule="nonzero"/></clipPath><clipPath id="0120c65d05"><path d="M 63 69 L 69 69 L 69 74 L 63 74 Z M 63 69 " clip-rule="nonzero"/></clipPath><clipPath id="6a6d422c82"><path d="M 58.523438 27.128906 L 116.039062 78.253906 L 73.351562 126.277344 L 15.835938 75.152344 Z M 58.523438 27.128906 " clip-rule="nonzero"/></clipPath><clipPath id="557dfc1cca"><path d="M 58.523438 27.128906 L 116.039062 78.253906 L 73.351562 126.277344 L 15.835938 75.152344 Z M 58.523438 27.128906 " clip-rule="nonzero"/></clipPath><clipPath id="f45be4ccf3"><path d="M 70 72 L 74 72 L 74 76 L 70 76 Z M 70 72 " clip-rule="nonzero"/></clipPath><clipPath id="d2381ae8f2"><path d="M 58.523438 27.128906 L 116.039062 78.253906 L 73.351562 126.277344 L 15.835938 75.152344 Z M 58.523438 27.128906 " clip-rule="nonzero"/></clipPath><clipPath id="9554c7979f"><path d="M 58.523438 27.128906 L 116.039062 78.253906 L 73.351562 126.277344 L 15.835938 75.152344 Z M 58.523438 27.128906 " clip-rule="nonzero"/></clipPath><clipPath id="440f85ea30"><path d="M 53 57 L 60 57 L 60 63 L 53 63 Z M 53 57 " clip-rule="nonzero"/></clipPath><clipPath id="53f7adc719"><path d="M 58.523438 27.128906 L 116.039062 78.253906 L 73.351562 126.277344 L 15.835938 75.152344 Z M 58.523438 27.128906 " clip-rule="nonzero"/></clipPath><clipPath id="e53a6ff9d6"><path d="M 58.523438 27.128906 L 116.039062 78.253906 L 73.351562 126.277344 L 15.835938 75.152344 Z M 58.523438 27.128906 " clip-rule="nonzero"/></clipPath><clipPath id="78cc0f3d1c"><path d="M 52 51 L 58 51 L 58 57 L 52 57 Z M 52 51 " clip-rule="nonzero"/></clipPath><clipPath id="ea85d51cee"><path d="M 58.523438 27.128906 L 116.039062 78.253906 L 73.351562 126.277344 L 15.835938 75.152344 Z M 58.523438 27.128906 " clip-rule="nonzero"/></clipPath><clipPath id="fb14ce2bc0"><path d="M 58.523438 27.128906 L 116.039062 78.253906 L 73.351562 126.277344 L 15.835938 75.152344 Z M 58.523438 27.128906 " clip-rule="nonzero"/></clipPath><clipPath id="8848c0ed5d"><path d="M 63 72 L 68 72 L 68 75 L 63 75 Z M 63 72 " clip-rule="nonzero"/></clipPath><clipPath id="7828cf2daf"><path d="M 58.523438 27.128906 L 116.039062 78.253906 L 73.351562 126.277344 L 15.835938 75.152344 Z M 58.523438 27.128906 " clip-rule="nonzero"/></clipPath><clipPath id="7f9754a1af"><path d="M 58.523438 27.128906 L 116.039062 78.253906 L 73.351562 126.277344 L 15.835938 75.152344 Z M 58.523438 27.128906 " clip-rule="nonzero"/></clipPath><clipPath id="f59a6b7f47"><path d="M 69 75 L 74 75 L 74 78 L 69 78 Z M 69 75 " clip-rule="nonzero"/></clipPath><clipPath id="88036233ac"><path d="M 58.523438 27.128906 L 116.039062 78.253906 L 73.351562 126.277344 L 15.835938 75.152344 Z M 58.523438 27.128906 " clip-rule="nonzero"/></clipPath><clipPath id="1839e850ed"><path d="M 58.523438 27.128906 L 116.039062 78.253906 L 73.351562 126.277344 L 15.835938 75.152344 Z M 58.523438 27.128906 " clip-rule="nonzero"/></clipPath><clipPath id="0fc825cfb0"><path d="M 91 69 L 94 69 L 94 73 L 91 73 Z M 91 69 " clip-rule="nonzero"/></clipPath><clipPath id="1d9bfa1c66"><path d="M 58.523438 27.128906 L 116.039062 78.253906 L 73.351562 126.277344 L 15.835938 75.152344 Z M 58.523438 27.128906 " clip-rule="nonzero"/></clipPath><clipPath id="ed730923da"><path d="M 58.523438 27.128906 L 116.039062 78.253906 L 73.351562 126.277344 L 15.835938 75.152344 Z M 58.523438 27.128906 " clip-rule="nonzero"/></clipPath><clipPath id="bac69ffdfc"><path d="M 92 69 L 95 69 L 95 73 L 92 73 Z M 92 69 " clip-rule="nonzero"/></clipPath><clipPath id="6089619ebc"><path d="M 58.523438 27.128906 L 116.039062 78.253906 L 73.351562 126.277344 L 15.835938 75.152344 Z M 58.523438 27.128906 " clip-rule="nonzero"/></clipPath><clipPath id="1133fc1d15"><path d="M 58.523438 27.128906 L 116.039062 78.253906 L 73.351562 126.277344 L 15.835938 75.152344 Z M 58.523438 27.128906 " clip-rule="nonzero"/></clipPath><clipPath id="11d4e4ab80"><path d="M 87 79 L 91 79 L 91 83 L 87 83 Z M 87 79 " clip-rule="nonzero"/></clipPath><clipPath id="687990da6c"><path d="M 58.523438 27.128906 L 116.039062 78.253906 L 73.351562 126.277344 L 15.835938 75.152344 Z M 58.523438 27.128906 " clip-rule="nonzero"/></clipPath><clipPath id="31698586e1"><path d="M 58.523438 27.128906 L 116.039062 78.253906 L 73.351562 126.277344 L 15.835938 75.152344 Z M 58.523438 27.128906 " clip-rule="nonzero"/></clipPath><clipPath id="873e9750d6"><path d="M 67 61 L 80 61 L 80 68 L 67 68 Z M 67 61 " clip-rule="nonzero"/></clipPath><clipPath id="0aa18bb728"><path d="M 58.523438 27.128906 L 116.039062 78.253906 L 73.351562 126.277344 L 15.835938 75.152344 Z M 58.523438 27.128906 " clip-rule="nonzero"/></clipPath><clipPath id="35974447ac"><path d="M 58.523438 27.128906 L 116.039062 78.253906 L 73.351562 126.277344 L 15.835938 75.152344 Z M 58.523438 27.128906 " clip-rule="nonzero"/></clipPath><clipPath id="cf6f314650"><path d="M 67 64 L 77 64 L 77 69 L 67 69 Z M 67 64 " clip-rule="nonzero"/></clipPath><clipPath id="9bc365502f"><path d="M 58.523438 27.128906 L 116.039062 78.253906 L 73.351562 126.277344 L 15.835938 75.152344 Z M 58.523438 27.128906 " clip-rule="nonzero"/></clipPath><clipPath id="7ddedb09ee"><path d="M 58.523438 27.128906 L 116.039062 78.253906 L 73.351562 126.277344 L 15.835938 75.152344 Z M 58.523438 27.128906 " clip-rule="nonzero"/></clipPath><clipPath id="fca5b90b8d"><path d="M 25 73 L 30 73 L 30 82 L 25 82 Z M 25 73 " clip-rule="nonzero"/></clipPath><clipPath id="33565b3444"><path d="M 58.523438 27.128906 L 116.039062 78.253906 L 73.351562 126.277344 L 15.835938 75.152344 Z M 58.523438 27.128906 " clip-rule="nonzero"/></clipPath><clipPath id="885c0055c0"><path d="M 58.523438 27.128906 L 116.039062 78.253906 L 73.351562 126.277344 L 15.835938 75.152344 Z M 58.523438 27.128906 " clip-rule="nonzero"/></clipPath><clipPath id="4435d75861"><path d="M 25 72 L 30 72 L 30 82 L 25 82 Z M 25 72 " clip-rule="nonzero"/></clipPath><clipPath id="3d28f6236c"><path d="M 58.523438 27.128906 L 116.039062 78.253906 L 73.351562 126.277344 L 15.835938 75.152344 Z M 58.523438 27.128906 " clip-rule="nonzero"/></clipPath><clipPath id="88db2f2b34"><path d="M 58.523438 27.128906 L 116.039062 78.253906 L 73.351562 126.277344 L 15.835938 75.152344 Z M 58.523438 27.128906 " clip-rule="nonzero"/></clipPath><clipPath id="1fb549220a"><path d="M 83 100 L 91 100 L 91 107 L 83 107 Z M 83 100 " clip-rule="nonzero"/></clipPath><clipPath id="4a1a32e60d"><path d="M 58.523438 27.128906 L 116.039062 78.253906 L 73.351562 126.277344 L 15.835938 75.152344 Z M 58.523438 27.128906 " clip-rule="nonzero"/></clipPath><clipPath id="b7c0caa71f"><path d="M 58.523438 27.128906 L 116.039062 78.253906 L 73.351562 126.277344 L 15.835938 75.152344 Z M 58.523438 27.128906 " clip-rule="nonzero"/></clipPath><clipPath id="28cc044de8"><path d="M 83 100 L 92 100 L 92 107 L 83 107 Z M 83 100 " clip-rule="nonzero"/></clipPath><clipPath id="b704125cad"><path d="M 58.523438 27.128906 L 116.039062 78.253906 L 73.351562 126.277344 L 15.835938 75.152344 Z M 58.523438 27.128906 " clip-rule="nonzero"/></clipPath><clipPath id="b920d55aa0"><path d="M 58.523438 27.128906 L 116.039062 78.253906 L 73.351562 126.277344 L 15.835938 75.152344 Z M 58.523438 27.128906 " clip-rule="nonzero"/></clipPath><clipPath id="042782608a"><path d="M 2.1875 0.117188 L 129.722656 0.117188 L 129.722656 37.515625 L 2.1875 37.515625 Z M 2.1875 0.117188 " clip-rule="nonzero"/></clipPath><clipPath id="251f36055d"><path d="M 20.886719 0.117188 L 110.925781 0.117188 C 115.886719 0.117188 120.640625 2.085938 124.148438 5.59375 C 127.65625 9.101562 129.625 13.859375 129.625 18.816406 C 129.625 23.777344 127.65625 28.53125 124.148438 32.039062 C 120.640625 35.546875 115.886719 37.515625 110.925781 37.515625 L 20.886719 37.515625 C 15.925781 37.515625 11.171875 35.546875 7.664062 32.039062 C 4.15625 28.53125 2.1875 23.777344 2.1875 18.816406 C 2.1875 13.859375 4.15625 9.101562 7.664062 5.59375 C 11.171875 2.085938 15.925781 0.117188 20.886719 0.117188 Z M 20.886719 0.117188 " clip-rule="nonzero"/></clipPath><clipPath id="13180e6178"><path d="M 2.199219 0.117188 L 129.949219 0.117188 L 129.949219 37.472656 L 2.199219 37.472656 Z M 2.199219 0.117188 " clip-rule="nonzero"/></clipPath><clipPath id="bd9bfc8470"><path d="M 20.894531 0.117188 L 110.914062 0.117188 C 115.875 0.117188 120.628906 2.085938 124.136719 5.59375 C 127.640625 9.097656 129.613281 13.855469 129.613281 18.8125 C 129.613281 23.773438 127.640625 28.527344 124.136719 32.035156 C 120.628906 35.539062 115.875 37.507812 110.914062 37.507812 L 20.894531 37.507812 C 15.933594 37.507812 11.179688 35.539062 7.671875 32.035156 C 4.167969 28.527344 2.199219 23.773438 2.199219 18.8125 C 2.199219 13.855469 4.167969 9.097656 7.671875 5.59375 C 11.179688 2.085938 15.933594 0.117188 20.894531 0.117188 Z M 20.894531 0.117188 " clip-rule="nonzero"/></clipPath></defs><g clip-path="url(#9c5ca667db)"><g clip-path="url(#f8a69514fc)"><g clip-path="url(#c7d7efd6a2)"><path fill="#0fa54d" d="M 97.28125 81.714844 L 97.324219 81.589844 L 97.183594 81.410156 C 99.378906 77.605469 99.066406 72.714844 96.441406 68.882812 C 96.65625 67.203125 96.902344 65.105469 96.863281 64.535156 C 96.828125 64.019531 96.292969 63.242188 95.425781 62.433594 C 95.433594 62.304688 95.4375 62.191406 95.433594 62.121094 C 95.382812 61.4375 93.714844 59.707031 91.4375 58.90625 C 89.160156 58.105469 88.113281 58.335938 87.496094 58.78125 C 87.402344 58.847656 87.28125 58.96875 87.144531 59.117188 C 86.464844 59.175781 85.898438 59.371094 85.429688 59.707031 C 84.8125 60.15625 83.371094 62.058594 82.53125 63.207031 L 61.136719 53.332031 L 60.976562 53.289062 C 60.667969 52.503906 60.28125 51.742188 59.816406 51.011719 C 60.105469 49.382812 60.421875 47.449219 60.410156 46.90625 C 60.402344 46.386719 59.890625 45.574219 59.078125 44.738281 C 59.09375 44.605469 59.101562 44.496094 59.101562 44.425781 C 59.085938 43.742188 57.503906 41.933594 55.269531 41.019531 C 53.03125 40.105469 51.972656 40.289062 51.335938 40.703125 C 51.242188 40.765625 51.113281 40.878906 50.96875 41.019531 C 50.289062 41.042969 49.710938 41.210938 49.226562 41.527344 C 48.578125 41.949219 47.011719 43.828125 46.125 44.925781 C 43.972656 45.351562 41.960938 46.359375 40.34375 47.949219 C 40.34375 47.949219 24.8125 67.714844 22.679688 70.859375 C 20.148438 74.601562 20.441406 78.6875 23.648438 81.890625 C 23.816406 82.058594 25.890625 83.859375 26.871094 84.234375 C 29.6875 85.3125 32.8125 84.699219 35.847656 82.488281 C 40.855469 78.832031 50.777344 71.925781 51.980469 71.898438 C 53.152344 71.875 58.632812 74.273438 62.246094 75.878906 L 63.566406 76.449219 C 65.035156 77.097656 66.523438 77.722656 67.847656 78.289062 C 69.9375 79.179688 71.746094 79.949219 72.320312 80.28125 C 72.613281 80.453125 72.976562 80.667969 73.3125 80.964844 C 74.171875 81.730469 74.5 82.796875 74.304688 84.226562 C 73.625 89.207031 72.402344 101.105469 75.695312 104.035156 C 75.742188 104.078125 75.789062 104.117188 75.835938 104.152344 C 80.292969 107.652344 84.457031 107.660156 87.558594 104.167969 C 91.035156 100.261719 97.027344 82.46875 97.28125 81.714844 Z M 97.28125 81.714844 " fill-opacity="1" fill-rule="nonzero"/></g></g></g><g clip-path="url(#61a522ac53)"><g clip-path="url(#7f0e5626a1)"><g clip-path="url(#c55a02c090)"><path fill="#000000" d="M 23.609375 82.1875 C 23.542969 82.128906 23.496094 82.085938 23.476562 82.066406 C 20.234375 78.828125 19.859375 74.589844 22.476562 70.722656 C 24.589844 67.605469 39.992188 47.996094 40.148438 47.796875 C 41.753906 46.21875 43.765625 45.160156 45.988281 44.699219 C 47.066406 43.371094 48.460938 41.734375 49.09375 41.320312 C 49.585938 40.996094 50.183594 40.816406 50.863281 40.777344 C 51 40.648438 51.109375 40.554688 51.199219 40.496094 C 52.105469 39.910156 53.425781 40.003906 55.359375 40.789062 C 56.535156 41.269531 57.414062 41.933594 57.945312 42.40625 C 58.800781 43.164062 59.335938 43.9375 59.347656 44.421875 C 59.347656 44.476562 59.34375 44.554688 59.335938 44.648438 C 60.167969 45.523438 60.648438 46.34375 60.660156 46.902344 C 60.667969 47.355469 60.472656 48.71875 60.074219 50.960938 C 60.5 51.636719 60.863281 52.347656 61.160156 53.082031 L 61.199219 53.09375 L 82.453125 62.898438 C 83.441406 61.550781 84.695312 59.9375 85.289062 59.507812 C 85.773438 59.15625 86.34375 58.953125 87.027344 58.878906 C 87.15625 58.746094 87.261719 58.648438 87.351562 58.582031 C 88.226562 57.953125 89.550781 57.980469 91.519531 58.675781 C 92.589844 59.050781 93.644531 59.671875 94.488281 60.417969 C 95.203125 61.058594 95.648438 61.6875 95.679688 62.105469 C 95.683594 62.160156 95.683594 62.238281 95.679688 62.332031 C 96.226562 62.855469 97.058594 63.765625 97.109375 64.519531 C 97.144531 64.984375 97.003906 66.433594 96.699219 68.824219 C 99.296875 72.679688 99.601562 77.582031 97.480469 81.390625 L 97.601562 81.542969 L 97.515625 81.792969 C 97.261719 82.550781 91.25 100.386719 87.746094 104.332031 C 84.542969 107.933594 80.261719 107.941406 75.6875 104.347656 C 75.636719 104.308594 75.585938 104.265625 75.535156 104.222656 C 72.148438 101.210938 73.375 89.214844 74.0625 84.195312 C 74.242188 82.851562 73.945312 81.855469 73.148438 81.148438 C 72.835938 80.871094 72.488281 80.667969 72.207031 80.503906 C 71.65625 80.183594 69.964844 79.460938 68.007812 78.625 L 66.898438 78.152344 C 65.804688 77.6875 64.632812 77.1875 63.46875 76.671875 L 62.148438 76.105469 C 59.460938 74.910156 53.167969 72.121094 51.984375 72.148438 C 50.964844 72.167969 41.878906 78.394531 35.992188 82.6875 C 32.871094 84.964844 29.6875 85.578125 26.785156 84.46875 C 25.722656 84.0625 23.632812 82.207031 23.609375 82.1875 Z M 57.617188 42.773438 C 57.113281 42.328125 56.28125 41.699219 55.175781 41.25 C 52.847656 40.296875 51.945312 40.601562 51.46875 40.910156 C 51.417969 40.945312 51.320312 41.019531 51.140625 41.195312 L 51.074219 41.261719 L 50.976562 41.265625 C 50.339844 41.289062 49.8125 41.441406 49.363281 41.734375 C 48.910156 42.03125 47.796875 43.25 46.316406 45.082031 L 46.261719 45.148438 L 46.171875 45.167969 C 44.007812 45.597656 42.050781 46.621094 40.515625 48.125 C 40.382812 48.300781 24.988281 67.898438 22.886719 71 C 20.375 74.707031 20.714844 78.613281 23.824219 81.714844 C 23.839844 81.734375 23.878906 81.769531 23.9375 81.820312 C 24.464844 82.289062 26.152344 83.699219 26.960938 84.007812 C 29.699219 85.054688 32.722656 84.460938 35.699219 82.289062 C 38.769531 80.050781 50.527344 71.683594 51.972656 71.652344 C 53.113281 71.628906 57.632812 73.5625 62.347656 75.652344 L 63.664062 76.222656 C 64.828125 76.734375 66 77.234375 67.09375 77.699219 L 68.199219 78.167969 C 70.175781 79.011719 71.878906 79.742188 72.445312 80.070312 C 72.753906 80.25 73.125 80.46875 73.476562 80.777344 C 74.402344 81.605469 74.753906 82.742188 74.546875 84.261719 C 73.875 89.199219 72.652344 101 75.863281 103.851562 C 75.902344 103.890625 75.945312 103.925781 75.988281 103.957031 C 80.328125 107.367188 84.371094 107.382812 87.375 104.003906 C 90.8125 100.136719 96.785156 82.421875 97.046875 81.636719 L 96.886719 81.433594 L 96.96875 81.289062 C 99.101562 77.597656 98.8125 72.785156 96.238281 69.023438 L 96.183594 68.945312 L 96.195312 68.851562 C 96.5 66.507812 96.648438 64.980469 96.617188 64.554688 C 96.59375 64.207031 96.222656 63.515625 95.257812 62.613281 L 95.175781 62.535156 L 95.179688 62.421875 C 95.1875 62.300781 95.191406 62.203125 95.1875 62.140625 C 95.171875 61.914062 94.84375 61.394531 94.15625 60.789062 C 93.699219 60.378906 92.71875 59.621094 91.355469 59.140625 C 88.988281 58.304688 88.097656 58.652344 87.636719 58.984375 C 87.589844 59.019531 87.492188 59.101562 87.324219 59.285156 L 87.257812 59.355469 L 87.164062 59.363281 C 86.527344 59.417969 86.007812 59.59375 85.574219 59.90625 C 85.140625 60.222656 84.105469 61.476562 82.730469 63.351562 L 82.613281 63.511719 L 61.035156 53.554688 L 60.792969 53.496094 L 60.746094 53.378906 C 60.441406 52.605469 60.058594 51.851562 59.609375 51.144531 L 59.554688 51.0625 L 59.574219 50.96875 C 59.964844 48.765625 60.171875 47.328125 60.164062 46.914062 C 60.15625 46.472656 59.671875 45.703125 58.902344 44.910156 L 58.824219 44.828125 L 58.835938 44.714844 C 58.847656 44.59375 58.855469 44.492188 58.851562 44.429688 C 58.847656 44.15625 58.410156 43.480469 57.617188 42.773438 Z M 57.617188 42.773438 " fill-opacity="1" fill-rule="nonzero"/></g></g></g><g clip-path="url(#f5efa77e76)"><g clip-path="url(#d8d7390fec)"><g clip-path="url(#6b32de4ce4)"><path fill="#000000" d="M 74.304688 84.226562 C 74.207031 84.929688 74.101562 85.769531 74 86.703125 C 73.976562 86.914062 74.421875 86.789062 74.5 86.71875 C 74.804688 86.429688 74.785156 85.914062 74.976562 85.566406 C 75.230469 85.105469 75.808594 85.117188 76.03125 85.628906 C 76.351562 86.363281 76.144531 87.222656 76.390625 87.972656 C 76.652344 88.765625 77.285156 89.175781 78.101562 89.261719 C 79.246094 89.382812 80.230469 88.835938 80.761719 87.8125 C 81.683594 86.050781 81.558594 84.132812 80.816406 82.320312 C 79.230469 78.464844 75.800781 75.417969 71.433594 76.453125 C 70.015625 76.789062 68.671875 77.367188 67.40625 78.101562 C 67.554688 78.164062 67.707031 78.226562 67.851562 78.289062 C 69.9375 79.179688 71.746094 79.949219 72.320312 80.28125 C 72.613281 80.453125 72.976562 80.667969 73.3125 80.964844 C 74.171875 81.730469 74.5 82.796875 74.304688 84.226562 Z M 74.304688 84.226562 " fill-opacity="1" fill-rule="nonzero"/></g></g></g><g clip-path="url(#836cbcf24a)"><g clip-path="url(#8aabe1151d)"><g clip-path="url(#3a3b4c9859)"><path fill="#000000" d="M 81.476562 104.613281 C 80.851562 102.445312 78.261719 97.339844 75.71875 100.613281 C 75.394531 101.03125 74.839844 99.753906 74.730469 99.5625 C 74.570312 99.285156 74.40625 99.003906 74.210938 98.746094 C 74.148438 98.667969 73.675781 98.285156 73.671875 98.242188 C 73.929688 100.828125 74.527344 102.996094 75.699219 104.035156 C 75.742188 104.078125 75.789062 104.117188 75.839844 104.152344 C 77.898438 105.773438 79.894531 106.632812 81.757812 106.757812 C 81.75 106.019531 81.675781 105.292969 81.476562 104.613281 Z M 81.476562 104.613281 " fill-opacity="1" fill-rule="nonzero"/></g></g></g><g clip-path="url(#8c8de39775)"><g clip-path="url(#19cd3f0f4e)"><g clip-path="url(#f81cbb8c73)"><path fill="#000000" d="M 79.660156 107.082031 L 76.304688 104.796875 L 80.480469 103.273438 Z M 79.660156 107.082031 " fill-opacity="1" fill-rule="nonzero"/></g></g></g><g clip-path="url(#2e9b3af828)"><g clip-path="url(#e6597032af)"><g clip-path="url(#9ed501f0f2)"><path fill="#000000" d="M 81.023438 62.507812 C 81.449219 64.347656 82.402344 66.085938 83.617188 67.511719 C 85.765625 70.027344 88.335938 71.242188 91.664062 70.949219 C 93.46875 70.792969 95.339844 70.574219 96.976562 69.742188 C 96.808594 69.453125 96.632812 69.164062 96.441406 68.882812 C 96.65625 67.203125 96.902344 65.105469 96.863281 64.535156 C 96.828125 64.019531 96.292969 63.242188 95.425781 62.433594 C 95.433594 62.304688 95.4375 62.191406 95.433594 62.121094 C 95.382812 61.4375 93.714844 59.707031 91.4375 58.90625 C 89.160156 58.105469 88.113281 58.335938 87.496094 58.78125 C 87.402344 58.851562 87.28125 58.96875 87.144531 59.117188 C 86.464844 59.175781 85.898438 59.371094 85.429688 59.707031 C 84.8125 60.15625 83.371094 62.058594 82.53125 63.207031 Z M 81.023438 62.507812 " fill-opacity="1" fill-rule="nonzero"/></g></g></g><g clip-path="url(#5de2a89ab6)"><g clip-path="url(#8ca2d07105)"><g clip-path="url(#b1638c7f6d)"><path fill="#000000" d="M 28.65625 84.203125 C 28.65625 81.128906 28.75 77.671875 27.871094 74.699219 C 27.636719 73.910156 27.347656 73.132812 27.152344 72.332031 C 26.9375 71.453125 26.617188 70.957031 25.695312 71.378906 C 25.304688 71.5625 24.335938 72.152344 23.902344 71.769531 C 23.492188 71.402344 24.21875 70.425781 24.261719 70.058594 C 24.320312 69.535156 23.878906 69.625 23.378906 69.882812 C 23.078125 70.292969 22.839844 70.625 22.679688 70.859375 C 20.148438 74.601562 20.441406 78.6875 23.648438 81.890625 C 23.816406 82.058594 25.960938 83.902344 26.984375 84.273438 C 27.527344 84.46875 28.085938 84.605469 28.648438 84.679688 C 28.648438 84.519531 28.65625 84.359375 28.65625 84.203125 Z M 28.65625 84.203125 " fill-opacity="1" fill-rule="nonzero"/></g></g></g><g clip-path="url(#5f051ec120)"><g clip-path="url(#a081114f25)"><g clip-path="url(#26e79d6ad2)"><path fill="#000000" d="M 25.488281 83.695312 C 26.03125 84.050781 28.085938 85.3125 28.085938 85.3125 L 27.351562 82.347656 Z M 25.488281 83.695312 " fill-opacity="1" fill-rule="nonzero"/></g></g></g><g clip-path="url(#f339eff2e5)"><g clip-path="url(#7273f31895)"><g clip-path="url(#4bf868cb57)"><path fill="#000000" d="M 38.722656 50.015625 C 38.65625 50.203125 38.621094 50.386719 38.648438 50.5625 C 38.765625 51.355469 39.640625 50.765625 40.050781 50.667969 C 40.199219 50.632812 40.367188 50.71875 40.371094 50.886719 C 40.402344 52.179688 38.707031 53.300781 39.578125 54.605469 C 40.796875 56.429688 42.941406 56.113281 44.621094 55.183594 C 47.238281 53.730469 49.5625 51.855469 52.375 50.753906 C 54.886719 49.765625 57.488281 49.351562 60.121094 49.230469 C 60.289062 48.179688 60.417969 47.257812 60.410156 46.90625 C 60.402344 46.386719 59.890625 45.574219 59.078125 44.738281 C 59.09375 44.605469 59.101562 44.496094 59.097656 44.425781 C 59.085938 43.742188 57.503906 41.933594 55.265625 41.019531 C 53.03125 40.105469 51.972656 40.289062 51.335938 40.703125 C 51.242188 40.765625 51.113281 40.878906 50.96875 41.019531 C 50.289062 41.042969 49.710938 41.210938 49.226562 41.527344 C 48.578125 41.949219 47.011719 43.828125 46.125 44.925781 C 43.972656 45.351562 41.960938 46.359375 40.34375 47.949219 C 40.34375 47.949219 39.726562 48.738281 38.722656 50.015625 Z M 38.722656 50.015625 " fill-opacity="1" fill-rule="nonzero"/></g></g></g><g clip-path="url(#aa15c291e0)"><g clip-path="url(#fe21023469)"><g clip-path="url(#a6dc89cb6e)"><path fill="#000000" d="M 88.257812 63.652344 C 88.257812 63.652344 90.167969 60.953125 90.796875 60.5 C 91.421875 60.046875 92.484375 59.8125 94.796875 60.625 C 97.109375 61.4375 98.804688 63.195312 98.851562 63.890625 C 98.902344 64.582031 98.324219 68.660156 98.324219 68.660156 Z M 88.257812 63.652344 " fill-opacity="1" fill-rule="nonzero"/></g></g></g><g clip-path="url(#2c725a6ab3)"><g clip-path="url(#d98579a13b)"><g clip-path="url(#2a2a6e2b39)"><path fill="#faf5e5" d="M 85.3125 66.027344 C 85.3125 66.027344 87.972656 62.269531 88.84375 61.640625 C 89.71875 61.007812 91.195312 60.679688 94.417969 61.8125 C 97.636719 62.945312 99.996094 65.390625 100.0625 66.355469 C 100.128906 67.324219 99.328125 72.996094 99.328125 72.996094 Z M 85.3125 66.027344 " fill-opacity="1" fill-rule="nonzero"/></g></g></g><g clip-path="url(#338239bef6)"><g clip-path="url(#166c021cc5)"><g clip-path="url(#5b36f58021)"><path fill="#000000" d="M 84.941406 66.121094 L 85.109375 65.886719 C 85.21875 65.730469 87.804688 62.085938 88.699219 61.4375 C 89.90625 60.566406 91.746094 60.613281 94.496094 61.582031 C 96.523438 62.292969 97.972656 63.417969 98.65625 64.027344 C 99.652344 64.910156 100.269531 65.777344 100.308594 66.339844 C 100.375 67.320312 99.605469 72.800781 99.570312 73.03125 L 99.523438 73.371094 Z M 98.328125 64.394531 C 97.671875 63.8125 96.28125 62.730469 94.335938 62.046875 C 90.9375 60.851562 89.65625 61.355469 88.988281 61.839844 C 88.347656 62.304688 86.519531 64.765625 85.679688 65.9375 L 99.128906 72.625 C 99.414062 70.589844 99.863281 67.078125 99.816406 66.375 C 99.789062 66.027344 99.320312 65.277344 98.328125 64.394531 Z M 98.328125 64.394531 " fill-opacity="1" fill-rule="nonzero"/></g></g></g><g clip-path="url(#ebb2017a4d)"><g clip-path="url(#15092d8f58)"><g clip-path="url(#bb0eb07402)"><path fill="#000000" d="M 51.394531 45.171875 C 51.394531 45.171875 53.4375 42.566406 54.085938 42.144531 C 54.734375 41.722656 55.808594 41.539062 58.078125 42.464844 C 60.347656 43.390625 61.953125 45.226562 61.96875 45.921875 C 61.980469 46.617188 61.207031 50.664062 61.207031 50.664062 Z M 51.394531 45.171875 " fill-opacity="1" fill-rule="nonzero"/></g></g></g><g clip-path="url(#7f96f9cda5)"><g clip-path="url(#5b086b600b)"><g clip-path="url(#4a1e81a600)"><path fill="#faf5e5" d="M 48.335938 47.398438 C 48.335938 47.398438 51.179688 43.773438 52.082031 43.1875 C 52.984375 42.601562 54.476562 42.34375 57.636719 43.632812 C 60.796875 44.921875 63.035156 47.480469 63.054688 48.449219 C 63.074219 49.414062 61.996094 55.042969 61.996094 55.042969 Z M 48.335938 47.398438 " fill-opacity="1" fill-rule="nonzero"/></g></g></g><g clip-path="url(#80b4ec7859)"><g clip-path="url(#b659dab9d1)"><g clip-path="url(#e5038820cd)"><path fill="#000000" d="M 47.964844 47.472656 L 48.144531 47.246094 C 48.261719 47.097656 51.019531 43.582031 51.945312 42.980469 C 53.195312 42.167969 55.03125 42.304688 57.730469 43.40625 C 59.375 44.078125 60.609375 45.007812 61.355469 45.667969 C 62.523438 46.707031 63.289062 47.796875 63.300781 48.441406 C 63.320312 49.425781 62.285156 54.859375 62.238281 55.089844 L 62.175781 55.425781 Z M 61.027344 46.039062 C 60.308594 45.402344 59.125 44.507812 57.542969 43.863281 C 54.210938 42.503906 52.90625 42.945312 52.214844 43.394531 C 51.554688 43.828125 49.605469 46.195312 48.710938 47.324219 L 61.816406 54.660156 C 62.199219 52.644531 62.820312 49.15625 62.804688 48.453125 C 62.796875 48.03125 62.183594 47.066406 61.027344 46.039062 Z M 61.027344 46.039062 " fill-opacity="1" fill-rule="nonzero"/></g></g></g><g clip-path="url(#ca7135972c)"><g clip-path="url(#902a51bf10)"><g clip-path="url(#de9143d2d6)"><path fill="#faf5e5" d="M 42.714844 49.699219 C 42.714844 49.699219 27.398438 69.660156 25.210938 72.886719 C 23.027344 76.113281 22.695312 80.105469 26.257812 83.664062 C 29.824219 87.222656 34.164062 87.277344 38.320312 84.246094 C 42.476562 81.214844 53.382812 73.554688 54.777344 73.523438 C 56.167969 73.492188 62.691406 76.464844 66.613281 78.195312 C 70.535156 79.925781 74.554688 81.546875 75.515625 82.109375 C 76.480469 82.675781 78.027344 83.59375 77.648438 86.363281 C 77.269531 89.132812 75.382812 103.433594 79.113281 106.363281 C 82.84375 109.296875 87.140625 110.386719 90.675781 106.410156 C 94.210938 102.433594 100.496094 83.699219 100.496094 83.699219 L 86.058594 65.398438 L 63.976562 55.203125 Z M 42.714844 49.699219 " fill-opacity="1" fill-rule="nonzero"/></g></g></g><g clip-path="url(#3e4b52c839)"><g clip-path="url(#71076711d3)"><g clip-path="url(#a69e212651)"><path fill="#000000" d="M 26.675781 84.246094 C 26.5 84.089844 26.292969 83.96875 26.121094 83.796875 C 22.863281 80.546875 22.453125 76.523438 25.027344 72.726562 C 27.191406 69.53125 42.375 49.738281 42.527344 49.535156 L 64.042969 54.957031 L 86.21875 65.195312 L 100.777344 83.648438 L 100.734375 83.777344 C 100.476562 84.542969 94.390625 102.605469 90.863281 106.574219 C 87.710938 110.117188 83.484375 110.113281 78.960938 106.558594 C 78.914062 106.519531 78.867188 106.480469 78.820312 106.441406 C 75.472656 103.464844 76.714844 91.386719 77.40625 86.328125 C 77.601562 84.878906 77.273438 83.792969 76.398438 83.015625 C 76.058594 82.714844 75.6875 82.496094 75.390625 82.324219 C 74.808594 81.980469 72.976562 81.199219 70.855469 80.296875 C 69.511719 79.722656 68.007812 79.078125 66.515625 78.421875 L 65.183594 77.832031 C 61.515625 76.203125 55.96875 73.742188 54.78125 73.769531 C 53.5625 73.796875 43.589844 80.695312 38.503906 84.40625 C 34.347656 87.433594 30.171875 87.351562 26.675781 84.246094 Z M 42.808594 49.976562 C 41.484375 51.707031 27.480469 69.976562 25.417969 73.027344 C 22.988281 76.609375 23.359375 80.421875 26.433594 83.492188 C 29.835938 86.890625 34.027344 87.074219 38.175781 84.046875 C 38.324219 83.941406 52.96875 73.316406 54.769531 73.277344 C 55.972656 73.25 60.289062 75.121094 65.382812 77.378906 L 66.714844 77.96875 C 68.203125 78.625 69.707031 79.269531 71.050781 79.84375 C 73.273438 80.792969 75.03125 81.542969 75.640625 81.898438 C 75.941406 82.074219 76.347656 82.3125 76.726562 82.648438 C 77.734375 83.542969 78.113281 84.769531 77.894531 86.394531 C 77.214844 91.375 75.976562 103.253906 79.144531 106.070312 C 79.183594 106.105469 79.226562 106.140625 79.265625 106.171875 C 82.300781 108.554688 86.710938 110.5 90.492188 106.246094 C 93.800781 102.523438 99.660156 85.398438 100.21875 83.746094 L 85.902344 65.597656 L 63.871094 55.425781 Z M 42.808594 49.976562 " fill-opacity="1" fill-rule="nonzero"/></g></g></g><g clip-path="url(#6b8b10326b)"><g clip-path="url(#c78e321113)"><g clip-path="url(#5bdd5dc806)"><path fill="#faf5e5" d="M 99.34375 85.261719 C 95.089844 90.046875 87.46875 90.21875 82.320312 85.640625 C 77.175781 81.066406 76.453125 73.480469 80.707031 68.695312 C 84.957031 63.910156 92.578125 63.738281 97.726562 68.3125 C 102.875 72.886719 103.597656 80.476562 99.34375 85.261719 Z M 99.34375 85.261719 " fill-opacity="1" fill-rule="nonzero"/></g></g></g><g clip-path="url(#22fa3213a5)"><g clip-path="url(#b5c27a9c9f)"><g clip-path="url(#265c3d0c81)"><path fill="#000000" d="M 82.15625 85.824219 C 76.917969 81.167969 76.183594 73.410156 80.519531 68.53125 C 84.859375 63.652344 92.648438 63.46875 97.890625 68.128906 C 103.128906 72.785156 103.863281 80.546875 99.527344 85.425781 C 95.191406 90.304688 87.398438 90.484375 82.15625 85.824219 Z M 97.5625 68.496094 C 92.527344 64.019531 85.046875 64.183594 80.890625 68.859375 C 76.734375 73.535156 77.449219 80.980469 82.484375 85.457031 C 87.523438 89.933594 95.003906 89.773438 99.160156 85.097656 C 103.316406 80.421875 102.597656 72.972656 97.5625 68.496094 Z M 97.5625 68.496094 " fill-opacity="1" fill-rule="nonzero"/></g></g></g><g clip-path="url(#77afffee5b)"><g clip-path="url(#bb9022bb2d)"><g clip-path="url(#25145e28c0)"><path fill="#faf5e5" d="M 61.878906 67.386719 C 57.429688 72.390625 49.460938 72.570312 44.078125 67.785156 C 38.695312 63.003906 37.9375 55.066406 42.386719 50.0625 C 46.835938 45.058594 54.804688 44.882812 60.1875 49.664062 C 65.570312 54.449219 66.324219 62.382812 61.878906 67.386719 Z M 61.878906 67.386719 " fill-opacity="1" fill-rule="nonzero"/></g></g></g><g clip-path="url(#e67758d39b)"><g clip-path="url(#ecf5ca3602)"><g clip-path="url(#61781124c9)"><path fill="#000000" d="M 43.914062 67.972656 C 38.4375 63.105469 37.671875 54.996094 42.203125 49.898438 C 46.734375 44.800781 54.875 44.613281 60.351562 49.480469 C 65.824219 54.347656 66.59375 62.453125 62.0625 67.550781 C 57.53125 72.648438 49.390625 72.835938 43.914062 67.972656 Z M 60.023438 49.851562 C 54.75 45.164062 46.921875 45.332031 42.574219 50.226562 C 38.222656 55.121094 38.972656 62.917969 44.242188 67.601562 C 49.515625 72.289062 57.34375 72.117188 61.691406 67.222656 C 66.042969 62.328125 65.292969 54.535156 60.023438 49.851562 Z M 60.023438 49.851562 " fill-opacity="1" fill-rule="nonzero"/></g></g></g><g clip-path="url(#76bacddaa1)"><g clip-path="url(#34e4bf9b63)"><g clip-path="url(#93feaa89ab)"><path fill="#ffffff" d="M 46.550781 65.875 C 46.148438 65.515625 46.007812 64.953125 46.222656 64.457031 L 47.914062 60.277344 L 43.019531 57.9375 C 42.414062 57.644531 42.140625 56.875 42.429688 56.265625 L 44.457031 52.035156 C 44.601562 51.734375 44.855469 51.507812 45.171875 51.398438 C 45.484375 51.285156 45.824219 51.304688 46.128906 51.449219 L 50.617188 53.601562 L 52.253906 49.566406 C 52.527344 48.925781 53.265625 48.632812 53.902344 48.90625 L 58.210938 50.753906 C 58.835938 51.023438 59.136719 51.777344 58.871094 52.398438 L 57.121094 56.714844 L 62.445312 59.265625 C 63.054688 59.554688 63.324219 60.328125 63.035156 60.933594 L 61.007812 65.164062 C 60.863281 65.46875 60.609375 65.695312 60.292969 65.804688 C 59.976562 65.917969 59.636719 65.898438 59.335938 65.753906 L 54.410156 63.394531 L 52.828125 67.300781 C 52.695312 67.613281 52.449219 67.847656 52.140625 67.972656 C 51.828125 68.097656 51.488281 68.09375 51.183594 67.960938 L 46.878906 66.101562 C 46.753906 66.046875 46.652344 65.964844 46.550781 65.875 Z M 48.542969 60.039062 L 46.667969 64.660156 C 46.535156 64.964844 46.613281 65.3125 46.855469 65.53125 C 46.917969 65.585938 46.988281 65.628906 47.0625 65.660156 L 51.375 67.507812 C 51.5625 67.589844 51.769531 67.589844 51.957031 67.515625 C 52.144531 67.441406 52.292969 67.296875 52.371094 67.109375 L 54.152344 62.722656 L 59.550781 65.308594 C 59.734375 65.394531 59.9375 65.40625 60.128906 65.339844 C 60.320312 65.273438 60.472656 65.136719 60.5625 64.953125 L 62.589844 60.722656 C 62.765625 60.355469 62.605469 59.890625 62.234375 59.710938 L 56.488281 56.957031 L 58.414062 52.207031 C 58.578125 51.828125 58.398438 51.371094 58.019531 51.207031 L 53.707031 49.359375 C 53.324219 49.195312 52.875 49.371094 52.710938 49.757812 L 50.878906 54.273438 L 45.914062 51.894531 C 45.730469 51.808594 45.527344 51.796875 45.335938 51.863281 C 45.144531 51.929688 44.992188 52.070312 44.902344 52.25 L 42.875 56.480469 C 42.699219 56.847656 42.863281 57.316406 43.234375 57.492188 Z M 48.542969 60.039062 " fill-opacity="1" fill-rule="nonzero"/></g></g></g><g clip-path="url(#84c7e65584)"><g clip-path="url(#0bfc6a6e72)"><g clip-path="url(#985a962b1b)"><path fill="#ffffff" d="M 84.597656 83.597656 C 84.195312 83.238281 84.066406 82.664062 84.28125 82.167969 L 85.976562 77.980469 L 81.085938 75.636719 C 80.476562 75.347656 80.207031 74.574219 80.496094 73.96875 L 82.523438 69.738281 C 82.824219 69.113281 83.574219 68.851562 84.195312 69.148438 L 88.6875 71.300781 L 90.320312 67.265625 C 90.597656 66.628906 91.335938 66.332031 91.96875 66.605469 L 96.28125 68.453125 C 96.90625 68.722656 97.203125 69.480469 96.9375 70.097656 L 95.1875 74.414062 L 100.511719 76.964844 C 101.121094 77.257812 101.390625 78.027344 101.101562 78.632812 L 99.074219 82.863281 C 98.777344 83.488281 98.027344 83.75 97.40625 83.453125 L 92.480469 81.09375 L 90.894531 85 C 90.621094 85.640625 89.882812 85.933594 89.25 85.660156 L 84.9375 83.8125 C 84.8125 83.757812 84.699219 83.683594 84.597656 83.597656 Z M 86.609375 77.734375 L 84.738281 82.355469 C 84.574219 82.738281 84.753906 83.195312 85.132812 83.355469 L 89.445312 85.207031 C 89.828125 85.371094 90.277344 85.191406 90.441406 84.808594 L 92.21875 80.421875 L 97.617188 83.007812 C 97.996094 83.1875 98.449219 83.027344 98.628906 82.652344 L 100.65625 78.421875 C 100.832031 78.054688 100.671875 77.585938 100.300781 77.410156 L 94.554688 74.65625 L 96.480469 69.90625 C 96.644531 69.527344 96.46875 69.070312 96.085938 68.90625 L 91.773438 67.058594 C 91.390625 66.894531 90.941406 67.070312 90.777344 67.457031 L 88.945312 71.972656 L 83.980469 69.59375 C 83.605469 69.414062 83.152344 69.574219 82.96875 69.949219 L 80.941406 74.179688 C 80.769531 74.546875 80.929688 75.015625 81.300781 75.195312 Z M 86.609375 77.734375 " fill-opacity="1" fill-rule="nonzero"/></g></g></g><g clip-path="url(#ad8947f33e)"><g clip-path="url(#7231f4f01f)"><g clip-path="url(#ae93fe9f17)"><path fill="#000000" d="M 87.160156 75.183594 C 86.941406 75.433594 86.683594 75.628906 86.382812 75.773438 C 86.085938 75.917969 85.773438 76 85.441406 76.019531 C 85.113281 76.039062 84.789062 75.992188 84.476562 75.882812 C 84.164062 75.777344 83.886719 75.613281 83.636719 75.390625 C 83.390625 75.171875 83.195312 74.914062 83.050781 74.617188 C 82.90625 74.316406 82.824219 74.003906 82.804688 73.671875 C 82.785156 73.34375 82.828125 73.019531 82.9375 72.707031 C 83.046875 72.394531 83.210938 72.117188 83.429688 71.867188 C 83.648438 71.621094 83.910156 71.425781 84.207031 71.28125 C 84.503906 71.136719 84.820312 71.054688 85.148438 71.035156 C 85.480469 71.015625 85.800781 71.058594 86.113281 71.167969 C 86.425781 71.277344 86.707031 71.441406 86.953125 71.660156 C 87.203125 71.882812 87.398438 72.140625 87.542969 72.4375 C 87.6875 72.734375 87.769531 73.050781 87.789062 73.378906 C 87.808594 73.710938 87.761719 74.03125 87.652344 74.34375 C 87.546875 74.65625 87.382812 74.9375 87.160156 75.183594 Z M 87.160156 75.183594 " fill-opacity="1" fill-rule="nonzero"/></g></g></g><g clip-path="url(#5c0dd1a77a)"><g clip-path="url(#8430490bd4)"><g clip-path="url(#5372f23552)"><path fill="#000000" d="M 83.472656 75.578125 C 82.34375 74.570312 82.242188 72.835938 83.246094 71.703125 C 84.25 70.574219 85.988281 70.472656 87.117188 71.476562 C 88.246094 72.480469 88.351562 74.21875 87.34375 75.347656 C 86.339844 76.480469 84.601562 76.582031 83.472656 75.578125 Z M 86.789062 71.84375 C 85.863281 71.019531 84.4375 71.105469 83.613281 72.03125 C 82.789062 72.960938 82.875 74.382812 83.800781 75.207031 C 84.726562 76.03125 86.152344 75.949219 86.976562 75.019531 C 87.800781 74.09375 87.71875 72.667969 86.789062 71.84375 Z M 86.789062 71.84375 " fill-opacity="1" fill-rule="nonzero"/></g></g></g><g clip-path="url(#52b04918c8)"><g clip-path="url(#696e8c5f5c)"><g clip-path="url(#d0a5ace91b)"><path fill="#000000" d="M 94.714844 72.695312 C 94.5 72.941406 94.242188 73.136719 93.949219 73.277344 C 93.652344 73.421875 93.34375 73.5 93.015625 73.519531 C 92.6875 73.539062 92.371094 73.496094 92.0625 73.390625 C 91.753906 73.28125 91.476562 73.117188 91.230469 72.902344 C 90.988281 72.683594 90.792969 72.429688 90.652344 72.132812 C 90.507812 71.839844 90.425781 71.527344 90.40625 71.203125 C 90.386719 70.875 90.433594 70.558594 90.539062 70.25 C 90.648438 69.9375 90.808594 69.664062 91.027344 69.417969 C 91.242188 69.171875 91.5 68.980469 91.792969 68.835938 C 92.089844 68.695312 92.398438 68.613281 92.726562 68.59375 C 93.054688 68.574219 93.371094 68.617188 93.679688 68.726562 C 93.988281 68.832031 94.265625 68.996094 94.511719 69.210938 C 94.753906 69.429688 94.949219 69.6875 95.089844 69.980469 C 95.234375 70.273438 95.316406 70.585938 95.335938 70.914062 C 95.355469 71.238281 95.308594 71.558594 95.203125 71.867188 C 95.09375 72.175781 94.933594 72.453125 94.714844 72.695312 Z M 94.714844 72.695312 " fill-opacity="1" fill-rule="nonzero"/><path fill="#000000" d="M 91.066406 73.085938 C 89.949219 72.089844 89.847656 70.371094 90.84375 69.253906 C 91.835938 68.132812 93.554688 68.03125 94.675781 69.027344 C 95.792969 70.023438 95.894531 71.742188 94.898438 72.859375 C 93.90625 73.980469 92.1875 74.082031 91.066406 73.085938 Z M 94.347656 69.398438 C 93.433594 68.582031 92.023438 68.664062 91.210938 69.582031 C 90.398438 70.496094 90.480469 71.902344 91.394531 72.71875 C 92.3125 73.53125 93.71875 73.449219 94.53125 72.53125 C 95.34375 71.617188 95.261719 70.210938 94.347656 69.398438 Z M 94.347656 69.398438 " fill-opacity="1" fill-rule="nonzero"/></g></g></g><g clip-path="url(#7258fb3c5a)"><g clip-path="url(#c2ece5df91)"><g clip-path="url(#1773f3bda6)"><path fill="#000000" d="M 98.402344 80.695312 C 97.488281 81.726562 95.910156 81.820312 94.878906 80.902344 C 93.851562 79.988281 93.757812 78.410156 94.671875 77.378906 C 95.589844 76.347656 97.167969 76.253906 98.195312 77.171875 C 99.226562 78.085938 99.320312 79.664062 98.402344 80.695312 Z M 98.402344 80.695312 " fill-opacity="1" fill-rule="nonzero"/></g></g></g><g clip-path="url(#a6eac13048)"><g clip-path="url(#7b451f3c8b)"><g clip-path="url(#4f3fc15b8c)"><path fill="#000000" d="M 94.714844 81.085938 C 93.585938 80.082031 93.484375 78.34375 94.488281 77.214844 C 95.492188 76.085938 97.230469 75.980469 98.359375 76.984375 C 99.492188 77.992188 99.59375 79.726562 98.589844 80.859375 C 97.582031 81.988281 95.847656 82.089844 94.714844 81.085938 Z M 98.03125 77.355469 C 97.105469 76.53125 95.679688 76.617188 94.855469 77.542969 C 94.035156 78.46875 94.117188 79.894531 95.042969 80.71875 C 95.96875 81.542969 97.394531 81.457031 98.21875 80.53125 C 99.042969 79.605469 98.960938 78.179688 98.03125 77.355469 Z M 98.03125 77.355469 " fill-opacity="1" fill-rule="nonzero"/></g></g></g><g clip-path="url(#d1f959c28e)"><g clip-path="url(#836d81a968)"><g clip-path="url(#e9a15c936f)"><path fill="#0fa54d" d="M 94.761719 80.375 C 94.742188 80.359375 94.726562 80.339844 94.714844 80.316406 C 94.675781 80.253906 94.667969 80.175781 94.695312 80.105469 L 95.09375 79.066406 L 94.898438 77.972656 C 94.882812 77.898438 94.90625 77.820312 94.957031 77.765625 C 95.003906 77.707031 95.078125 77.675781 95.152344 77.679688 L 96.261719 77.738281 L 97.246094 77.214844 C 97.308594 77.179688 97.390625 77.175781 97.457031 77.203125 C 97.527344 77.234375 97.578125 77.292969 97.597656 77.367188 L 97.886719 78.441406 L 98.691406 79.210938 C 98.742188 79.261719 98.773438 79.335938 98.765625 79.410156 C 98.757812 79.488281 98.714844 79.554688 98.652344 79.59375 L 97.722656 80.203125 L 97.238281 81.203125 C 97.203125 81.269531 97.144531 81.320312 97.070312 81.335938 C 96.996094 81.351562 96.917969 81.335938 96.859375 81.289062 L 95.992188 80.589844 L 94.894531 80.4375 C 94.84375 80.429688 94.796875 80.410156 94.761719 80.375 Z M 95.4375 78.191406 L 95.589844 79.046875 C 95.597656 79.089844 95.59375 79.136719 95.578125 79.179688 L 95.269531 79.992188 L 96.128906 80.109375 C 96.175781 80.117188 96.214844 80.132812 96.25 80.164062 L 96.929688 80.707031 L 97.308594 79.925781 C 97.328125 79.886719 97.359375 79.851562 97.394531 79.828125 L 98.125 79.351562 L 97.496094 78.75 C 97.464844 78.71875 97.441406 78.679688 97.429688 78.632812 L 97.203125 77.792969 L 96.433594 78.203125 C 96.394531 78.226562 96.351562 78.234375 96.308594 78.234375 Z M 95.4375 78.191406 " fill-opacity="1" fill-rule="nonzero"/></g></g></g><g clip-path="url(#3bb6dafd69)"><g clip-path="url(#1fa3d8a402)"><g clip-path="url(#eb05c8be71)"><path fill="#000000" d="M 90.675781 82.792969 C 90.457031 83.035156 90.199219 83.230469 89.90625 83.371094 C 89.613281 83.515625 89.300781 83.597656 88.972656 83.617188 C 88.648438 83.632812 88.328125 83.589844 88.019531 83.484375 C 87.710938 83.375 87.433594 83.214844 87.191406 82.996094 C 86.945312 82.777344 86.75 82.523438 86.609375 82.226562 C 86.464844 81.933594 86.386719 81.625 86.367188 81.296875 C 86.347656 80.96875 86.390625 80.652344 86.496094 80.34375 C 86.605469 80.035156 86.769531 79.757812 86.984375 79.511719 C 87.203125 79.265625 87.457031 79.074219 87.753906 78.929688 C 88.046875 78.789062 88.359375 78.707031 88.683594 78.6875 C 89.011719 78.667969 89.328125 78.710938 89.636719 78.820312 C 89.949219 78.925781 90.226562 79.089844 90.46875 79.308594 C 90.714844 79.523438 90.90625 79.78125 91.050781 80.074219 C 91.191406 80.371094 91.273438 80.679688 91.292969 81.007812 C 91.3125 81.332031 91.269531 81.652344 91.160156 81.960938 C 91.054688 82.269531 90.890625 82.546875 90.675781 82.792969 Z M 90.675781 82.792969 " fill-opacity="1" fill-rule="nonzero"/><path fill="#000000" d="M 87.027344 83.179688 C 85.90625 82.1875 85.804688 80.464844 86.800781 79.347656 C 87.796875 78.230469 89.515625 78.128906 90.632812 79.121094 C 91.753906 80.117188 91.851562 81.835938 90.859375 82.957031 C 89.863281 84.074219 88.144531 84.175781 87.027344 83.179688 Z M 90.304688 79.492188 C 89.390625 78.675781 87.984375 78.761719 87.167969 79.675781 C 86.355469 80.589844 86.4375 81.996094 87.355469 82.8125 C 88.269531 83.625 89.675781 83.542969 90.488281 82.628906 C 91.304688 81.710938 91.222656 80.304688 90.304688 79.492188 Z M 90.304688 79.492188 " fill-opacity="1" fill-rule="nonzero"/></g></g></g><g clip-path="url(#92a9d0c3ae)"><g clip-path="url(#bb23404470)"><g clip-path="url(#5262b66a90)"><path fill="#0fa54d" d="M 84.480469 75.578125 C 84.445312 75.546875 84.414062 75.5 84.402344 75.449219 L 83.882812 73.066406 C 83.859375 72.964844 83.90625 72.859375 83.996094 72.804688 L 85.949219 71.632812 C 86.066406 71.5625 86.214844 71.601562 86.285156 71.71875 C 86.355469 71.835938 86.316406 71.988281 86.203125 72.058594 L 84.402344 73.136719 L 84.886719 75.34375 C 84.914062 75.476562 84.832031 75.605469 84.699219 75.636719 C 84.617188 75.652344 84.539062 75.628906 84.480469 75.578125 Z M 84.480469 75.578125 " fill-opacity="1" fill-rule="nonzero"/></g></g></g><g clip-path="url(#8ebfb83f7c)"><g clip-path="url(#f63e380138)"><g clip-path="url(#b79ad8eeeb)"><path fill="#0fa54d" d="M 84.480469 75.578125 C 84.464844 75.566406 84.453125 75.550781 84.441406 75.53125 C 84.363281 75.417969 84.394531 75.265625 84.507812 75.191406 L 86.386719 73.933594 L 85.835938 71.910156 C 85.800781 71.777344 85.878906 71.644531 86.011719 71.609375 C 86.140625 71.570312 86.277344 71.652344 86.3125 71.78125 L 86.910156 73.976562 C 86.9375 74.078125 86.898438 74.1875 86.808594 74.246094 L 84.78125 75.601562 C 84.6875 75.664062 84.5625 75.652344 84.480469 75.578125 Z M 84.480469 75.578125 " fill-opacity="1" fill-rule="nonzero"/></g></g></g><g clip-path="url(#1623afa7f4)"><g clip-path="url(#6bf5855b4d)"><g clip-path="url(#364439324f)"><path fill="#000000" d="M 49.660156 58.667969 C 49.171875 58.902344 48.363281 58.921875 47.863281 58.707031 L 46.246094 58.023438 C 45.746094 57.8125 45.507812 57.230469 45.71875 56.730469 L 46.726562 54.320312 C 46.9375 53.820312 47.519531 53.582031 48.019531 53.796875 L 49.636719 54.480469 C 50.136719 54.691406 50.6875 55.285156 50.863281 55.800781 L 51.214844 56.835938 C 51.386719 57.351562 51.132812 57.964844 50.640625 58.199219 Z M 49.660156 58.667969 " fill-opacity="1" fill-rule="nonzero"/></g></g></g><g clip-path="url(#41b0b4b2d9)"><g clip-path="url(#d21bcc6036)"><g clip-path="url(#2f5c149e61)"><path fill="#000000" d="M 52.964844 61.285156 C 53.199219 61.777344 53.21875 62.585938 53.007812 63.085938 L 52.324219 64.703125 C 52.109375 65.203125 51.527344 65.441406 51.027344 65.230469 L 48.621094 64.21875 C 48.117188 64.011719 47.882812 63.429688 48.09375 62.929688 L 48.777344 61.3125 C 48.992188 60.8125 49.585938 60.261719 50.097656 60.085938 L 51.136719 59.734375 C 51.652344 59.558594 52.261719 59.816406 52.496094 60.308594 Z M 52.964844 61.285156 " fill-opacity="1" fill-rule="nonzero"/></g></g></g><g clip-path="url(#0120c65d05)"><g clip-path="url(#6a6d422c82)"><g clip-path="url(#557dfc1cca)"><path fill="#000000" d="M 67.808594 72.964844 C 67.695312 73.210938 67.402344 73.328125 67.152344 73.222656 L 64.261719 71.992188 C 64.011719 71.886719 63.898438 71.597656 64.007812 71.351562 L 64.542969 70.160156 C 64.652344 69.910156 64.949219 69.796875 65.199219 69.902344 L 68.085938 71.128906 C 68.339844 71.234375 68.453125 71.523438 68.339844 71.773438 Z M 67.808594 72.964844 " fill-opacity="1" fill-rule="nonzero"/></g></g></g><g clip-path="url(#f45be4ccf3)"><g clip-path="url(#d2381ae8f2)"><g clip-path="url(#9554c7979f)"><path fill="#000000" d="M 70.402344 74.652344 C 70.132812 74.617188 70.003906 74.386719 70.117188 74.136719 L 70.648438 72.945312 C 70.761719 72.699219 71.027344 72.632812 71.238281 72.800781 L 73.804688 74.832031 C 74.015625 75 73.96875 75.109375 73.699219 75.074219 Z M 70.402344 74.652344 " fill-opacity="1" fill-rule="nonzero"/></g></g></g><g clip-path="url(#440f85ea30)"><g clip-path="url(#53f7adc719)"><g clip-path="url(#e53a6ff9d6)"><path fill="#000000" d="M 55.585938 57.984375 C 56.074219 57.75 56.886719 57.730469 57.386719 57.941406 L 59.003906 58.625 C 59.503906 58.835938 59.738281 59.421875 59.53125 59.921875 L 58.519531 62.328125 C 58.308594 62.828125 57.726562 63.066406 57.230469 62.855469 L 55.613281 62.171875 C 55.113281 61.957031 54.5625 61.363281 54.386719 60.851562 L 54.03125 59.8125 C 53.859375 59.296875 54.117188 58.6875 54.605469 58.453125 Z M 55.585938 57.984375 " fill-opacity="1" fill-rule="nonzero"/></g></g></g><g clip-path="url(#78cc0f3d1c)"><g clip-path="url(#ea85d51cee)"><g clip-path="url(#fb14ce2bc0)"><path fill="#000000" d="M 52.28125 55.363281 C 52.046875 54.875 52.027344 54.0625 52.242188 53.5625 L 52.925781 51.945312 C 53.136719 51.445312 53.71875 51.207031 54.21875 51.417969 L 56.628906 52.429688 C 57.128906 52.640625 57.363281 53.21875 57.152344 53.71875 L 56.46875 55.335938 C 56.257812 55.835938 55.664062 56.386719 55.148438 56.5625 L 54.109375 56.914062 C 53.597656 57.089844 52.984375 56.832031 52.75 56.34375 Z M 52.28125 55.363281 " fill-opacity="1" fill-rule="nonzero"/></g></g></g><g clip-path="url(#8848c0ed5d)"><g clip-path="url(#7828cf2daf)"><g clip-path="url(#7f9754a1af)"><path fill="#ffa52d" d="M 63.671875 72.894531 C 63.59375 72.824219 63.566406 72.710938 63.613281 72.609375 C 63.667969 72.484375 63.8125 72.429688 63.9375 72.484375 L 67.175781 73.917969 C 67.300781 73.972656 67.359375 74.117188 67.304688 74.242188 C 67.246094 74.367188 67.101562 74.421875 66.976562 74.367188 L 63.738281 72.9375 C 63.714844 72.925781 63.691406 72.910156 63.671875 72.894531 Z M 63.671875 72.894531 " fill-opacity="1" fill-rule="nonzero"/></g></g></g><g clip-path="url(#f59a6b7f47)"><g clip-path="url(#88036233ac)"><g clip-path="url(#1839e850ed)"><path fill="#ffa52d" d="M 69.78125 75.683594 C 69.703125 75.613281 69.675781 75.496094 69.71875 75.394531 C 69.777344 75.269531 69.925781 75.214844 70.046875 75.273438 L 73.175781 76.707031 C 73.300781 76.765625 73.355469 76.910156 73.296875 77.035156 C 73.242188 77.15625 73.09375 77.210938 72.972656 77.15625 L 69.84375 75.722656 C 69.820312 75.710938 69.800781 75.699219 69.78125 75.683594 Z M 69.78125 75.683594 " fill-opacity="1" fill-rule="nonzero"/></g></g></g><g clip-path="url(#0fc825cfb0)"><g clip-path="url(#1d9bfa1c66)"><g clip-path="url(#ed730923da)"><path fill="#ffa52d" d="M 92.148438 72.738281 C 92.125 72.71875 92.105469 72.691406 92.09375 72.664062 C 91.601562 71.667969 91.144531 70.636719 91.410156 69.90625 C 91.507812 69.628906 91.707031 69.421875 91.996094 69.292969 C 92.304688 69.152344 92.546875 69.214844 92.699219 69.292969 C 93.199219 69.550781 93.367188 70.3125 93.386719 70.398438 C 93.414062 70.53125 93.328125 70.660156 93.195312 70.6875 C 93.0625 70.714844 92.929688 70.632812 92.902344 70.496094 C 92.867188 70.339844 92.722656 69.855469 92.472656 69.730469 C 92.421875 69.707031 92.339844 69.679688 92.195312 69.742188 C 92.03125 69.816406 91.929688 69.921875 91.871094 70.074219 C 91.660156 70.667969 92.207031 71.777344 92.535156 72.445312 C 92.59375 72.566406 92.542969 72.714844 92.421875 72.773438 C 92.328125 72.820312 92.222656 72.804688 92.148438 72.738281 Z M 92.148438 72.738281 " fill-opacity="1" fill-rule="nonzero"/></g></g></g><g clip-path="url(#bac69ffdfc)"><g clip-path="url(#6089619ebc)"><g clip-path="url(#1133fc1d15)"><path fill="#ffa52d" d="M 92.148438 72.738281 C 92.121094 72.710938 92.097656 72.679688 92.082031 72.640625 C 92.035156 72.515625 92.097656 72.371094 92.226562 72.324219 C 92.917969 72.058594 94.082031 71.621094 94.328125 71.042969 C 94.390625 70.894531 94.390625 70.746094 94.316406 70.578125 C 94.257812 70.433594 94.179688 70.398438 94.125 70.382812 C 93.875 70.3125 93.453125 70.53125 93.285156 70.648438 C 93.175781 70.726562 93.023438 70.703125 92.941406 70.589844 C 92.863281 70.480469 92.890625 70.324219 93 70.246094 C 93.074219 70.195312 93.71875 69.753906 94.257812 69.90625 C 94.421875 69.953125 94.640625 70.074219 94.773438 70.386719 C 94.894531 70.675781 94.898438 70.964844 94.78125 71.238281 C 94.476562 71.949219 93.4375 72.390625 92.402344 72.785156 C 92.3125 72.816406 92.214844 72.796875 92.148438 72.738281 Z M 92.148438 72.738281 " fill-opacity="1" fill-rule="nonzero"/></g></g></g><g clip-path="url(#11d4e4ab80)"><g clip-path="url(#687990da6c)"><g clip-path="url(#31698586e1)"><path fill="#ffa52d" d="M 87.59375 82.117188 C 87.558594 82.082031 87.53125 82.039062 87.519531 81.984375 L 87.199219 80.542969 C 87.179688 80.449219 87.214844 80.347656 87.296875 80.289062 L 88.496094 79.425781 C 88.5625 79.378906 88.648438 79.367188 88.726562 79.398438 L 90.246094 79.976562 C 90.324219 80.007812 90.378906 80.074219 90.398438 80.15625 L 90.71875 81.597656 C 90.738281 81.695312 90.703125 81.792969 90.621094 81.851562 L 89.421875 82.714844 C 89.355469 82.761719 89.265625 82.773438 89.1875 82.742188 L 87.671875 82.164062 C 87.644531 82.152344 87.617188 82.136719 87.59375 82.117188 Z M 87.714844 80.597656 L 87.972656 81.75 L 89.242188 82.234375 L 90.203125 81.546875 L 89.945312 80.390625 L 88.675781 79.90625 Z M 87.714844 80.597656 " fill-opacity="1" fill-rule="nonzero"/></g></g></g><g clip-path="url(#873e9750d6)"><g clip-path="url(#0aa18bb728)"><g clip-path="url(#35974447ac)"><path fill="#0fa54d" d="M 67.683594 62.484375 C 67.449219 62.273438 67.363281 61.921875 67.503906 61.617188 C 67.675781 61.246094 68.117188 61.085938 68.488281 61.257812 L 78.730469 65.996094 C 79.101562 66.164062 79.265625 66.605469 79.09375 66.976562 C 78.921875 67.347656 78.480469 67.511719 78.109375 67.339844 L 67.867188 62.601562 C 67.796875 62.570312 67.738281 62.53125 67.683594 62.484375 Z M 67.683594 62.484375 " fill-opacity="1" fill-rule="nonzero"/></g></g></g><g clip-path="url(#cf6f314650)"><g clip-path="url(#9bc365502f)"><g clip-path="url(#7ddedb09ee)"><path fill="#ffa52d" d="M 68.003906 65.390625 C 67.765625 65.179688 67.683594 64.832031 67.824219 64.527344 C 67.996094 64.15625 68.433594 63.996094 68.804688 64.164062 L 75.863281 67.417969 C 76.230469 67.585938 76.394531 68.027344 76.222656 68.398438 C 76.054688 68.769531 75.613281 68.933594 75.242188 68.761719 L 68.1875 65.511719 C 68.117188 65.480469 68.058594 65.4375 68.003906 65.390625 Z M 68.003906 65.390625 " fill-opacity="1" fill-rule="nonzero"/></g></g></g><g clip-path="url(#fca5b90b8d)"><g clip-path="url(#33565b3444)"><g clip-path="url(#885c0055c0)"><path fill="#ffffff" d="M 26.839844 81.003906 C 26.121094 80.351562 25.734375 79 25.609375 78.300781 C 25.394531 77.148438 25.664062 75.820312 26.167969 74.777344 C 26.566406 73.949219 28.359375 72.050781 29.226562 73.578125 C 29.695312 74.398438 28.753906 75.714844 28.613281 76.546875 C 28.414062 77.699219 28.597656 78.890625 28.824219 80.023438 C 28.949219 80.644531 28.480469 81.308594 27.851562 81.371094 C 27.460938 81.414062 27.125 81.261719 26.839844 81.003906 Z M 26.839844 81.003906 " fill-opacity="1" fill-rule="nonzero"/></g></g></g><g clip-path="url(#4435d75861)"><g clip-path="url(#3d28f6236c)"><g clip-path="url(#88db2f2b34)"><path fill="#000000" d="M 26.808594 81.070312 L 26.792969 81.054688 C 25.882812 80.242188 25.484375 78.609375 25.421875 78.277344 C 25.214844 77.164062 25.402344 75.820312 25.972656 74.636719 C 26.234375 74.09375 27.148438 72.957031 28.113281 72.765625 C 28.664062 72.652344 29.136719 72.894531 29.449219 73.445312 C 29.824219 74.101562 29.472656 74.945312 29.167969 75.683594 C 29.03125 76.019531 28.902344 76.335938 28.859375 76.585938 C 28.667969 77.695312 28.84375 78.871094 29.066406 79.976562 C 29.140625 80.34375 29.046875 80.742188 28.808594 81.066406 C 28.578125 81.378906 28.296875 81.515625 27.9375 81.550781 C 27.507812 81.59375 27.167969 81.390625 26.808594 81.070312 Z M 28.789062 73.414062 C 28.625 73.265625 28.429688 73.21875 28.195312 73.265625 C 27.511719 73.402344 26.65625 74.332031 26.390625 74.882812 C 25.863281 75.980469 25.660156 77.242188 25.847656 78.257812 C 26 79.097656 26.453125 80.34375 27.070312 80.886719 L 27.148438 80.957031 C 27.148438 80.957031 27.605469 81.21875 27.890625 81.191406 C 28.113281 81.167969 28.296875 81.007812 28.445312 80.804688 C 28.597656 80.59375 28.644531 80.324219 28.597656 80.089844 C 28.367188 78.9375 28.171875 77.703125 28.378906 76.511719 C 28.429688 76.210938 28.566406 75.867188 28.714844 75.503906 C 28.972656 74.871094 29.269531 74.144531 29.015625 73.699219 C 28.945312 73.582031 28.871094 73.484375 28.789062 73.414062 Z M 28.789062 73.414062 " fill-opacity="1" fill-rule="nonzero"/></g></g></g><g clip-path="url(#1fb549220a)"><g clip-path="url(#4a1a32e60d)"><g clip-path="url(#b7c0caa71f)"><path fill="#ffffff" d="M 90.863281 101.855469 C 90.804688 102.832031 90 103.980469 89.535156 104.523438 C 88.773438 105.414062 87.570312 106.039062 86.445312 106.304688 C 85.550781 106.515625 82.945312 106.308594 83.585938 104.667969 C 83.929688 103.78125 85.546875 103.691406 86.28125 103.277344 C 87.304688 102.707031 88.117188 101.816406 88.851562 100.925781 C 89.257812 100.4375 90.066406 100.382812 90.511719 100.835938 C 90.789062 101.117188 90.882812 101.472656 90.863281 101.855469 Z M 90.863281 101.855469 " fill-opacity="1" fill-rule="nonzero"/></g></g></g><g clip-path="url(#28cc044de8)"><g clip-path="url(#b704125cad)"><g clip-path="url(#b920d55aa0)"><path fill="#000000" d="M 83.640625 106.019531 C 83.355469 105.761719 83.070312 105.304688 83.355469 104.578125 C 83.628906 103.875 84.5 103.613281 85.269531 103.386719 C 85.613281 103.285156 85.941406 103.1875 86.160156 103.0625 C 87.144531 102.511719 87.945312 101.632812 88.664062 100.765625 C 88.894531 100.488281 89.242188 100.3125 89.625 100.28125 C 90.027344 100.25 90.421875 100.390625 90.6875 100.660156 C 90.996094 100.96875 91.136719 101.378906 91.109375 101.871094 C 91.035156 103.09375 89.941406 104.429688 89.722656 104.683594 C 88.984375 105.546875 87.78125 106.242188 86.5 106.542969 C 85.894531 106.6875 84.386719 106.679688 83.640625 106.019531 Z M 90.191406 101.167969 C 89.992188 100.988281 89.832031 100.835938 89.589844 100.855469 C 89.34375 100.875 89.152344 100.945312 89.007812 101.121094 C 88.257812 102.027344 87.4375 102.921875 86.382812 103.515625 C 86.117188 103.664062 85.773438 103.757812 85.398438 103.871094 C 84.738281 104.066406 83.996094 104.28125 83.8125 104.761719 C 83.660156 105.144531 83.710938 105.425781 83.96875 105.652344 C 84.492188 106.121094 85.773438 106.207031 86.386719 106.0625 C 87.566406 105.785156 88.675781 105.148438 89.347656 104.363281 C 89.902344 103.714844 90.496094 102.746094 90.542969 101.921875 C 90.5625 101.570312 90.414062 101.363281 90.195312 101.171875 C 90.191406 101.167969 90.191406 101.167969 90.191406 101.167969 Z M 90.191406 101.167969 " fill-opacity="1" fill-rule="nonzero"/></g></g></g><g clip-path="url(#042782608a)"><g clip-path="url(#251f36055d)"><path fill="#ffa52d" d="M 2.1875 0.117188 L 129.578125 0.117188 L 129.578125 37.515625 L 2.1875 37.515625 Z M 2.1875 0.117188 " fill-opacity="1" fill-rule="nonzero"/></g></g><g clip-path="url(#13180e6178)"><g clip-path="url(#bd9bfc8470)"><path stroke-linecap="butt" transform="matrix(0.747137, 0, 0, 0.747137, 2.197476, 0.117372)" fill="none" stroke-linejoin="miter" d="M 25.024923 -0.000246799 L 145.510839 -0.000246799 C 152.150766 -0.000246799 158.513594 2.634811 163.208597 7.329814 C 167.898372 12.019589 170.538658 18.387645 170.538658 25.022344 C 170.538658 31.66227 167.898372 38.025098 163.208597 42.720101 C 158.513594 47.409877 152.150766 50.044934 145.510839 50.044934 L 25.024923 50.044934 C 18.384996 50.044934 12.022168 47.409877 7.327165 42.720101 C 2.63739 38.025098 0.00233216 31.66227 0.00233216 25.022344 C 0.00233216 18.387645 2.63739 12.019589 7.327165 7.329814 C 12.022168 2.634811 18.384996 -0.000246799 25.024923 -0.000246799 Z M 25.024923 -0.000246799 " stroke="#0f0d10" stroke-width="4" stroke-opacity="1" stroke-miterlimit="4"/></g></g><g fill="#231f20" fill-opacity="1"><g transform="translate(31.101313, 24.795429)"><g><path d="M 6.109375 -10.453125 C 5.484375 -10.203125 5.171875 -9.832031 5.171875 -9.34375 C 5.171875 -9.09375 5.222656 -8.929688 5.328125 -8.859375 C 5.441406 -8.785156 5.601562 -8.742188 5.8125 -8.734375 C 6.15625 -8.722656 6.382812 -8.625 6.5 -8.4375 C 6.625 -8.25 6.6875 -8.039062 6.6875 -7.8125 C 6.6875 -7.5 6.582031 -7.234375 6.375 -7.015625 C 6.175781 -6.804688 5.878906 -6.703125 5.484375 -6.703125 C 5.003906 -6.703125 4.671875 -6.835938 4.484375 -7.109375 C 4.296875 -7.390625 4.203125 -7.722656 4.203125 -8.109375 L 4.203125 -8.71875 C 4.203125 -9.988281 4.835938 -10.78125 6.109375 -11.09375 Z M 2.5625 -10.4375 C 1.9375 -10.1875 1.625 -9.816406 1.625 -9.328125 C 1.625 -9.078125 1.675781 -8.914062 1.78125 -8.84375 C 1.882812 -8.769531 2.046875 -8.726562 2.265625 -8.71875 C 2.597656 -8.71875 2.828125 -8.617188 2.953125 -8.421875 C 3.078125 -8.234375 3.140625 -8.023438 3.140625 -7.796875 C 3.140625 -7.484375 3.035156 -7.21875 2.828125 -7 C 2.628906 -6.789062 2.332031 -6.6875 1.9375 -6.6875 C 1.46875 -6.6875 1.132812 -6.820312 0.9375 -7.09375 C 0.75 -7.375 0.65625 -7.707031 0.65625 -8.09375 L 0.65625 -8.703125 C 0.65625 -9.359375 0.820312 -9.878906 1.15625 -10.265625 C 1.488281 -10.660156 1.957031 -10.929688 2.5625 -11.078125 Z M 2.5625 -10.4375 "/></g></g></g><g fill="#231f20" fill-opacity="1"><g transform="translate(38.471645, 24.795429)"><g><path d="M 0.734375 -9.796875 L 4.921875 -9.796875 C 5.515625 -9.796875 6.019531 -9.679688 6.4375 -9.453125 C 6.863281 -9.234375 7.175781 -8.929688 7.375 -8.546875 C 7.582031 -8.171875 7.6875 -7.753906 7.6875 -7.296875 C 7.6875 -6.742188 7.546875 -6.289062 7.265625 -5.9375 C 6.992188 -5.59375 6.671875 -5.367188 6.296875 -5.265625 L 6.296875 -5.171875 C 6.578125 -5.140625 6.867188 -5.035156 7.171875 -4.859375 C 7.472656 -4.679688 7.726562 -4.421875 7.9375 -4.078125 C 8.15625 -3.734375 8.265625 -3.320312 8.265625 -2.84375 C 8.265625 -2.375 8.160156 -1.921875 7.953125 -1.484375 C 7.742188 -1.046875 7.410156 -0.6875 6.953125 -0.40625 C 6.492188 -0.125 5.925781 0.015625 5.25 0.015625 L 0.734375 0.015625 Z M 4.265625 -5.796875 C 4.648438 -5.796875 4.976562 -5.882812 5.25 -6.0625 C 5.519531 -6.238281 5.65625 -6.535156 5.65625 -6.953125 C 5.65625 -7.347656 5.515625 -7.628906 5.234375 -7.796875 C 4.960938 -7.972656 4.640625 -8.0625 4.265625 -8.0625 L 2.859375 -8.0625 L 2.859375 -5.796875 Z M 4.75 -1.71875 C 5.132812 -1.71875 5.46875 -1.8125 5.75 -2 C 6.039062 -2.1875 6.1875 -2.515625 6.1875 -2.984375 C 6.1875 -3.429688 6.039062 -3.753906 5.75 -3.953125 C 5.457031 -4.148438 5.125 -4.25 4.75 -4.25 L 2.859375 -4.25 L 2.859375 -1.71875 Z M 4.75 -1.71875 "/></g></g></g><g fill="#231f20" fill-opacity="1"><g transform="translate(47.198569, 24.795429)"><g><path d="M 5.046875 0.125 C 4.066406 0.125 3.234375 -0.0976562 2.546875 -0.546875 C 1.867188 -1.003906 1.359375 -1.613281 1.015625 -2.375 C 0.679688 -3.132812 0.515625 -3.972656 0.515625 -4.890625 C 0.515625 -5.816406 0.6875 -6.664062 1.03125 -7.4375 C 1.375 -8.207031 1.882812 -8.820312 2.5625 -9.28125 C 3.25 -9.75 4.078125 -9.984375 5.046875 -9.984375 C 5.992188 -9.984375 6.804688 -9.753906 7.484375 -9.296875 C 8.160156 -8.835938 8.664062 -8.21875 9 -7.4375 C 9.34375 -6.664062 9.515625 -5.8125 9.515625 -4.875 C 9.515625 -3.945312 9.34375 -3.101562 9 -2.34375 C 8.664062 -1.582031 8.160156 -0.976562 7.484375 -0.53125 C 6.804688 -0.09375 5.992188 0.125 5.046875 0.125 Z M 5.03125 -1.8125 C 5.71875 -1.8125 6.25 -2.101562 6.625 -2.6875 C 7.007812 -3.28125 7.203125 -4.019531 7.203125 -4.90625 C 7.203125 -5.78125 7.015625 -6.519531 6.640625 -7.125 C 6.265625 -7.738281 5.726562 -8.046875 5.03125 -8.046875 C 4.5625 -8.046875 4.160156 -7.898438 3.828125 -7.609375 C 3.492188 -7.316406 3.242188 -6.929688 3.078125 -6.453125 C 2.921875 -5.984375 2.84375 -5.46875 2.84375 -4.90625 C 2.84375 -4.039062 3.03125 -3.304688 3.40625 -2.703125 C 3.78125 -2.109375 4.320312 -1.8125 5.03125 -1.8125 Z M 5.03125 -1.8125 "/></g></g></g><g fill="#231f20" fill-opacity="1"><g transform="translate(57.296073, 24.795429)"><g><path d="M 0.734375 -9.796875 L 3.96875 -9.796875 L 5.890625 -4.234375 L 5.921875 -4.234375 L 7.84375 -9.796875 L 11.09375 -9.796875 L 11.09375 0 L 8.953125 0 L 8.953125 -6.71875 L 8.890625 -6.71875 L 6.59375 0 L 5.21875 0 L 2.921875 -6.71875 L 2.859375 -6.71875 L 2.859375 0 L 0.734375 0 Z M 0.734375 -9.796875 "/></g></g></g><g fill="#231f20" fill-opacity="1"><g transform="translate(69.113785, 24.795429)"><g><path d="M 0.734375 -9.796875 L 4.921875 -9.796875 C 5.515625 -9.796875 6.019531 -9.679688 6.4375 -9.453125 C 6.863281 -9.234375 7.175781 -8.929688 7.375 -8.546875 C 7.582031 -8.171875 7.6875 -7.753906 7.6875 -7.296875 C 7.6875 -6.742188 7.546875 -6.289062 7.265625 -5.9375 C 6.992188 -5.59375 6.671875 -5.367188 6.296875 -5.265625 L 6.296875 -5.171875 C 6.578125 -5.140625 6.867188 -5.035156 7.171875 -4.859375 C 7.472656 -4.679688 7.726562 -4.421875 7.9375 -4.078125 C 8.15625 -3.734375 8.265625 -3.320312 8.265625 -2.84375 C 8.265625 -2.375 8.160156 -1.921875 7.953125 -1.484375 C 7.742188 -1.046875 7.410156 -0.6875 6.953125 -0.40625 C 6.492188 -0.125 5.925781 0.015625 5.25 0.015625 L 0.734375 0.015625 Z M 4.265625 -5.796875 C 4.648438 -5.796875 4.976562 -5.882812 5.25 -6.0625 C 5.519531 -6.238281 5.65625 -6.535156 5.65625 -6.953125 C 5.65625 -7.347656 5.515625 -7.628906 5.234375 -7.796875 C 4.960938 -7.972656 4.640625 -8.0625 4.265625 -8.0625 L 2.859375 -8.0625 L 2.859375 -5.796875 Z M 4.75 -1.71875 C 5.132812 -1.71875 5.46875 -1.8125 5.75 -2 C 6.039062 -2.1875 6.1875 -2.515625 6.1875 -2.984375 C 6.1875 -3.429688 6.039062 -3.753906 5.75 -3.953125 C 5.457031 -4.148438 5.125 -4.25 4.75 -4.25 L 2.859375 -4.25 L 2.859375 -1.71875 Z M 4.75 -1.71875 "/></g></g></g><g fill="#231f20" fill-opacity="1"><g transform="translate(77.840709, 24.795429)"><g><path d="M 6.296875 -2.265625 L 3.15625 -2.265625 L 2.46875 0 L 0.25 0 L 3.734375 -9.796875 L 5.765625 -9.796875 L 9.21875 0 L 7 0 Z M 5.765625 -3.921875 L 4.75 -7.09375 L 4.671875 -7.09375 L 3.6875 -3.921875 Z M 5.765625 -3.921875 "/></g></g></g><g fill="#231f20" fill-opacity="1"><g transform="translate(87.252923, 24.795429)"><g><path d="M 1.53125 -7.453125 C 2.164062 -7.691406 2.484375 -8.066406 2.484375 -8.578125 C 2.484375 -8.828125 2.429688 -8.984375 2.328125 -9.046875 C 2.222656 -9.109375 2.0625 -9.144531 1.84375 -9.15625 C 1.507812 -9.164062 1.28125 -9.269531 1.15625 -9.46875 C 1.03125 -9.664062 0.96875 -9.867188 0.96875 -10.078125 C 0.96875 -10.410156 1.066406 -10.679688 1.265625 -10.890625 C 1.460938 -11.109375 1.765625 -11.21875 2.171875 -11.21875 C 2.640625 -11.21875 2.96875 -11.078125 3.15625 -10.796875 C 3.351562 -10.523438 3.453125 -10.191406 3.453125 -9.796875 L 3.453125 -9.203125 C 3.453125 -7.910156 2.8125 -7.117188 1.53125 -6.828125 Z M 5.09375 -7.453125 C 5.71875 -7.691406 6.03125 -8.0625 6.03125 -8.5625 C 6.03125 -8.8125 5.972656 -8.96875 5.859375 -9.03125 C 5.753906 -9.101562 5.597656 -9.144531 5.390625 -9.15625 C 5.046875 -9.164062 4.8125 -9.265625 4.6875 -9.453125 C 4.5625 -9.648438 4.5 -9.859375 4.5 -10.078125 C 4.5 -10.398438 4.601562 -10.671875 4.8125 -10.890625 C 5.019531 -11.109375 5.320312 -11.21875 5.71875 -11.21875 C 6.1875 -11.21875 6.515625 -11.078125 6.703125 -10.796875 C 6.898438 -10.515625 7 -10.179688 7 -9.796875 L 7 -9.1875 C 7 -8.519531 6.832031 -7.992188 6.5 -7.609375 C 6.164062 -7.222656 5.695312 -6.957031 5.09375 -6.8125 Z M 5.09375 -7.453125 "/></g></g></g></svg>