<svg xmlns="http://www.w3.org/2000/svg" xmlns:xlink="http://www.w3.org/1999/xlink" width="174" zoomAndPan="magnify" viewBox="0 0 130.5 38.249999" height="51" preserveAspectRatio="xMidYMid meet" version="1.0"><defs><g/><clipPath id="246c734f6b"><path d="M 3.164062 0 L 128.726562 0 L 128.726562 36.820312 L 3.164062 36.820312 Z M 3.164062 0 " clip-rule="nonzero"/></clipPath><clipPath id="5039401954"><path d="M 21.574219 0 L 110.21875 0 C 115.101562 0 119.785156 1.941406 123.238281 5.390625 C 126.691406 8.84375 128.628906 13.527344 128.628906 18.410156 C 128.628906 23.292969 126.691406 27.976562 123.238281 31.429688 C 119.785156 34.878906 115.101562 36.820312 110.21875 36.820312 L 21.574219 36.820312 C 16.691406 36.820312 12.007812 34.878906 8.554688 31.429688 C 5.101562 27.976562 3.164062 23.292969 3.164062 18.410156 C 3.164062 13.527344 5.101562 8.84375 8.554688 5.390625 C 12.007812 1.941406 16.691406 0 21.574219 0 Z M 21.574219 0 " clip-rule="nonzero"/></clipPath><clipPath id="960f9295e3"><path d="M 3.171875 0 L 128.945312 0 L 128.945312 36.777344 L 3.171875 36.777344 Z M 3.171875 0 " clip-rule="nonzero"/></clipPath><clipPath id="8bffe28ab8"><path d="M 21.578125 0 L 110.207031 0 C 115.089844 0 119.773438 1.9375 123.222656 5.390625 C 126.675781 8.84375 128.617188 13.523438 128.617188 18.40625 C 128.617188 23.289062 126.675781 27.96875 123.222656 31.421875 C 119.773438 34.875 115.089844 36.8125 110.207031 36.8125 L 21.578125 36.8125 C 16.699219 36.8125 12.015625 34.875 8.5625 31.421875 C 5.113281 27.96875 3.171875 23.289062 3.171875 18.40625 C 3.171875 13.523438 5.113281 8.84375 8.5625 5.390625 C 12.015625 1.9375 16.699219 0 21.578125 0 Z M 21.578125 0 " clip-rule="nonzero"/></clipPath></defs><g clip-path="url(#246c734f6b)"><g clip-path="url(#5039401954)"><path fill="#ffa52d" d="M 3.164062 0 L 128.582031 0 L 128.582031 36.820312 L 3.164062 36.820312 Z M 3.164062 0 " fill-opacity="1" fill-rule="nonzero"/></g></g><g clip-path="url(#960f9295e3)"><g clip-path="url(#8bffe28ab8)"><path stroke-linecap="butt" transform="matrix(0.735577, 0, 0, 0.735577, 3.173092, -0.000000000000062719)" fill="none" stroke-linejoin="miter" d="M 25.021223 0.000000000000085265 L 145.510202 0.000000000000085265 C 152.148275 0.000000000000085265 158.515514 2.633987 163.204648 7.328432 C 167.899093 12.022877 170.53839 18.384805 170.53839 25.022878 C 170.53839 31.66095 167.899093 38.022878 163.204648 42.717323 C 158.515514 47.411768 152.148275 50.045755 145.510202 50.045755 L 25.021223 50.045755 C 18.388462 50.045755 12.021223 47.411768 7.326778 42.717323 C 2.637644 38.022878 -0.00165406 31.66095 -0.00165406 25.022878 C -0.00165406 18.384805 2.637644 12.022877 7.326778 7.328432 C 12.021223 2.633987 18.388462 0.000000000000085265 25.021223 0.000000000000085265 Z M 25.021223 0.000000000000085265 " stroke="#0f0d10" stroke-width="4" stroke-opacity="1" stroke-miterlimit="4"/></g></g><g fill="#231f20" fill-opacity="1"><g transform="translate(31.629698, 24.296212)"><g><path d="M 6.015625 -10.28125 C 5.398438 -10.039062 5.09375 -9.679688 5.09375 -9.203125 C 5.09375 -8.953125 5.144531 -8.789062 5.25 -8.71875 C 5.351562 -8.65625 5.507812 -8.617188 5.71875 -8.609375 C 6.050781 -8.597656 6.273438 -8.5 6.390625 -8.3125 C 6.515625 -8.125 6.578125 -7.914062 6.578125 -7.6875 C 6.578125 -7.382812 6.476562 -7.125 6.28125 -6.90625 C 6.082031 -6.695312 5.785156 -6.59375 5.390625 -6.59375 C 4.921875 -6.59375 4.59375 -6.726562 4.40625 -7 C 4.226562 -7.269531 4.140625 -7.597656 4.140625 -7.984375 L 4.140625 -8.578125 C 4.140625 -9.835938 4.765625 -10.617188 6.015625 -10.921875 Z M 2.515625 -10.265625 C 1.898438 -10.023438 1.59375 -9.664062 1.59375 -9.1875 C 1.59375 -8.9375 1.644531 -8.773438 1.75 -8.703125 C 1.851562 -8.640625 2.015625 -8.601562 2.234375 -8.59375 C 2.554688 -8.582031 2.78125 -8.484375 2.90625 -8.296875 C 3.03125 -8.109375 3.09375 -7.90625 3.09375 -7.6875 C 3.09375 -7.375 2.988281 -7.109375 2.78125 -6.890625 C 2.582031 -6.679688 2.289062 -6.578125 1.90625 -6.578125 C 1.445312 -6.578125 1.117188 -6.710938 0.921875 -6.984375 C 0.734375 -7.253906 0.640625 -7.582031 0.640625 -7.96875 L 0.640625 -8.5625 C 0.640625 -9.21875 0.800781 -9.734375 1.125 -10.109375 C 1.457031 -10.492188 1.921875 -10.757812 2.515625 -10.90625 Z M 2.515625 -10.265625 "/></g></g></g><g fill="#231f20" fill-opacity="1"><g transform="translate(38.885988, 24.296212)"><g><path d="M 0.71875 -9.640625 L 4.84375 -9.640625 C 5.425781 -9.640625 5.925781 -9.523438 6.34375 -9.296875 C 6.757812 -9.078125 7.066406 -8.78125 7.265625 -8.40625 C 7.472656 -8.039062 7.578125 -7.632812 7.578125 -7.1875 C 7.578125 -6.644531 7.4375 -6.203125 7.15625 -5.859375 C 6.882812 -5.515625 6.5625 -5.289062 6.1875 -5.1875 L 6.1875 -5.09375 C 6.46875 -5.050781 6.753906 -4.941406 7.046875 -4.765625 C 7.347656 -4.597656 7.601562 -4.347656 7.8125 -4.015625 C 8.03125 -3.679688 8.140625 -3.273438 8.140625 -2.796875 C 8.140625 -2.335938 8.035156 -1.890625 7.828125 -1.453125 C 7.617188 -1.023438 7.289062 -0.671875 6.84375 -0.390625 C 6.394531 -0.117188 5.832031 0.015625 5.15625 0.015625 L 0.71875 0.015625 Z M 4.203125 -5.71875 C 4.578125 -5.71875 4.894531 -5.800781 5.15625 -5.96875 C 5.425781 -6.144531 5.5625 -6.4375 5.5625 -6.84375 C 5.5625 -7.238281 5.425781 -7.519531 5.15625 -7.6875 C 4.882812 -7.851562 4.566406 -7.9375 4.203125 -7.9375 L 2.828125 -7.9375 L 2.828125 -5.71875 Z M 4.6875 -1.6875 C 5.0625 -1.6875 5.390625 -1.78125 5.671875 -1.96875 C 5.953125 -2.15625 6.09375 -2.476562 6.09375 -2.9375 C 6.09375 -3.382812 5.945312 -3.703125 5.65625 -3.890625 C 5.375 -4.085938 5.050781 -4.1875 4.6875 -4.1875 L 2.828125 -4.1875 L 2.828125 -1.6875 Z M 4.6875 -1.6875 "/></g></g></g><g fill="#231f20" fill-opacity="1"><g transform="translate(47.47788, 24.296212)"><g><path d="M 4.96875 0.125 C 4.007812 0.125 3.191406 -0.0976562 2.515625 -0.546875 C 1.847656 -0.992188 1.347656 -1.585938 1.015625 -2.328125 C 0.679688 -3.078125 0.515625 -3.90625 0.515625 -4.8125 C 0.515625 -5.726562 0.679688 -6.566406 1.015625 -7.328125 C 1.359375 -8.085938 1.863281 -8.691406 2.53125 -9.140625 C 3.195312 -9.597656 4.007812 -9.828125 4.96875 -9.828125 C 5.90625 -9.828125 6.707031 -9.601562 7.375 -9.15625 C 8.039062 -8.707031 8.539062 -8.097656 8.875 -7.328125 C 9.207031 -6.566406 9.375 -5.722656 9.375 -4.796875 C 9.375 -3.878906 9.207031 -3.046875 8.875 -2.296875 C 8.539062 -1.554688 8.039062 -0.96875 7.375 -0.53125 C 6.707031 -0.09375 5.90625 0.125 4.96875 0.125 Z M 4.953125 -1.796875 C 5.628906 -1.796875 6.15625 -2.082031 6.53125 -2.65625 C 6.90625 -3.238281 7.09375 -3.960938 7.09375 -4.828125 C 7.09375 -5.691406 6.90625 -6.421875 6.53125 -7.015625 C 6.164062 -7.617188 5.640625 -7.921875 4.953125 -7.921875 C 4.484375 -7.921875 4.085938 -7.773438 3.765625 -7.484375 C 3.441406 -7.203125 3.195312 -6.828125 3.03125 -6.359375 C 2.875 -5.890625 2.796875 -5.378906 2.796875 -4.828125 C 2.796875 -3.972656 2.976562 -3.253906 3.34375 -2.671875 C 3.71875 -2.085938 4.253906 -1.796875 4.953125 -1.796875 Z M 4.953125 -1.796875 "/></g></g></g><g fill="#231f20" fill-opacity="1"><g transform="translate(57.419145, 24.296212)"><g><path d="M 0.71875 -9.640625 L 3.90625 -9.640625 L 5.796875 -4.171875 L 5.84375 -4.171875 L 7.71875 -9.640625 L 10.921875 -9.640625 L 10.921875 0 L 8.8125 0 L 8.8125 -6.609375 L 8.75 -6.609375 L 6.5 0 L 5.140625 0 L 2.875 -6.609375 L 2.828125 -6.609375 L 2.828125 0 L 0.71875 0 Z M 0.71875 -9.640625 "/></g></g></g><g fill="#231f20" fill-opacity="1"><g transform="translate(69.054001, 24.296212)"><g><path d="M 0.71875 -9.640625 L 4.84375 -9.640625 C 5.425781 -9.640625 5.925781 -9.523438 6.34375 -9.296875 C 6.757812 -9.078125 7.066406 -8.78125 7.265625 -8.40625 C 7.472656 -8.039062 7.578125 -7.632812 7.578125 -7.1875 C 7.578125 -6.644531 7.4375 -6.203125 7.15625 -5.859375 C 6.882812 -5.515625 6.5625 -5.289062 6.1875 -5.1875 L 6.1875 -5.09375 C 6.46875 -5.050781 6.753906 -4.941406 7.046875 -4.765625 C 7.347656 -4.597656 7.601562 -4.347656 7.8125 -4.015625 C 8.03125 -3.679688 8.140625 -3.273438 8.140625 -2.796875 C 8.140625 -2.335938 8.035156 -1.890625 7.828125 -1.453125 C 7.617188 -1.023438 7.289062 -0.671875 6.84375 -0.390625 C 6.394531 -0.117188 5.832031 0.015625 5.15625 0.015625 L 0.71875 0.015625 Z M 4.203125 -5.71875 C 4.578125 -5.71875 4.894531 -5.800781 5.15625 -5.96875 C 5.425781 -6.144531 5.5625 -6.4375 5.5625 -6.84375 C 5.5625 -7.238281 5.425781 -7.519531 5.15625 -7.6875 C 4.882812 -7.851562 4.566406 -7.9375 4.203125 -7.9375 L 2.828125 -7.9375 L 2.828125 -5.71875 Z M 4.6875 -1.6875 C 5.0625 -1.6875 5.390625 -1.78125 5.671875 -1.96875 C 5.953125 -2.15625 6.09375 -2.476562 6.09375 -2.9375 C 6.09375 -3.382812 5.945312 -3.703125 5.65625 -3.890625 C 5.375 -4.085938 5.050781 -4.1875 4.6875 -4.1875 L 2.828125 -4.1875 L 2.828125 -1.6875 Z M 4.6875 -1.6875 "/></g></g></g><g fill="#231f20" fill-opacity="1"><g transform="translate(77.645893, 24.296212)"><g><path d="M 6.1875 -2.234375 L 3.109375 -2.234375 L 2.421875 0 L 0.25 0 L 3.671875 -9.640625 L 5.671875 -9.640625 L 9.078125 0 L 6.890625 0 Z M 5.671875 -3.875 L 4.6875 -6.984375 L 4.59375 -6.984375 L 3.640625 -3.875 Z M 5.671875 -3.875 "/></g></g></g><g fill="#231f20" fill-opacity="1"><g transform="translate(86.912471, 24.296212)"><g><path d="M 1.515625 -7.34375 C 2.140625 -7.570312 2.453125 -7.9375 2.453125 -8.4375 C 2.453125 -8.6875 2.398438 -8.84375 2.296875 -8.90625 C 2.191406 -8.96875 2.03125 -9.003906 1.8125 -9.015625 C 1.488281 -9.023438 1.265625 -9.125 1.140625 -9.3125 C 1.015625 -9.507812 0.953125 -9.710938 0.953125 -9.921875 C 0.953125 -10.242188 1.050781 -10.507812 1.25 -10.71875 C 1.445312 -10.9375 1.742188 -11.046875 2.140625 -11.046875 C 2.597656 -11.046875 2.921875 -10.910156 3.109375 -10.640625 C 3.304688 -10.367188 3.40625 -10.039062 3.40625 -9.65625 L 3.40625 -9.0625 C 3.40625 -7.78125 2.773438 -7 1.515625 -6.71875 Z M 5.015625 -7.34375 C 5.628906 -7.570312 5.9375 -7.929688 5.9375 -8.421875 C 5.9375 -8.671875 5.878906 -8.828125 5.765625 -8.890625 C 5.660156 -8.960938 5.503906 -9.003906 5.296875 -9.015625 C 4.960938 -9.023438 4.734375 -9.125 4.609375 -9.3125 C 4.492188 -9.5 4.4375 -9.703125 4.4375 -9.921875 C 4.4375 -10.234375 4.535156 -10.5 4.734375 -10.71875 C 4.929688 -10.9375 5.226562 -11.046875 5.625 -11.046875 C 6.082031 -11.046875 6.40625 -10.90625 6.59375 -10.625 C 6.78125 -10.351562 6.875 -10.023438 6.875 -9.640625 L 6.875 -9.046875 C 6.875 -8.390625 6.710938 -7.867188 6.390625 -7.484375 C 6.066406 -7.109375 5.609375 -6.847656 5.015625 -6.703125 Z M 5.015625 -7.34375 "/></g></g></g></svg>