<svg xmlns="http://www.w3.org/2000/svg" xmlns:xlink="http://www.w3.org/1999/xlink" width="182" zoomAndPan="magnify" viewBox="0 0 136.5 129.749996" height="173" preserveAspectRatio="xMidYMid meet" version="1.0"><defs><g/><clipPath id="a67cfe0a00"><path d="M 0 0.796875 L 136 0.796875 L 136 44.730469 L 0 44.730469 Z M 0 0.796875 " clip-rule="nonzero"/></clipPath><clipPath id="8549fd4108"><path d="M 21.96875 0.796875 L 113.984375 0.796875 C 119.8125 0.796875 125.398438 3.109375 129.519531 7.230469 C 133.636719 11.351562 135.953125 16.9375 135.953125 22.765625 C 135.953125 28.589844 133.636719 34.175781 129.519531 38.296875 C 125.398438 42.417969 119.8125 44.730469 113.984375 44.730469 L 21.96875 44.730469 C 16.140625 44.730469 10.554688 42.417969 6.433594 38.296875 C 2.3125 34.175781 0 28.589844 0 22.765625 C 0 16.9375 2.3125 11.351562 6.433594 7.230469 C 10.554688 3.109375 16.140625 0.796875 21.96875 0.796875 Z M 21.96875 0.796875 " clip-rule="nonzero"/></clipPath><clipPath id="913a958915"><path d="M 0 0.796875 L 136 0.796875 L 136 44.886719 L 0 44.886719 Z M 0 0.796875 " clip-rule="nonzero"/></clipPath><clipPath id="cd29b12045"><path d="M 21.972656 0.796875 L 113.96875 0.796875 C 119.796875 0.796875 125.382812 3.109375 129.5 7.230469 C 133.617188 11.347656 135.933594 16.933594 135.933594 22.757812 C 135.933594 28.582031 133.617188 34.171875 129.5 38.289062 C 125.382812 42.40625 119.796875 44.722656 113.96875 44.722656 L 21.972656 44.722656 C 16.148438 44.722656 10.5625 42.40625 6.445312 38.289062 C 2.324219 34.171875 0.0117188 28.582031 0.0117188 22.757812 C 0.0117188 16.933594 2.324219 11.347656 6.445312 7.230469 C 10.5625 3.109375 16.148438 0.796875 21.972656 0.796875 Z M 21.972656 0.796875 " clip-rule="nonzero"/></clipPath><clipPath id="761d21ddc6"><path d="M 40 48 L 94 48 L 94 127 L 40 127 Z M 40 48 " clip-rule="nonzero"/></clipPath><clipPath id="b921a37f7e"><path d="M 38.925781 58.335938 L 84.371094 46.046875 L 103.488281 116.738281 L 58.042969 129.027344 Z M 38.925781 58.335938 " clip-rule="nonzero"/></clipPath><clipPath id="a8a09c3631"><path d="M 38.925781 58.335938 L 84.371094 46.046875 L 103.488281 116.738281 L 58.042969 129.027344 Z M 38.925781 58.335938 " clip-rule="nonzero"/></clipPath><clipPath id="e7a7f52182"><path d="M 40 60 L 54 60 L 54 71 L 40 71 Z M 40 60 " clip-rule="nonzero"/></clipPath><clipPath id="348f9b15fc"><path d="M 38.925781 58.335938 L 84.371094 46.046875 L 103.488281 116.738281 L 58.042969 129.027344 Z M 38.925781 58.335938 " clip-rule="nonzero"/></clipPath><clipPath id="654e4d3778"><path d="M 38.925781 58.335938 L 84.371094 46.046875 L 103.488281 116.738281 L 58.042969 129.027344 Z M 38.925781 58.335938 " clip-rule="nonzero"/></clipPath><clipPath id="7cbf7e896d"><path d="M 53 113 L 66 113 L 66 127 L 53 127 Z M 53 113 " clip-rule="nonzero"/></clipPath><clipPath id="7b94390324"><path d="M 38.925781 58.335938 L 84.371094 46.046875 L 103.488281 116.738281 L 58.042969 129.027344 Z M 38.925781 58.335938 " clip-rule="nonzero"/></clipPath><clipPath id="45eda7a681"><path d="M 38.925781 58.335938 L 84.371094 46.046875 L 103.488281 116.738281 L 58.042969 129.027344 Z M 38.925781 58.335938 " clip-rule="nonzero"/></clipPath><clipPath id="4f54f07280"><path d="M 72 48 L 86 48 L 86 53 L 72 53 Z M 72 48 " clip-rule="nonzero"/></clipPath><clipPath id="c4951e864c"><path d="M 38.925781 58.335938 L 84.371094 46.046875 L 103.488281 116.738281 L 58.042969 129.027344 Z M 38.925781 58.335938 " clip-rule="nonzero"/></clipPath><clipPath id="400d91d636"><path d="M 38.925781 58.335938 L 84.371094 46.046875 L 103.488281 116.738281 L 58.042969 129.027344 Z M 38.925781 58.335938 " clip-rule="nonzero"/></clipPath><clipPath id="c2e2254e9e"><path d="M 48 50 L 72 50 L 72 60 L 48 60 Z M 48 50 " clip-rule="nonzero"/></clipPath><clipPath id="e84e4d9786"><path d="M 38.925781 58.335938 L 84.371094 46.046875 L 103.488281 116.738281 L 58.042969 129.027344 Z M 38.925781 58.335938 " clip-rule="nonzero"/></clipPath><clipPath id="0959165668"><path d="M 38.925781 58.335938 L 84.371094 46.046875 L 103.488281 116.738281 L 58.042969 129.027344 Z M 38.925781 58.335938 " clip-rule="nonzero"/></clipPath><clipPath id="0ba8295dd7"><path d="M 47 50 L 72 50 L 72 60 L 47 60 Z M 47 50 " clip-rule="nonzero"/></clipPath><clipPath id="bf4f20cfa3"><path d="M 38.925781 58.335938 L 84.371094 46.046875 L 103.488281 116.738281 L 58.042969 129.027344 Z M 38.925781 58.335938 " clip-rule="nonzero"/></clipPath><clipPath id="a339f55b15"><path d="M 38.925781 58.335938 L 84.371094 46.046875 L 103.488281 116.738281 L 58.042969 129.027344 Z M 38.925781 58.335938 " clip-rule="nonzero"/></clipPath><clipPath id="efae4da492"><path d="M 49 50 L 71 50 L 71 59 L 49 59 Z M 49 50 " clip-rule="nonzero"/></clipPath><clipPath id="fdc6753c5a"><path d="M 38.925781 58.335938 L 84.371094 46.046875 L 103.488281 116.738281 L 58.042969 129.027344 Z M 38.925781 58.335938 " clip-rule="nonzero"/></clipPath><clipPath id="22362dd203"><path d="M 38.925781 58.335938 L 84.371094 46.046875 L 103.488281 116.738281 L 58.042969 129.027344 Z M 38.925781 58.335938 " clip-rule="nonzero"/></clipPath><clipPath id="bb9e2881a9"><path d="M 40 48 L 94 48 L 94 127 L 40 127 Z M 40 48 " clip-rule="nonzero"/></clipPath><clipPath id="d723c61884"><path d="M 38.925781 58.335938 L 84.371094 46.046875 L 103.488281 116.738281 L 58.042969 129.027344 Z M 38.925781 58.335938 " clip-rule="nonzero"/></clipPath><clipPath id="64557bdc47"><path d="M 38.925781 58.335938 L 84.371094 46.046875 L 103.488281 116.738281 L 58.042969 129.027344 Z M 38.925781 58.335938 " clip-rule="nonzero"/></clipPath><clipPath id="0060a0b187"><path d="M 43 48 L 81 48 L 81 125 L 43 125 Z M 43 48 " clip-rule="nonzero"/></clipPath><clipPath id="e8d48385e4"><path d="M 38.925781 58.335938 L 84.371094 46.046875 L 103.488281 116.738281 L 58.042969 129.027344 Z M 38.925781 58.335938 " clip-rule="nonzero"/></clipPath><clipPath id="c1a195f9d7"><path d="M 38.925781 58.335938 L 84.371094 46.046875 L 103.488281 116.738281 L 58.042969 129.027344 Z M 38.925781 58.335938 " clip-rule="nonzero"/></clipPath><clipPath id="65f188af27"><path d="M 43 65 L 49 65 L 49 68 L 43 68 Z M 43 65 " clip-rule="nonzero"/></clipPath><clipPath id="fbb3e8f732"><path d="M 38.925781 58.335938 L 84.371094 46.046875 L 103.488281 116.738281 L 58.042969 129.027344 Z M 38.925781 58.335938 " clip-rule="nonzero"/></clipPath><clipPath id="a2492652a9"><path d="M 38.925781 58.335938 L 84.371094 46.046875 L 103.488281 116.738281 L 58.042969 129.027344 Z M 38.925781 58.335938 " clip-rule="nonzero"/></clipPath><clipPath id="71e4e0cc65"><path d="M 48 78 L 53 78 L 53 87 L 48 87 Z M 48 78 " clip-rule="nonzero"/></clipPath><clipPath id="f161d0c694"><path d="M 38.925781 58.335938 L 84.371094 46.046875 L 103.488281 116.738281 L 58.042969 129.027344 Z M 38.925781 58.335938 " clip-rule="nonzero"/></clipPath><clipPath id="a15da39bd4"><path d="M 38.925781 58.335938 L 84.371094 46.046875 L 103.488281 116.738281 L 58.042969 129.027344 Z M 38.925781 58.335938 " clip-rule="nonzero"/></clipPath><clipPath id="f60b9e356f"><path d="M 44 73 L 46 73 L 46 76 L 44 76 Z M 44 73 " clip-rule="nonzero"/></clipPath><clipPath id="ffd6a3d680"><path d="M 38.925781 58.335938 L 84.371094 46.046875 L 103.488281 116.738281 L 58.042969 129.027344 Z M 38.925781 58.335938 " clip-rule="nonzero"/></clipPath><clipPath id="8dcd1e52cf"><path d="M 38.925781 58.335938 L 84.371094 46.046875 L 103.488281 116.738281 L 58.042969 129.027344 Z M 38.925781 58.335938 " clip-rule="nonzero"/></clipPath><clipPath id="438b3a9082"><path d="M 79 49 L 84 49 L 84 52 L 79 52 Z M 79 49 " clip-rule="nonzero"/></clipPath><clipPath id="76c1c6f781"><path d="M 38.925781 58.335938 L 84.371094 46.046875 L 103.488281 116.738281 L 58.042969 129.027344 Z M 38.925781 58.335938 " clip-rule="nonzero"/></clipPath><clipPath id="0d23bb3dc0"><path d="M 38.925781 58.335938 L 84.371094 46.046875 L 103.488281 116.738281 L 58.042969 129.027344 Z M 38.925781 58.335938 " clip-rule="nonzero"/></clipPath><clipPath id="4a5fde0f21"><path d="M 47 50 L 101 50 L 101 127 L 47 127 Z M 47 50 " clip-rule="nonzero"/></clipPath><clipPath id="2560eb454e"><path d="M 38.925781 58.335938 L 84.371094 46.046875 L 103.488281 116.738281 L 58.042969 129.027344 Z M 38.925781 58.335938 " clip-rule="nonzero"/></clipPath><clipPath id="7447e37fa3"><path d="M 38.925781 58.335938 L 84.371094 46.046875 L 103.488281 116.738281 L 58.042969 129.027344 Z M 38.925781 58.335938 " clip-rule="nonzero"/></clipPath><clipPath id="3488c1798b"><path d="M 82 97 L 101 97 L 101 120 L 82 120 Z M 82 97 " clip-rule="nonzero"/></clipPath><clipPath id="1cfa1ab237"><path d="M 38.925781 58.335938 L 84.371094 46.046875 L 103.488281 116.738281 L 58.042969 129.027344 Z M 38.925781 58.335938 " clip-rule="nonzero"/></clipPath><clipPath id="b086ad68f8"><path d="M 38.925781 58.335938 L 84.371094 46.046875 L 103.488281 116.738281 L 58.042969 129.027344 Z M 38.925781 58.335938 " clip-rule="nonzero"/></clipPath><clipPath id="d28f2e122d"><path d="M 82 87 L 94 87 L 94 101 L 82 101 Z M 82 87 " clip-rule="nonzero"/></clipPath><clipPath id="aae3d1dc3b"><path d="M 38.925781 58.335938 L 84.371094 46.046875 L 103.488281 116.738281 L 58.042969 129.027344 Z M 38.925781 58.335938 " clip-rule="nonzero"/></clipPath><clipPath id="9036ab09a3"><path d="M 38.925781 58.335938 L 84.371094 46.046875 L 103.488281 116.738281 L 58.042969 129.027344 Z M 38.925781 58.335938 " clip-rule="nonzero"/></clipPath><clipPath id="7cfdb89add"><path d="M 51 55 L 92 55 L 92 95 L 51 95 Z M 51 55 " clip-rule="nonzero"/></clipPath><clipPath id="6f6e6a251e"><path d="M 38.925781 58.335938 L 84.371094 46.046875 L 103.488281 116.738281 L 58.042969 129.027344 Z M 38.925781 58.335938 " clip-rule="nonzero"/></clipPath><clipPath id="865017a7c8"><path d="M 38.925781 58.335938 L 84.371094 46.046875 L 103.488281 116.738281 L 58.042969 129.027344 Z M 38.925781 58.335938 " clip-rule="nonzero"/></clipPath><clipPath id="257b1e5311"><path d="M 51 55 L 91 55 L 91 95 L 51 95 Z M 51 55 " clip-rule="nonzero"/></clipPath><clipPath id="d4d496ce13"><path d="M 38.925781 58.335938 L 84.371094 46.046875 L 103.488281 116.738281 L 58.042969 129.027344 Z M 38.925781 58.335938 " clip-rule="nonzero"/></clipPath><clipPath id="c3e5622625"><path d="M 38.925781 58.335938 L 84.371094 46.046875 L 103.488281 116.738281 L 58.042969 129.027344 Z M 38.925781 58.335938 " clip-rule="nonzero"/></clipPath><clipPath id="224cb6984c"><path d="M 57 61 L 86 61 L 86 91 L 57 91 Z M 57 61 " clip-rule="nonzero"/></clipPath><clipPath id="b4e169366b"><path d="M 38.925781 58.335938 L 84.371094 46.046875 L 103.488281 116.738281 L 58.042969 129.027344 Z M 38.925781 58.335938 " clip-rule="nonzero"/></clipPath><clipPath id="f5ea683039"><path d="M 38.925781 58.335938 L 84.371094 46.046875 L 103.488281 116.738281 L 58.042969 129.027344 Z M 38.925781 58.335938 " clip-rule="nonzero"/></clipPath><clipPath id="5f94cf45ab"><path d="M 59 64 L 70 64 L 70 88 L 59 88 Z M 59 64 " clip-rule="nonzero"/></clipPath><clipPath id="0c66bcd64a"><path d="M 38.925781 58.335938 L 84.371094 46.046875 L 103.488281 116.738281 L 58.042969 129.027344 Z M 38.925781 58.335938 " clip-rule="nonzero"/></clipPath><clipPath id="d572a64439"><path d="M 38.925781 58.335938 L 84.371094 46.046875 L 103.488281 116.738281 L 58.042969 129.027344 Z M 38.925781 58.335938 " clip-rule="nonzero"/></clipPath><clipPath id="af62384390"><path d="M 68 61 L 80 61 L 80 89 L 68 89 Z M 68 61 " clip-rule="nonzero"/></clipPath><clipPath id="c47a929f9b"><path d="M 38.925781 58.335938 L 84.371094 46.046875 L 103.488281 116.738281 L 58.042969 129.027344 Z M 38.925781 58.335938 " clip-rule="nonzero"/></clipPath><clipPath id="1302c28482"><path d="M 38.925781 58.335938 L 84.371094 46.046875 L 103.488281 116.738281 L 58.042969 129.027344 Z M 38.925781 58.335938 " clip-rule="nonzero"/></clipPath><clipPath id="544d03b0fc"><path d="M 75 68 L 83 68 L 83 87 L 75 87 Z M 75 68 " clip-rule="nonzero"/></clipPath><clipPath id="3ad812ad5e"><path d="M 38.925781 58.335938 L 84.371094 46.046875 L 103.488281 116.738281 L 58.042969 129.027344 Z M 38.925781 58.335938 " clip-rule="nonzero"/></clipPath><clipPath id="997c4d84fb"><path d="M 38.925781 58.335938 L 84.371094 46.046875 L 103.488281 116.738281 L 58.042969 129.027344 Z M 38.925781 58.335938 " clip-rule="nonzero"/></clipPath><clipPath id="75d58e38bf"><path d="M 57 60 L 86 60 L 86 91 L 57 91 Z M 57 60 " clip-rule="nonzero"/></clipPath><clipPath id="08f02cc1e1"><path d="M 38.925781 58.335938 L 84.371094 46.046875 L 103.488281 116.738281 L 58.042969 129.027344 Z M 38.925781 58.335938 " clip-rule="nonzero"/></clipPath><clipPath id="75fd1e0625"><path d="M 38.925781 58.335938 L 84.371094 46.046875 L 103.488281 116.738281 L 58.042969 129.027344 Z M 38.925781 58.335938 " clip-rule="nonzero"/></clipPath><clipPath id="30724078a2"><path d="M 62 95 L 74 95 L 74 108 L 62 108 Z M 62 95 " clip-rule="nonzero"/></clipPath><clipPath id="bcd3fe2ceb"><path d="M 38.925781 58.335938 L 84.371094 46.046875 L 103.488281 116.738281 L 58.042969 129.027344 Z M 38.925781 58.335938 " clip-rule="nonzero"/></clipPath><clipPath id="2e38574971"><path d="M 38.925781 58.335938 L 84.371094 46.046875 L 103.488281 116.738281 L 58.042969 129.027344 Z M 38.925781 58.335938 " clip-rule="nonzero"/></clipPath><clipPath id="4dba628ed4"><path d="M 66 99 L 70 99 L 70 104 L 66 104 Z M 66 99 " clip-rule="nonzero"/></clipPath><clipPath id="a129258662"><path d="M 38.925781 58.335938 L 84.371094 46.046875 L 103.488281 116.738281 L 58.042969 129.027344 Z M 38.925781 58.335938 " clip-rule="nonzero"/></clipPath><clipPath id="63ad1f2cea"><path d="M 38.925781 58.335938 L 84.371094 46.046875 L 103.488281 116.738281 L 58.042969 129.027344 Z M 38.925781 58.335938 " clip-rule="nonzero"/></clipPath><clipPath id="c8bca55aac"><path d="M 71 108 L 76 108 L 76 113 L 71 113 Z M 71 108 " clip-rule="nonzero"/></clipPath><clipPath id="c739d3b79a"><path d="M 38.925781 58.335938 L 84.371094 46.046875 L 103.488281 116.738281 L 58.042969 129.027344 Z M 38.925781 58.335938 " clip-rule="nonzero"/></clipPath><clipPath id="e536e7bb95"><path d="M 38.925781 58.335938 L 84.371094 46.046875 L 103.488281 116.738281 L 58.042969 129.027344 Z M 38.925781 58.335938 " clip-rule="nonzero"/></clipPath><clipPath id="c4f549f74c"><path d="M 71 108 L 76 108 L 76 114 L 71 114 Z M 71 108 " clip-rule="nonzero"/></clipPath><clipPath id="6e840cef85"><path d="M 38.925781 58.335938 L 84.371094 46.046875 L 103.488281 116.738281 L 58.042969 129.027344 Z M 38.925781 58.335938 " clip-rule="nonzero"/></clipPath><clipPath id="33ab8808a4"><path d="M 38.925781 58.335938 L 84.371094 46.046875 L 103.488281 116.738281 L 58.042969 129.027344 Z M 38.925781 58.335938 " clip-rule="nonzero"/></clipPath><clipPath id="1e2dca5d13"><path d="M 75 107 L 80 107 L 80 112 L 75 112 Z M 75 107 " clip-rule="nonzero"/></clipPath><clipPath id="e87d3e9b5e"><path d="M 38.925781 58.335938 L 84.371094 46.046875 L 103.488281 116.738281 L 58.042969 129.027344 Z M 38.925781 58.335938 " clip-rule="nonzero"/></clipPath><clipPath id="e98b1b2253"><path d="M 38.925781 58.335938 L 84.371094 46.046875 L 103.488281 116.738281 L 58.042969 129.027344 Z M 38.925781 58.335938 " clip-rule="nonzero"/></clipPath><clipPath id="075faa05e8"><path d="M 75 107 L 80 107 L 80 113 L 75 113 Z M 75 107 " clip-rule="nonzero"/></clipPath><clipPath id="bc84929926"><path d="M 38.925781 58.335938 L 84.371094 46.046875 L 103.488281 116.738281 L 58.042969 129.027344 Z M 38.925781 58.335938 " clip-rule="nonzero"/></clipPath><clipPath id="278e6a0154"><path d="M 38.925781 58.335938 L 84.371094 46.046875 L 103.488281 116.738281 L 58.042969 129.027344 Z M 38.925781 58.335938 " clip-rule="nonzero"/></clipPath><clipPath id="bda355f35f"><path d="M 84 109 L 90 109 L 90 114 L 84 114 Z M 84 109 " clip-rule="nonzero"/></clipPath><clipPath id="269787ae01"><path d="M 38.925781 58.335938 L 84.371094 46.046875 L 103.488281 116.738281 L 58.042969 129.027344 Z M 38.925781 58.335938 " clip-rule="nonzero"/></clipPath><clipPath id="7b2ac84065"><path d="M 38.925781 58.335938 L 84.371094 46.046875 L 103.488281 116.738281 L 58.042969 129.027344 Z M 38.925781 58.335938 " clip-rule="nonzero"/></clipPath><clipPath id="375d177b7e"><path d="M 86 107 L 92 107 L 92 112 L 86 112 Z M 86 107 " clip-rule="nonzero"/></clipPath><clipPath id="1ccb3b22d2"><path d="M 38.925781 58.335938 L 84.371094 46.046875 L 103.488281 116.738281 L 58.042969 129.027344 Z M 38.925781 58.335938 " clip-rule="nonzero"/></clipPath><clipPath id="03e944dfb2"><path d="M 38.925781 58.335938 L 84.371094 46.046875 L 103.488281 116.738281 L 58.042969 129.027344 Z M 38.925781 58.335938 " clip-rule="nonzero"/></clipPath><clipPath id="28195c5e06"><path d="M 87 105 L 93 105 L 93 110 L 87 110 Z M 87 105 " clip-rule="nonzero"/></clipPath><clipPath id="edd451ae99"><path d="M 38.925781 58.335938 L 84.371094 46.046875 L 103.488281 116.738281 L 58.042969 129.027344 Z M 38.925781 58.335938 " clip-rule="nonzero"/></clipPath><clipPath id="3189a664a7"><path d="M 38.925781 58.335938 L 84.371094 46.046875 L 103.488281 116.738281 L 58.042969 129.027344 Z M 38.925781 58.335938 " clip-rule="nonzero"/></clipPath><clipPath id="e60aa44f11"><path d="M 88 103 L 95 103 L 95 108 L 88 108 Z M 88 103 " clip-rule="nonzero"/></clipPath><clipPath id="24e28a8e70"><path d="M 38.925781 58.335938 L 84.371094 46.046875 L 103.488281 116.738281 L 58.042969 129.027344 Z M 38.925781 58.335938 " clip-rule="nonzero"/></clipPath><clipPath id="05b7b355e7"><path d="M 38.925781 58.335938 L 84.371094 46.046875 L 103.488281 116.738281 L 58.042969 129.027344 Z M 38.925781 58.335938 " clip-rule="nonzero"/></clipPath><clipPath id="8504a18090"><path d="M 90 101 L 96 101 L 96 106 L 90 106 Z M 90 101 " clip-rule="nonzero"/></clipPath><clipPath id="ccc7fe67b8"><path d="M 38.925781 58.335938 L 84.371094 46.046875 L 103.488281 116.738281 L 58.042969 129.027344 Z M 38.925781 58.335938 " clip-rule="nonzero"/></clipPath><clipPath id="9f90d6c452"><path d="M 38.925781 58.335938 L 84.371094 46.046875 L 103.488281 116.738281 L 58.042969 129.027344 Z M 38.925781 58.335938 " clip-rule="nonzero"/></clipPath><clipPath id="0ce29e32a2"><path d="M 91 99 L 97 99 L 97 104 L 91 104 Z M 91 99 " clip-rule="nonzero"/></clipPath><clipPath id="b7b506a3cb"><path d="M 38.925781 58.335938 L 84.371094 46.046875 L 103.488281 116.738281 L 58.042969 129.027344 Z M 38.925781 58.335938 " clip-rule="nonzero"/></clipPath><clipPath id="73abc8e305"><path d="M 38.925781 58.335938 L 84.371094 46.046875 L 103.488281 116.738281 L 58.042969 129.027344 Z M 38.925781 58.335938 " clip-rule="nonzero"/></clipPath><clipPath id="a250730f40"><path d="M 83 95 L 88 95 L 88 100 L 83 100 Z M 83 95 " clip-rule="nonzero"/></clipPath><clipPath id="8a0ed90b7e"><path d="M 38.925781 58.335938 L 84.371094 46.046875 L 103.488281 116.738281 L 58.042969 129.027344 Z M 38.925781 58.335938 " clip-rule="nonzero"/></clipPath><clipPath id="b8072aac18"><path d="M 38.925781 58.335938 L 84.371094 46.046875 L 103.488281 116.738281 L 58.042969 129.027344 Z M 38.925781 58.335938 " clip-rule="nonzero"/></clipPath><clipPath id="24a3ada53e"><path d="M 83 95 L 89 95 L 89 100 L 83 100 Z M 83 95 " clip-rule="nonzero"/></clipPath><clipPath id="0c36d71b78"><path d="M 38.925781 58.335938 L 84.371094 46.046875 L 103.488281 116.738281 L 58.042969 129.027344 Z M 38.925781 58.335938 " clip-rule="nonzero"/></clipPath><clipPath id="08edeafdaa"><path d="M 38.925781 58.335938 L 84.371094 46.046875 L 103.488281 116.738281 L 58.042969 129.027344 Z M 38.925781 58.335938 " clip-rule="nonzero"/></clipPath><clipPath id="991fc73a22"><path d="M 88 88 L 93 88 L 93 94 L 88 94 Z M 88 88 " clip-rule="nonzero"/></clipPath><clipPath id="1816f64f22"><path d="M 38.925781 58.335938 L 84.371094 46.046875 L 103.488281 116.738281 L 58.042969 129.027344 Z M 38.925781 58.335938 " clip-rule="nonzero"/></clipPath><clipPath id="e0626709d1"><path d="M 38.925781 58.335938 L 84.371094 46.046875 L 103.488281 116.738281 L 58.042969 129.027344 Z M 38.925781 58.335938 " clip-rule="nonzero"/></clipPath><clipPath id="9d2d9bee8c"><path d="M 61 60 L 75 60 L 75 66 L 61 66 Z M 61 60 " clip-rule="nonzero"/></clipPath><clipPath id="abacbafd2c"><path d="M 38.925781 58.335938 L 84.371094 46.046875 L 103.488281 116.738281 L 58.042969 129.027344 Z M 38.925781 58.335938 " clip-rule="nonzero"/></clipPath><clipPath id="d496e636f3"><path d="M 38.925781 58.335938 L 84.371094 46.046875 L 103.488281 116.738281 L 58.042969 129.027344 Z M 38.925781 58.335938 " clip-rule="nonzero"/></clipPath><clipPath id="48e013ccd0"><path d="M 55 73 L 57 73 L 57 75 L 55 75 Z M 55 73 " clip-rule="nonzero"/></clipPath><clipPath id="4911a250a1"><path d="M 38.925781 58.335938 L 84.371094 46.046875 L 103.488281 116.738281 L 58.042969 129.027344 Z M 38.925781 58.335938 " clip-rule="nonzero"/></clipPath><clipPath id="e2da16301f"><path d="M 38.925781 58.335938 L 84.371094 46.046875 L 103.488281 116.738281 L 58.042969 129.027344 Z M 38.925781 58.335938 " clip-rule="nonzero"/></clipPath><clipPath id="e19c48eb12"><path d="M 54 75 L 58 75 L 58 77 L 54 77 Z M 54 75 " clip-rule="nonzero"/></clipPath><clipPath id="73dfea68c6"><path d="M 38.925781 58.335938 L 84.371094 46.046875 L 103.488281 116.738281 L 58.042969 129.027344 Z M 38.925781 58.335938 " clip-rule="nonzero"/></clipPath><clipPath id="db6e0879bb"><path d="M 38.925781 58.335938 L 84.371094 46.046875 L 103.488281 116.738281 L 58.042969 129.027344 Z M 38.925781 58.335938 " clip-rule="nonzero"/></clipPath><clipPath id="0fb435ca43"><path d="M 48 52 L 87 52 L 87 68 L 48 68 Z M 48 52 " clip-rule="nonzero"/></clipPath><clipPath id="cdf61515bb"><path d="M 38.925781 58.335938 L 84.371094 46.046875 L 103.488281 116.738281 L 58.042969 129.027344 Z M 38.925781 58.335938 " clip-rule="nonzero"/></clipPath><clipPath id="6c4ede6e5f"><path d="M 38.925781 58.335938 L 84.371094 46.046875 L 103.488281 116.738281 L 58.042969 129.027344 Z M 38.925781 58.335938 " clip-rule="nonzero"/></clipPath><clipPath id="0274941ce6"><path d="M 47 50 L 101 50 L 101 127 L 47 127 Z M 47 50 " clip-rule="nonzero"/></clipPath><clipPath id="fda15518dc"><path d="M 38.925781 58.335938 L 84.371094 46.046875 L 103.488281 116.738281 L 58.042969 129.027344 Z M 38.925781 58.335938 " clip-rule="nonzero"/></clipPath><clipPath id="dc873075b1"><path d="M 38.925781 58.335938 L 84.371094 46.046875 L 103.488281 116.738281 L 58.042969 129.027344 Z M 38.925781 58.335938 " clip-rule="nonzero"/></clipPath><clipPath id="59ebd1c9a7"><path d="M 45 60 L 49 60 L 49 62 L 45 62 Z M 45 60 " clip-rule="nonzero"/></clipPath><clipPath id="344d0686f8"><path d="M 38.925781 58.335938 L 84.371094 46.046875 L 103.488281 116.738281 L 58.042969 129.027344 Z M 38.925781 58.335938 " clip-rule="nonzero"/></clipPath><clipPath id="4b5401d575"><path d="M 38.925781 58.335938 L 84.371094 46.046875 L 103.488281 116.738281 L 58.042969 129.027344 Z M 38.925781 58.335938 " clip-rule="nonzero"/></clipPath><clipPath id="6e8fc5477b"><path d="M 45 60 L 48 60 L 48 62 L 45 62 Z M 45 60 " clip-rule="nonzero"/></clipPath><clipPath id="6f304c12d6"><path d="M 38.925781 58.335938 L 84.371094 46.046875 L 103.488281 116.738281 L 58.042969 129.027344 Z M 38.925781 58.335938 " clip-rule="nonzero"/></clipPath><clipPath id="e461a3df5b"><path d="M 38.925781 58.335938 L 84.371094 46.046875 L 103.488281 116.738281 L 58.042969 129.027344 Z M 38.925781 58.335938 " clip-rule="nonzero"/></clipPath><clipPath id="156384bc11"><path d="M 52 60 L 56 60 L 56 63 L 52 63 Z M 52 60 " clip-rule="nonzero"/></clipPath><clipPath id="c93effca92"><path d="M 38.925781 58.335938 L 84.371094 46.046875 L 103.488281 116.738281 L 58.042969 129.027344 Z M 38.925781 58.335938 " clip-rule="nonzero"/></clipPath><clipPath id="f249fff8b1"><path d="M 38.925781 58.335938 L 84.371094 46.046875 L 103.488281 116.738281 L 58.042969 129.027344 Z M 38.925781 58.335938 " clip-rule="nonzero"/></clipPath><clipPath id="6ed1d28be0"><path d="M 50 61 L 54 61 L 54 63 L 50 63 Z M 50 61 " clip-rule="nonzero"/></clipPath><clipPath id="a838a83ae8"><path d="M 38.925781 58.335938 L 84.371094 46.046875 L 103.488281 116.738281 L 58.042969 129.027344 Z M 38.925781 58.335938 " clip-rule="nonzero"/></clipPath><clipPath id="fe075bde6a"><path d="M 38.925781 58.335938 L 84.371094 46.046875 L 103.488281 116.738281 L 58.042969 129.027344 Z M 38.925781 58.335938 " clip-rule="nonzero"/></clipPath><clipPath id="3ed36463aa"><path d="M 49 61 L 53 61 L 53 64 L 49 64 Z M 49 61 " clip-rule="nonzero"/></clipPath><clipPath id="3463e89979"><path d="M 38.925781 58.335938 L 84.371094 46.046875 L 103.488281 116.738281 L 58.042969 129.027344 Z M 38.925781 58.335938 " clip-rule="nonzero"/></clipPath><clipPath id="249441ef5d"><path d="M 38.925781 58.335938 L 84.371094 46.046875 L 103.488281 116.738281 L 58.042969 129.027344 Z M 38.925781 58.335938 " clip-rule="nonzero"/></clipPath></defs><g clip-path="url(#a67cfe0a00)"><g clip-path="url(#8549fd4108)"><path fill="#ffa52d" d="M 0 0.796875 L 135.921875 0.796875 L 135.921875 44.730469 L 0 44.730469 Z M 0 0.796875 " fill-opacity="1" fill-rule="nonzero"/></g></g><g clip-path="url(#913a958915)"><g clip-path="url(#cd29b12045)"><path stroke-linecap="butt" transform="matrix(0.747263, 0, 0, 0.747263, 0.010727, 0.796574)" fill="none" stroke-linejoin="miter" d="M 29.389836 0.000402706 L 152.500609 0.000402706 C 160.299907 0.000402706 167.775106 3.09503 173.284798 8.60995 C 178.794489 14.119642 181.894345 21.59484 181.894345 29.388911 C 181.894345 37.182982 178.794489 44.663408 173.284798 50.1731 C 167.775106 55.682792 160.299907 58.782647 152.500609 58.782647 L 29.389836 58.782647 C 21.595765 58.782647 14.120566 55.682792 8.610874 50.1731 C 3.095955 44.663408 0.00132724 37.182982 0.00132724 29.388911 C 0.00132724 21.59484 3.095955 14.119642 8.610874 8.60995 C 14.120566 3.09503 21.595765 0.000402706 29.389836 0.000402706 Z M 29.389836 0.000402706 " stroke="#0f0d10" stroke-width="4" stroke-opacity="1" stroke-miterlimit="4"/></g></g><g clip-path="url(#761d21ddc6)"><g clip-path="url(#b921a37f7e)"><g clip-path="url(#a8a09c3631)"><path fill="#ffa52d" d="M 81.152344 55.832031 L 92.972656 99.398438 L 93.214844 100.292969 C 93.351562 100.796875 93.484375 101.367188 93.550781 101.609375 C 94.796875 106.214844 92.175781 111.449219 87.6875 113.152344 L 66.070312 121.464844 C 65.882812 122.3125 65.6875 123.171875 65.523438 123.9375 C 65.210938 125.34375 64.980469 126.410156 64.980469 126.410156 C 64.980469 126.410156 57.265625 123.578125 57.121094 123.449219 C 56.746094 123.234375 56.441406 122.902344 56.28125 122.480469 C 56.261719 122.421875 56.238281 122.355469 56.222656 122.292969 L 40.625 64.058594 C 40.585938 63.914062 40.558594 63.777344 40.558594 63.640625 C 40.511719 62.464844 41.433594 61.492188 42.53125 61.070312 L 76.257812 48.292969 C 76.257812 48.292969 76.4375 48.222656 76.480469 48.210938 C 76.699219 48.144531 76.890625 48.101562 77.070312 48.078125 C 77.3125 48.042969 77.523438 48.046875 77.722656 48.074219 C 77.894531 48.097656 78.222656 48.199219 78.222656 48.199219 L 78.703125 48.367188 L 85.078125 50.617188 Z M 81.152344 55.832031 " fill-opacity="1" fill-rule="nonzero"/></g></g></g><g clip-path="url(#e7a7f52182)"><g clip-path="url(#348f9b15fc)"><g clip-path="url(#654e4d3778)"><path fill="#000000" d="M 52.710938 65.011719 C 52.261719 64.632812 51.753906 64.246094 51.210938 63.929688 C 50.425781 63.964844 49.816406 63.519531 49.011719 63.476562 C 48.195312 63.4375 47.492188 63.726562 46.699219 63.792969 C 46.507812 63.808594 46.292969 63.757812 46.144531 63.636719 C 45.957031 63.484375 45.933594 63.25 45.929688 63.023438 C 45.921875 62.792969 45.945312 62.5625 45.933594 62.332031 C 45.925781 62.226562 45.925781 62.0625 45.832031 61.988281 C 45.703125 61.882812 45.4375 61.972656 45.300781 62.027344 C 45.246094 62.046875 45.1875 62.097656 45.132812 62.113281 C 44.859375 62.199219 44.480469 62.371094 44.195312 62.34375 C 43.804688 62.3125 43.953125 61.753906 43.855469 61.488281 C 43.71875 61.105469 43.378906 60.894531 42.972656 60.925781 C 42.957031 60.925781 42.945312 60.921875 42.929688 60.921875 L 42.53125 61.070312 C 41.433594 61.492188 40.511719 62.464844 40.558594 63.640625 C 40.558594 63.777344 40.585938 63.917969 40.625 64.058594 L 41.414062 67.003906 C 42.007812 67.09375 42.148438 65.042969 43.175781 65.941406 C 43.523438 66.246094 43.644531 66.878906 43.808594 67.28125 C 44.011719 67.773438 44.539062 68.488281 44.941406 67.667969 C 45.054688 67.433594 45.148438 67.191406 45.242188 66.949219 C 45.464844 66.40625 46.324219 66.5625 46.757812 67.199219 C 47.421875 68.167969 48.0625 69.039062 48.335938 69.746094 C 48.734375 70.78125 49.703125 69.832031 50.402344 69.898438 C 50.464844 69.855469 50.546875 69.839844 50.632812 69.890625 C 50.652344 69.902344 50.671875 69.910156 50.691406 69.917969 C 50.875 69.929688 51.0625 69.941406 51.25 69.9375 C 51.316406 69.9375 51.367188 69.964844 51.402344 70 C 52.171875 69.84375 52.964844 69.035156 53.367188 68.523438 C 54.320312 67.308594 53.792969 65.9375 52.710938 65.011719 Z M 52.710938 65.011719 " fill-opacity="1" fill-rule="nonzero"/></g></g></g><g clip-path="url(#7cbf7e896d)"><g clip-path="url(#7b94390324)"><g clip-path="url(#45eda7a681)"><path fill="#000000" d="M 65.519531 123.9375 C 65.210938 125.34375 64.980469 126.410156 64.980469 126.410156 C 64.980469 126.410156 57.261719 123.578125 57.121094 123.449219 C 56.746094 123.234375 56.441406 122.902344 56.28125 122.480469 L 53.859375 113.484375 C 54.480469 113.75 54.839844 114.175781 55.195312 114.804688 C 55.414062 115.199219 55.457031 115.742188 55.808594 116.0625 C 56.1875 116.410156 56.667969 116.398438 56.863281 115.855469 C 56.914062 115.730469 57.019531 114.875 57.355469 115.1875 C 57.503906 115.332031 57.75 115.542969 57.847656 115.726562 C 58.074219 116.160156 58.257812 116.601562 58.546875 117 C 58.804688 117.367188 59.390625 117.652344 59.75 117.21875 C 60.085938 116.820312 60.675781 115.832031 61.1875 116.707031 C 61.671875 117.546875 62.140625 118.398438 62.640625 119.234375 C 63.582031 120.8125 64.570312 122.363281 65.519531 123.9375 Z M 65.519531 123.9375 " fill-opacity="1" fill-rule="nonzero"/></g></g></g><g clip-path="url(#4f54f07280)"><g clip-path="url(#c4951e864c)"><g clip-path="url(#400d91d636)"><path fill="#000000" d="M 76.058594 49.238281 C 76.339844 49.15625 76.882812 48.960938 77.117188 49.226562 C 77.261719 49.386719 77.289062 49.597656 77.175781 49.777344 C 76.664062 50.609375 77.542969 50.726562 78.152344 50.613281 C 78.632812 50.523438 79.347656 50.292969 79.855469 50.421875 C 80.511719 50.59375 80.507812 50.855469 80.339844 51.441406 C 79.960938 52.773438 82.410156 52.582031 83.125 52.664062 C 83.25 52.675781 83.375 52.691406 83.496094 52.703125 L 85.066406 50.621094 L 78.703125 48.367188 L 78.222656 48.199219 C 78.222656 48.199219 77.894531 48.101562 77.71875 48.074219 C 77.523438 48.046875 77.3125 48.042969 77.070312 48.078125 C 76.894531 48.101562 76.699219 48.144531 76.480469 48.210938 C 76.4375 48.222656 76.253906 48.289062 76.253906 48.289062 L 72.789062 49.605469 C 73.753906 50.089844 75.019531 49.546875 76.058594 49.238281 Z M 76.058594 49.238281 " fill-opacity="1" fill-rule="nonzero"/></g></g></g><g clip-path="url(#c2e2254e9e)"><g clip-path="url(#e84e4d9786)"><g clip-path="url(#0959165668)"><path fill="#000000" d="M 70.332031 50.746094 L 71.472656 51.164062 C 71.679688 51.238281 71.683594 51.367188 71.472656 51.445312 L 49.980469 59.609375 C 49.777344 59.6875 49.433594 59.695312 49.226562 59.625 L 48.035156 59.226562 " fill-opacity="1" fill-rule="nonzero"/></g></g></g><g clip-path="url(#0ba8295dd7)"><g clip-path="url(#bf4f20cfa3)"><g clip-path="url(#a339f55b15)"><path fill="#000000" d="M 49.960938 59.855469 C 49.714844 59.921875 49.382812 59.917969 49.152344 59.839844 L 47.964844 59.441406 L 48.109375 59.007812 L 49.300781 59.410156 C 49.457031 59.460938 49.742188 59.453125 49.894531 59.394531 L 71.195312 51.304688 L 70.253906 50.960938 L 70.410156 50.53125 L 71.550781 50.953125 C 71.828125 51.046875 71.859375 51.226562 71.859375 51.300781 C 71.859375 51.375 71.832031 51.554688 71.554688 51.65625 L 50.058594 59.820312 C 50.03125 59.832031 49.996094 59.84375 49.960938 59.855469 Z M 49.960938 59.855469 " fill-opacity="1" fill-rule="nonzero"/></g></g></g><g clip-path="url(#efae4da492)"><g clip-path="url(#fdc6753c5a)"><g clip-path="url(#22362dd203)"><path fill="#0fa54d" d="M 70.785156 51.5625 L 51.472656 58.898438 C 51.269531 58.980469 50.925781 58.984375 50.71875 58.910156 L 49.484375 58.496094 L 69.609375 50.855469 L 70.785156 51.285156 C 70.992188 51.359375 70.996094 51.488281 70.785156 51.5625 Z M 70.785156 51.5625 " fill-opacity="1" fill-rule="nonzero"/></g></g></g><g clip-path="url(#bb9e2881a9)"><g clip-path="url(#d723c61884)"><g clip-path="url(#64557bdc47)"><path fill="#000000" d="M 76.726562 48.617188 C 76.875 48.574219 77.007812 48.546875 77.132812 48.53125 C 77.324219 48.503906 77.488281 48.503906 77.652344 48.527344 C 77.753906 48.542969 77.964844 48.597656 78.082031 48.632812 L 78.550781 48.796875 L 84.328125 50.84375 L 80.738281 55.566406 L 80.566406 55.757812 L 80.625 55.972656 L 92.46875 99.53125 L 92.726562 100.425781 L 92.863281 100.898438 C 92.957031 101.246094 93.042969 101.566406 93.089844 101.734375 C 94.292969 106.175781 91.792969 111.105469 87.511719 112.726562 L 65.902344 121.042969 L 65.671875 121.128906 L 65.621094 121.371094 C 65.234375 123.117188 64.832031 124.9375 64.644531 125.800781 C 61.742188 124.734375 57.75 123.25 57.359375 123.0625 L 57.351562 123.058594 C 57.003906 122.851562 56.757812 122.539062 56.664062 122.175781 C 56.640625 122.101562 54.65625 114.632812 54.355469 113.566406 C 54.058594 112.507812 41.195312 64.421875 41.066406 63.9375 C 41.039062 63.84375 41.015625 63.738281 41.015625 63.648438 L 41.019531 63.632812 L 41.007812 63.59375 C 40.96875 62.683594 42.0625 61.570312 43.050781 61.304688 L 43.0625 61.300781 L 43.085938 61.320312 L 76.382812 48.714844 C 76.382812 48.714844 76.5625 48.65625 76.609375 48.640625 C 76.648438 48.628906 76.6875 48.625 76.726562 48.617188 M 76.605469 48.175781 C 76.566406 48.1875 76.523438 48.199219 76.480469 48.210938 C 76.4375 48.222656 76.226562 48.300781 76.226562 48.300781 L 42.929688 60.921875 C 41.816406 61.261719 40.507812 62.464844 40.5625 63.640625 C 40.558594 63.777344 40.585938 63.914062 40.625 64.054688 C 40.625 64.054688 53.613281 112.617188 53.917969 113.691406 C 54.21875 114.761719 56.222656 122.292969 56.222656 122.292969 C 56.355469 122.800781 56.695312 123.199219 57.117188 123.449219 C 57.265625 123.578125 64.980469 126.410156 64.980469 126.410156 C 64.980469 126.410156 65.53125 123.867188 66.066406 121.46875 L 87.679688 113.152344 C 92.167969 111.449219 94.78125 106.21875 93.535156 101.613281 C 93.46875 101.367188 93.320312 100.804688 93.183594 100.300781 L 92.945312 99.40625 L 81.140625 55.832031 L 85.066406 50.621094 L 78.703125 48.367188 L 78.222656 48.199219 C 78.222656 48.199219 77.894531 48.101562 77.71875 48.074219 C 77.523438 48.046875 77.3125 48.042969 77.070312 48.078125 C 76.925781 48.097656 76.773438 48.128906 76.605469 48.175781 Z M 76.605469 48.175781 " fill-opacity="1" fill-rule="nonzero"/></g></g></g><g clip-path="url(#0060a0b187)"><g clip-path="url(#e8d48385e4)"><g clip-path="url(#c1a195f9d7)"><path fill="#000000" d="M 59.707031 124.027344 L 59.375 124.117188 L 43.582031 65.148438 C 43.542969 65.011719 43.507812 64.851562 43.511719 64.683594 C 43.453125 63.375 44.515625 62.371094 45.59375 61.960938 L 79.316406 49.179688 L 80.125 48.941406 L 80.222656 49.269531 L 79.425781 49.503906 L 45.714844 62.28125 C 44.75 62.648438 43.800781 63.53125 43.851562 64.679688 C 43.851562 64.816406 43.878906 64.941406 43.910156 65.058594 Z M 59.707031 124.027344 " fill-opacity="1" fill-rule="nonzero"/></g></g></g><g clip-path="url(#65f188af27)"><g clip-path="url(#fbb3e8f732)"><g clip-path="url(#a2492652a9)"><path fill="#000000" d="M 48.078125 67.359375 L 43.765625 65.695312 L 43.929688 65.269531 L 48.242188 66.933594 Z M 48.078125 67.359375 " fill-opacity="1" fill-rule="nonzero"/></g></g></g><g clip-path="url(#71e4e0cc65)"><g clip-path="url(#f161d0c694)"><g clip-path="url(#a15da39bd4)"><path fill="#000000" d="M 52.28125 86.191406 C 52.300781 86.269531 52.269531 86.304688 52.195312 86.273438 L 50.382812 85.539062 C 50.308594 85.507812 50.257812 85.414062 50.238281 85.335938 L 48.546875 79.078125 C 48.527344 79 48.546875 78.96875 48.621094 78.996094 L 50.441406 79.730469 C 50.515625 79.761719 50.566406 79.855469 50.589844 79.929688 Z M 52.28125 86.191406 " fill-opacity="1" fill-rule="nonzero"/></g></g></g><g clip-path="url(#f60b9e356f)"><g clip-path="url(#ffd6a3d680)"><g clip-path="url(#8dcd1e52cf)"><path fill="#000000" d="M 45.660156 75.171875 C 45.8125 75.742188 45.660156 76.09375 45.316406 75.960938 C 44.96875 75.828125 44.566406 75.257812 44.410156 74.6875 C 44.257812 74.117188 44.410156 73.761719 44.757812 73.898438 C 45.101562 74.03125 45.507812 74.601562 45.660156 75.171875 Z M 45.660156 75.171875 " fill-opacity="1" fill-rule="nonzero"/></g></g></g><g clip-path="url(#438b3a9082)"><g clip-path="url(#76c1c6f781)"><g clip-path="url(#0d23bb3dc0)"><path fill="#000000" d="M 83.164062 51.136719 L 79.042969 49.714844 L 79.195312 49.285156 L 83.3125 50.707031 Z M 83.164062 51.136719 " fill-opacity="1" fill-rule="nonzero"/></g></g></g><g clip-path="url(#4a5fde0f21)"><g clip-path="url(#2560eb454e)"><g clip-path="url(#7447e37fa3)"><path fill="#faf5e5" d="M 99.496094 101.972656 L 86.144531 52.160156 C 85.820312 50.945312 84.644531 50.539062 83.464844 50.980469 L 49.546875 63.738281 C 48.363281 64.179688 47.320312 65.203125 47.644531 66.414062 L 63.414062 124.605469 C 63.738281 125.820312 64.800781 126.46875 65.980469 126.023438 L 92.089844 116.15625 C 92.367188 116.050781 93.859375 115.484375 94.289062 115.324219 C 98.667969 113.679688 101.265625 108.6875 100.0625 104.191406 C 99.945312 103.75 99.574219 102.257812 99.496094 101.972656 Z M 99.496094 101.972656 " fill-opacity="1" fill-rule="nonzero"/></g></g></g><g clip-path="url(#3488c1798b)"><g clip-path="url(#1cfa1ab237)"><g clip-path="url(#b086ad68f8)"><path fill="#ffa52d" d="M 98.554688 97.71875 L 100.152344 103.625 C 101.363281 108.117188 99.101562 113.652344 94.730469 115.308594 L 92.566406 116.125 L 82.664062 119.90625 Z M 98.554688 97.71875 " fill-opacity="1" fill-rule="nonzero"/></g></g></g><g clip-path="url(#d28f2e122d)"><g clip-path="url(#aae3d1dc3b)"><g clip-path="url(#9036ab09a3)"><path fill="#000000" d="M 86.769531 100.539062 C 85.578125 100.972656 84.34375 100.804688 83.472656 100.046875 C 82.027344 98.789062 81.992188 96.347656 83.394531 94.601562 L 87.582031 89.386719 C 88.089844 88.753906 88.734375 88.277344 89.445312 88.007812 C 90.636719 87.554688 91.871094 87.738281 92.742188 88.496094 C 94.1875 89.753906 94.222656 92.195312 92.820312 93.941406 L 88.632812 99.15625 C 88.125 99.792969 87.480469 100.269531 86.769531 100.539062 Z M 89.566406 88.445312 C 88.933594 88.6875 88.363281 89.109375 87.910156 89.671875 L 83.726562 94.886719 C 82.488281 96.429688 82.511719 98.574219 83.773438 99.675781 C 84.53125 100.335938 85.605469 100.492188 86.648438 100.097656 C 87.28125 99.859375 87.851562 99.433594 88.304688 98.871094 L 92.492188 93.65625 C 93.726562 92.117188 93.703125 89.96875 92.441406 88.871094 C 91.683594 88.210938 90.609375 88.050781 89.566406 88.445312 Z M 89.566406 88.445312 " fill-opacity="1" fill-rule="nonzero"/></g></g></g><g clip-path="url(#7cfdb89add)"><g clip-path="url(#6f6e6a251e)"><g clip-path="url(#865017a7c8)"><path fill="#0fa54d" d="M 90.972656 80.285156 C 91.300781 81.503906 90.585938 82.859375 89.398438 83.308594 L 60.640625 94.207031 C 59.453125 94.65625 58.222656 94.03125 57.890625 92.816406 L 51.40625 69.710938 C 51.074219 68.496094 52.015625 67.054688 53.199219 66.605469 L 81.800781 55.941406 C 82.984375 55.492188 84.445312 56.148438 84.773438 57.363281 Z M 90.972656 80.285156 " fill-opacity="1" fill-rule="nonzero"/></g></g></g><g clip-path="url(#257b1e5311)"><g clip-path="url(#d4d496ce13)"><g clip-path="url(#c3e5622625)"><path fill="#000000" d="M 89.183594 83.390625 L 60.484375 94.269531 C 59.183594 94.761719 57.878906 94.0625 57.519531 92.726562 L 51.320312 69.804688 C 50.960938 68.46875 51.664062 66.996094 52.964844 66.503906 L 81.707031 55.613281 C 83.007812 55.117188 84.355469 55.808594 84.714844 57.144531 L 90.914062 80.066406 C 91.273438 81.402344 90.484375 82.898438 89.183594 83.390625 Z M 53.074219 66.945312 C 52.007812 67.351562 51.433594 68.554688 51.730469 69.648438 L 57.929688 92.570312 C 58.226562 93.664062 59.28125 94.238281 60.34375 93.835938 L 89.101562 82.941406 C 90.164062 82.535156 90.800781 81.316406 90.503906 80.222656 L 84.304688 57.300781 C 84.007812 56.207031 82.894531 55.648438 81.828125 56.050781 Z M 53.074219 66.945312 " fill-opacity="1" fill-rule="nonzero"/></g></g></g><g clip-path="url(#224cb6984c)"><g clip-path="url(#b4e169366b)"><g clip-path="url(#f5ea683039)"><path fill="#ffa52d" d="M 85.179688 80.046875 C 85.507812 81.261719 84.816406 82.613281 83.628906 83.0625 L 65.152344 90.398438 C 63.96875 90.84375 62.84375 90.160156 62.515625 88.941406 L 57.527344 71.359375 C 57.195312 70.140625 57.980469 68.773438 59.164062 68.324219 L 77.597656 61.347656 C 78.78125 60.898438 79.898438 61.347656 80.226562 62.566406 Z M 85.179688 80.046875 " fill-opacity="1" fill-rule="nonzero"/></g></g></g><g clip-path="url(#5f94cf45ab)"><g clip-path="url(#0c66bcd64a)"><g clip-path="url(#d572a64439)"><path fill="#ffffff" d="M 69.761719 64.3125 L 64.417969 66.335938 C 62.878906 70.5625 61.347656 74.796875 59.6875 78.976562 L 62.152344 87.664062 C 64.203125 79.730469 66.785156 71.945312 69.761719 64.3125 Z M 69.761719 64.3125 " fill-opacity="1" fill-rule="nonzero"/></g></g></g><g clip-path="url(#af62384390)"><g clip-path="url(#c47a929f9b)"><g clip-path="url(#1302c28482)"><path fill="#ffffff" d="M 79.660156 61.621094 C 79.1875 61.199219 78.511719 61.078125 77.796875 61.289062 C 74.464844 70.375 71.367188 79.550781 68.902344 88.910156 L 71.382812 87.921875 C 73.726562 79.039062 76.261719 70.15625 79.660156 61.621094 Z M 79.660156 61.621094 " fill-opacity="1" fill-rule="nonzero"/></g></g></g><g clip-path="url(#544d03b0fc)"><g clip-path="url(#3ad812ad5e)"><g clip-path="url(#997c4d84fb)"><path fill="#ffffff" d="M 82.953125 72.191406 L 81.777344 68.039062 C 79.753906 74.074219 77.878906 80.15625 75.796875 86.171875 L 78.417969 85.132812 C 79.785156 80.769531 81.375 76.484375 82.953125 72.191406 Z M 82.953125 72.191406 " fill-opacity="1" fill-rule="nonzero"/></g></g></g><g clip-path="url(#75d58e38bf)"><g clip-path="url(#08f02cc1e1)"><g clip-path="url(#75fd1e0625)"><path fill="#000000" d="M 83.601562 83.566406 L 65.136719 90.5625 C 63.835938 91.054688 62.464844 90.375 62.105469 89.035156 L 57.335938 71.40625 C 56.972656 70.066406 57.722656 68.582031 59.023438 68.089844 L 77.53125 61.082031 C 78.832031 60.589844 80.246094 61.261719 80.605469 62.597656 L 85.375 80.230469 C 85.734375 81.566406 84.902344 83.074219 83.601562 83.566406 Z M 59.132812 68.535156 C 58.066406 68.9375 57.449219 70.152344 57.746094 71.246094 L 62.515625 88.878906 C 62.808594 89.972656 63.910156 90.535156 64.972656 90.132812 L 83.425781 83.140625 C 84.492188 82.738281 85.121094 81.519531 84.824219 80.425781 L 80.054688 62.792969 C 79.761719 61.699219 78.648438 61.140625 77.585938 61.542969 Z M 59.132812 68.535156 " fill-opacity="1" fill-rule="nonzero"/></g></g></g><g clip-path="url(#30724078a2)"><g clip-path="url(#bcd3fe2ceb)"><g clip-path="url(#2e38574971)"><path fill="#ffa52d" d="M 71.417969 98.3125 L 69.074219 99.195312 L 68.390625 96.660156 C 68.191406 95.929688 67.789062 95.804688 67.078125 96.074219 L 65.75 96.574219 C 65.039062 96.84375 64.363281 97.386719 64.558594 98.117188 L 65.242188 100.648438 L 63.238281 101.410156 C 62.527344 101.679688 61.894531 102.210938 62.089844 102.941406 L 62.449219 104.261719 C 62.644531 104.992188 63.601562 105.644531 64.3125 105.375 L 66.316406 104.617188 L 66.824219 106.492188 C 67.019531 107.222656 68.074219 107.847656 68.785156 107.578125 L 70.011719 107.109375 C 70.722656 106.839844 70.851562 105.765625 70.65625 105.035156 L 70.148438 103.160156 L 72.492188 102.28125 C 73.203125 102.011719 73.460938 100.90625 73.265625 100.175781 L 72.90625 98.851562 C 72.707031 98.121094 72.128906 98.042969 71.417969 98.3125 Z M 71.417969 98.3125 " fill-opacity="1" fill-rule="nonzero"/><path fill="#000000" d="M 70.289062 107.269531 L 68.984375 107.761719 C 68.121094 108.089844 67.050781 107.335938 66.828125 106.511719 L 66.382812 104.859375 L 64.589844 105.539062 C 63.726562 105.867188 62.675781 105.109375 62.453125 104.285156 L 62.097656 102.960938 C 61.894531 102.210938 62.390625 101.511719 63.398438 101.128906 L 65.191406 100.449219 L 64.566406 98.136719 C 64.363281 97.390625 64.847656 96.691406 65.855469 96.308594 L 67.195312 95.804688 C 68.328125 95.378906 68.796875 95.933594 68.945312 96.488281 L 69.574219 98.800781 L 71.632812 98.019531 C 72.761719 97.589844 73.171875 98.160156 73.320312 98.714844 L 73.679688 100.039062 C 73.890625 100.824219 73.714844 102.085938 72.824219 102.425781 L 70.765625 103.207031 L 71.210938 104.863281 C 71.425781 105.648438 71.179688 106.929688 70.289062 107.269531 Z M 63.5 101.574219 C 63.214844 101.683594 62.3125 102.085938 62.507812 102.804688 L 62.863281 104.125 C 63.027344 104.726562 63.855469 105.328125 64.453125 105.101562 L 66.671875 104.261719 L 67.238281 106.355469 C 67.402344 106.953125 68.226562 107.558594 68.824219 107.332031 L 70.113281 106.84375 C 70.691406 106.625 70.824219 105.65625 70.660156 105.058594 L 70.09375 102.960938 L 72.652344 102 C 73.234375 101.777344 73.433594 100.792969 73.269531 100.195312 L 72.914062 98.875 C 72.804688 98.472656 72.523438 98.160156 71.699219 98.472656 L 69.140625 99.4375 L 68.398438 96.683594 C 68.289062 96.28125 68.070312 95.953125 67.246094 96.265625 L 65.964844 96.75 C 65.683594 96.859375 64.78125 97.261719 64.976562 97.980469 L 65.71875 100.734375 Z M 63.5 101.574219 " fill-opacity="1" fill-rule="nonzero"/></g></g></g><g clip-path="url(#4dba628ed4)"><g clip-path="url(#a129258662)"><g clip-path="url(#63ad1f2cea)"><path fill="#0fa54d" d="M 68.160156 103.21875 C 67.273438 103.554688 66.355469 103.085938 66.109375 102.179688 C 65.863281 101.269531 66.382812 100.257812 67.269531 99.921875 C 68.152344 99.585938 69.074219 100.054688 69.316406 100.960938 C 69.5625 101.871094 69.042969 102.882812 68.160156 103.21875 Z M 67.386719 100.363281 C 66.738281 100.609375 66.359375 101.347656 66.539062 102.015625 C 66.71875 102.679688 67.390625 103.023438 68.039062 102.777344 C 68.6875 102.53125 69.070312 101.789062 68.890625 101.125 C 68.707031 100.457031 68.035156 100.117188 67.386719 100.363281 Z M 67.386719 100.363281 " fill-opacity="1" fill-rule="nonzero"/></g></g></g><g clip-path="url(#c8bca55aac)"><g clip-path="url(#c739d3b79a)"><g clip-path="url(#e536e7bb95)"><path fill="#ffa52d" d="M 75.449219 108.714844 C 75.632812 108.867188 75.652344 109.160156 75.484375 109.367188 L 72.738281 112.789062 C 72.574219 112.996094 72.289062 113.039062 72.105469 112.882812 L 71.828125 112.652344 C 71.640625 112.5 71.625 112.207031 71.789062 112.003906 L 74.535156 108.578125 C 74.699219 108.375 74.988281 108.332031 75.171875 108.484375 Z M 75.449219 108.714844 " fill-opacity="1" fill-rule="nonzero"/></g></g></g><g clip-path="url(#c4f549f74c)"><g clip-path="url(#6e840cef85)"><g clip-path="url(#33ab8808a4)"><path fill="#000000" d="M 72.585938 113.167969 C 72.363281 113.25 72.128906 113.214844 71.957031 113.074219 L 71.679688 112.84375 C 71.546875 112.730469 71.464844 112.566406 71.453125 112.382812 C 71.445312 112.195312 71.503906 112.007812 71.625 111.859375 L 74.371094 108.4375 C 74.609375 108.136719 75.050781 108.074219 75.316406 108.296875 L 75.597656 108.527344 C 75.730469 108.636719 75.8125 108.800781 75.820312 108.988281 C 75.832031 109.175781 75.769531 109.359375 75.652344 109.507812 L 72.902344 112.933594 C 72.820312 113.039062 72.707031 113.121094 72.585938 113.167969 Z M 74.808594 108.644531 C 74.765625 108.660156 74.730469 108.6875 74.703125 108.722656 L 71.953125 112.144531 C 71.914062 112.195312 71.894531 112.253906 71.898438 112.316406 C 71.902344 112.375 71.929688 112.429688 71.972656 112.464844 L 72.25 112.695312 C 72.339844 112.769531 72.492188 112.746094 72.574219 112.648438 L 75.320312 109.222656 C 75.359375 109.175781 75.378906 109.113281 75.375 109.054688 C 75.371094 108.992188 75.347656 108.941406 75.304688 108.902344 L 75.027344 108.671875 C 74.96875 108.625 74.886719 108.613281 74.808594 108.644531 Z M 74.808594 108.644531 " fill-opacity="1" fill-rule="nonzero"/></g></g></g><g clip-path="url(#1e2dca5d13)"><g clip-path="url(#e87d3e9b5e)"><g clip-path="url(#e98b1b2253)"><path fill="#ffa52d" d="M 79.574219 107.707031 C 79.761719 107.859375 79.777344 108.152344 79.613281 108.359375 L 76.863281 111.78125 C 76.699219 111.988281 76.414062 112.03125 76.230469 111.875 L 75.949219 111.644531 C 75.765625 111.492188 75.75 111.199219 75.914062 110.996094 L 78.660156 107.570312 C 78.828125 107.367188 79.113281 107.324219 79.296875 107.476562 Z M 79.574219 107.707031 " fill-opacity="1" fill-rule="nonzero"/></g></g></g><g clip-path="url(#075faa05e8)"><g clip-path="url(#bc84929926)"><g clip-path="url(#278e6a0154)"><path fill="#000000" d="M 76.710938 112.160156 C 76.488281 112.242188 76.253906 112.207031 76.082031 112.066406 L 75.804688 111.835938 C 75.671875 111.722656 75.589844 111.558594 75.578125 111.375 C 75.570312 111.1875 75.628906 111 75.75 110.851562 L 78.496094 107.429688 C 78.734375 107.132812 79.175781 107.066406 79.441406 107.289062 L 79.722656 107.519531 C 79.855469 107.628906 79.9375 107.792969 79.945312 107.980469 C 79.957031 108.167969 79.898438 108.351562 79.777344 108.5 L 77.027344 111.925781 C 76.945312 112.03125 76.832031 112.113281 76.710938 112.160156 Z M 78.933594 107.636719 C 78.890625 107.652344 78.855469 107.679688 78.828125 107.714844 L 76.078125 111.136719 C 76.039062 111.1875 76.019531 111.246094 76.023438 111.308594 C 76.027344 111.367188 76.054688 111.421875 76.097656 111.457031 L 76.375 111.6875 C 76.464844 111.761719 76.617188 111.738281 76.699219 111.640625 L 79.449219 108.214844 C 79.488281 108.167969 79.503906 108.105469 79.503906 108.046875 C 79.5 107.984375 79.472656 107.933594 79.429688 107.898438 L 79.152344 107.664062 C 79.09375 107.617188 79.011719 107.605469 78.933594 107.636719 Z M 78.933594 107.636719 " fill-opacity="1" fill-rule="nonzero"/></g></g></g><g clip-path="url(#bda355f35f)"><g clip-path="url(#269787ae01)"><g clip-path="url(#7b2ac84065)"><path fill="#000000" d="M 89.644531 113.839844 C 89.542969 113.875 89.433594 113.867188 89.347656 113.800781 L 84.804688 110.421875 C 84.660156 110.316406 84.636719 110.097656 84.75 109.933594 C 84.863281 109.773438 85.074219 109.726562 85.21875 109.835938 L 89.761719 113.214844 C 89.90625 113.324219 89.929688 113.542969 89.816406 113.703125 C 89.769531 113.769531 89.710938 113.8125 89.644531 113.839844 Z M 89.644531 113.839844 " fill-opacity="1" fill-rule="nonzero"/></g></g></g><g clip-path="url(#375d177b7e)"><g clip-path="url(#1ccb3b22d2)"><g clip-path="url(#03e944dfb2)"><path fill="#000000" d="M 91.042969 111.851562 C 90.945312 111.890625 90.835938 111.882812 90.75 111.816406 L 86.207031 108.4375 C 86.0625 108.328125 86.035156 108.109375 86.152344 107.949219 C 86.265625 107.785156 86.476562 107.742188 86.621094 107.847656 L 91.164062 111.230469 C 91.308594 111.335938 91.332031 111.554688 91.21875 111.71875 C 91.171875 111.78125 91.109375 111.828125 91.042969 111.851562 Z M 91.042969 111.851562 " fill-opacity="1" fill-rule="nonzero"/></g></g></g><g clip-path="url(#28195c5e06)"><g clip-path="url(#edd451ae99)"><g clip-path="url(#3189a664a7)"><path fill="#000000" d="M 92.445312 109.867188 C 92.347656 109.90625 92.234375 109.894531 92.148438 109.832031 L 87.605469 106.449219 C 87.460938 106.34375 87.4375 106.125 87.550781 105.960938 C 87.667969 105.800781 87.875 105.753906 88.019531 105.863281 L 92.5625 109.242188 C 92.707031 109.351562 92.734375 109.570312 92.617188 109.730469 C 92.570312 109.796875 92.511719 109.84375 92.445312 109.867188 Z M 92.445312 109.867188 " fill-opacity="1" fill-rule="nonzero"/></g></g></g><g clip-path="url(#e60aa44f11)"><g clip-path="url(#24e28a8e70)"><g clip-path="url(#05b7b355e7)"><path fill="#000000" d="M 93.847656 107.882812 C 93.746094 107.917969 93.636719 107.910156 93.550781 107.84375 L 89.007812 104.464844 C 88.863281 104.355469 88.839844 104.136719 88.953125 103.976562 C 89.066406 103.8125 89.277344 103.769531 89.421875 103.878906 L 93.964844 107.257812 C 94.109375 107.367188 94.132812 107.582031 94.019531 107.746094 C 93.972656 107.8125 93.914062 107.855469 93.847656 107.882812 Z M 93.847656 107.882812 " fill-opacity="1" fill-rule="nonzero"/></g></g></g><g clip-path="url(#8504a18090)"><g clip-path="url(#ccc7fe67b8)"><g clip-path="url(#9f90d6c452)"><path fill="#000000" d="M 95.25 105.894531 C 95.148438 105.933594 95.039062 105.921875 94.953125 105.859375 L 90.410156 102.480469 C 90.265625 102.371094 90.238281 102.152344 90.355469 101.992188 C 90.46875 101.828125 90.679688 101.785156 90.824219 101.890625 L 95.367188 105.273438 C 95.511719 105.378906 95.535156 105.597656 95.421875 105.761719 C 95.375 105.824219 95.3125 105.871094 95.25 105.894531 Z M 95.25 105.894531 " fill-opacity="1" fill-rule="nonzero"/></g></g></g><g clip-path="url(#0ce29e32a2)"><g clip-path="url(#b7b506a3cb)"><g clip-path="url(#73abc8e305)"><path fill="#000000" d="M 96.648438 103.910156 C 96.550781 103.945312 96.4375 103.9375 96.351562 103.871094 L 91.808594 100.492188 C 91.664062 100.382812 91.640625 100.164062 91.753906 100.003906 C 91.871094 99.84375 92.082031 99.796875 92.226562 99.90625 L 96.765625 103.285156 C 96.910156 103.394531 96.9375 103.613281 96.820312 103.773438 C 96.777344 103.839844 96.714844 103.882812 96.648438 103.910156 Z M 96.648438 103.910156 " fill-opacity="1" fill-rule="nonzero"/></g></g></g><g clip-path="url(#a250730f40)"><g clip-path="url(#8a0ed90b7e)"><g clip-path="url(#b8072aac18)"><path fill="#0fa54d" d="M 87.851562 96.664062 C 88.152344 97.78125 87.515625 99.015625 86.429688 99.425781 C 85.347656 99.839844 84.222656 99.269531 83.921875 98.152344 C 83.621094 97.039062 84.253906 95.800781 85.339844 95.390625 C 86.425781 94.980469 87.546875 95.550781 87.851562 96.664062 Z M 87.851562 96.664062 " fill-opacity="1" fill-rule="nonzero"/></g></g></g><g clip-path="url(#24a3ada53e)"><g clip-path="url(#0c36d71b78)"><g clip-path="url(#08edeafdaa)"><path fill="#000000" d="M 86.492188 99.648438 C 85.289062 100.101562 84.039062 99.46875 83.707031 98.234375 C 83.371094 97 84.078125 95.625 85.28125 95.171875 C 86.480469 94.714844 87.730469 95.347656 88.0625 96.582031 C 88.398438 97.816406 87.691406 99.191406 86.492188 99.648438 Z M 85.398438 95.613281 C 84.433594 95.976562 83.867188 97.082031 84.136719 98.070312 C 84.402344 99.0625 85.40625 99.574219 86.371094 99.207031 C 87.335938 98.839844 87.902344 97.738281 87.636719 96.746094 C 87.367188 95.753906 86.363281 95.246094 85.398438 95.613281 Z M 85.398438 95.613281 " fill-opacity="1" fill-rule="nonzero"/></g></g></g><g clip-path="url(#991fc73a22)"><g clip-path="url(#1816f64f22)"><g clip-path="url(#e0626709d1)"><path fill="#0fa54d" d="M 92.617188 90.269531 C 92.917969 91.382812 92.285156 92.621094 91.199219 93.03125 C 90.113281 93.441406 88.992188 92.871094 88.691406 91.757812 C 88.386719 90.644531 89.023438 89.40625 90.109375 88.996094 C 91.191406 88.582031 92.316406 89.152344 92.617188 90.269531 Z M 92.617188 90.269531 " fill-opacity="1" fill-rule="nonzero"/><path fill="#000000" d="M 91.257812 93.25 C 90.058594 93.707031 88.808594 93.074219 88.476562 91.839844 C 88.140625 90.605469 88.847656 89.230469 90.050781 88.773438 C 91.25 88.320312 92.5 88.953125 92.832031 90.1875 C 93.167969 91.421875 92.460938 92.796875 91.257812 93.25 Z M 90.167969 89.214844 C 89.203125 89.582031 88.636719 90.683594 88.902344 91.675781 C 89.171875 92.667969 90.175781 93.175781 91.140625 92.808594 C 92.105469 92.445312 92.671875 91.339844 92.402344 90.351562 C 92.136719 89.359375 91.132812 88.847656 90.167969 89.214844 Z M 90.167969 89.214844 " fill-opacity="1" fill-rule="nonzero"/></g></g></g><g clip-path="url(#9d2d9bee8c)"><g clip-path="url(#abacbafd2c)"><g clip-path="url(#d496e636f3)"><path fill="#000000" d="M 74.308594 60.839844 L 61.4375 65.714844 C 61.320312 65.761719 61.195312 65.699219 61.164062 65.578125 C 61.128906 65.453125 61.199219 65.320312 61.316406 65.273438 L 74.191406 60.398438 C 74.308594 60.351562 74.429688 60.414062 74.464844 60.535156 C 74.496094 60.660156 74.429688 60.792969 74.308594 60.839844 Z M 74.308594 60.839844 " fill-opacity="1" fill-rule="nonzero"/></g></g></g><g clip-path="url(#48e013ccd0)"><g clip-path="url(#4911a250a1)"><g clip-path="url(#e2da16301f)"><path fill="#000000" d="M 56.117188 74.214844 C 56.195312 74.496094 56.03125 74.8125 55.753906 74.917969 C 55.480469 75.023438 55.191406 74.875 55.117188 74.59375 C 55.039062 74.308594 55.199219 73.992188 55.476562 73.886719 C 55.753906 73.785156 56.039062 73.929688 56.117188 74.214844 Z M 56.117188 74.214844 " fill-opacity="1" fill-rule="nonzero"/></g></g></g><g clip-path="url(#e19c48eb12)"><g clip-path="url(#73dfea68c6)"><g clip-path="url(#db6e0879bb)"><path fill="#000000" d="M 57.574219 75.925781 L 55 76.902344 C 54.882812 76.945312 54.761719 76.882812 54.726562 76.761719 C 54.695312 76.640625 54.765625 76.507812 54.882812 76.460938 L 57.457031 75.484375 C 57.574219 75.441406 57.699219 75.503906 57.730469 75.625 C 57.761719 75.746094 57.695312 75.882812 57.574219 75.925781 Z M 57.574219 75.925781 " fill-opacity="1" fill-rule="nonzero"/></g></g></g><g clip-path="url(#0fb435ca43)"><g clip-path="url(#cdf61515bb)"><g clip-path="url(#6c4ede6e5f)"><path fill="#000000" d="M 86.421875 52.855469 L 48.234375 67.324219 L 48.117188 66.882812 L 86.304688 52.414062 Z M 86.421875 52.855469 " fill-opacity="1" fill-rule="nonzero"/></g></g></g><g clip-path="url(#0274941ce6)"><g clip-path="url(#fda15518dc)"><g clip-path="url(#dc873075b1)"><path fill="#000000" d="M 66.328125 126.382812 L 66.324219 126.382812 C 64.972656 126.746094 63.644531 125.988281 63.292969 124.675781 L 47.558594 66.492188 C 47.1875 65.117188 48.199219 63.933594 49.4375 63.464844 L 83.308594 50.628906 C 84.65625 50.117188 85.921875 50.707031 86.269531 51.996094 L 99.757812 101.820312 L 99.992188 102.71875 C 100.125 103.21875 100.273438 103.785156 100.339844 104.027344 C 101.585938 108.636719 98.96875 113.859375 94.480469 115.558594 Z M 49.546875 63.90625 C 48.554688 64.285156 47.660156 65.199219 47.96875 66.335938 L 63.703125 124.519531 C 63.992188 125.59375 65.054688 126.179688 66.433594 125.6875 L 66.492188 125.910156 L 66.296875 125.726562 L 94.40625 115.011719 C 98.660156 113.398438 101.125 108.546875 99.945312 104.183594 C 99.878906 103.9375 99.710938 103.378906 99.578125 102.875 L 99.328125 101.984375 L 85.832031 52.160156 C 85.550781 51.125 84.527344 50.652344 83.425781 51.070312 Z M 49.546875 63.90625 " fill-opacity="1" fill-rule="nonzero"/></g></g></g><g clip-path="url(#59ebd1c9a7)"><g clip-path="url(#344d0686f8)"><g clip-path="url(#4b5401d575)"><path fill="#000000" d="M 48.816406 60.679688 C 48.890625 60.707031 48.890625 60.75 48.816406 60.777344 L 46.527344 61.644531 C 46.453125 61.675781 46.328125 61.675781 46.253906 61.652344 L 45.496094 61.398438 C 45.417969 61.371094 45.417969 61.328125 45.492188 61.300781 L 47.78125 60.429688 C 47.855469 60.402344 47.980469 60.398438 48.054688 60.425781 Z M 48.816406 60.679688 " fill-opacity="1" fill-rule="nonzero"/><path fill="#000000" d="M 46.796875 61.78125 C 46.511719 61.859375 46.136719 61.855469 45.886719 61.769531 L 45.714844 61.710938 C 45.429688 61.617188 45.382812 61.445312 45.378906 61.351562 C 45.378906 61.257812 45.417969 61.082031 45.703125 60.976562 L 47.410156 60.328125 C 47.691406 60.222656 48.140625 60.214844 48.421875 60.308594 L 48.59375 60.367188 C 48.882812 60.460938 48.925781 60.632812 48.929688 60.726562 C 48.929688 60.820312 48.890625 60.996094 48.605469 61.101562 L 46.898438 61.75 C 46.867188 61.761719 46.832031 61.773438 46.796875 61.78125 Z M 46.035156 61.335938 C 46.21875 61.398438 46.542969 61.398438 46.738281 61.324219 L 48.273438 60.742188 C 48.089844 60.679688 47.765625 60.679688 47.570312 60.753906 Z M 46.035156 61.335938 " fill-opacity="1" fill-rule="nonzero"/></g></g></g><g clip-path="url(#6e8fc5477b)"><g clip-path="url(#6f304c12d6)"><g clip-path="url(#e461a3df5b)"><path fill="#0fa54d" d="M 47.679688 61.109375 C 47.753906 61.136719 47.753906 61.183594 47.679688 61.210938 L 46.527344 61.648438 C 46.453125 61.675781 46.328125 61.679688 46.253906 61.652344 L 45.496094 61.398438 C 45.417969 61.371094 45.417969 61.328125 45.492188 61.300781 L 46.683594 60.847656 C 46.761719 60.820312 46.882812 60.816406 46.957031 60.84375 Z M 47.679688 61.109375 " fill-opacity="1" fill-rule="nonzero"/></g></g></g><g clip-path="url(#156384bc11)"><g clip-path="url(#c93effca92)"><g clip-path="url(#f249fff8b1)"><path fill="#000000" d="M 55.152344 62.488281 C 55.03125 62.523438 54.914062 62.449219 54.882812 62.324219 L 54.769531 61.917969 L 52.644531 61.125 C 52.527344 61.078125 52.460938 60.949219 52.503906 60.832031 C 52.550781 60.714844 52.675781 60.65625 52.792969 60.699219 L 55.015625 61.539062 C 55.085938 61.5625 55.144531 61.621094 55.160156 61.691406 L 55.304688 62.210938 C 55.335938 62.332031 55.273438 62.457031 55.152344 62.488281 Z M 55.152344 62.488281 " fill-opacity="1" fill-rule="nonzero"/></g></g></g><g clip-path="url(#6ed1d28be0)"><g clip-path="url(#a838a83ae8)"><g clip-path="url(#fe075bde6a)"><path fill="#000000" d="M 53.464844 62.945312 C 53.34375 62.976562 53.226562 62.902344 53.195312 62.78125 L 53.082031 62.375 L 51.105469 61.660156 C 50.984375 61.617188 50.898438 61.492188 50.945312 61.375 C 50.988281 61.253906 51.105469 61.199219 51.222656 61.246094 L 53.296875 62.003906 C 53.363281 62.027344 53.457031 62.074219 53.472656 62.144531 L 53.617188 62.667969 C 53.648438 62.789062 53.585938 62.914062 53.464844 62.945312 Z M 53.464844 62.945312 " fill-opacity="1" fill-rule="nonzero"/></g></g></g><g clip-path="url(#3ed36463aa)"><g clip-path="url(#3463e89979)"><g clip-path="url(#249441ef5d)"><path fill="#000000" d="M 52.175781 63.765625 C 52.054688 63.800781 51.941406 63.726562 51.90625 63.601562 L 51.796875 63.195312 L 49.675781 62.402344 C 49.558594 62.355469 49.492188 62.226562 49.535156 62.109375 C 49.582031 61.988281 49.707031 61.929688 49.828125 61.976562 L 52.046875 62.8125 C 52.113281 62.839844 52.167969 62.898438 52.1875 62.96875 L 52.328125 63.488281 C 52.363281 63.609375 52.300781 63.734375 52.175781 63.765625 Z M 52.175781 63.765625 " fill-opacity="1" fill-rule="nonzero"/></g></g></g><g fill="#231f20" fill-opacity="1"><g transform="translate(28.536917, 19.030632)"><g><path d="M 4.34375 0.125 C 3.5625 0.125 2.882812 -0.0234375 2.3125 -0.328125 C 1.738281 -0.640625 1.304688 -1.046875 1.015625 -1.546875 C 0.722656 -2.046875 0.578125 -2.566406 0.578125 -3.109375 L 0.578125 -3.21875 L 2.96875 -3.21875 L 2.96875 -3.125 C 2.96875 -2.78125 3.085938 -2.46875 3.328125 -2.1875 C 3.566406 -1.914062 3.921875 -1.78125 4.390625 -1.78125 C 4.796875 -1.78125 5.117188 -1.878906 5.359375 -2.078125 C 5.597656 -2.285156 5.71875 -2.554688 5.71875 -2.890625 C 5.71875 -3.191406 5.609375 -3.429688 5.390625 -3.609375 C 5.179688 -3.796875 4.921875 -3.921875 4.609375 -3.984375 L 3.5 -4.203125 C 2.84375 -4.359375 2.226562 -4.640625 1.65625 -5.046875 C 1.09375 -5.453125 0.8125 -6.125 0.8125 -7.0625 C 0.8125 -7.664062 0.957031 -8.1875 1.25 -8.625 C 1.539062 -9.0625 1.945312 -9.394531 2.46875 -9.625 C 3 -9.863281 3.59375 -9.984375 4.25 -9.984375 C 5.007812 -9.984375 5.660156 -9.835938 6.203125 -9.546875 C 6.753906 -9.265625 7.171875 -8.890625 7.453125 -8.421875 C 7.734375 -7.960938 7.875 -7.484375 7.875 -6.984375 L 7.875 -6.90625 L 5.484375 -6.90625 L 5.484375 -6.953125 C 5.484375 -7.242188 5.378906 -7.519531 5.171875 -7.78125 C 4.960938 -8.039062 4.628906 -8.171875 4.171875 -8.171875 C 3.816406 -8.171875 3.53125 -8.070312 3.3125 -7.875 C 3.101562 -7.675781 3 -7.421875 3 -7.109375 C 3 -6.796875 3.113281 -6.550781 3.34375 -6.375 C 3.582031 -6.195312 3.867188 -6.078125 4.203125 -6.015625 L 5.328125 -5.765625 C 6.066406 -5.609375 6.695312 -5.304688 7.21875 -4.859375 C 7.738281 -4.421875 8 -3.785156 8 -2.953125 C 8 -2.335938 7.835938 -1.796875 7.515625 -1.328125 C 7.203125 -0.859375 6.769531 -0.5 6.21875 -0.25 C 5.664062 0 5.039062 0.125 4.34375 0.125 Z M 4.34375 0.125 "/></g></g></g><g fill="#231f20" fill-opacity="1"><g transform="translate(36.99954, 19.030632)"><g><path d="M 0.828125 -9.796875 L 3.015625 -9.796875 L 3.015625 0 L 0.828125 0 Z M 0.828125 -9.796875 "/></g></g></g><g fill="#231f20" fill-opacity="1"><g transform="translate(40.860173, 19.030632)"><g><path d="M 4.34375 0.125 C 3.5625 0.125 2.882812 -0.0234375 2.3125 -0.328125 C 1.738281 -0.640625 1.304688 -1.046875 1.015625 -1.546875 C 0.722656 -2.046875 0.578125 -2.566406 0.578125 -3.109375 L 0.578125 -3.21875 L 2.96875 -3.21875 L 2.96875 -3.125 C 2.96875 -2.78125 3.085938 -2.46875 3.328125 -2.1875 C 3.566406 -1.914062 3.921875 -1.78125 4.390625 -1.78125 C 4.796875 -1.78125 5.117188 -1.878906 5.359375 -2.078125 C 5.597656 -2.285156 5.71875 -2.554688 5.71875 -2.890625 C 5.71875 -3.191406 5.609375 -3.429688 5.390625 -3.609375 C 5.179688 -3.796875 4.921875 -3.921875 4.609375 -3.984375 L 3.5 -4.203125 C 2.84375 -4.359375 2.226562 -4.640625 1.65625 -5.046875 C 1.09375 -5.453125 0.8125 -6.125 0.8125 -7.0625 C 0.8125 -7.664062 0.957031 -8.1875 1.25 -8.625 C 1.539062 -9.0625 1.945312 -9.394531 2.46875 -9.625 C 3 -9.863281 3.59375 -9.984375 4.25 -9.984375 C 5.007812 -9.984375 5.660156 -9.835938 6.203125 -9.546875 C 6.753906 -9.265625 7.171875 -8.890625 7.453125 -8.421875 C 7.734375 -7.960938 7.875 -7.484375 7.875 -6.984375 L 7.875 -6.90625 L 5.484375 -6.90625 L 5.484375 -6.953125 C 5.484375 -7.242188 5.378906 -7.519531 5.171875 -7.78125 C 4.960938 -8.039062 4.628906 -8.171875 4.171875 -8.171875 C 3.816406 -8.171875 3.53125 -8.070312 3.3125 -7.875 C 3.101562 -7.675781 3 -7.421875 3 -7.109375 C 3 -6.796875 3.113281 -6.550781 3.34375 -6.375 C 3.582031 -6.195312 3.867188 -6.078125 4.203125 -6.015625 L 5.328125 -5.765625 C 6.066406 -5.609375 6.695312 -5.304688 7.21875 -4.859375 C 7.738281 -4.421875 8 -3.785156 8 -2.953125 C 8 -2.335938 7.835938 -1.796875 7.515625 -1.328125 C 7.203125 -0.859375 6.769531 -0.5 6.21875 -0.25 C 5.664062 0 5.039062 0.125 4.34375 0.125 Z M 4.34375 0.125 "/></g></g></g><g fill="#231f20" fill-opacity="1"><g transform="translate(49.322796, 19.030632)"><g><path d="M 7.796875 -7.890625 L 5.234375 -7.890625 L 5.234375 0 L 3.0625 0 L 3.0625 -7.890625 L 0.484375 -7.890625 L 0.484375 -9.796875 L 7.796875 -9.796875 Z M 7.796875 -7.890625 "/></g></g></g><g fill="#231f20" fill-opacity="1"><g transform="translate(57.631556, 19.030632)"><g><path d="M 2.921875 -7.890625 L 2.921875 -5.796875 L 6.640625 -5.796875 L 6.640625 -4.109375 L 2.921875 -4.109375 L 2.921875 -1.90625 L 7.34375 -1.90625 L 7.34375 0 L 0.734375 0 L 0.734375 -9.796875 L 7.34375 -9.796875 L 7.34375 -7.890625 Z M 2.921875 -7.890625 "/></g></g></g><g fill="#231f20" fill-opacity="1"><g transform="translate(65.548657, 19.030632)"><g><path d="M 0.734375 -9.796875 L 3.96875 -9.796875 L 5.890625 -4.234375 L 5.921875 -4.234375 L 7.84375 -9.796875 L 11.09375 -9.796875 L 11.09375 0 L 8.953125 0 L 8.953125 -6.71875 L 8.890625 -6.71875 L 6.59375 0 L 5.21875 0 L 2.921875 -6.71875 L 2.859375 -6.71875 L 2.859375 0 L 0.734375 0 Z M 0.734375 -9.796875 "/></g></g></g><g fill="#231f20" fill-opacity="1"><g transform="translate(77.368353, 19.030632)"><g><path d="M 6.296875 -2.265625 L 3.15625 -2.265625 L 2.46875 0 L 0.25 0 L 3.734375 -9.796875 L 5.765625 -9.796875 L 9.21875 0 L 7 0 Z M 5.765625 -3.921875 L 4.75 -7.09375 L 4.671875 -7.09375 L 3.6875 -3.921875 Z M 5.765625 -3.921875 "/></g></g></g><g fill="#231f20" fill-opacity="1"><g transform="translate(86.782146, 19.030632)"><g/></g></g><g fill="#231f20" fill-opacity="1"><g transform="translate(89.999346, 19.030632)"><g><path d="M 0.734375 -9.796875 L 4.59375 -9.796875 C 5.457031 -9.796875 6.21875 -9.601562 6.875 -9.21875 C 7.539062 -8.832031 8.054688 -8.273438 8.421875 -7.546875 C 8.796875 -6.816406 8.984375 -5.941406 8.984375 -4.921875 C 8.984375 -3.890625 8.796875 -3.003906 8.421875 -2.265625 C 8.046875 -1.523438 7.523438 -0.960938 6.859375 -0.578125 C 6.191406 -0.203125 5.425781 -0.015625 4.5625 -0.015625 L 0.734375 -0.015625 Z M 4.15625 -1.96875 C 4.914062 -1.96875 5.519531 -2.1875 5.96875 -2.625 C 6.414062 -3.0625 6.640625 -3.828125 6.640625 -4.921875 C 6.640625 -6.015625 6.414062 -6.78125 5.96875 -7.21875 C 5.53125 -7.65625 4.925781 -7.875 4.15625 -7.875 L 2.84375 -7.875 L 2.84375 -1.96875 Z M 4.15625 -1.96875 "/></g></g></g><g fill="#231f20" fill-opacity="1"><g transform="translate(99.469091, 19.030632)"><g><path d="M 2.921875 -7.890625 L 2.921875 -5.796875 L 6.640625 -5.796875 L 6.640625 -4.109375 L 2.921875 -4.109375 L 2.921875 -1.90625 L 7.34375 -1.90625 L 7.34375 0 L 0.734375 0 L 0.734375 -9.796875 L 7.34375 -9.796875 L 7.34375 -7.890625 Z M 2.921875 -7.890625 "/></g></g></g><g fill="#231f20" fill-opacity="1"><g transform="translate(24.672168, 38.459463)"><g><path d="M 2.921875 -7.890625 L 2.921875 -5.796875 L 6.640625 -5.796875 L 6.640625 -4.109375 L 2.921875 -4.109375 L 2.921875 -1.90625 L 7.34375 -1.90625 L 7.34375 0 L 0.734375 0 L 0.734375 -9.796875 L 7.34375 -9.796875 L 7.34375 -7.890625 Z M 2.921875 -7.890625 "/></g></g></g><g fill="#231f20" fill-opacity="1"><g transform="translate(32.589269, 38.459463)"><g><path d="M 3.484375 -4.890625 L 0.328125 -9.796875 L 2.71875 -9.796875 L 4.734375 -6.4375 L 4.828125 -6.4375 L 6.875 -9.796875 L 9.25 -9.796875 L 6.0625 -4.890625 L 9.25 0 L 6.875 0 L 4.828125 -3.375 L 4.734375 -3.375 L 2.71875 0 L 0.328125 0 Z M 3.484375 -4.890625 "/></g></g></g><g fill="#231f20" fill-opacity="1"><g transform="translate(42.114965, 38.459463)"><g><path d="M 4.453125 -9.796875 C 5.222656 -9.796875 5.875 -9.632812 6.40625 -9.3125 C 6.945312 -9 7.347656 -8.578125 7.609375 -8.046875 C 7.867188 -7.523438 8 -6.960938 8 -6.359375 C 8 -5.765625 7.867188 -5.210938 7.609375 -4.703125 C 7.359375 -4.191406 6.960938 -3.78125 6.421875 -3.46875 C 5.890625 -3.164062 5.234375 -3.015625 4.453125 -3.015625 L 2.859375 -3.015625 L 2.859375 0 L 0.734375 0 L 0.734375 -9.796875 Z M 4.09375 -4.8125 C 4.601562 -4.8125 5.03125 -4.929688 5.375 -5.171875 C 5.71875 -5.410156 5.890625 -5.804688 5.890625 -6.359375 C 5.890625 -6.921875 5.71875 -7.3125 5.375 -7.53125 C 5.03125 -7.757812 4.601562 -7.875 4.09375 -7.875 L 2.859375 -7.875 L 2.859375 -4.8125 Z M 4.09375 -4.8125 "/></g></g></g><g fill="#231f20" fill-opacity="1"><g transform="translate(50.311822, 38.459463)"><g><path d="M 2.921875 -7.890625 L 2.921875 -5.796875 L 6.640625 -5.796875 L 6.640625 -4.109375 L 2.921875 -4.109375 L 2.921875 -1.90625 L 7.34375 -1.90625 L 7.34375 0 L 0.734375 0 L 0.734375 -9.796875 L 7.34375 -9.796875 L 7.34375 -7.890625 Z M 2.921875 -7.890625 "/></g></g></g><g fill="#231f20" fill-opacity="1"><g transform="translate(58.228924, 38.459463)"><g><path d="M 4.03125 -3.421875 L 2.890625 -3.421875 L 2.890625 0 L 0.734375 0 L 0.734375 -9.796875 L 4.453125 -9.796875 C 5.222656 -9.796875 5.875 -9.644531 6.40625 -9.34375 C 6.945312 -9.039062 7.347656 -8.644531 7.609375 -8.15625 C 7.867188 -7.664062 8 -7.140625 8 -6.578125 C 8 -5.941406 7.835938 -5.367188 7.515625 -4.859375 C 7.203125 -4.347656 6.738281 -3.96875 6.125 -3.71875 L 8.21875 0 L 5.9375 0 Z M 2.890625 -5.203125 L 4.09375 -5.203125 C 4.601562 -5.203125 5.03125 -5.304688 5.375 -5.515625 C 5.71875 -5.722656 5.890625 -6.078125 5.890625 -6.578125 C 5.890625 -7.046875 5.71875 -7.378906 5.375 -7.578125 C 5.03125 -7.785156 4.601562 -7.890625 4.09375 -7.890625 L 2.890625 -7.890625 Z M 2.890625 -5.203125 "/></g></g></g><g fill="#231f20" fill-opacity="1"><g transform="translate(66.733507, 38.459463)"><g><path d="M 0.828125 -9.796875 L 3.015625 -9.796875 L 3.015625 0 L 0.828125 0 Z M 0.828125 -9.796875 "/></g></g></g><g fill="#231f20" fill-opacity="1"><g transform="translate(70.59414, 38.459463)"><g><path d="M 2.921875 -7.890625 L 2.921875 -5.796875 L 6.640625 -5.796875 L 6.640625 -4.109375 L 2.921875 -4.109375 L 2.921875 -1.90625 L 7.34375 -1.90625 L 7.34375 0 L 0.734375 0 L 0.734375 -9.796875 L 7.34375 -9.796875 L 7.34375 -7.890625 Z M 2.921875 -7.890625 "/></g></g></g><g fill="#231f20" fill-opacity="1"><g transform="translate(78.511242, 38.459463)"><g><path d="M 0.734375 -9.796875 L 3.265625 -9.796875 L 6.84375 -3.34375 L 6.875 -3.34375 L 6.875 -9.796875 L 9.03125 -9.796875 L 9.03125 0.015625 L 6.46875 0.015625 L 2.921875 -6.1875 L 2.875 -6.1875 L 2.875 0.015625 L 0.734375 0.015625 Z M 0.734375 -9.796875 "/></g></g></g><g fill="#231f20" fill-opacity="1"><g transform="translate(88.274733, 38.459463)"><g><path d="M 5.015625 0.125 C 4.078125 0.125 3.269531 -0.101562 2.59375 -0.5625 C 1.914062 -1.03125 1.398438 -1.648438 1.046875 -2.421875 C 0.703125 -3.191406 0.53125 -4.03125 0.53125 -4.9375 C 0.53125 -5.84375 0.703125 -6.675781 1.046875 -7.4375 C 1.398438 -8.207031 1.914062 -8.820312 2.59375 -9.28125 C 3.269531 -9.75 4.078125 -9.984375 5.015625 -9.984375 C 6.160156 -9.984375 7.097656 -9.644531 7.828125 -8.96875 C 8.554688 -8.300781 9.03125 -7.4375 9.25 -6.375 L 7.125 -6.375 C 7.019531 -6.863281 6.78125 -7.269531 6.40625 -7.59375 C 6.039062 -7.914062 5.585938 -8.078125 5.046875 -8.078125 C 4.296875 -8.078125 3.734375 -7.785156 3.359375 -7.203125 C 2.984375 -6.617188 2.796875 -5.863281 2.796875 -4.9375 C 2.796875 -3.988281 2.984375 -3.222656 3.359375 -2.640625 C 3.734375 -2.066406 4.296875 -1.78125 5.046875 -1.78125 C 5.578125 -1.78125 6.019531 -1.9375 6.375 -2.25 C 6.738281 -2.570312 6.984375 -2.953125 7.109375 -3.390625 L 9.1875 -3.390625 C 8.976562 -2.359375 8.515625 -1.515625 7.796875 -0.859375 C 7.078125 -0.203125 6.148438 0.125 5.015625 0.125 Z M 5.015625 0.125 "/></g></g></g><g fill="#231f20" fill-opacity="1"><g transform="translate(97.996252, 38.459463)"><g><path d="M 0.828125 -9.796875 L 3.015625 -9.796875 L 3.015625 0 L 0.828125 0 Z M 0.828125 -9.796875 "/></g></g></g><g fill="#231f20" fill-opacity="1"><g transform="translate(101.856886, 38.459463)"><g><path d="M 6.296875 -2.265625 L 3.15625 -2.265625 L 2.46875 0 L 0.25 0 L 3.734375 -9.796875 L 5.765625 -9.796875 L 9.21875 0 L 7 0 Z M 5.765625 -3.921875 L 4.75 -7.09375 L 4.671875 -7.09375 L 3.6875 -3.921875 Z M 5.765625 -3.921875 "/></g></g></g></svg>